<?xml version="1.0" encoding="UTF-8" standalone="no"?>
<svg xmlns:ffdec="https://www.free-decompiler.com/flash" xmlns:xlink="http://www.w3.org/1999/xlink" ffdec:objectType="shape" height="30.8px" width="20.8px" xmlns="http://www.w3.org/2000/svg">
  <g transform="matrix(1.0, 0.0, 0.0, 1.0, 10.4, 15.4)">
    <path d="M2.0 -14.9 L2.35 -14.75 2.45 -14.75 4.5 -13.5 6.3 -11.85 Q11.15 -6.75 10.25 2.35 9.2 12.95 6.7 13.95 L3.1 15.0 0.65 15.25 0.5 15.25 0.35 15.25 0.25 15.25 0.1 15.25 -1.5 15.4 Q-2.65 15.45 -5.85 14.1 -8.2 13.1 -9.35 8.95 L-10.0 5.55 Q-11.0 -1.45 -9.35 -6.7 L-9.25 -7.1 Q-7.4 -12.5 -3.8 -14.55 L-3.4 -14.75 -3.1 -14.9 -2.5 -15.1 -0.8 -15.35 1.45 -15.1 2.0 -14.9" fill="#a36a6a" fill-rule="evenodd" stroke="none"/>
    <path d="M0.1 15.25 L-1.15 15.4 Q-2.0 15.45 -4.45 14.1 -6.25 13.1 -7.15 8.95 L-7.65 5.55 Q-8.4 -1.45 -7.15 -6.7 L-7.05 -7.1 Q-5.65 -12.5 -2.9 -14.55 L-2.35 -14.9 -0.6 -15.35 -0.55 -14.9 0.1 -10.05 Q0.65 -5.6 0.45 -3.8 0.2 -1.95 -0.1 5.65 -0.45 13.4 0.1 15.25" fill="#ffffff" fill-rule="evenodd" stroke="none"/>
    <path d="M-0.6 -15.35 Q0.45 -15.5 1.55 -14.9 1.65 -14.85 1.8 -14.75 L1.9 -14.75 3.45 -13.5 Q8.65 -8.3 7.85 2.35 7.05 12.95 5.15 13.95 L2.4 15.0 0.5 15.25 0.4 15.25 0.3 15.25 0.2 15.25 0.1 15.25 Q-0.45 13.4 -0.1 5.65 0.2 -1.95 0.45 -3.8 0.65 -5.6 0.1 -10.05 L-0.55 -14.9 -0.6 -15.35" fill="#e0cbcb" fill-rule="evenodd" stroke="none"/>
  </g>
</svg>
