<?xml version="1.0" encoding="UTF-8" standalone="no"?>
<svg xmlns:ffdec="https://www.free-decompiler.com/flash" xmlns:xlink="http://www.w3.org/1999/xlink" ffdec:objectType="shape" height="19.0px" width="19.0px" xmlns="http://www.w3.org/2000/svg">
  <g transform="matrix(1.0, 0.0, 0.0, 1.0, 9.3, 11.5)">
    <path d="M6.9 -8.7 Q9.7 -5.9 9.7 -2.0 L9.7 -1.5 9.7 -1.15 9.7 -1.0 9.35 0.7 9.3 1.05 9.2 1.35 9.15 1.35 9.1 1.5 9.05 1.55 Q8.4 3.25 6.9 4.7 4.1 7.5 0.2 7.5 -3.7 7.5 -6.5 4.7 -9.3 1.9 -9.3 -2.0 -9.3 -5.9 -6.5 -8.7 -4.85 -10.3 -2.8 -11.0 L-2.45 -11.05 -1.75 -11.25 -1.5 -11.35 -1.45 -11.4 0.2 -11.5 Q4.1 -11.5 6.9 -8.7" fill="#a36a6a" fill-rule="evenodd" stroke="none"/>
    <path d="M-1.35 -9.8 L-0.6 -9.85 Q2.65 -9.85 4.95 -7.55 7.3 -5.25 7.3 -2.0 L7.3 -1.5 6.2 -0.7 Q4.25 0.75 2.6 0.75 -1.65 0.75 -3.45 -1.6 -4.55 -3.0 -4.55 -4.7 -4.55 -6.3 -2.95 -8.0 L-1.35 -9.7 -1.35 -9.8" fill="#ffffff" fill-rule="evenodd" stroke="none"/>
    <path d="M7.3 -1.5 L7.25 -1.3 6.9 0.45 6.9 0.55 6.85 0.7 6.8 0.8 Q6.25 2.3 4.95 3.55 2.65 5.9 -0.6 5.9 -3.85 5.9 -6.15 3.55 -8.45 1.25 -8.45 -2.0 -8.45 -5.25 -6.15 -7.55 -4.8 -8.9 -3.1 -9.45 L-2.0 -9.75 -1.35 -9.85 -1.35 -9.8 -1.35 -9.7 -2.95 -8.0 Q-4.55 -6.3 -4.55 -4.7 -4.55 -3.0 -3.45 -1.6 -1.65 0.75 2.6 0.75 4.25 0.75 6.2 -0.7 L7.3 -1.5" fill="#e0cbcb" fill-rule="evenodd" stroke="none"/>
  </g>
</svg>
