<?xml version="1.0" encoding="UTF-8" standalone="no"?>
<svg xmlns:ffdec="https://www.free-decompiler.com/flash" xmlns:xlink="http://www.w3.org/1999/xlink" ffdec:objectType="shape" height="8.75px" width="8.15px" xmlns="http://www.w3.org/2000/svg">
  <g transform="matrix(1.0, 0.0, 0.0, 1.0, 4.1, 4.4)">
    <path d="M0.35 -2.45 L1.8 -1.25 Q4.0 -0.25 4.05 2.15 L4.05 2.2 4.0 2.85 3.95 3.1 Q3.65 3.75 2.75 4.0 1.6 4.35 -1.2 4.0 -3.4 3.7 -3.95 3.1 L-4.1 2.2 -3.65 -0.25 -3.45 -0.85 -2.45 -3.15 -1.4 -4.25 -1.05 -4.4 -0.75 -4.25 -0.6 -3.9 -0.6 -3.6 -0.3 -3.15 0.3 -2.5 0.35 -2.45" fill="#330000" fill-rule="evenodd" stroke="none"/>
    <path d="M-3.15 -0.15 L-3.0 -0.7 -2.05 -2.85 -1.1 -3.9 -1.1 -3.6 -0.7 -2.85 0.0 -2.1 1.6 -0.8 1.65 -0.75 0.85 -0.8 Q-1.0 -0.7 -2.1 0.15 L-2.0 0.2 -1.0 -0.15 1.05 -0.35 2.75 0.0 Q3.55 0.85 3.55 2.15 L3.1 2.35 0.1 2.65 Q-0.85 2.65 -1.8 2.15 L-2.7 1.35 -2.95 0.3 Q-3.0 -0.05 -3.15 -0.15" fill="#8b3e08" fill-rule="evenodd" stroke="none"/>
    <path d="M2.75 0.0 L1.05 -0.35 -1.0 -0.15 -2.0 0.2 -2.1 0.15 Q-1.0 -0.7 0.85 -0.8 L1.65 -0.75 2.75 0.0" fill="#330000" fill-rule="evenodd" stroke="none"/>
    <path d="M-3.15 -0.15 Q-3.0 -0.05 -2.95 0.3 L-2.7 1.35 -1.8 2.15 Q-0.85 2.65 0.1 2.65 L3.1 2.35 3.55 2.15 3.55 2.2 3.5 2.8 Q3.35 3.75 2.55 4.15 L-1.1 4.05 Q-3.7 3.5 -3.6 2.25 L-3.15 -0.1 -3.15 -0.15" fill="#ab8632" fill-rule="evenodd" stroke="none"/>
  </g>
</svg>
