<?xml version="1.0" encoding="UTF-8" standalone="no"?>
<svg xmlns:ffdec="https://www.free-decompiler.com/flash" xmlns:xlink="http://www.w3.org/1999/xlink" ffdec:objectType="shape" height="9.25px" width="11.85px" xmlns="http://www.w3.org/2000/svg">
  <g transform="matrix(1.0, 0.0, 0.0, 1.0, 5.95, 4.65)">
    <path d="M2.75 -3.85 L4.1 -3.3 Q5.3 -2.65 5.35 -2.05 L5.8 -0.8 5.9 0.1 5.9 0.4 5.9 0.85 5.9 0.9 5.85 1.05 5.85 1.15 5.35 2.55 Q4.3 4.45 1.2 4.55 L0.7 4.6 0.1 4.55 Q-3.7 4.45 -5.2 2.7 L-5.2 2.65 -5.9 1.3 -5.9 1.2 -5.95 0.9 -5.95 0.6 -5.95 0.1 Q-5.9 -1.35 -5.45 -2.15 -4.55 -3.95 -1.9 -4.45 L1.05 -4.35 1.15 -4.35 1.25 -4.35 1.35 -4.3 1.7 -4.2 2.45 -3.95 2.55 -3.95 2.75 -3.85" fill="#a36a6a" fill-rule="evenodd" stroke="none"/>
    <path d="M1.2 -4.45 L1.1 -4.3 0.75 -3.45 0.5 -3.25 0.6 -2.35 0.65 -1.6 0.7 -0.85 0.7 -0.45 0.7 0.3 0.65 2.2 Q0.65 2.8 1.0 3.4 L1.15 3.6 0.7 3.6 0.1 3.6 Q-3.45 3.5 -4.8 1.85 L-5.45 0.65 -5.45 0.3 -5.5 0.05 -5.5 -0.45 -5.05 -2.5 Q-4.2 -4.1 -1.8 -4.55 L1.0 -4.45 1.1 -4.45 1.2 -4.45" fill="#e0cbcb" fill-rule="evenodd" stroke="none"/>
    <path d="M1.15 3.6 L1.0 3.4 Q0.65 2.8 0.65 2.2 L0.7 0.3 0.7 -0.45 0.7 -0.85 0.65 -1.6 0.6 -2.35 0.5 -3.25 0.75 -3.45 1.1 -4.3 1.2 -4.45 1.55 -4.35 2.3 -4.1 2.45 -4.05 2.5 -4.0 3.85 -3.45 Q4.85 -2.95 4.9 -2.45 L5.35 -1.2 5.4 -0.45 5.4 -0.1 5.4 0.3 5.4 0.55 4.95 1.8 Q3.95 3.5 1.15 3.6" fill="#f2eaea" fill-rule="evenodd" stroke="none"/>
  </g>
</svg>
