<?xml version="1.0" encoding="UTF-8" standalone="no"?>
<svg xmlns:ffdec="https://www.free-decompiler.com/flash" xmlns:xlink="http://www.w3.org/1999/xlink" ffdec:objectType="shape" height="15.8px" width="13.3px" xmlns="http://www.w3.org/2000/svg">
  <g transform="matrix(1.0, 0.0, 0.0, 1.0, 6.65, 7.9)">
    <path d="M-6.15 -2.95 L-5.05 -2.05 Q-3.05 -0.75 0.05 -0.75 L0.75 -0.75 1.45 -0.75 Q2.15 -0.75 3.05 -1.2 L4.5 -1.8 Q5.65 -2.35 6.2 -2.9 L6.25 -2.75 6.45 -2.15 6.65 -0.25 6.65 0.0 6.6 1.1 Q6.3 3.65 4.7 5.55 2.75 7.9 0.0 7.9 -2.75 7.9 -4.7 5.55 -6.65 3.25 -6.65 0.0 L-6.5 -1.65 -6.45 -2.0 -6.3 -2.45 -6.25 -2.4 -6.3 -2.5 -6.2 -2.9 -6.15 -2.95" fill="#f2eaea" fill-rule="evenodd" stroke="none"/>
    <path d="M6.25 -2.75 L6.2 -2.9 Q5.65 -2.35 4.5 -1.8 L3.05 -1.2 Q2.15 -0.75 1.45 -0.75 L0.75 -0.75 0.05 -0.75 Q-3.05 -0.75 -5.05 -2.05 L-6.15 -2.95 -6.15 -3.0 -6.05 -3.25 -6.05 -3.3 -6.0 -3.45 -5.75 -4.0 -4.7 -5.6 Q-2.75 -7.9 0.0 -7.9 2.75 -7.9 4.7 -5.6 5.75 -4.3 6.25 -2.75 M-6.3 -2.5 L-6.25 -2.4 -6.3 -2.45 -6.45 -2.0 -6.3 -2.5" fill="#e0cbcb" fill-rule="evenodd" stroke="none"/>
    <path d="M-6.15 -2.95 L-6.2 -2.9 -6.3 -2.5 -6.45 -2.0 -6.5 -1.65 -6.65 0.0 Q-6.65 3.25 -4.7 5.55 -2.75 7.9 0.0 7.9 2.75 7.9 4.7 5.55 6.3 3.65 6.6 1.1 L6.65 0.0 6.65 -0.25 6.45 -2.15 6.25 -2.75 Q5.75 -4.3 4.7 -5.6 2.75 -7.9 0.0 -7.9 -2.75 -7.9 -4.7 -5.6 L-5.75 -4.0 -6.0 -3.45 -6.05 -3.3 -6.05 -3.25 -6.15 -3.0 -6.15 -2.95 Z" fill="none" stroke="#a36a6a" stroke-linecap="round" stroke-linejoin="round" stroke-width="0.05"/>
  </g>
</svg>
