<?xml version="1.0" encoding="UTF-8" standalone="no"?>
<svg xmlns:ffdec="https://www.free-decompiler.com/flash" xmlns:xlink="http://www.w3.org/1999/xlink" ffdec:objectType="shape" height="15.8px" width="13.3px" xmlns="http://www.w3.org/2000/svg">
  <g transform="matrix(1.0, 0.0, 0.0, 1.0, 6.65, 7.9)">
    <path d="M-6.65 0.5 L-5.7 0.8 Q-2.6 1.75 2.6 1.75 4.8 1.75 6.6 0.85 L6.65 0.85 Q6.4 3.55 4.7 5.55 2.75 7.9 0.0 7.9 -2.75 7.9 -4.7 5.55 -6.5 3.4 -6.65 0.5" fill="#f2eaea" fill-rule="evenodd" stroke="none"/>
    <path d="M6.65 -0.5 L6.65 -0.1 6.65 0.0 6.65 0.85 6.6 0.85 Q4.8 1.75 2.6 1.75 -2.6 1.75 -5.7 0.8 L-6.65 0.5 -6.65 0.0 -6.6 -0.75 Q-6.4 -3.55 -4.7 -5.6 -2.75 -7.9 0.0 -7.9 2.75 -7.9 4.7 -5.6 6.35 -3.6 6.6 -0.9 L6.65 -0.5" fill="#e0cbcb" fill-rule="evenodd" stroke="none"/>
    <path d="M6.65 0.85 L6.65 0.0 6.65 -0.1 6.65 -0.5 M6.6 -0.9 Q6.35 -3.6 4.7 -5.6 2.75 -7.9 0.0 -7.9 -2.75 -7.9 -4.7 -5.6 -6.4 -3.55 -6.6 -0.75 L-6.65 0.0 -6.65 0.5 Q-6.5 3.4 -4.7 5.55 -2.75 7.9 0.0 7.9 2.75 7.9 4.7 5.55 6.4 3.55 6.65 0.85" fill="none" stroke="#a36a6a" stroke-linecap="round" stroke-linejoin="round" stroke-width="0.05"/>
  </g>
</svg>
