<?xml version="1.0" encoding="UTF-8" standalone="no"?>
<svg xmlns:ffdec="https://www.free-decompiler.com/flash" xmlns:xlink="http://www.w3.org/1999/xlink" ffdec:objectType="shape" height="16.15px" width="33.0px" xmlns="http://www.w3.org/2000/svg">
  <g transform="matrix(1.0, 0.0, 0.0, 1.0, 16.5, 8.1)">
    <path d="M7.1 0.25 L7.1 0.6 7.2 2.25 Q7.3 3.85 7.6 3.85 L8.75 2.55 10.65 0.8 Q12.1 -0.3 16.05 -1.7 L16.5 -0.65 Q11.4 0.0 10.85 8.05 L-7.55 8.05 Q-7.6 7.5 -8.2 5.45 -8.9 3.15 -9.1 2.9 -10.45 0.85 -11.15 0.3 L-12.9 -0.8 -13.95 -2.1 Q-14.15 -2.1 -14.2 -1.95 L-14.25 -1.95 -14.5 -1.8 -14.35 -1.95 -14.4 -1.95 -14.85 -1.85 -15.55 -2.05 -11.45 -1.85 -7.65 0.05 -7.25 0.45 -5.85 1.2 -2.3 2.5 -1.8 2.4 -0.35 2.25 Q-0.15 2.15 -0.3 1.65 L-0.3 -0.9 -0.25 -0.95 -0.25 -3.9 -0.2 -5.35 -0.1 -6.05 0.1 -6.7 0.0 -8.1 3.2 -3.55 Q5.25 -0.95 7.1 0.25 M-16.1 -1.55 L-15.95 -1.95 -16.05 -1.6 -16.0 -1.55 -15.55 -1.5 -16.1 -1.55" fill="url(#gradient0)" fill-rule="evenodd" stroke="none"/>
    <path d="M7.1 0.25 L7.2 0.3 7.55 0.1 11.45 -1.85 15.95 -1.95 16.05 -1.7 Q12.1 -0.3 10.65 0.8 L8.75 2.55 7.6 3.85 Q7.3 3.85 7.2 2.25 L7.1 0.6 7.1 0.25 M-7.55 8.05 L-10.85 8.05 Q-11.4 0.0 -16.5 -0.65 L-16.25 -1.25 -16.1 -1.55 -15.55 -1.5 -16.0 -1.55 -16.05 -1.6 -15.95 -1.95 -15.8 -2.0 -15.6 -2.05 -15.55 -2.05 -15.8 -2.0 -15.55 -2.05 -14.85 -1.85 -14.4 -1.95 -14.35 -1.95 -14.5 -1.8 -14.25 -1.95 -14.2 -1.95 Q-14.15 -2.1 -13.95 -2.1 L-12.9 -0.8 -11.15 0.3 Q-10.45 0.85 -9.1 2.9 -8.9 3.15 -8.2 5.45 -7.6 7.5 -7.55 8.05 M-7.65 0.05 L-7.2 0.3 -7.0 0.2 Q-5.2 -1.0 -3.2 -3.55 L-0.25 -7.7 0.0 -8.05 0.0 -8.1 0.1 -6.7 -0.1 -6.05 -0.2 -5.35 -0.25 -3.9 -0.25 -0.95 -0.3 -0.9 -0.3 1.65 Q-0.15 2.15 -0.35 2.25 L-1.8 2.4 -2.3 2.5 -5.85 1.2 -7.25 0.45 -7.65 0.05 M-16.25 -1.25 L-16.1 -1.55 -16.25 -1.25" fill="#e0cbcb" fill-rule="evenodd" stroke="none"/>
    <path d="M16.05 -1.7 L15.95 -1.95 11.45 -1.85 7.55 0.1 7.2 0.3 7.1 0.25 Q5.25 -0.95 3.2 -3.55 L0.0 -8.1 0.0 -8.05 M16.05 -1.7 L16.5 -0.65 Q11.4 0.0 10.85 8.05 L-7.55 8.05 -10.85 8.05 Q-11.4 0.0 -16.5 -0.65 L-16.25 -1.25 -16.1 -1.55 -15.95 -1.95 -15.8 -2.0 -15.55 -2.05 -11.45 -1.85 -7.65 0.05 -7.2 0.3 -7.0 0.2 Q-5.2 -1.0 -3.2 -3.55 L-0.25 -7.7" fill="none" stroke="#a36a6a" stroke-linecap="round" stroke-linejoin="round" stroke-width="0.05"/>
  </g>
  <defs>
    <radialGradient cx="0" cy="0" gradientTransform="matrix(0.0049, 0.0059, -0.0048, 0.004, -33.35, -3.25)" gradientUnits="userSpaceOnUse" id="gradient0" r="819.2" spreadMethod="pad">
      <stop offset="0.47843137254901963" stop-color="#ffffff"/>
      <stop offset="0.8823529411764706" stop-color="#f2eaea"/>
    </radialGradient>
  </defs>
</svg>
