<?xml version="1.0" encoding="UTF-8" standalone="no"?>
<svg xmlns:ffdec="https://www.free-decompiler.com/flash" xmlns:xlink="http://www.w3.org/1999/xlink" ffdec:objectType="shape" height="13.2px" width="21.7px" xmlns="http://www.w3.org/2000/svg">
  <g transform="matrix(1.0, 0.0, 0.0, 1.0, 10.85, 6.6)">
    <path d="M-8.15 -5.55 Q-3.3 -8.35 0.0 -3.65 4.15 -9.6 10.85 -3.55 L10.8 -1.1 10.8 -0.8 Q10.8 1.7 9.25 3.5 L9.2 3.5 8.55 3.85 Q6.15 5.0 2.75 5.0 -2.4 5.0 -4.85 3.1 -5.75 2.4 -7.2 -0.05 -7.85 -1.05 -7.95 -3.05 L-8.25 -5.25 -8.15 -5.55" fill="url(#gradient0)" fill-rule="evenodd" stroke="none"/>
    <path d="M-8.15 -5.55 L-8.25 -5.25 -7.95 -3.05 Q-7.85 -1.05 -7.2 -0.05 -5.75 2.4 -4.85 3.1 -2.4 5.0 2.75 5.0 6.15 5.0 8.55 3.85 L9.2 3.5 8.4 4.25 8.15 4.5 7.95 4.6 6.95 5.25 Q4.45 6.7 0.95 6.6 L0.0 6.6 -0.95 6.6 Q-5.15 6.7 -7.95 4.6 -10.8 2.55 -10.8 -0.8 L-10.8 -1.1 -10.85 -3.55 -9.15 -4.9 -8.6 -5.25 -8.3 -5.45 -8.15 -5.55" fill="#e0cbcb" fill-rule="evenodd" stroke="none"/>
    <path d="M9.2 3.5 L9.25 3.5 Q10.8 1.7 10.8 -0.8 L10.8 -1.1 10.85 -3.55 Q4.15 -9.6 0.0 -3.65 -3.3 -8.35 -8.15 -5.55 L-8.3 -5.45 M9.2 3.5 L8.4 4.25 8.15 4.5 7.95 4.6 6.95 5.25 Q4.45 6.7 0.95 6.6 L0.0 6.6 -0.95 6.6 Q-5.15 6.7 -7.95 4.6 -10.8 2.55 -10.8 -0.8 L-10.8 -1.1 -10.85 -3.55 -9.15 -4.9 -8.6 -5.25" fill="none" stroke="#a36a6a" stroke-linecap="round" stroke-linejoin="round" stroke-width="0.05"/>
  </g>
  <defs>
    <radialGradient cx="0" cy="0" gradientTransform="matrix(0.0049, 0.0059, -0.0048, 0.004, -33.35, -14.85)" gradientUnits="userSpaceOnUse" id="gradient0" r="819.2" spreadMethod="pad">
      <stop offset="0.47843137254901963" stop-color="#ffffff"/>
      <stop offset="0.8823529411764706" stop-color="#f2eaea"/>
    </radialGradient>
  </defs>
</svg>
