<?xml version="1.0" encoding="UTF-8" standalone="no"?>
<svg xmlns:ffdec="https://www.free-decompiler.com/flash" xmlns:xlink="http://www.w3.org/1999/xlink" ffdec:objectType="shape" height="4.65px" width="7.8px" xmlns="http://www.w3.org/2000/svg">
  <g transform="matrix(1.0, 0.0, 0.0, 1.0, 3.9, 2.35)">
    <path d="M2.7 -1.7 Q3.9 -1.0 3.9 0.0 3.9 1.0 2.7 1.65 1.6 2.3 0.0 2.3 -1.65 2.3 -2.8 1.65 -3.9 1.0 -3.9 0.0 -3.9 -1.0 -2.8 -1.7 -1.65 -2.35 0.0 -2.35 1.6 -2.35 2.7 -1.7" fill="#ffffff" fill-rule="evenodd" stroke="none"/>
    <path d="M2.7 -1.7 Q3.9 -1.0 3.9 0.0 3.9 1.0 2.7 1.65 1.6 2.3 0.0 2.3 -1.65 2.3 -2.8 1.65 -3.9 1.0 -3.9 0.0 -3.9 -1.0 -2.8 -1.7 -1.65 -2.35 0.0 -2.35 1.6 -2.35 2.7 -1.7 Z" fill="none" stroke="#a36a6a" stroke-linecap="round" stroke-linejoin="round" stroke-width="0.05"/>
    <path d="M1.5 -0.8 L2.15 0.0 1.5 0.75 0.0 1.05 -1.55 0.75 -2.15 0.0 Q-2.15 -0.45 -1.55 -0.8 L0.0 -1.1 1.5 -0.8" fill="#333333" fill-rule="evenodd" stroke="none"/>
  </g>
</svg>
