<?xml version="1.0" encoding="UTF-8" standalone="no"?>
<svg xmlns:ffdec="https://www.free-decompiler.com/flash" xmlns:xlink="http://www.w3.org/1999/xlink" ffdec:objectType="shape" height="8.8px" width="4.0px" xmlns="http://www.w3.org/2000/svg">
  <g transform="matrix(1.0, 0.0, 0.0, 1.0, 2.0, 4.4)">
    <path d="M1.4 -3.1 Q2.0 -1.8 2.0 0.0 2.0 1.8 1.4 3.1 0.85 4.4 0.0 4.4 -0.85 4.4 -1.45 3.1 -2.0 1.8 -2.0 0.0 -2.0 -1.8 -1.45 -3.1 -0.85 -4.4 0.0 -4.4 0.85 -4.4 1.4 -3.1" fill="#f2eaea" fill-rule="evenodd" stroke="none"/>
    <path d="M1.4 -3.1 Q2.0 -1.8 2.0 0.0 2.0 1.8 1.4 3.1 0.85 4.4 0.0 4.4 -0.85 4.4 -1.45 3.1 -2.0 1.8 -2.0 0.0 -2.0 -1.8 -1.45 -3.1 -0.85 -4.4 0.0 -4.4 0.85 -4.4 1.4 -3.1 Z" fill="none" stroke="#a36a6a" stroke-linecap="round" stroke-linejoin="round" stroke-width="0.05"/>
    <path d="M0.4 -2.05 L0.0 -1.9 -0.4 -2.05 -0.55 -2.45 -0.4 -2.85 0.0 -3.0 0.4 -2.85 0.55 -2.45 0.4 -2.05" fill="#a36a6a" fill-rule="evenodd" stroke="none"/>
  </g>
</svg>
