<?xml version="1.0" encoding="UTF-8" standalone="no"?>
<svg xmlns:ffdec="https://www.free-decompiler.com/flash" xmlns:xlink="http://www.w3.org/1999/xlink" ffdec:objectType="shape" height="8.25px" width="8.15px" xmlns="http://www.w3.org/2000/svg">
  <g transform="matrix(1.0, 0.0, 0.0, 1.0, 4.1, 4.05)">
    <path d="M0.45 -1.95 L0.35 -1.9 0.1 -1.95 0.1 -2.0 -0.1 -2.2 -0.15 -2.25 -0.15 -2.35 -0.15 -2.95 0.5 -2.55 0.6 -2.2 0.6 -2.1 0.45 -1.95 0.6 -2.1 0.6 -2.2 0.5 -2.55 -0.15 -2.95 -0.15 -2.35 -0.15 -2.25 -0.1 -2.2 0.1 -2.0 0.1 -1.95 0.35 -1.9 0.45 -1.95 M3.85 -1.25 Q4.4 0.35 3.6 1.85 2.85 3.4 1.25 4.0 -0.35 4.55 -1.85 3.75 -3.4 2.9 -3.9 1.35 -4.4 -0.25 -3.65 -1.8 -2.85 -3.3 -1.3 -3.85 L1.8 -3.6 Q3.35 -2.8 3.85 -1.25" fill="#f2eaea" fill-rule="evenodd" stroke="none"/>
    <path d="M0.45 -1.95 L0.6 -2.1 0.6 -2.2 0.5 -2.55 -0.15 -2.95 -0.15 -2.35 -0.15 -2.25 -0.1 -2.2 0.1 -2.0 0.1 -1.95 0.35 -1.9 0.45 -1.95 M3.85 -1.25 Q4.4 0.35 3.6 1.85 2.85 3.4 1.25 4.0 -0.35 4.55 -1.85 3.75 -3.4 2.9 -3.9 1.35 -4.4 -0.25 -3.65 -1.8 -2.85 -3.3 -1.3 -3.85 L1.8 -3.6 Q3.35 -2.8 3.85 -1.25 Z" fill="none" stroke="#a36a6a" stroke-linecap="round" stroke-linejoin="round" stroke-width="0.05"/>
  </g>
</svg>
