<?xml version="1.0" encoding="UTF-8" standalone="no"?>
<svg xmlns:ffdec="https://www.free-decompiler.com/flash" xmlns:xlink="http://www.w3.org/1999/xlink" ffdec:objectType="shape" height="45.5px" width="91.4px" xmlns="http://www.w3.org/2000/svg">
  <g transform="matrix(1.0, 0.0, 0.0, 1.0, 57.2, 12.35)">
    <path d="M32.35 -1.05 Q33.45 0.05 33.9 1.85 L33.95 1.85 Q34.4 3.45 34.0 5.25 33.6 6.95 32.55 8.1 L10.2 31.8 10.15 31.8 Q8.9 33.15 7.25 33.15 L-11.5 33.0 -12.3 32.95 -52.6 32.7 Q-54.6 32.75 -55.95 30.85 -57.2 29.1 -57.2 26.8 -57.2 24.4 -55.8 22.8 L-29.65 -10.5 -29.6 -10.5 Q-28.25 -12.35 -26.35 -12.35 L18.6 -12.35 Q20.05 -12.35 21.3 -11.2 L32.35 -1.05" fill="#000000" fill-rule="evenodd" stroke="none"/>
  </g>
</svg>
