<?xml version="1.0" encoding="UTF-8" standalone="no"?>
<svg xmlns:ffdec="https://www.free-decompiler.com/flash" xmlns:xlink="http://www.w3.org/1999/xlink" ffdec:objectType="shape" height="10.45px" width="10.9px" xmlns="http://www.w3.org/2000/svg">
  <g transform="matrix(1.0, 0.0, 0.0, 1.0, 5.45, 5.25)">
    <path d="M-2.9 -3.55 Q-1.55 -4.55 -0.5 -4.55 1.9 -4.55 3.5 -1.65 4.65 0.45 4.65 1.5 4.65 2.6 3.05 3.65 L2.2 4.15 Q1.8 2.4 1.05 0.75 -0.7 -3.1 -3.1 -3.1 L-3.55 -3.05 -2.9 -3.55" fill="#ffffff" fill-rule="evenodd" stroke="none"/>
    <path d="M-5.2 -1.75 Q-5.2 -2.4 -4.7 -2.7 -3.85 -4.7 -0.3 -5.25 2.8 -4.3 4.35 -2.1 5.45 -0.4 5.45 0.95 5.45 2.3 4.7 3.15 L3.05 4.6 Q2.1 5.2 1.7 5.2 0.05 5.2 -1.0 4.5 -1.1 4.95 -1.7 4.95 -4.15 4.95 -5.1 0.75 L-4.9 0.2 Q-5.3 -0.1 -5.45 -0.95 -5.45 -1.85 -5.2 -1.75 M-2.9 -3.55 L-3.55 -3.05 -3.1 -3.1 Q-0.7 -3.1 1.05 0.75 1.8 2.4 2.2 4.15 L3.05 3.65 Q4.65 2.6 4.65 1.5 4.65 0.45 3.5 -1.65 1.9 -4.55 -0.5 -4.55 -1.55 -4.55 -2.9 -3.55 M-4.55 -0.75 L-4.25 -0.35 Q-3.0 -0.2 -2.0 1.55 -0.65 3.8 0.9 4.4 L1.5 4.4 Q0.85 1.9 -0.35 -0.15 -1.7 -2.35 -2.8 -2.35 -4.4 -2.35 -4.65 -1.65 L-4.55 -0.75 M-2.45 2.55 L-3.45 1.4 -4.4 0.35 -4.15 1.5 Q-2.8 4.15 -1.75 4.15 L-1.6 4.0 -2.45 2.55" fill="#a36a6a" fill-rule="evenodd" stroke="none"/>
    <path d="M-2.45 2.55 L-1.6 4.0 -1.75 4.15 Q-2.8 4.15 -4.15 1.5 L-4.4 0.35 -3.45 1.4 -2.45 2.55 M-4.55 -0.75 L-4.65 -1.65 Q-4.4 -2.35 -2.8 -2.35 -1.7 -2.35 -0.35 -0.15 0.85 1.9 1.5 4.4 L0.9 4.4 Q-0.65 3.8 -2.0 1.55 -3.0 -0.2 -4.25 -0.35 L-4.55 -0.75" fill="#e0cbcb" fill-rule="evenodd" stroke="none"/>
  </g>
</svg>
