<?xml version="1.0" encoding="UTF-8" standalone="no"?>
<svg xmlns:ffdec="https://www.free-decompiler.com/flash" xmlns:xlink="http://www.w3.org/1999/xlink" ffdec:objectType="shape" height="8.25px" width="11.5px" xmlns="http://www.w3.org/2000/svg">
  <g transform="matrix(1.0, 0.0, 0.0, 1.0, 5.75, 4.15)">
    <path d="M-5.35 -1.75 Q-4.3 -4.05 0.4 -4.15 L3.4 -3.9 5.15 -3.2 5.2 -3.1 5.5 -2.4 5.75 -0.75 5.65 2.35 5.15 3.6 2.15 4.1 Q-1.85 4.1 -3.55 3.25 -5.6 2.3 -5.75 0.25 L-5.75 0.2 -5.75 -0.05 -5.75 -0.2 -5.75 -0.25 -5.35 -1.75" fill="#a36a6a" fill-rule="evenodd" stroke="none"/>
    <path d="M3.2 -2.95 L4.7 -2.3 5.2 -1.85 5.5 -0.75 5.45 1.9 Q4.95 3.1 2.15 3.1 -1.55 3.1 -3.15 2.35 -4.65 1.65 -4.75 0.2 L-4.75 -0.05 -4.75 -0.2 -4.45 -1.3 -4.25 -1.3 -3.4 -1.0 -2.9 -0.75 0.9 -0.45 Q2.15 -0.45 2.45 -1.35 L2.8 -2.6 3.2 -2.95 M5.25 -0.1 Q5.25 -1.85 4.3 -2.05 3.3 -2.2 3.3 0.35 3.0 2.4 4.25 2.4 5.25 2.4 5.25 -0.1" fill="#e0cbcb" fill-rule="evenodd" stroke="none"/>
    <path d="M-4.45 -1.3 Q-3.55 -3.05 0.4 -3.15 L3.2 -2.95 2.8 -2.6 2.45 -1.35 Q2.15 -0.45 0.9 -0.45 L-2.9 -0.75 -3.4 -1.0 -4.25 -1.3 -4.45 -1.3" fill="#ffffff" fill-rule="evenodd" stroke="none"/>
    <path d="M5.25 -0.1 Q5.25 2.4 4.25 2.4 3.0 2.4 3.3 0.35 3.3 -2.2 4.3 -2.05 5.25 -1.85 5.25 -0.1" fill="#a36a6a" fill-rule="evenodd" stroke="none"/>
  </g>
</svg>
