<?xml version="1.0" encoding="UTF-8" standalone="no"?>
<svg xmlns:ffdec="https://www.free-decompiler.com/flash" xmlns:xlink="http://www.w3.org/1999/xlink" ffdec:objectType="shape" height="24.85px" width="23.4px" xmlns="http://www.w3.org/2000/svg">
  <g transform="matrix(1.0, 0.0, 0.0, 1.0, 11.7, 12.3)">
    <path d="M10.4 -4.05 Q9.5 1.5 9.5 2.8 L9.7 8.15 Q9.9 12.55 1.5 12.55 L0.8 12.55 -0.5 12.5 -0.6 12.5 -0.65 12.5 -2.0 12.55 -2.7 12.55 Q-11.1 12.55 -10.9 8.15 L-10.75 5.4 -10.8 5.1 -10.75 4.8 -10.7 2.8 Q-10.7 1.45 -11.7 -4.8 L-11.7 -4.95 -11.5 -5.65 -11.5 -6.55 -11.5 -6.6 Q-11.5 -8.7 -11.05 -9.5 L-11.0 -9.5 Q-9.95 -11.65 -6.4 -11.65 L3.65 -12.3 Q7.45 -12.35 9.4 -11.4 11.75 -10.25 11.7 -7.95 11.7 -5.0 10.4 -4.05" fill="#a36a6a" fill-rule="evenodd" stroke="none"/>
    <path d="M5.05 -5.4 L4.5 -5.4 3.5 -4.95 3.5 -4.9 3.4 -4.8 Q2.35 -4.0 2.35 -1.55 L2.4 -0.95 Q2.65 -0.5 3.8 -0.5 L5.0 -0.6 5.3 -1.1 5.15 -1.55 4.5 -2.3 Q5.1 -2.55 5.6 -3.35 L5.95 -4.2 Q5.95 -5.3 5.05 -5.4 M8.8 -0.05 L8.8 -0.3 4.1 0.3 -5.05 0.95 -8.65 0.1 -10.0 -0.55 -10.7 -5.1 -10.45 -5.45 -10.5 -6.7 Q-10.5 -8.5 -10.15 -9.2 -9.25 -10.85 -6.3 -10.8 L3.65 -11.45 Q10.7 -11.5 10.7 -8.1 10.7 -5.45 9.5 -4.9 L8.8 -0.05 M-6.2 -4.95 L-6.75 -5.0 -7.25 -4.9 -7.3 -4.9 Q-8.0 -4.7 -8.0 -3.85 L-7.95 -3.55 Q-7.9 -2.95 -7.55 -2.7 L-7.55 -2.65 -7.7 -1.6 Q-7.6 -0.55 -6.3 -0.55 -5.3 -0.55 -5.0 -1.2 L-4.9 -2.1 -5.2 -3.55 Q-5.55 -4.95 -5.95 -4.95 L-6.2 -4.95" fill="#ffffff" fill-rule="evenodd" stroke="none"/>
    <path d="M3.4 -4.8 L3.5 -4.9 3.5 -4.95 4.5 -5.4 5.05 -5.4 Q5.8 -5.2 5.8 -4.0 L5.65 -3.5 4.15 -3.3 Q3.2 -3.3 3.15 -4.2 3.15 -4.6 3.4 -4.8 M-9.75 4.9 Q-9.5 4.2 -7.3 4.3 L-0.85 4.65 5.6 4.4 Q8.25 4.3 8.25 4.75 L5.5 5.2 -0.9 5.4 -7.1 5.5 -9.75 5.0 -9.8 4.95 -9.75 4.9 M6.0 9.3 L5.2 9.8 Q3.7 9.8 4.0 8.6 4.0 7.2 5.2 7.3 6.35 7.4 6.35 8.6 L6.0 9.3 M-7.25 -4.9 L-6.75 -5.0 -6.2 -4.95 Q-5.6 -4.8 -5.6 -4.05 -5.6 -2.5 -6.85 -2.5 -7.3 -2.5 -7.55 -2.7 -7.9 -2.95 -7.95 -3.55 L-7.95 -3.65 Q-7.95 -4.65 -7.25 -4.9 M-7.4 8.6 Q-7.4 7.2 -6.4 7.3 -5.4 7.4 -5.4 8.5 L-5.45 9.3 Q-5.6 9.9 -6.25 9.9 -7.65 9.9 -7.4 8.6" fill="#a36a6a" fill-rule="evenodd" stroke="none"/>
    <path d="M5.05 -5.4 Q5.95 -5.3 5.95 -4.2 L5.6 -3.35 Q5.1 -2.55 4.5 -2.3 L5.15 -1.55 5.3 -1.1 5.0 -0.6 3.8 -0.5 Q2.65 -0.5 2.4 -0.95 L2.35 -1.55 Q2.35 -4.0 3.4 -4.8 3.15 -4.6 3.15 -4.2 3.2 -3.3 4.15 -3.3 L5.65 -3.5 5.8 -4.0 Q5.8 -5.2 5.05 -5.4 M-10.0 -0.55 L-8.65 0.1 -5.05 0.95 4.1 0.3 8.8 -0.3 8.8 -0.05 8.75 0.3 8.5 2.65 8.7 8.0 Q8.7 11.4 1.5 11.4 L0.8 11.4 -0.6 11.35 -2.0 11.4 -2.7 11.4 Q-9.9 11.4 -9.9 8.0 L-9.75 5.0 -7.1 5.5 -0.9 5.4 5.5 5.2 8.25 4.75 Q8.25 4.3 5.6 4.4 L-0.85 4.65 -7.3 4.3 Q-9.5 4.2 -9.75 4.9 L-9.7 2.65 -9.85 0.75 -9.95 0.05 -10.0 -0.45 -10.0 -0.55 M6.0 9.3 L6.35 8.6 Q6.35 7.4 5.2 7.3 4.0 7.2 4.0 8.6 3.7 9.8 5.2 9.8 L6.0 9.3 M-6.2 -4.95 L-5.95 -4.95 Q-5.55 -4.95 -5.2 -3.55 L-4.9 -2.1 -5.0 -1.2 Q-5.3 -0.55 -6.3 -0.55 -7.6 -0.55 -7.7 -1.6 L-7.55 -2.65 -7.55 -2.7 Q-7.3 -2.5 -6.85 -2.5 -5.6 -2.5 -5.6 -4.05 -5.6 -4.8 -6.2 -4.95 M-7.95 -3.55 L-8.0 -3.85 Q-8.0 -4.7 -7.3 -4.9 L-7.25 -4.9 Q-7.95 -4.65 -7.95 -3.65 L-7.95 -3.55 M-7.4 8.6 Q-7.65 9.9 -6.25 9.9 -5.6 9.9 -5.45 9.3 L-5.4 8.5 Q-5.4 7.4 -6.4 7.3 -7.4 7.2 -7.4 8.6" fill="#e0cbcb" fill-rule="evenodd" stroke="none"/>
  </g>
</svg>
