<?xml version="1.0" encoding="UTF-8" standalone="no"?>
<svg xmlns:ffdec="https://www.free-decompiler.com/flash" xmlns:xlink="http://www.w3.org/1999/xlink" ffdec:objectType="shape" height="20.05px" width="21.0px" xmlns="http://www.w3.org/2000/svg">
  <g transform="matrix(1.0, 0.0, 0.0, 1.0, 9.8, 12.5)">
    <path d="M3.75 -2.05 Q3.4 -2.05 3.25 -2.25 L3.2 -2.45 Q3.2 -3.1 5.7 -3.3 L8.45 -3.85 8.65 -4.8 8.9 -5.85 9.7 -7.65 10.35 -9.8 10.15 -10.9 Q10.15 -11.5 10.45 -11.8 L11.05 -10.3 11.2 -9.3 8.9 -1.9 Q8.5 -1.9 8.45 -2.2 8.4 -2.5 7.75 -2.5 L4.55 -2.2 3.75 -2.05 M8.05 2.25 Q6.4 2.25 5.4 1.55 5.5 0.9 5.8 1.05 L6.95 1.4 8.6 1.15 Q9.1 1.15 9.0 1.85 L8.9 2.55 8.75 3.2 9.25 4.2 9.0 5.95 Q8.65 6.85 7.7 7.55 L7.5 7.3 8.05 5.4 8.55 3.25 8.3 2.2 8.05 2.25 M4.0 5.3 Q4.65 5.65 4.65 6.5 L4.5 7.0 4.2 7.3 3.65 6.7 3.35 6.1 Q3.35 4.9 4.0 5.3 M-8.4 -11.45 Q-8.95 -10.95 -8.9 -9.9 L-8.75 -7.8 -8.9 -6.55 Q-9.1 -5.45 -9.35 -5.2 L-9.8 -9.85 Q-9.8 -11.3 -8.85 -12.1 -7.9 -12.95 -7.9 -12.0 L-8.4 -11.45 M-8.45 2.05 Q-9.45 2.05 -9.2 1.55 -9.2 0.7 -6.9 0.55 -4.6 0.4 -3.8 1.05 -4.3 2.05 -8.45 2.05" fill="#999999" fill-rule="evenodd" stroke="none"/>
  </g>
</svg>
