<?xml version="1.0" encoding="UTF-8" standalone="no"?>
<svg xmlns:ffdec="https://www.free-decompiler.com/flash" xmlns:xlink="http://www.w3.org/1999/xlink" ffdec:objectType="shape" height="77.95px" width="94.65px" xmlns="http://www.w3.org/2000/svg">
  <g transform="matrix(1.0, 0.0, 0.0, 1.0, 14.9, 38.95)">
    <path d="M28.8 -38.95 L74.6 -38.0 75.25 -37.7 75.55 -37.05 79.75 13.25 79.6 13.85 62.9 38.55 62.55 38.9 62.05 39.0 1.75 38.95 Q1.35 38.95 1.05 38.65 0.75 38.35 0.75 37.95 L0.75 36.25 -13.9 36.25 -14.6 35.95 -14.9 35.25 -14.8 0.65 -14.6 0.05 -1.2 -17.45 -0.7 -17.8 -0.4 -17.85 -0.3 -17.85 10.0 -17.7 10.05 -17.7 11.9 -17.5 27.95 -38.55 28.35 -38.85 28.8 -38.95" fill="#a36a6a" fill-rule="evenodd" stroke="none"/>
    <path d="M-12.15 -1.35 L-0.4 -16.85 -0.35 -15.55 -0.35 -16.85 9.95 -16.7 9.95 -16.5 34.9 -16.2 35.45 -16.9 35.45 18.35 22.55 35.3 22.55 35.25 22.55 0.1 22.6 0.1 22.55 0.05 -13.2 0.05 -12.15 -1.35" fill="#ffffff" fill-rule="evenodd" stroke="none"/>
    <path d="M-12.15 -1.35 L-13.2 0.05 22.55 0.05 22.55 0.1 22.55 35.25 -13.9 35.25 -13.9 14.8 -13.8 14.8 -13.8 0.65 -13.0 -0.35 -12.3 -1.35 -12.15 -1.35" fill="#e0cbcb" fill-rule="evenodd" stroke="none"/>
    <path d="M2.35 -13.65 L4.05 -16.15 M7.2 -8.7 L4.2 -8.7 M13.2 -8.7 L10.2 -8.7 M19.2 -8.7 L16.2 -8.7 M25.2 -8.7 L22.2 -8.7 M-5.45 -8.7 L-2.45 -8.7 M-4.45 -3.75 L-5.75 -1.85 M1.2 -8.7 L-1.05 -8.7 -2.75 -6.2 M-6.25 3.65 L-6.25 0.65 M-6.25 9.65 L-6.25 6.65 M-6.25 15.65 L-6.25 12.65 M-6.25 21.65 L-6.25 18.65 M-6.25 27.65 L-6.25 24.65 M-6.25 33.65 L-6.25 30.65 M-1.05 -8.7 L0.65 -11.2" fill="none" stroke="#3b0101" stroke-linecap="round" stroke-linejoin="round" stroke-width="1.0"/>
    <path d="M17.2 -22.85 L18.7 -24.8 28.65 -37.85 28.65 -37.95 28.75 -37.95 28.8 -38.0 28.85 -38.0 28.85 -37.95 46.85 -37.6 46.85 -37.45 73.6 -37.0 73.7 -37.0 73.8 -37.0 74.55 -37.0 74.6 -36.75 74.65 -35.95 73.15 -31.65 Q71.0 -26.0 71.0 -24.95 L72.45 -16.65 72.0 -16.4 Q71.55 -16.0 71.55 -15.5 L71.65 -15.0 71.75 -15.0 72.4 -15.05 72.7 -15.05 73.1 -10.85 73.0 -7.9 72.8 -7.05 72.8 -7.0 71.55 -6.85 70.85 -6.55 69.05 -3.75 67.0 -1.2 Q65.45 0.5 65.45 0.75 L65.45 0.8 65.25 0.8 Q64.1 0.8 63.25 -4.95 L63.35 -5.0 Q64.2 -5.15 64.8 -5.9 L65.1 -6.3 65.3 -7.1 Q65.3 -7.75 65.05 -7.55 L64.95 -7.55 64.95 -7.5 63.8 -7.15 Q63.3 -6.9 63.05 -6.45 L62.85 -8.3 Q62.35 -12.85 62.15 -17.45 L62.05 -18.05 54.95 -14.8 Q53.0 -13.95 49.05 -13.6 L41.25 -13.45 40.25 -13.45 37.6 -13.55 Q24.35 -14.15 20.8 -17.0 17.2 -19.85 17.2 -22.3 L17.2 -22.85 M62.05 37.95 L36.25 37.95 36.0 38.0 35.75 37.95 1.75 37.95 1.75 8.15 9.1 8.15 9.1 2.5 9.35 2.65 Q9.7 2.65 9.85 -0.4 L10.0 -5.15 10.05 -9.1 10.05 -11.05 Q10.05 -11.85 10.3 -12.35 L10.5 -13.05 10.5 -13.1 10.75 -13.05 14.5 -12.6 26.15 -12.65 40.05 -12.8 Q49.6 -12.8 54.9 -13.1 L54.2 -13.35 57.8 -13.35 57.8 -13.3 62.05 37.95 M9.1 -11.9 L9.1 -12.45 9.45 -12.85 9.1 -11.9 M10.05 -13.6 L10.25 -13.9 10.7 -14.5 10.55 -14.1 10.2 -13.65 10.1 -13.6 10.05 -13.6 M70.95 -12.5 L71.0 -12.65 71.15 -13.3 71.15 -13.35 70.95 -13.45 Q70.15 -13.85 69.45 -13.15 68.75 -12.45 68.75 -11.5 68.75 -11.1 68.9 -11.0 L69.35 -10.8 Q70.35 -11.05 70.7 -11.8 L70.95 -12.5 M68.05 -10.25 Q67.15 -10.4 66.5 -9.8 66.0 -9.35 66.0 -8.9 66.0 -8.45 66.15 -8.3 L66.6 -8.1 67.6 -8.9 68.25 -9.8 Q68.25 -10.45 68.05 -10.25 M75.5 -6.5 L75.5 -6.45 Q74.8 -4.2 73.7 -2.55 71.6 0.65 68.0 0.65 L66.45 0.5 Q67.2 -0.1 69.8 -4.05 72.65 -7.4 75.5 -6.5 M34.35 28.75 Q34.25 29.1 34.3 29.4 L34.35 30.0 34.35 28.75" fill="#e0cbcb" fill-rule="evenodd" stroke="none"/>
    <path d="M17.2 -22.85 L17.2 -22.3 Q17.2 -19.85 20.8 -17.0 24.35 -14.15 37.6 -13.55 L40.25 -13.45 Q28.25 -13.5 25.6 -13.65 L17.15 -13.75 10.85 -13.65 11.9 -15.4 12.8 -17.1 17.2 -22.85 M49.05 -13.6 Q53.0 -13.95 54.95 -14.8 L62.05 -18.05 62.15 -17.45 Q62.35 -12.85 62.85 -8.3 L63.05 -6.45 62.8 -5.4 Q62.8 -5.0 62.95 -5.0 L63.35 -5.0 63.25 -4.95 Q64.1 0.8 65.25 0.8 L65.45 0.8 65.55 1.0 66.05 1.15 66.0 1.15 65.85 1.2 65.85 2.4 65.9 4.0 Q65.9 4.95 66.5 5.4 L70.55 1.1 Q72.0 0.8 72.75 -0.05 73.4 -0.75 74.0 -2.4 L75.5 -4.8 76.7 -6.95 76.65 -7.35 76.05 -7.4 73.35 -7.05 72.8 -7.05 73.0 -7.9 73.1 -10.85 72.7 -15.05 72.4 -15.05 72.75 -15.1 73.05 -15.65 73.25 -16.35 Q73.25 -17.0 73.0 -16.75 L72.45 -16.65 71.0 -24.95 Q71.0 -26.0 73.15 -31.65 L74.65 -35.95 74.6 -36.75 78.75 13.3 62.05 38.0 62.05 37.95 57.8 -13.3 57.85 -13.3 57.8 -13.35 54.2 -13.35 50.55 -13.65 49.05 -13.6 M64.95 -7.5 L64.95 -7.55 65.05 -7.55 64.95 -7.5 M10.2 -13.65 L10.55 -14.1 10.35 -13.65 10.2 -13.65 M74.55 -19.75 L73.6 -18.9 73.1 -18.0 Q73.1 -17.65 73.2 -17.6 L73.25 -17.5 73.85 -17.35 Q74.5 -17.35 74.35 -17.5 L75.15 -19.15 75.0 -19.6 74.55 -19.75 M59.15 -1.5 L59.65 -1.4 Q60.45 -1.4 61.15 -2.25 61.85 -3.05 61.85 -3.75 L61.75 -4.3 Q60.9 -4.3 59.95 -3.25 59.05 -2.3 59.05 -1.9 59.05 -1.25 59.15 -1.5 M71.15 -13.3 L71.0 -12.65 70.95 -12.5 71.15 -13.3 M69.6 1.25 L69.45 1.35 69.45 1.25 69.6 1.25" fill="#ffffff" fill-rule="evenodd" stroke="none"/>
    <path d="M40.25 -13.45 L41.25 -13.45 49.05 -13.6 50.55 -13.65 54.2 -13.35 54.9 -13.1 Q49.6 -12.8 40.05 -12.8 L26.15 -12.65 14.5 -12.6 10.75 -13.05 10.5 -13.1 10.5 -13.05 10.3 -12.35 Q10.05 -11.85 10.05 -11.05 L10.05 -9.1 10.0 -5.15 9.85 -0.4 Q9.7 2.65 9.35 2.65 L9.1 2.5 Q8.9 2.15 8.85 1.1 L8.85 -0.5 9.0 -11.4 9.1 -11.9 9.45 -12.85 9.85 -13.4 10.0 -13.5 10.05 -13.6 10.1 -13.6 10.2 -13.65 10.35 -13.65 10.55 -14.1 10.7 -14.5 11.15 -15.75 Q11.75 -17.25 12.95 -18.05 L13.05 -17.8 12.8 -17.1 11.9 -15.4 10.85 -13.65 17.15 -13.75 25.6 -13.65 Q28.25 -13.5 40.25 -13.45 M63.05 -6.45 Q63.3 -6.9 63.8 -7.15 L64.95 -7.5 65.05 -7.55 Q65.3 -7.75 65.3 -7.1 L65.1 -6.3 64.8 -5.9 Q64.2 -5.15 63.35 -5.0 L62.95 -5.0 Q62.8 -5.0 62.8 -5.4 L63.05 -6.45 M65.45 0.8 L65.45 0.75 Q65.45 0.5 67.0 -1.2 L69.05 -3.75 70.85 -6.55 71.55 -6.85 72.8 -7.0 72.8 -7.05 73.35 -7.05 76.05 -7.4 76.65 -7.35 76.7 -6.95 75.5 -4.8 74.0 -2.4 Q73.4 -0.75 72.75 -0.05 72.0 0.8 70.55 1.1 L66.5 5.4 Q65.9 4.95 65.9 4.0 L65.85 2.4 65.85 1.2 66.0 1.15 66.05 1.15 65.55 1.0 65.45 0.8 M72.4 -15.05 L71.75 -15.0 71.65 -15.0 71.55 -15.5 Q71.55 -16.0 72.0 -16.4 L72.45 -16.65 73.0 -16.75 Q73.25 -17.0 73.25 -16.35 L73.05 -15.65 72.75 -15.1 72.4 -15.05 M59.15 -1.5 Q59.05 -1.25 59.05 -1.9 59.05 -2.3 59.95 -3.25 60.9 -4.3 61.75 -4.3 L61.85 -3.75 Q61.85 -3.05 61.15 -2.25 60.45 -1.4 59.65 -1.4 L59.15 -1.5 M74.55 -19.75 L75.0 -19.6 75.15 -19.15 74.35 -17.5 Q74.5 -17.35 73.85 -17.35 L73.25 -17.5 73.2 -17.6 Q73.1 -17.65 73.1 -18.0 L73.6 -18.9 74.55 -19.75 M70.95 -12.5 L70.7 -11.8 Q70.35 -11.05 69.35 -10.8 L68.9 -11.0 Q68.75 -11.1 68.75 -11.5 68.75 -12.45 69.45 -13.15 70.15 -13.85 70.95 -13.45 L71.15 -13.35 71.15 -13.3 70.95 -12.5 M68.05 -10.25 Q68.25 -10.45 68.25 -9.8 L67.6 -8.9 66.6 -8.1 66.15 -8.3 Q66.0 -8.45 66.0 -8.9 66.0 -9.35 66.5 -9.8 67.15 -10.4 68.05 -10.25 M75.5 -6.5 Q72.65 -7.4 69.8 -4.05 67.2 -0.1 66.45 0.5 L68.0 0.65 Q71.6 0.65 73.7 -2.55 74.8 -4.2 75.5 -6.45 L75.5 -6.5 M69.6 1.25 L69.45 1.25 69.45 1.35 69.6 1.25 M34.35 28.75 L34.35 30.0 34.3 29.4 Q34.25 29.1 34.35 28.75" fill="#a36a6a" fill-rule="evenodd" stroke="none"/>
    <path d="M33.65 -5.6 L33.65 -8.6 M33.65 6.4 L33.65 3.4 M33.65 12.4 L33.65 9.4 M33.65 18.4 L33.65 15.4 M33.65 24.4 L33.65 21.4 M33.65 30.4 L33.65 27.4 M33.65 36.4 L33.65 33.4 M33.65 0.4 L33.65 -2.6" fill="none" stroke="#3b0101" stroke-linecap="round" stroke-linejoin="round" stroke-width="1.0"/>
  </g>
</svg>
