<?xml version="1.0" encoding="UTF-8" standalone="no"?>
<svg xmlns:ffdec="https://www.free-decompiler.com/flash" xmlns:xlink="http://www.w3.org/1999/xlink" ffdec:objectType="shape" height="26.1px" width="74.6px" xmlns="http://www.w3.org/2000/svg">
  <g transform="matrix(1.0, 0.0, 0.0, 1.0, 13.95, 20.7)">
    <path d="M15.3 -19.4 Q16.25 -20.6 16.95 -20.7 L17.1 -20.6 17.1 -20.4 Q17.1 -19.95 14.4 -16.4 L13.85 -16.5 13.8 -16.85 12.75 -15.5 12.35 -15.6 12.3 -16.1 Q12.3 -17.05 13.15 -18.15 L14.85 -20.1 15.3 -19.55 15.3 -19.4 M5.1 -0.2 L4.8 0.0 0.2 -0.3 0.15 -0.7 Q0.15 -1.15 2.7 -1.2 5.25 -1.3 5.25 -0.55 L5.1 -0.2 M39.6 -11.1 Q39.15 -10.5 37.8 -10.5 L32.55 -11.1 32.45 -11.5 Q32.45 -12.45 35.7 -12.1 38.85 -11.8 39.6 -11.1 M39.9 -10.8 Q43.05 -13.1 43.85 -11.55 L42.0 -10.8 40.35 -10.35 40.05 -10.5 39.9 -10.5 39.9 -10.8 M59.65 -14.3 Q58.65 -12.55 58.65 -10.65 L58.35 -8.05 58.35 -7.35 58.1 -7.1 Q57.1 -8.25 57.0 -10.55 56.9 -12.8 56.2 -13.25 55.5 -13.25 55.5 -13.5 55.5 -13.95 56.6 -14.15 57.95 -14.35 58.55 -15.3 L59.3 -16.5 Q59.9 -17.2 60.6 -16.85 L60.65 -16.5 59.65 -14.3 M59.1 -0.05 L59.0 0.35 58.65 0.5 58.2 -0.05 Q58.2 -0.45 58.65 -0.75 L59.1 -0.05 M58.8 -3.85 Q58.8 -3.4 58.1 -3.0 L57.8 -3.45 57.8 -4.65 Q58.8 -4.95 58.8 -3.85 M-10.35 -0.85 Q-8.15 -0.5 -8.15 0.0 -8.15 0.65 -10.2 0.65 -11.1 0.65 -11.9 0.15 L-12.45 2.45 -13.2 5.25 -13.2 5.35 -13.5 5.4 Q-13.95 5.4 -13.95 4.4 -13.95 2.15 -13.05 0.2 L-13.2 0.15 -12.15 -1.95 Q-11.45 -3.35 -10.35 -4.35 L-6.35 -8.55 -5.9 -7.95 Q-5.9 -7.15 -9.25 -3.55 L-11.7 -0.95 -10.35 -0.85" fill="#999999" fill-rule="evenodd" stroke="none"/>
  </g>
</svg>
