<?xml version="1.0" encoding="UTF-8" standalone="no"?>
<svg xmlns:ffdec="https://www.free-decompiler.com/flash" xmlns:xlink="http://www.w3.org/1999/xlink" ffdec:objectType="shape" height="13.0px" width="12.4px" xmlns="http://www.w3.org/2000/svg">
  <g transform="matrix(1.0, 0.0, 0.0, 1.0, 6.2, 6.5)">
    <path d="M1.25 -6.2 L1.3 -6.15 1.4 -6.15 1.5 -6.1 1.9 -5.95 2.55 -5.65 2.65 -5.6 2.75 -5.55 2.95 -5.45 4.3 -4.6 4.35 -4.6 4.35 -4.55 Q5.65 -3.6 5.65 -2.65 L6.15 -0.8 6.15 -0.75 6.2 0.5 6.2 0.95 6.2 1.6 6.2 1.65 6.2 1.9 6.2 2.0 6.05 2.9 6.05 2.95 5.7 3.85 Q4.55 6.1 1.25 6.25 L0.75 6.25 0.15 6.25 Q-3.9 6.1 -5.4 4.0 L-5.95 3.0 -5.95 2.95 -6.1 2.25 -6.15 2.2 -6.15 2.15 -6.15 1.65 -6.2 1.25 -6.2 1.2 -6.2 0.5 Q-6.15 -1.6 -5.7 -2.8 -4.75 -5.55 -1.95 -6.35 L-1.9 -6.35 1.2 -6.2 1.25 -6.2" fill="#a36a6a" fill-rule="evenodd" stroke="none"/>
    <path d="M1.25 -5.45 L1.6 -5.3 2.35 -4.95 2.5 -4.85 2.55 -4.85 3.9 -4.0 Q4.9 -3.2 4.95 -2.5 L5.4 -0.7 5.5 0.5 5.5 0.95 5.45 1.6 5.45 1.95 5.0 3.8 3.8 5.55 3.75 5.6 Q2.75 6.4 1.2 6.5 L1.05 6.2 Q0.65 5.3 0.65 4.4 L0.75 1.6 0.75 0.5 0.75 -0.1 0.7 -1.25 0.65 -2.4 0.55 -3.65 0.8 -3.95 0.8 -4.0 1.15 -5.25 1.25 -5.45" fill="#f2eaea" fill-rule="evenodd" stroke="none"/>
    <path d="M1.2 6.5 L0.75 6.5 0.15 6.5 Q-3.4 6.3 -4.8 3.9 L-5.4 2.1 -5.45 1.6 -5.45 1.25 -5.45 0.5 Q-5.4 -1.45 -5.0 -2.55 -4.2 -4.95 -1.75 -5.65 L1.05 -5.5 1.15 -5.45 1.25 -5.45 1.15 -5.25 0.8 -4.0 0.8 -3.95 0.55 -3.65 0.65 -2.4 0.7 -1.25 0.75 -0.1 0.75 0.5 0.75 1.6 0.65 4.4 Q0.65 5.3 1.05 6.2 L1.2 6.5" fill="#e0cbcb" fill-rule="evenodd" stroke="none"/>
  </g>
</svg>
