<?xml version="1.0" encoding="UTF-8" standalone="no"?>
<svg xmlns:ffdec="https://www.free-decompiler.com/flash" xmlns:xlink="http://www.w3.org/1999/xlink" ffdec:objectType="shape" height="4.65px" width="27.1px" xmlns="http://www.w3.org/2000/svg">
  <g transform="matrix(1.0, 0.0, 0.0, 1.0, 4.2, 1.8)">
    <path d="M21.8 1.2 Q22.9 1.15 22.9 2.0 L22.45 2.65 21.45 2.85 Q20.65 2.85 20.65 2.15 20.65 1.25 21.8 1.2 M18.55 1.4 Q19.55 1.55 19.55 1.9 19.55 2.45 18.95 2.55 L13.2 2.7 4.7 2.6 4.4 2.35 4.25 1.9 Q4.25 1.5 4.8 1.35 L10.6 1.1 18.55 1.4 M0.35 1.5 Q-0.55 2.75 -2.2 2.75 -3.4 2.75 -3.9 1.8 L-4.2 0.85 Q-4.2 -1.65 -1.65 -1.8 0.9 -2.0 0.9 0.0 0.9 0.7 0.35 1.5" fill="#ffffff" fill-rule="evenodd" stroke="none"/>
  </g>
</svg>
