<?xml version="1.0" encoding="UTF-8" standalone="no"?>
<svg xmlns:ffdec="https://www.free-decompiler.com/flash" xmlns:xlink="http://www.w3.org/1999/xlink" ffdec:objectType="shape" height="14.5px" width="29.25px" xmlns="http://www.w3.org/2000/svg">
  <g transform="matrix(1.0, 0.0, 0.0, 1.0, 11.2, 4.8)">
    <path d="M15.25 -1.75 L15.25 -0.9 13.3 -0.9 13.3 0.9 3.85 0.9 3.85 -0.2 3.55 -0.2 3.55 -0.25 3.1 -0.25 3.1 0.15 1.95 0.15 2.35 1.7 -0.8 2.5 -1.75 0.1 -1.9 0.1 -1.9 -0.25 -4.55 -0.25 -4.55 3.2 -6.8 3.2 -6.8 -0.25 -11.2 -0.25 -11.2 -1.4 -3.15 -1.4 -3.15 -3.65 -8.15 -3.65 -8.15 -1.75 -9.05 -1.75 -9.05 -3.65 -10.95 -3.65 -10.95 -1.75 -11.2 -1.75 -11.15 -4.8 3.85 -4.8 3.85 -4.15 15.25 -4.15 15.25 -3.35 14.8 -3.35 14.8 -1.75 15.25 -1.75 M4.3 -3.35 L4.3 -1.75 14.0 -1.75 14.0 -3.35 4.3 -3.35 M3.1 -1.4 L3.1 -3.65 -1.9 -3.65 -1.9 -1.4 3.1 -1.4 M16.3 -3.35 L16.3 -4.15 18.05 -4.15 18.05 -0.85 16.3 -0.85 16.3 -1.75 16.3 -3.35 M2.5 4.85 L0.65 5.35 0.3 3.95 2.15 3.45 2.5 4.85 M2.95 6.45 L3.3 7.75 1.45 8.25 1.1 6.95 2.95 6.45" fill="#333333" fill-rule="evenodd" stroke="none"/>
    <path d="M15.25 -1.75 L14.8 -1.75 14.8 -3.35 15.25 -3.35 16.3 -3.35 16.3 -1.75 15.25 -1.75 M-11.2 -1.75 L-10.95 -1.75 -10.95 -3.65 -9.05 -3.65 -9.05 -1.75 -8.15 -1.75 -8.15 -3.65 -3.15 -3.65 -3.15 -1.4 -11.2 -1.4 -11.2 -1.75 M-0.8 2.5 L2.35 1.7 4.3 8.9 1.15 9.7 -0.8 2.5 M3.1 -1.4 L-1.9 -1.4 -1.9 -3.65 3.1 -3.65 3.1 -1.4 M4.3 -3.35 L14.0 -3.35 14.0 -1.75 4.3 -1.75 4.3 -3.35 M2.95 6.45 L1.1 6.95 1.45 8.25 3.3 7.75 2.95 6.45 M2.5 4.85 L2.15 3.45 0.3 3.95 0.65 5.35 2.5 4.85" fill="#666666" fill-rule="evenodd" stroke="none"/>
  </g>
</svg>
