<?xml version="1.0" encoding="UTF-8" standalone="no"?>
<svg xmlns:ffdec="https://www.free-decompiler.com/flash" xmlns:xlink="http://www.w3.org/1999/xlink" ffdec:objectType="shape" height="12.3px" width="12.35px" xmlns="http://www.w3.org/2000/svg">
  <g transform="matrix(1.0, 0.0, 0.0, 1.0, 6.25, 5.9)">
    <path d="M4.0 -3.95 L3.5 -5.15 4.2 -4.7 4.25 -4.7 4.25 -4.65 Q5.55 -3.7 5.55 -2.75 L6.05 -0.9 6.05 -0.85 6.1 0.4 6.1 0.85 6.1 1.5 6.1 1.55 6.1 1.8 6.1 1.9 5.95 2.8 5.95 2.85 5.6 3.75 Q4.85 5.15 3.3 5.75 L3.65 5.5 3.7 5.45 4.9 3.7 5.35 1.85 5.35 1.5 5.4 0.85 5.4 0.4 5.3 -0.8 4.85 -2.6 Q4.8 -3.25 4.0 -3.95 M-2.9 5.7 Q-4.65 5.1 -5.5 3.9 L-6.05 2.9 -6.05 2.85 -6.2 2.15 -6.25 2.1 -6.25 2.05 -6.25 1.75 -5.45 2.35 -4.9 3.8 Q-4.2 5.05 -2.9 5.7 M-4.0 -4.5 L-4.25 -4.45 -5.3 -3.95 Q-4.6 -5.2 -3.4 -5.9 L-3.0 -5.25 -4.0 -4.5" fill="#a36a6a" fill-rule="evenodd" stroke="none"/>
    <path d="M3.3 5.75 L1.1 6.4 1.0 6.15 0.95 6.1 Q0.55 5.2 0.55 4.3 L0.65 1.5 0.65 0.4 0.65 -0.2 0.6 -1.15 1.0 -0.9 Q2.85 0.4 3.75 -0.3 4.7 -1.1 4.15 -3.35 L4.0 -3.95 Q4.8 -3.25 4.85 -2.6 L5.3 -0.8 5.4 0.4 5.4 0.85 5.35 1.5 5.35 1.85 4.9 3.7 3.7 5.45 3.65 5.5 3.3 5.75" fill="#f2eaea" fill-rule="evenodd" stroke="none"/>
    <path d="M1.1 6.4 L0.65 6.4 0.05 6.4 -2.9 5.7 Q-4.2 5.05 -4.9 3.8 L-5.45 2.35 -4.4 2.4 Q-3.35 2.15 -2.5 1.0 -1.65 -0.15 -1.6 -1.5 -1.65 -2.95 -2.4 -3.8 -3.1 -4.6 -4.0 -4.5 L-3.0 -5.25 Q-2.6 -5.4 -1.3 -4.65 -0.05 -3.9 0.6 -1.15 L0.65 -0.2 0.65 0.4 0.65 1.5 0.55 4.3 Q0.55 5.2 0.95 6.1 L1.0 6.15 1.1 6.4" fill="#e0cbcb" fill-rule="evenodd" stroke="none"/>
  </g>
</svg>
