<?xml version="1.0" encoding="UTF-8" standalone="no"?>
<svg xmlns:ffdec="https://www.free-decompiler.com/flash" xmlns:xlink="http://www.w3.org/1999/xlink" ffdec:objectType="shape" height="13.55px" width="22.55px" xmlns="http://www.w3.org/2000/svg">
  <g transform="matrix(1.0, 0.0, 0.0, 1.0, 11.3, 6.75)">
    <path d="M11.25 -0.4 L11.25 1.1 10.1 1.75 10.1 3.0 3.3 6.8 -6.75 6.65 -7.25 5.65 -9.0 5.65 -9.8 4.25 3.15 4.15 11.25 -0.4" fill="#666666" fill-rule="evenodd" stroke="none"/>
    <path d="M-9.8 4.25 L-1.65 -0.4 11.25 -0.4 3.15 4.15 -9.8 4.25" fill="#999999" fill-rule="evenodd" stroke="none"/>
    <path d="M10.45 -3.7 L10.45 -2.2 9.3 -1.55 9.3 -0.3 2.5 3.5 -7.55 3.35 -8.05 2.35 -9.8 2.35 -10.6 0.95 2.35 0.85 10.45 -3.7" fill="#666666" fill-rule="evenodd" stroke="none"/>
    <path d="M10.45 -3.7 L2.35 0.85 -10.6 0.95 -2.45 -3.7 10.45 -3.7" fill="#999999" fill-rule="evenodd" stroke="none"/>
    <path d="M-11.3 -2.1 L1.65 -2.2 9.75 -6.75 9.75 -5.25 8.6 -4.6 8.6 -3.35 1.8 0.45 -8.25 0.3 -8.75 -0.7 -10.5 -0.7 -11.3 -2.1" fill="#666666" fill-rule="evenodd" stroke="none"/>
    <path d="M9.75 -6.75 L1.65 -2.2 -11.3 -2.1 -3.15 -6.75 9.75 -6.75" fill="#999999" fill-rule="evenodd" stroke="none"/>
    <path d="M-0.25 -6.2 L-0.25 -5.65 -0.7 -5.4 -0.7 -4.95 -3.65 -3.5 -7.95 -3.6 -8.2 -3.95 -8.95 -3.95 -9.3 -4.5 -3.7 -4.5 -0.25 -6.2" fill="#666666" fill-rule="evenodd" stroke="none"/>
    <path d="M-0.25 -6.2 L-3.7 -4.5 -9.3 -4.5 -5.75 -6.2 -0.25 -6.2" fill="#999999" fill-rule="evenodd" stroke="none"/>
    <path d="M6.55 -6.05 L3.1 -4.35 -2.5 -4.35 1.05 -6.05 6.55 -6.05" fill="#999999" fill-rule="evenodd" stroke="none"/>
    <path d="M-2.5 -4.35 L3.1 -4.35 6.55 -6.05 6.55 -5.5 6.1 -5.25 6.1 -4.8 3.15 -3.35 -1.15 -3.45 -1.4 -3.8 -2.15 -3.8 -2.5 -4.35" fill="#666666" fill-rule="evenodd" stroke="none"/>
  </g>
</svg>
