<?xml version="1.0" encoding="UTF-8" standalone="no"?>
<svg xmlns:ffdec="https://www.free-decompiler.com/flash" xmlns:xlink="http://www.w3.org/1999/xlink" ffdec:objectType="shape" height="37.95px" width="38.45px" xmlns="http://www.w3.org/2000/svg">
  <g transform="matrix(1.0, 0.0, 0.0, 1.0, 19.25, 18.95)">
    <path d="M19.2 -17.2 L19.2 18.0 18.9 18.7 18.2 19.0 -18.25 19.0 Q-18.65 19.0 -18.95 18.7 L-19.25 18.0 -19.25 -2.45 -19.15 -2.85 -19.15 -16.6 -18.85 -17.3 -18.15 -18.15 -18.15 -18.2 -17.75 -18.65 -17.05 -18.95 -16.95 -18.95 -16.25 -18.65 -15.95 -18.2 18.2 -18.2 18.9 -17.9 19.2 -17.2" fill="#a36a6a" fill-rule="evenodd" stroke="none"/>
    <path d="M-18.15 -16.25 L16.9 -16.0 18.2 -17.2 18.2 18.0 -18.25 18.0 -18.25 -2.45 -18.15 -2.45 -18.15 -16.25" fill="#e0cbcb" fill-rule="evenodd" stroke="none"/>
    <path d="M18.2 -17.2 L16.9 -16.0 -18.15 -16.25 -18.15 -16.6 -17.35 -17.6 -17.05 -17.95 -16.95 -17.95 -17.55 -17.2 18.2 -17.2" fill="#ffffff" fill-rule="evenodd" stroke="none"/>
    <path d="M-10.6 -6.2 L-10.6 -3.2 M-10.6 -12.2 L-10.6 -9.2 M-8.8 -17.2 L-10.6 -16.2 -10.6 -15.2 M-10.6 11.8 L-10.6 14.8 M-10.6 5.8 L-10.6 8.8 M-10.6 -0.2 L-10.6 2.8" fill="none" stroke="#3b0101" stroke-linecap="round" stroke-linejoin="round" stroke-width="1.0"/>
  </g>
</svg>
