<?xml version="1.0" encoding="UTF-8" standalone="no"?>
<svg xmlns:ffdec="https://www.free-decompiler.com/flash" xmlns:xlink="http://www.w3.org/1999/xlink" ffdec:objectType="shape" height="28.1px" width="64.85px" xmlns="http://www.w3.org/2000/svg">
  <g transform="matrix(1.0, 0.0, 0.0, 1.0, 33.35, 12.7)">
    <path d="M31.5 -9.25 L31.35 -8.65 14.75 14.6 14.35 14.9 13.9 15.0 -31.7 15.25 -32.25 15.4 -32.3 15.4 -32.9 15.2 -33.25 14.65 -33.2 14.05 -33.35 12.7 -33.2 12.1 -31.25 8.65 -31.2 8.55 -15.25 -12.3 -14.85 -12.6 -14.4 -12.7 30.55 -11.75 31.25 -11.45 31.5 -10.75 31.5 -9.25" fill="#a36a6a" fill-rule="evenodd" stroke="none"/>
    <path d="M30.5 -10.75 L30.5 -9.25 13.9 14.0 -32.2 14.25 -32.25 14.4 -32.3 14.4 -32.2 14.25 -32.35 12.6 13.5 12.9 30.5 -10.75" fill="#e0cbcb" fill-rule="evenodd" stroke="none"/>
    <path d="M-32.35 12.6 L-30.4 9.15 -14.45 -11.7 30.5 -10.75 13.5 12.9 -32.35 12.6" fill="#ffffff" fill-rule="evenodd" stroke="none"/>
  </g>
</svg>
