<?xml version="1.0" encoding="UTF-8" standalone="no"?>
<svg xmlns:ffdec="https://www.free-decompiler.com/flash" xmlns:xlink="http://www.w3.org/1999/xlink" ffdec:objectType="shape" height="77.0px" width="24.05px" xmlns="http://www.w3.org/2000/svg">
  <g transform="matrix(1.0, 0.0, 0.0, 1.0, 12.2, 38.6)">
    <path d="M6.1 -38.6 L6.65 -38.6 7.3 -38.35 7.65 -37.8 7.7 -37.55 7.7 -37.4 11.85 12.65 11.7 13.25 -5.0 37.95 -5.45 38.3 -5.95 38.4 -6.5 38.2 -8.25 36.75 -8.5 36.4 -8.6 36.05 -12.2 -13.85 -12.0 -14.55 5.3 -38.2 5.65 -38.5 6.1 -38.6" fill="#a36a6a" fill-rule="evenodd" stroke="none"/>
    <path d="M-11.0 -13.85 L6.3 -37.5 6.85 -37.5 6.9 -37.25 11.05 12.8 -5.65 37.5 -9.9 -13.8 -9.85 -13.8 -9.9 -13.85 -11.0 -13.85 M5.65 -7.55 L5.1 -7.55 5.1 -7.5 3.85 -7.35 3.15 -7.05 2.9 -6.7 1.35 -4.25 -0.7 -1.7 -2.25 0.25 -2.25 0.35 -2.15 0.5 -1.65 0.65 -1.7 0.65 -1.85 0.7 -1.85 1.9 -1.8 3.5 Q-1.8 4.45 -1.2 4.9 L2.85 0.6 Q4.3 0.3 5.05 -0.55 5.7 -1.25 6.3 -2.9 L7.8 -5.3 8.65 -6.7 9.0 -7.45 8.95 -7.85 8.35 -7.9 5.65 -7.55 M3.45 -13.85 L3.25 -13.95 Q2.45 -14.35 1.75 -13.65 1.05 -12.95 1.05 -12.0 1.05 -11.6 1.2 -11.5 L1.65 -11.3 Q2.65 -11.55 3.0 -12.3 L3.25 -13.0 3.45 -13.8 3.45 -13.85 M3.85 -16.0 L3.95 -15.5 4.05 -15.5 4.75 -15.55 4.8 -15.55 5.05 -15.6 5.35 -16.15 5.55 -16.85 Q5.55 -17.5 5.3 -17.25 L4.75 -17.15 4.3 -16.9 Q3.85 -16.5 3.85 -16.0 M7.3 -20.1 L6.85 -20.25 5.9 -19.4 5.4 -18.5 5.5 -18.1 5.55 -18.0 6.15 -17.85 Q6.8 -17.85 6.65 -18.0 7.45 -19.35 7.45 -19.65 L7.3 -20.1 M1.75 0.85 L1.75 0.75 1.9 0.75 1.75 0.85 M-6.55 -2.75 Q-5.85 -3.55 -5.85 -4.25 L-5.95 -4.8 Q-6.8 -4.8 -7.75 -3.75 L-8.65 -2.4 -8.55 -2.0 -8.05 -1.9 Q-7.25 -1.9 -6.55 -2.75 M-3.9 -7.65 L-4.65 -6.95 -4.75 -6.7 -4.9 -5.9 -4.75 -5.5 -4.35 -5.5 Q-3.5 -5.65 -2.9 -6.4 L-2.65 -6.7 -2.6 -6.8 -2.4 -7.6 Q-2.4 -8.25 -2.65 -8.05 L-2.75 -8.05 -2.75 -8.0 -3.9 -7.65 M0.55 -10.3 Q0.55 -10.95 0.35 -10.75 -0.55 -10.9 -1.2 -10.3 -1.7 -9.85 -1.7 -9.4 L-1.55 -8.8 -1.1 -8.6 -0.1 -9.4 0.55 -10.3" fill="#ffffff" fill-rule="evenodd" stroke="none"/>
    <path d="M-11.0 -13.85 L-9.9 -13.85 -9.85 -13.8 -9.9 -13.8 -5.65 37.5 -7.4 36.05 -11.0 -13.85 M7.8 -7.0 L7.8 -6.95 7.75 -6.7 Q7.05 -4.6 6.0 -3.05 3.9 0.15 0.3 0.15 L-1.25 0.0 Q-0.5 -0.6 2.1 -4.55 3.4 -6.05 4.65 -6.7 6.25 -7.5 7.8 -7.0" fill="#e0cbcb" fill-rule="evenodd" stroke="none"/>
    <path d="M7.3 -20.1 L7.45 -19.65 Q7.45 -19.35 6.65 -18.0 6.8 -17.85 6.15 -17.85 L5.55 -18.0 5.5 -18.1 5.4 -18.5 5.9 -19.4 6.85 -20.25 7.3 -20.1 M3.85 -16.0 Q3.85 -16.5 4.3 -16.9 L4.75 -17.15 5.3 -17.25 Q5.55 -17.5 5.55 -16.85 L5.35 -16.15 5.05 -15.6 4.8 -15.55 4.75 -15.55 4.05 -15.5 3.95 -15.5 3.85 -16.0 M3.45 -13.85 L3.45 -13.8 3.25 -13.0 3.0 -12.3 Q2.65 -11.55 1.65 -11.3 L1.2 -11.5 Q1.05 -11.6 1.05 -12.0 1.05 -12.95 1.75 -13.65 2.45 -14.35 3.25 -13.95 L3.45 -13.85 M5.65 -7.55 L8.35 -7.9 8.95 -7.85 9.0 -7.45 8.65 -6.7 7.8 -5.3 6.3 -2.9 Q5.7 -1.25 5.05 -0.55 4.3 0.3 2.85 0.6 L-1.2 4.9 Q-1.8 4.45 -1.8 3.5 L-1.85 1.9 -1.85 0.7 -1.7 0.65 -1.65 0.65 -2.15 0.5 -2.25 0.35 -2.25 0.25 -0.7 -1.7 1.35 -4.25 2.9 -6.7 3.15 -7.05 3.85 -7.35 5.1 -7.5 5.1 -7.55 5.65 -7.55 M7.8 -7.0 Q6.25 -7.5 4.65 -6.7 3.4 -6.05 2.1 -4.55 -0.5 -0.6 -1.25 0.0 L0.3 0.15 Q3.9 0.15 6.0 -3.05 7.05 -4.6 7.75 -6.7 L7.8 -6.95 7.8 -7.0 M0.55 -10.3 L-0.1 -9.4 -1.1 -8.6 -1.55 -8.8 -1.7 -9.4 Q-1.7 -9.85 -1.2 -10.3 -0.55 -10.9 0.35 -10.75 0.55 -10.95 0.55 -10.3 M-3.9 -7.65 L-2.75 -8.0 -2.75 -8.05 -2.65 -8.05 Q-2.4 -8.25 -2.4 -7.6 L-2.6 -6.8 -2.65 -6.7 -2.9 -6.4 Q-3.5 -5.65 -4.35 -5.5 L-4.75 -5.5 -4.9 -5.9 -4.75 -6.7 -4.65 -6.95 -3.9 -7.65 M-6.55 -2.75 Q-7.25 -1.9 -8.05 -1.9 L-8.55 -2.0 -8.65 -2.4 -7.75 -3.75 Q-6.8 -4.8 -5.95 -4.8 L-5.85 -4.25 Q-5.85 -3.55 -6.55 -2.75 M1.75 0.85 L1.9 0.75 1.75 0.75 1.75 0.85" fill="#a36a6a" fill-rule="evenodd" stroke="none"/>
  </g>
</svg>
