<?xml version="1.0" encoding="UTF-8" standalone="no"?>
<svg xmlns:ffdec="https://www.free-decompiler.com/flash" xmlns:xlink="http://www.w3.org/1999/xlink" ffdec:objectType="shape" height="42.95px" width="51.55px" xmlns="http://www.w3.org/2000/svg">
  <g transform="matrix(1.0, 0.0, 0.0, 1.0, 32.35, 20.0)">
    <path d="M17.6 -7.75 Q13.4 -6.5 12.1 -3.4 11.35 -1.7 11.35 1.75 11.35 5.45 12.9 7.85 14.45 10.25 14.45 11.65 14.45 16.2 9.45 18.8 4.25 21.55 -7.65 22.95 L-14.35 22.95 Q-24.4 21.6 -29.1 14.7 -32.35 9.9 -32.35 4.15 -32.35 1.95 -30.4 -3.0 -28.75 -7.35 -27.6 -9.05 -24.9 -13.0 -20.7 -15.3 -14.65 -18.65 -3.75 -19.95 L-3.75 -20.0 2.5 -20.0 Q11.6 -20.1 16.05 -16.45 19.2 -13.9 19.2 -10.85 L18.9 -9.7 18.65 -9.4 Q18.4 -8.7 17.45 -8.7 L17.4 -8.7 17.35 -8.65 17.75 -8.2 17.6 -7.75" fill="#00ff00" fill-rule="evenodd" stroke="none"/>
  </g>
</svg>
