<?xml version="1.0" encoding="UTF-8" standalone="no"?>
<svg xmlns:ffdec="https://www.free-decompiler.com/flash" xmlns:xlink="http://www.w3.org/1999/xlink" ffdec:objectType="shape" height="24.35px" width="50.55px" xmlns="http://www.w3.org/2000/svg">
  <g transform="matrix(1.0, 0.0, 0.0, 1.0, 16.9, 10.75)">
    <path d="M6.2 -7.7 Q5.7 -7.7 5.45 -7.95 5.6 -8.4 7.4 -8.7 L9.95 -9.35 10.8 -10.45 Q11.45 -11.2 11.45 -10.15 11.45 -9.2 10.4 -8.55 9.65 -8.1 8.5 -7.85 L8.35 -7.4 8.15 -6.8 8.0 -6.4 7.8 -6.35 Q7.3 -6.35 7.3 -7.2 L6.4 -7.25 6.35 -7.55 6.45 -7.7 6.2 -7.7 M2.95 -4.65 L2.1 -4.8 1.95 -4.7 Q1.9 -4.6 1.75 -4.6 L1.2 -5.15 Q1.2 -5.7 1.8 -5.75 L3.05 -5.65 3.65 -5.4 Q3.3 -4.7 2.95 -4.65 M31.85 -2.7 L32.0 -2.3 31.5 -0.3 Q30.95 1.4 30.4 1.8 29.9 1.2 29.9 0.0 29.9 -1.1 30.15 -1.6 30.55 -2.35 31.85 -2.7 M33.65 -5.3 Q33.65 -4.7 32.0 -3.9 31.55 -4.2 31.55 -4.5 L32.3 -5.15 Q33.1 -5.7 33.5 -5.7 L33.65 -5.3 M30.8 2.9 L30.4 3.15 Q29.95 2.95 29.95 2.5 L30.2 2.4 30.4 2.0 30.8 2.5 30.8 2.9 M16.45 0.75 L16.0 1.65 16.4 2.1 Q16.4 2.65 15.95 2.65 14.7 2.65 14.7 1.4 14.7 0.5 15.6 0.2 16.45 -0.1 16.45 0.75 M3.3 2.1 L2.25 3.35 Q1.15 4.2 1.0 5.35 0.95 5.35 0.65 5.5 0.25 5.5 0.25 4.6 0.25 3.6 0.6 3.3 L3.1 1.85 3.3 2.1 M2.25 4.4 Q2.25 4.05 3.3 3.4 4.35 2.7 5.05 2.7 5.55 2.7 5.85 3.0 L4.6 3.65 Q3.4 4.0 3.25 4.1 2.95 4.3 3.0 4.85 L3.15 5.55 Q3.15 6.05 2.8 6.05 L2.45 5.95 2.25 4.4 M-13.7 -1.25 L-12.7 -0.7 -12.7 -0.45 -13.0 -0.4 Q-14.3 -0.4 -14.75 -1.15 L-14.9 -1.95 Q-14.9 -2.9 -14.45 -2.95 -14.05 -3.05 -14.05 -1.75 -14.05 -1.35 -13.7 -1.25 M-6.35 -6.85 Q-4.6 -7.0 -2.15 -5.2 L-1.9 -5.4 -1.6 -5.65 -0.6 -5.2 0.1 -4.75 -0.65 -3.95 Q-1.5 -3.25 -1.85 -3.2 L-1.85 -2.6 Q-1.95 -2.1 -2.4 -2.1 -3.1 -2.1 -3.05 -3.05 -3.0 -4.25 -3.45 -4.6 L-5.2 -5.5 Q-6.4 -6.1 -6.4 -6.55 L-6.35 -6.85 M-8.3 12.35 L-6.3 12.7 -6.25 12.9 -6.45 13.3 -6.85 13.6 -7.7 13.4 Q-8.15 13.4 -8.7 12.9 L-9.3 12.1 -8.3 12.35 M-9.6 11.85 L-9.15 12.4 -9.25 12.5 -9.75 12.1 -9.75 11.85 -9.6 11.85 M-13.95 2.25 L-13.7 3.35 -13.9 3.85 -13.65 4.4 -13.45 5.05 Q-13.45 5.6 -13.7 5.6 -14.75 5.6 -14.8 3.6 -14.6 1.7 -14.3 1.4 L-13.95 2.25 M-11.35 5.2 Q-10.25 5.2 -10.25 6.2 L-10.55 6.4 -11.2 6.15 Q-11.8 6.15 -12.4 6.6 -12.8 6.6 -12.8 6.1 -12.8 5.15 -12.6 5.1 L-11.35 5.2 M-16.15 10.25 L-14.9 10.75 Q-14.7 10.75 -14.15 11.1 L-13.6 11.5 -13.65 11.05 Q-13.55 10.75 -13.2 10.75 -13.0 10.75 -11.5 11.55 L-9.4 12.55 Q-9.5 12.7 -9.95 12.85 L-10.55 12.95 -11.15 12.7 -11.35 12.8 -11.55 12.9 Q-12.8 12.9 -14.9 11.95 -16.9 11.0 -16.9 10.6 -16.9 9.9 -16.15 10.25 M-4.85 12.85 Q-4.85 13.15 -5.45 13.15 L-5.9 13.1 -5.95 12.85 Q-5.95 12.55 -5.35 12.55 -5.05 12.55 -4.9 12.7 L-4.85 12.85" fill="#999999" fill-rule="evenodd" stroke="none"/>
  </g>
</svg>
