<?xml version="1.0" encoding="UTF-8" standalone="no"?>
<svg xmlns:ffdec="https://www.free-decompiler.com/flash" xmlns:xlink="http://www.w3.org/1999/xlink" ffdec:objectType="shape" height="30.7px" width="85.9px" xmlns="http://www.w3.org/2000/svg">
  <g transform="matrix(1.0, 0.0, 0.0, 1.0, 42.95, 15.35)">
    <path d="M8.55 -10.9 L5.55 -10.95 Q5.0 -10.85 5.0 -10.25 5.0 -9.9 5.5 -9.7 L8.25 -8.85 7.15 -8.8 Q4.05 -9.05 4.05 -7.85 L4.1 -7.5 Q2.3 -7.6 1.7 -7.05 L1.4 -6.5 Q1.4 -5.8 2.0 -5.6 3.25 -5.15 4.1 -4.55 L1.65 -2.85 Q0.9 -2.3 0.9 -1.2 0.9 -0.75 1.05 -0.55 1.5 0.0 3.0 0.0 L4.5 -0.1 Q5.0 -0.3 5.0 -0.9 5.0 -1.85 8.55 -2.2 12.1 -2.6 12.1 -3.35 12.1 -3.75 11.4 -3.95 L8.9 -4.85 9.25 -5.0 Q10.0 -5.55 10.0 -5.85 L9.9 -6.4 9.65 -6.6 11.9 -6.65 16.75 -6.15 18.6 -6.3 Q19.05 -6.5 19.05 -7.05 19.05 -8.1 16.75 -8.4 L23.85 -7.95 Q25.25 -8.05 25.25 -8.85 25.25 -9.95 15.9 -11.7 L4.1 -12.05 Q4.95 -11.55 8.55 -10.9 M30.0 -10.5 Q42.45 -6.15 42.45 0.0 42.45 6.15 30.0 10.5 17.6 14.85 0.0 14.85 -17.6 14.85 -30.05 10.5 -42.45 6.15 -42.45 0.0 -42.45 -6.15 -30.05 -10.5 -17.6 -14.85 0.0 -14.85 17.6 -14.85 30.0 -10.5 M-3.7 4.05 L-1.65 2.65 Q-1.65 0.35 -5.35 1.95 -7.25 2.75 -9.1 4.05 L-9.0 4.6 Q-9.85 4.55 -10.25 5.05 L-10.5 5.75 -10.35 6.3 -10.05 6.55 Q-11.5 6.05 -12.15 6.55 -12.5 6.85 -12.5 7.4 L-12.25 8.1 -14.85 8.85 -15.1 9.3 -17.25 8.9 -19.1 8.5 Q-20.4 8.5 -20.4 9.7 -16.1 12.8 -10.9 12.8 L-3.35 12.5 Q-2.65 12.35 -2.65 11.5 -2.65 10.35 -6.15 10.25 L-5.15 9.85 -4.75 9.1 -5.25 7.9 -5.75 6.5 Q-5.75 5.3 -3.7 4.05 M-30.85 -5.05 L-30.4 -4.9 -30.05 -4.7 -30.1 -3.9 Q-29.95 -3.3 -29.05 -3.3 L-28.05 -3.6 -26.8 -3.95 -24.8 -3.4 -21.5 -2.8 Q-20.65 -1.15 -18.1 -1.0 L-15.75 -1.15 -12.2 -1.75 Q-12.1 -0.8 -11.05 -0.1 L-10.05 0.4 Q-7.5 0.4 -6.4 -0.65 -6.9 -1.15 -9.35 -1.8 -10.0 -2.05 -9.85 -2.9 -10.25 -3.55 -13.8 -3.55 -18.75 -3.55 -20.85 -5.15 -22.9 -6.75 -24.95 -6.75 L-25.5 -6.7 Q-25.1 -7.25 -25.1 -8.0 -24.1 -7.7 -23.6 -8.2 -23.35 -8.5 -23.35 -8.95 -23.35 -12.35 -33.5 -5.4 -33.5 -4.4 -32.55 -4.4 L-30.85 -5.05 M37.4 2.05 Q36.75 2.05 35.75 3.05 34.75 4.0 34.3 4.0 34.7 2.95 33.85 2.05 33.1 1.25 32.4 1.25 32.1 1.25 31.2 1.8 30.3 2.35 29.7 2.35 L29.35 2.05 Q29.0 1.7 28.65 1.7 27.9 1.7 27.0 2.2 L25.75 2.95 Q25.75 1.85 24.6 1.85 L23.2 2.3 23.0 1.8 Q22.85 1.5 22.2 1.5 L21.45 1.65 21.4 0.75 Q21.25 0.25 20.55 0.25 19.9 0.25 19.35 0.65 L18.45 1.3 18.45 1.2 Q18.8 -0.25 17.35 0.4 L15.05 1.7 15.0 0.8 Q14.9 0.4 13.95 0.4 13.0 0.4 12.4 1.55 12.15 1.1 11.65 1.1 L9.45 1.45 7.05 1.6 Q5.65 1.8 5.65 2.35 5.65 2.85 5.75 2.6 L7.55 3.15 9.95 3.4 Q10.6 3.4 10.75 3.8 10.9 4.15 11.6 4.15 12.1 4.15 12.55 3.75 L13.35 3.1 13.8 3.65 14.7 3.85 15.7 3.6 16.3 3.15 16.35 3.65 Q16.5 4.05 17.15 4.05 L18.15 3.75 18.95 3.15 19.0 3.7 Q19.2 4.2 19.8 4.2 L20.75 3.95 20.65 4.1 Q20.65 5.35 21.45 5.35 22.55 5.35 23.15 4.15 L23.1 4.95 Q23.2 5.7 24.0 5.7 L26.1 4.8 Q26.2 5.8 27.1 6.4 L28.65 7.05 Q28.0 7.5 28.0 8.1 L28.05 8.6 Q28.25 9.1 28.95 9.1 30.15 9.1 34.15 6.85 38.45 4.45 38.45 3.05 38.45 2.05 37.4 2.05" fill="#ffffff" fill-opacity="0.4" fill-rule="evenodd" stroke="none"/>
    <path d="M30.0 -10.5 Q42.45 -6.15 42.45 0.0 42.45 6.15 30.0 10.5 17.6 14.85 0.0 14.85 -17.6 14.85 -30.05 10.5 -42.45 6.15 -42.45 0.0 -42.45 -6.15 -30.05 -10.5 -17.6 -14.85 0.0 -14.85 17.6 -14.85 30.0 -10.5 Z" fill="none" stroke="#ffffff" stroke-linecap="round" stroke-linejoin="round" stroke-width="1.0"/>
    <path d="M-10.5 -10.8 L-9.2 -11.1 -13.4 -11.3 -13.6 -11.55 -13.6 -11.95 -14.7 -11.9 -15.05 -12.0 -15.15 -12.15 Q-14.35 -13.05 -8.55 -13.15 -2.7 -13.25 -2.7 -12.3 -2.6 -11.8 -4.6 -11.7 L-4.55 -11.65 -4.5 -11.35 -4.7 -10.9 -5.25 -10.7 Q-4.75 -10.25 -4.8 -9.4 L-4.95 -8.35 -4.4 -7.4 Q-4.4 -6.95 -5.0 -6.65 L-3.55 -5.45 Q-2.75 -4.8 -2.75 -4.25 -2.75 -2.25 -3.65 -2.25 -4.55 -2.25 -5.65 -4.8 -6.6 -7.15 -6.6 -8.45 L-9.85 -9.3 Q-11.05 -9.7 -11.05 -10.3 L-10.5 -10.8 M12.4 10.65 L13.4 10.75 14.4 10.8 14.5 11.15 Q14.5 11.85 12.25 12.65 L8.95 13.35 3.6 13.2 1.3 12.85 Q-0.15 12.85 -0.15 12.15 -0.15 11.7 0.25 11.55 L3.55 11.35 3.1 10.75 2.7 10.1 Q2.7 9.8 2.85 9.6 L3.15 9.4 2.7 9.05 2.5 8.75 2.6 8.35 2.9 8.1 1.75 7.05 Q1.05 6.35 1.7 5.8 L1.1 5.55 Q0.75 5.35 0.75 5.0 0.75 4.3 1.4 3.95 2.15 3.6 3.2 4.35 3.55 4.95 3.5 5.45 L3.35 6.3 Q3.35 6.75 4.8 6.95 6.2 7.1 6.2 7.6 L5.65 8.35 Q6.3 9.0 6.15 9.35 7.55 9.35 7.65 9.9 7.75 10.3 7.35 10.6 L11.3 10.5 12.4 10.65" fill="#ffffff" fill-rule="evenodd" stroke="none"/>
  </g>
</svg>
