<?xml version="1.0" encoding="UTF-8" standalone="no"?>
<svg xmlns:ffdec="https://www.free-decompiler.com/flash" xmlns:xlink="http://www.w3.org/1999/xlink" ffdec:objectType="shape" height="30.7px" width="85.9px" xmlns="http://www.w3.org/2000/svg">
  <g transform="matrix(1.0, 0.0, 0.0, 1.0, 42.95, 15.35)">
    <path d="M6.4 -0.65 Q7.5 0.4 10.05 0.4 L11.05 -0.1 Q12.1 -0.8 12.2 -1.75 L15.75 -1.15 18.1 -1.0 Q20.65 -1.15 21.5 -2.8 L24.8 -3.4 26.8 -3.95 28.05 -3.6 29.05 -3.3 Q29.95 -3.3 30.1 -3.9 L30.05 -4.7 30.4 -4.9 30.85 -5.05 32.55 -4.4 Q33.5 -4.4 33.5 -5.4 23.35 -12.35 23.35 -8.95 23.35 -8.5 23.6 -8.2 24.1 -7.7 25.1 -8.0 25.1 -7.25 25.5 -6.7 L24.95 -6.75 Q22.9 -6.75 20.85 -5.15 18.75 -3.55 13.8 -3.55 10.25 -3.55 9.85 -2.9 10.0 -2.05 9.35 -1.8 6.9 -1.15 6.4 -0.65 M0.0 -14.85 Q17.6 -14.85 30.05 -10.5 42.45 -6.15 42.45 0.0 42.45 6.15 30.05 10.5 17.6 14.85 0.0 14.85 -17.6 14.85 -30.0 10.5 -42.45 6.15 -42.45 0.0 -42.45 -6.15 -30.0 -10.5 -17.6 -14.85 0.0 -14.85 M15.1 9.3 L14.85 8.85 12.25 8.1 12.5 7.4 Q12.5 6.85 12.15 6.55 11.5 6.05 10.05 6.55 L10.35 6.3 10.5 5.75 10.25 5.05 Q9.85 4.55 9.0 4.6 L9.1 4.05 Q7.25 2.75 5.35 1.95 1.65 0.35 1.65 2.65 L3.7 4.05 Q5.75 5.3 5.75 6.5 L5.25 7.9 4.75 9.1 5.15 9.85 6.15 10.25 Q2.65 10.35 2.65 11.5 2.65 12.35 3.35 12.5 L10.9 12.8 Q16.1 12.8 20.4 9.7 20.4 8.5 19.1 8.5 L17.25 8.9 15.1 9.3 M-23.85 -7.95 L-16.75 -8.4 Q-19.05 -8.1 -19.05 -7.05 -19.05 -6.5 -18.6 -6.3 L-16.75 -6.15 -11.9 -6.65 -9.65 -6.6 -9.9 -6.4 -10.0 -5.85 Q-10.0 -5.55 -9.25 -5.0 L-8.9 -4.85 -11.4 -3.95 Q-12.1 -3.75 -12.1 -3.35 -12.1 -2.6 -8.55 -2.2 -5.0 -1.85 -5.0 -0.9 -5.0 -0.3 -4.5 -0.1 L-3.0 0.0 Q-1.5 0.0 -1.05 -0.55 -0.9 -0.75 -0.9 -1.2 -0.9 -2.3 -1.65 -2.85 L-4.1 -4.55 Q-3.25 -5.15 -2.0 -5.6 -1.4 -5.8 -1.4 -6.5 L-1.7 -7.05 Q-2.3 -7.6 -4.1 -7.5 L-4.05 -7.85 Q-4.05 -9.05 -7.15 -8.8 L-8.25 -8.85 -5.5 -9.7 Q-5.0 -9.9 -5.0 -10.25 -5.0 -10.85 -5.55 -10.95 L-8.55 -10.9 Q-4.95 -11.55 -4.1 -12.05 L-15.9 -11.7 Q-25.25 -9.95 -25.25 -8.85 -25.25 -8.05 -23.85 -7.95 M-7.55 3.15 L-5.75 2.6 Q-5.65 2.85 -5.65 2.35 -5.65 1.8 -7.05 1.6 L-9.45 1.45 -11.65 1.1 Q-12.15 1.1 -12.4 1.55 -13.0 0.4 -13.95 0.4 -14.9 0.4 -15.0 0.8 L-15.05 1.7 -17.35 0.4 Q-18.8 -0.25 -18.45 1.2 L-18.45 1.3 -19.35 0.65 Q-19.9 0.25 -20.55 0.25 -21.25 0.25 -21.4 0.75 L-21.45 1.65 -22.2 1.5 Q-22.85 1.5 -23.0 1.8 L-23.2 2.3 -24.6 1.85 Q-25.75 1.85 -25.75 2.95 L-27.0 2.2 Q-27.9 1.7 -28.65 1.7 -29.0 1.7 -29.35 2.05 L-29.7 2.35 Q-30.3 2.35 -31.2 1.8 -32.1 1.25 -32.4 1.25 -33.1 1.25 -33.85 2.05 -34.7 2.95 -34.3 4.0 -34.75 4.0 -35.75 3.05 -36.75 2.05 -37.4 2.05 -38.45 2.05 -38.45 3.05 -38.45 4.45 -34.15 6.85 -30.15 9.1 -28.95 9.1 -28.25 9.1 -28.05 8.6 L-28.0 8.1 Q-28.0 7.5 -28.65 7.05 L-27.1 6.4 Q-26.2 5.8 -26.1 4.8 L-24.0 5.7 Q-23.2 5.7 -23.1 4.95 L-23.15 4.15 Q-22.55 5.35 -21.45 5.35 -20.65 5.35 -20.65 4.1 L-20.75 3.95 -19.8 4.2 Q-19.2 4.2 -19.0 3.7 L-18.95 3.15 -18.15 3.75 -17.15 4.05 Q-16.5 4.05 -16.35 3.65 L-16.3 3.15 -15.7 3.6 -14.7 3.85 -13.8 3.65 -13.35 3.1 -12.55 3.75 Q-12.1 4.15 -11.6 4.15 -10.9 4.15 -10.75 3.8 -10.6 3.4 -9.95 3.4 L-7.55 3.15" fill="#ffffff" fill-opacity="0.4" fill-rule="evenodd" stroke="none"/>
    <path d="M0.0 -14.85 Q-17.6 -14.85 -30.0 -10.5 -42.45 -6.15 -42.45 0.0 -42.45 6.15 -30.0 10.5 -17.6 14.85 0.0 14.85 17.6 14.85 30.05 10.5 42.45 6.15 42.45 0.0 42.45 -6.15 30.05 -10.5 17.6 -14.85 0.0 -14.85 Z" fill="none" stroke="#ffffff" stroke-linecap="round" stroke-linejoin="round" stroke-width="1.0"/>
    <path d="M-3.5 5.45 Q-3.55 4.95 -3.2 4.35 -2.15 3.6 -1.4 3.95 -0.75 4.3 -0.75 5.0 -0.75 5.35 -1.1 5.55 L-1.7 5.8 Q-1.05 6.35 -1.75 7.05 L-2.9 8.1 -2.6 8.35 -2.5 8.75 -2.7 9.05 -3.15 9.4 -2.85 9.6 Q-2.7 9.8 -2.7 10.1 L-3.1 10.75 -3.55 11.35 -0.25 11.55 Q0.15 11.7 0.15 12.15 0.15 12.85 -1.3 12.85 L-3.6 13.2 -8.95 13.35 -12.25 12.65 Q-14.5 11.85 -14.5 11.15 L-14.4 10.8 -13.4 10.75 -12.4 10.65 -11.3 10.5 -7.35 10.6 Q-7.75 10.3 -7.65 9.9 -7.55 9.35 -6.15 9.35 -6.3 9.0 -5.65 8.35 L-6.2 7.6 Q-6.2 7.1 -4.8 6.95 -3.35 6.75 -3.35 6.3 L-3.5 5.45 M9.85 -9.3 L6.6 -8.45 Q6.6 -7.15 5.65 -4.8 4.55 -2.25 3.65 -2.25 2.75 -2.25 2.75 -4.25 2.75 -4.8 3.55 -5.45 L5.0 -6.65 Q4.4 -6.95 4.4 -7.4 L4.95 -8.35 4.8 -9.4 Q4.75 -10.25 5.25 -10.7 L4.7 -10.9 4.5 -11.35 4.55 -11.65 4.6 -11.7 Q2.6 -11.8 2.7 -12.3 2.7 -13.25 8.55 -13.15 14.35 -13.05 15.15 -12.15 L15.05 -12.0 14.7 -11.9 13.6 -11.95 13.6 -11.55 13.4 -11.3 9.2 -11.1 10.5 -10.8 11.05 -10.3 Q11.05 -9.7 9.85 -9.3" fill="#ffffff" fill-rule="evenodd" stroke="none"/>
  </g>
</svg>
