<?xml version="1.0" encoding="UTF-8" standalone="no"?>
<svg xmlns:ffdec="https://www.free-decompiler.com/flash" xmlns:xlink="http://www.w3.org/1999/xlink" ffdec:objectType="shape" height="11.75px" width="12.15px" xmlns="http://www.w3.org/2000/svg">
  <g transform="matrix(1.0, 0.0, 0.0, 1.0, 6.0, 8.75)">
    <path d="M-4.85 -7.1 Q-4.3 -8.75 -2.15 -8.75 2.9 -6.35 5.7 -2.5 6.4 -0.7 5.3 0.3 1.15 -4.25 -4.85 -7.1" fill="#ffffff" fill-rule="evenodd" stroke="none"/>
    <path d="M-4.85 -7.1 Q1.15 -4.25 5.3 0.3 6.4 -0.7 5.7 -2.5 2.9 -6.35 -2.15 -8.75 -4.3 -8.75 -4.85 -7.1 Z" fill="none" stroke="#bccde4" stroke-linecap="round" stroke-linejoin="round" stroke-width="0.05"/>
    <path d="M-5.45 0.3 Q0.65 0.6 6.1 -1.3 6.45 0.05 5.0 1.25 0.9 3.2 -4.25 2.95 -5.85 1.9 -5.45 0.3" fill="#ffffff" fill-rule="evenodd" stroke="none"/>
    <path d="M-5.45 0.3 Q0.65 0.6 6.1 -1.3 6.45 0.05 5.0 1.25 0.9 3.2 -4.25 2.95 -5.85 1.9 -5.45 0.3 Z" fill="none" stroke="#bccde4" stroke-linecap="round" stroke-linejoin="round" stroke-width="0.05"/>
    <path d="M5.95 -0.2 Q5.9 1.2 4.05 1.85 -0.5 2.2 -5.35 0.25 -6.55 -1.3 -5.55 -2.65 0.1 -0.25 5.95 -0.2" fill="#ffffff" fill-rule="evenodd" stroke="none"/>
    <path d="M5.95 -0.2 Q5.9 1.2 4.05 1.85 -0.5 2.2 -5.35 0.25 -6.55 -1.3 -5.55 -2.65 0.1 -0.25 5.95 -0.2 Z" fill="none" stroke="#bccde4" stroke-linecap="round" stroke-linejoin="round" stroke-width="0.05"/>
  </g>
</svg>
