<?xml version="1.0" encoding="UTF-8" standalone="no"?>
<svg xmlns:ffdec="https://www.free-decompiler.com/flash" xmlns:xlink="http://www.w3.org/1999/xlink" ffdec:objectType="shape" height="66.05px" width="105.55px" xmlns="http://www.w3.org/2000/svg">
  <g transform="matrix(1.0, 0.0, 0.0, 1.0, 52.4, 30.05)">
    <path d="M37.65 30.2 L52.65 2.7 52.65 8.0 37.65 35.5 37.65 30.2" fill="#e0cbcb" fill-rule="evenodd" stroke="none"/>
    <path d="M37.65 30.2 L37.65 27.5 52.65 0.0 52.65 2.7 37.65 30.2" fill="#ffffff" fill-rule="evenodd" stroke="none"/>
    <path d="M52.65 2.7 L52.65 0.0 37.65 27.5 37.65 30.2 37.65 35.5 52.65 8.0 52.65 2.7 Z" fill="none" stroke="#3b0101" stroke-linecap="round" stroke-linejoin="round" stroke-opacity="0.4" stroke-width="1.0"/>
    <path d="M38.25 -29.3 L39.45 -28.2 39.8 -27.85 42.05 -25.3 51.9 -13.65 52.15 -13.1 52.35 -11.15 52.35 -2.15 52.25 -1.65 37.4 25.6 37.3 26.35 37.05 26.9 36.55 27.2 36.6 27.2 36.0 27.2 35.95 27.2 35.5 26.85 35.25 26.45 33.75 26.6 33.25 26.5 32.85 26.2 28.75 20.8 18.35 20.95 13.25 29.5 12.9 29.85 12.45 30.0 -10.1 30.0 -10.55 29.9 -10.6 29.85 -10.95 29.55 -11.0 29.5 -15.65 20.95 -46.05 20.95 -49.15 25.2 -49.5 25.5 -49.95 25.6 -50.45 25.6 -51.05 25.4 -51.1 25.35 -51.45 24.8 -52.4 19.65 -52.4 19.6 -52.3 19.1 -52.3 19.05 -51.95 18.65 -51.95 18.6 -49.75 17.2 -49.75 -0.7 -49.9 -1.25 Q-50.05 -1.8 -49.55 -2.35 L-49.5 -2.4 -49.4 -2.45 -34.65 -29.55 -34.6 -29.55 -34.25 -29.9 -34.2 -29.9 -33.75 -30.05 32.7 -30.05 36.5 -30.05 Q37.45 -30.0 38.25 -29.3 M28.7 -3.05 L28.75 -3.0 29.8 -2.1 29.9 -2.0 36.35 5.9 44.75 -9.65 44.8 -9.7 45.25 -10.8 45.3 -10.9 45.35 -11.0 37.65 -20.05 28.4 -3.45 28.7 -3.05 M-9.15 11.85 Q-8.5 11.85 -8.3 11.35 L-8.0 11.35 -7.15 11.1 -6.6 11.3 -5.0 11.65 Q-4.3 11.65 -3.55 10.8 L-3.3 11.0 Q-3.3 11.7 -2.35 11.7 L-1.7 11.45 -1.1 11.65 Q0.3 11.65 0.65 5.85 0.65 3.6 -2.25 2.85 -5.2 2.1 -8.3 3.65 -10.05 4.55 -10.55 6.2 L-10.8 9.05 -10.8 10.5 Q-10.55 11.85 -9.15 11.85 M21.95 5.05 L21.8 4.7 Q21.6 4.45 21.3 4.45 21.0 4.45 20.55 4.8 L19.85 5.35 19.6 4.7 19.85 4.3 20.05 3.95 Q19.95 3.35 19.45 3.35 L18.45 3.2 Q17.95 3.2 17.35 4.05 L16.8 4.05 16.8 4.0 16.95 3.35 Q16.85 2.85 16.3 2.8 16.0 2.8 15.5 3.4 L14.5 4.0 13.4 3.9 13.6 3.3 Q13.6 2.8 13.1 2.8 L12.7 3.0 12.45 3.2 12.3 3.1 12.1 3.0 Q11.75 3.0 11.5 3.4 L11.2 3.95 11.2 3.4 Q11.15 3.0 10.65 3.0 10.25 3.0 9.7 5.0 9.2 6.75 9.2 7.2 L9.25 7.55 9.9 7.8 9.5 9.55 Q9.5 10.1 10.0 10.2 9.5 10.9 9.5 11.15 L9.55 11.45 Q9.7 11.75 10.05 11.75 10.55 11.75 11.1 10.6 L11.25 10.8 11.7 10.95 12.05 10.8 12.5 10.45 12.75 10.6 12.75 11.1 Q12.85 11.5 13.35 11.5 L14.15 11.2 14.65 10.6 15.15 10.9 Q15.35 10.9 16.25 10.3 L16.45 10.45 16.9 10.6 18.15 10.1 18.3 10.4 Q18.45 10.6 18.85 10.6 L19.7 10.35 19.9 10.7 20.6 10.8 21.6 10.5 22.2 10.9 Q22.65 10.9 23.65 9.05 L23.05 8.15 21.85 7.2 Q22.35 6.05 21.3 5.95 L21.95 5.05" fill="#a36a6a" fill-rule="evenodd" stroke="none"/>
    <path d="M36.9 -28.95 L37.1 -29.25 37.4 -29.35 37.7 -29.2 37.75 -28.85 23.5 -3.15 36.9 -28.95 M51.15 -13.0 L51.35 -11.05 36.7 14.15 49.85 -10.25 50.55 -12.0 51.15 -13.0 M36.4 25.25 L36.3 26.25 35.7 25.4 Q35.45 20.5 35.55 15.6 35.55 14.7 34.9 14.1 L32.5 11.7 23.7 -0.2 25.45 1.35 36.4 14.75 36.55 15.65 36.4 25.25 M-48.75 -1.05 Q-49.1 -1.35 -48.8 -1.7 L-48.55 -1.9 16.1 -1.55 17.7 -1.3 -48.75 -1.05 M48.4 -0.75 L48.15 1.1 Q48.15 3.45 47.75 3.45 47.2 3.45 47.2 1.0 L47.25 -2.55 Q48.4 -2.55 48.4 -0.75 M46.65 4.25 L46.65 5.4 Q46.6 6.3 46.3 6.3 L45.8 5.85 45.75 5.4 Q45.75 3.1 46.05 -0.3 46.55 0.65 46.65 1.95 L46.65 4.25 M43.45 6.0 L43.5 7.05 43.5 11.6 43.1 11.75 42.75 11.6 42.65 9.8 Q42.65 6.3 43.1 5.1 L43.45 6.0 M45.0 6.1 L44.9 9.05 44.6 9.15 Q44.25 9.15 44.15 7.75 L44.1 6.35 Q44.1 3.25 44.4 2.1 45.0 3.0 45.0 6.1 M42.0 7.65 Q42.35 8.7 42.35 11.95 L42.35 13.35 42.0 14.6 Q41.55 14.05 41.55 11.95 41.55 8.35 42.0 7.65 M23.0 9.75 Q23.65 10.7 22.55 10.75 L13.25 10.0 10.9 10.25 Q10.15 10.35 9.8 9.8 9.5 9.35 9.55 9.05 L9.7 7.8 9.6 4.1 Q9.9 3.75 10.55 3.95 L18.35 4.2 Q18.75 4.25 19.05 4.6 L21.6 7.85 23.0 9.75 M28.3 11.95 L21.15 3.45 20.0 1.8 8.15 2.05 7.85 25.2 Q8.2 25.85 9.1 26.05 L11.25 25.85 12.35 24.85 13.75 22.45 Q15.05 20.0 16.8 17.75 L17.05 17.15 28.2 17.1 28.3 11.95 M26.95 9.1 Q28.45 10.2 29.1 12.15 L29.0 16.75 28.8 17.7 19.05 17.8 Q17.65 17.95 16.9 19.05 L15.1 21.9 13.3 25.05 Q12.5 26.45 11.4 26.65 L11.2 26.75 Q9.15 27.1 7.4 26.05 L7.1 25.4 7.05 4.0 7.75 1.55 9.7 1.15 Q13.95 1.55 18.15 1.3 L19.85 1.3 Q21.15 1.45 21.7 2.5 L22.55 3.85 23.85 5.45 26.75 8.9 26.95 9.1 M10.8 9.55 L13.3 9.3 22.15 9.9 18.85 5.55 10.25 4.55 10.35 9.55 10.8 9.55 M4.45 2.05 L4.0 2.5 Q2.9 11.5 2.95 20.35 L3.05 26.55 Q-0.75 28.0 -5.1 27.3 -9.25 27.65 -10.95 23.7 -11.55 22.4 -12.6 21.45 L-13.1 21.4 Q-13.8 12.3 -12.8 3.2 L-12.45 1.8 Q-3.95 1.65 4.45 1.9 L4.45 2.05 M2.9 2.5 Q-3.4 2.8 -10.2 2.7 L-12.15 2.55 Q-11.55 11.25 -12.6 19.65 -10.3 22.0 -8.95 24.9 L-8.35 26.0 Q-3.1 26.95 1.95 26.15 1.95 15.4 3.0 4.8 L2.9 2.5 M0.7 14.45 L-0.5 14.3 Q-1.2 14.2 -1.15 13.75 L-1.1 13.5 -0.7 13.45 -0.15 13.6 0.15 13.55 Q1.25 13.55 1.25 14.0 1.25 14.45 0.7 14.45 M10.95 14.45 Q9.35 14.45 9.35 13.85 9.35 13.5 10.75 13.35 12.15 13.2 12.15 13.85 12.15 14.45 10.95 14.45 M-3.85 4.7 Q-6.65 4.6 -9.15 4.8 L-9.2 9.6 -7.0 9.8 -0.85 9.6 -0.85 6.75 -1.05 5.8 -1.1 4.9 -3.85 4.7 M-0.45 5.7 Q-0.2 6.6 -0.2 8.6 L-0.2 9.65 Q-0.2 10.45 -7.05 10.45 L-9.75 10.1 -9.9 9.65 -9.75 6.8 -9.85 5.2 Q-9.9 4.15 -9.15 4.1 -2.15 3.3 -0.75 4.1 -0.25 4.35 -0.35 4.85 L-0.45 5.7 M-16.4 1.7 L-16.35 1.35 -30.4 1.35 Q-30.05 3.35 -30.05 10.25 L-30.05 12.45 Q-30.15 14.4 -30.6 14.4 -31.2 14.4 -31.05 10.25 -31.05 3.3 -30.75 1.35 L-44.05 1.35 -44.0 3.55 Q-44.0 7.4 -44.4 8.45 L-44.45 8.25 -44.4 11.9 -44.4 13.8 -44.45 14.7 -39.45 14.55 Q-22.55 14.55 -17.6 14.75 L-16.15 14.85 Q-16.55 13.45 -16.4 6.6 L-16.4 1.7 M-15.5 1.4 L-15.45 13.65 -15.55 14.95 -15.95 14.9 Q-15.45 14.95 -15.45 15.05 -15.45 15.45 -15.75 15.45 L-29.75 15.5 -44.6 15.45 -44.85 15.35 -45.3 15.2 -45.3 11.9 Q-45.3 2.95 -44.85 1.25 L-45.15 0.85 -45.15 0.45 -16.05 0.3 Q-15.3 0.5 -15.3 0.85 L-15.4 1.2 -15.5 1.3 -15.5 1.4 M-26.1 8.55 Q-27.35 8.55 -28.1 7.95 -27.6 7.35 -26.6 7.4 -25.65 7.4 -25.65 8.0 -25.65 8.55 -26.1 8.55 M-33.45 8.1 L-34.95 7.8 -35.55 7.25 Q-35.55 6.75 -34.2 7.0 -32.85 7.2 -32.85 7.6 -32.85 8.1 -33.45 8.1 M-44.75 1.35 L-44.8 1.3 -44.8 1.2 -44.75 1.55 -44.7 1.35 -44.75 1.35" fill="#a36a6a" fill-rule="evenodd" stroke="none"/>
    <path d="M-48.55 -1.9 L-33.75 -29.05 36.7 -29.05 36.9 -28.95 23.5 -3.15 22.6 -1.55 16.1 -1.55 -48.55 -1.9 M10.75 -27.6 L10.9 -27.45 10.95 -27.55 10.75 -27.6 M16.65 -18.25 Q8.05 -17.35 8.05 -13.65 8.05 -12.4 9.25 -11.2 11.25 -9.2 15.65 -9.2 21.1 -9.2 23.6 -12.0 25.2 -13.8 25.2 -16.0 25.2 -17.45 22.5 -18.1 L16.65 -18.25 M4.35 -14.35 L6.15 -17.3 9.5 -24.3 10.15 -25.7 -13.1 -25.65 -32.0 -25.75 -32.15 -25.5 -35.0 -19.05 Q-39.6 -9.25 -39.6 -8.25 -39.6 -7.5 -37.85 -7.25 L-27.45 -6.75 -18.45 -6.1 -3.05 -5.6 1.2 -6.0 Q2.45 -6.85 3.05 -11.25 3.25 -12.45 4.35 -14.35 M29.5 18.1 Q29.65 16.25 32.0 19.35 33.25 21.05 34.5 23.25 34.45 23.85 33.75 23.85 33.1 23.85 31.2 21.15 L29.85 19.0 26.25 19.2 19.2 18.9 19.05 18.5 Q19.05 18.0 24.55 17.85 L29.5 18.1 M-14.55 16.95 Q-14.4 17.05 -14.4 17.4 -14.4 17.75 -15.15 18.3 L-44.1 18.3 Q-47.4 18.4 -47.4 17.4 -47.4 16.85 -46.65 16.7 L-40.65 16.5 -15.0 16.55 -14.55 16.95" fill="#ffffff" fill-rule="evenodd" stroke="none"/>
    <path d="M51.35 -11.05 L51.35 -2.15 36.4 25.25 36.55 15.65 36.4 14.75 36.7 14.15 51.35 -11.05 M35.7 25.4 L33.65 25.6 29.25 19.8 17.8 19.95 17.75 20.05 12.4 29.0 -10.1 29.0 -15.0 19.95 -46.55 19.95 -49.95 24.6 -50.45 24.6 -51.4 19.45 -48.75 17.75 -48.75 -1.05 17.7 -1.3 16.1 -1.55 22.6 -1.55 23.7 -0.2 32.5 11.7 34.9 14.1 Q35.55 14.7 35.55 15.6 35.45 20.5 35.7 25.4 M10.75 -27.6 L10.95 -27.55 10.9 -27.45 10.75 -27.6 M16.65 -18.25 L22.5 -18.1 Q25.2 -17.45 25.2 -16.0 25.2 -13.8 23.6 -12.0 21.1 -9.2 15.65 -9.2 11.25 -9.2 9.25 -11.2 8.05 -12.4 8.05 -13.65 8.05 -17.35 16.65 -18.25 M4.35 -14.35 Q3.25 -12.45 3.05 -11.25 2.45 -6.85 1.2 -6.0 L-3.05 -5.6 -18.45 -6.1 -27.45 -6.75 -37.85 -7.25 Q-39.6 -7.5 -39.6 -8.25 -39.6 -9.25 -35.0 -19.05 L-32.15 -25.5 -32.0 -25.75 -13.1 -25.65 10.15 -25.7 9.5 -24.3 6.15 -17.3 4.35 -14.35 M42.0 7.65 Q41.55 8.35 41.55 11.95 41.55 14.05 42.0 14.6 L42.35 13.35 42.35 11.95 Q42.35 8.7 42.0 7.65 M45.0 6.1 Q45.0 3.0 44.4 2.1 44.1 3.25 44.1 6.35 L44.15 7.75 Q44.25 9.15 44.6 9.15 L44.9 9.05 45.0 6.1 M43.45 6.0 L43.1 5.1 Q42.65 6.3 42.65 9.8 L42.75 11.6 43.1 11.75 43.5 11.6 43.5 7.05 43.45 6.0 M46.65 4.25 L46.65 1.95 Q46.55 0.65 46.05 -0.3 45.75 3.1 45.75 5.4 L45.8 5.85 46.3 6.3 Q46.6 6.3 46.65 5.4 L46.65 4.25 M48.4 -0.75 Q48.4 -2.55 47.25 -2.55 L47.2 1.0 Q47.2 3.45 47.75 3.45 48.15 3.45 48.15 1.1 L48.4 -0.75 M26.95 9.1 L26.75 8.9 23.85 5.45 22.55 3.85 21.7 2.5 Q21.15 1.45 19.85 1.3 L18.15 1.3 Q13.95 1.55 9.7 1.15 L7.75 1.55 7.05 4.0 7.1 25.4 7.4 26.05 Q9.15 27.1 11.2 26.75 L11.4 26.65 Q12.5 26.45 13.3 25.05 L15.1 21.9 16.9 19.05 Q17.65 17.95 19.05 17.8 L28.8 17.7 29.0 16.75 29.1 12.15 Q28.45 10.2 26.95 9.1 M28.3 11.95 L28.2 17.1 17.05 17.15 16.8 17.75 Q15.05 20.0 13.75 22.45 L12.35 24.85 11.25 25.85 9.1 26.05 Q8.2 25.85 7.85 25.2 L8.15 2.05 20.0 1.8 21.15 3.45 28.3 11.95 M23.0 9.75 L21.6 7.85 19.05 4.6 Q18.75 4.25 18.35 4.2 L10.55 3.95 Q9.9 3.75 9.6 4.1 L9.7 7.8 9.55 9.05 Q9.5 9.35 9.8 9.8 10.15 10.35 10.9 10.25 L13.25 10.0 22.55 10.75 Q23.65 10.7 23.0 9.75 M29.5 18.1 L24.55 17.85 Q19.05 18.0 19.05 18.5 L19.2 18.9 26.25 19.2 29.85 19.0 31.2 21.15 Q33.1 23.85 33.75 23.85 34.45 23.85 34.5 23.25 33.25 21.05 32.0 19.35 29.65 16.25 29.5 18.1 M10.95 14.45 Q12.15 14.45 12.15 13.85 12.15 13.2 10.75 13.35 9.35 13.5 9.35 13.85 9.35 14.45 10.95 14.45 M0.7 14.45 Q1.25 14.45 1.25 14.0 1.25 13.55 0.15 13.55 L-0.15 13.6 -0.7 13.45 -1.1 13.5 -1.15 13.75 Q-1.2 14.2 -0.5 14.3 L0.7 14.45 M2.9 2.5 L3.0 4.8 Q1.95 15.4 1.95 26.15 -3.1 26.95 -8.35 26.0 L-8.95 24.9 Q-10.3 22.0 -12.6 19.65 -11.55 11.25 -12.15 2.55 L-10.2 2.7 Q-3.4 2.8 2.9 2.5 M4.45 2.05 L4.45 1.9 Q-3.95 1.65 -12.45 1.8 L-12.8 3.2 Q-13.8 12.3 -13.1 21.4 L-12.6 21.45 Q-11.55 22.4 -10.95 23.7 -9.25 27.65 -5.1 27.3 -0.75 28.0 3.05 26.55 L2.95 20.35 Q2.9 11.5 4.0 2.5 L4.45 2.05 M-15.5 1.4 L-15.5 1.3 -15.4 1.2 -15.3 0.85 Q-15.3 0.5 -16.05 0.3 L-45.15 0.45 -45.15 0.85 -44.85 1.25 Q-45.3 2.95 -45.3 11.9 L-45.3 15.2 -44.85 15.35 -44.6 15.45 -29.75 15.5 -15.75 15.45 Q-15.45 15.45 -15.45 15.05 -15.45 14.95 -15.95 14.9 L-15.55 14.95 -15.45 13.65 -15.5 1.4 M-16.4 1.7 L-16.4 6.6 Q-16.55 13.45 -16.15 14.85 L-17.6 14.75 Q-22.55 14.55 -39.45 14.55 L-44.45 14.7 -44.4 13.8 -44.4 11.9 -44.45 8.25 -44.4 8.45 Q-44.0 7.4 -44.0 3.55 L-44.05 1.35 -30.75 1.35 Q-31.05 3.3 -31.05 10.25 -31.2 14.4 -30.6 14.4 -30.15 14.4 -30.05 12.45 L-30.05 10.25 Q-30.05 3.35 -30.4 1.35 L-16.35 1.35 -16.4 1.7 M-0.45 5.7 L-0.35 4.85 Q-0.25 4.35 -0.75 4.1 -2.15 3.3 -9.15 4.1 -9.9 4.15 -9.85 5.2 L-9.75 6.8 -9.9 9.65 -9.75 10.1 -7.05 10.45 Q-0.2 10.45 -0.2 9.65 L-0.2 8.6 Q-0.2 6.6 -0.45 5.7 M-14.55 16.95 L-15.0 16.55 -40.65 16.5 -46.65 16.7 Q-47.4 16.85 -47.4 17.4 -47.4 18.4 -44.1 18.3 L-15.15 18.3 Q-14.4 17.75 -14.4 17.4 -14.4 17.05 -14.55 16.95 M-44.75 1.35 L-44.7 1.35 -44.75 1.55 -44.8 1.2 -44.8 1.3 -44.75 1.35 M-33.45 8.1 Q-32.85 8.1 -32.85 7.6 -32.85 7.2 -34.2 7.0 -35.55 6.75 -35.55 7.25 L-34.95 7.8 -33.45 8.1 M-26.1 8.55 Q-25.65 8.55 -25.65 8.0 -25.65 7.4 -26.6 7.4 -27.6 7.35 -28.1 7.95 -27.35 8.55 -26.1 8.55" fill="#e0cbcb" fill-rule="evenodd" stroke="none"/>
    <path d="M37.75 -28.85 L51.15 -13.0 50.55 -12.0 49.85 -10.25 36.7 14.15 36.4 14.75 25.45 1.35 23.7 -0.2 22.6 -1.55 23.5 -3.15 37.75 -28.85 M27.95 -2.4 L29.15 -1.35 36.55 7.7 45.65 -9.2 46.15 -10.4 46.55 -11.1 37.5 -21.8 27.2 -3.35 27.95 -2.4" fill="#efe4e4" fill-rule="evenodd" stroke="none"/>
  </g>
</svg>
