<?xml version="1.0" encoding="UTF-8" standalone="no"?>
<svg xmlns:ffdec="https://www.free-decompiler.com/flash" xmlns:xlink="http://www.w3.org/1999/xlink" ffdec:objectType="shape" height="10.45px" width="54.9px" xmlns="http://www.w3.org/2000/svg">
  <g transform="matrix(1.0, 0.0, 0.0, 1.0, 27.55, 6.45)">
    <path d="M-26.25 -5.85 L-27.05 -5.85 -26.65 -5.95 -26.25 -5.85" fill="#e0cbcb" fill-rule="evenodd" stroke="none"/>
    <path d="M17.4 -0.25 L16.95 -0.35 16.3 -0.45 16.1 -0.45 15.2 -0.55 15.2 -0.5 14.8 -0.5 10.9 -0.2 Q10.9 -1.55 11.15 -2.7 L11.3 -3.45 16.0 -3.45 16.0 -3.55 18.35 -3.55 Q18.0 -3.35 17.75 -2.6 17.4 -1.6 17.4 -0.25" fill="#666666" fill-rule="evenodd" stroke="none"/>
    <path d="M18.6 3.4 Q18.3 3.35 18.1 3.1 L18.25 3.2 19.05 3.35 18.6 3.4 M17.7 2.2 L17.5 1.3 17.8 1.45 17.6 1.7 17.7 2.2 M17.4 0.4 L17.4 -0.1 17.4 -0.25 Q17.4 -1.6 17.75 -2.6 18.0 -3.35 18.35 -3.55 L18.6 -3.65 23.0 -2.75 Q25.55 -2.15 26.4 -1.3 L26.85 -0.4 26.4 -0.45 22.3 -0.35 17.4 0.4 M26.5 0.45 L26.4 0.55 Q25.55 1.45 23.0 2.25 L21.9 2.6 23.7 1.75 26.4 0.5 26.5 0.45" fill="#cccccc" fill-rule="evenodd" stroke="none"/>
    <path d="M18.1 3.1 L18.0 2.9 17.8 2.45 17.75 2.35 17.75 2.25 17.7 2.2 17.6 1.7 17.8 1.45 17.5 1.3 17.45 0.85 17.4 0.4 22.3 -0.35 26.4 -0.45 26.85 -0.4 26.5 0.45 26.4 0.5 23.7 1.75 21.9 2.6 19.05 3.35 18.25 3.2 18.1 3.1" fill="#959595" fill-rule="evenodd" stroke="none"/>
    <path d="M10.9 -0.2 L14.8 -0.5 15.2 -0.5 15.2 -0.55 16.1 -0.45 16.3 -0.45 16.95 -0.35 17.4 -0.25 17.4 -0.1 17.4 0.4 17.45 0.85 17.5 1.3 17.7 2.2 17.75 2.25 17.75 2.35 17.8 2.45 18.0 2.9 18.1 3.1 Q18.3 3.35 18.6 3.4 L15.95 3.4 15.9 3.5 14.1 3.5 11.3 3.5 Q11.0 2.4 10.95 1.1 L10.9 0.0 10.9 -0.2 M15.95 3.4 L14.1 3.5 15.95 3.4" fill="#404040" fill-rule="evenodd" stroke="none"/>
    <path d="M11.3 3.5 L14.1 3.5 15.95 3.4 18.6 3.4 Q18.3 3.35 18.1 3.1 L18.0 2.9 17.8 2.45 17.75 2.35 17.75 2.25 17.7 2.2 17.5 1.3 M17.4 0.4 L17.4 -0.1 M17.4 -0.25 Q17.4 -1.6 17.75 -2.6 18.0 -3.35 18.35 -3.55 L16.0 -3.55 M16.0 -3.45 L11.3 -3.45 M18.35 -3.55 L18.6 -3.65 23.0 -2.75 Q25.55 -2.15 26.4 -1.3 L26.85 -0.4 26.5 0.45 26.4 0.55 Q25.55 1.45 23.0 2.25 L21.9 2.6 19.05 3.35 18.6 3.4 M15.9 3.5 L14.1 3.5 M-27.05 -5.85 L-26.65 -5.95 -26.25 -5.85" fill="none" stroke="#3b0101" stroke-linecap="round" stroke-linejoin="round" stroke-opacity="0.4" stroke-width="1.0"/>
  </g>
</svg>
