<?xml version="1.0" encoding="UTF-8" standalone="no"?>
<svg xmlns:ffdec="https://www.free-decompiler.com/flash" xmlns:xlink="http://www.w3.org/1999/xlink" ffdec:objectType="shape" height="12.9px" width="44.35px" xmlns="http://www.w3.org/2000/svg">
  <g transform="matrix(1.0, 0.0, 0.0, 1.0, 22.2, 6.45)">
    <path d="M19.55 -5.85 Q18.95 -5.5 18.5 -4.2 L18.3 -3.45 18.15 -2.7 18.1 -2.65 17.9 -0.7 -21.65 -0.8 -21.7 0.0 Q-21.7 -2.45 -21.1 -4.2 -20.65 -5.5 -20.05 -5.85 L19.55 -5.85" fill="#ffffff" fill-rule="evenodd" stroke="none"/>
    <path d="M-21.7 0.0 L-21.65 -0.8 17.9 -0.7 18.1 -2.65 18.15 -2.7 Q17.9 -1.55 17.9 -0.2 L17.9 0.0 17.95 1.1 Q18.0 2.4 18.3 3.5 L18.5 4.2 18.8 4.9 18.6 4.45 18.4 4.4 18.0 4.5 17.45 4.55 17.05 4.45 16.65 4.55 16.3 4.55 14.75 4.35 8.85 4.75 0.15 4.55 -1.05 4.4 -4.3 4.15 -6.55 3.9 -11.4 3.5 -13.7 3.15 -15.85 2.8 -16.65 2.65 Q-18.15 2.65 -21.7 0.55 L-21.7 0.0 M19.95 5.95 L9.3 5.95 9.3 5.75 11.3 5.55 12.55 5.75 13.75 5.6 14.2 5.7 14.35 5.75 14.6 5.65 15.05 5.75 15.55 5.65 15.85 5.75 17.55 5.4 17.8 5.5 Q18.0 5.45 18.15 5.35 L18.75 5.3 19.0 5.25 Q19.4 5.9 19.95 5.95" fill="#e0cbcb" fill-rule="evenodd" stroke="none"/>
    <path d="M18.3 -3.45 L18.5 -4.2 Q18.95 -5.5 19.55 -5.85 L19.95 -5.95 Q20.8 -5.95 21.4 -4.2 L21.65 -3.45 18.3 -3.45 M18.3 3.5 L21.6 3.5 21.4 4.2 Q20.8 5.95 19.95 5.95 19.4 5.9 19.0 5.25 L18.75 5.3 18.15 5.35 Q18.0 5.45 17.8 5.5 L17.55 5.4 15.85 5.75 15.55 5.65 15.05 5.75 14.6 5.65 14.35 5.75 14.2 5.7 13.75 5.6 12.55 5.75 11.3 5.55 9.3 5.75 9.3 5.95 -19.65 5.95 Q-20.5 5.95 -21.1 4.2 L-21.65 1.4 -21.7 0.55 Q-18.15 2.65 -16.65 2.65 L-15.85 2.8 -13.7 3.15 -11.4 3.5 -6.55 3.9 -4.3 4.15 -1.05 4.4 0.15 4.55 8.85 4.75 14.75 4.35 16.3 4.55 16.65 4.55 17.05 4.45 17.45 4.55 18.0 4.5 18.4 4.4 18.6 4.45 18.8 4.9 18.5 4.2 18.3 3.5 M18.8 4.9 L19.0 5.25 18.8 4.9" fill="#cca9a9" fill-rule="evenodd" stroke="none"/>
    <path d="M18.3 -3.45 L18.5 -4.2 Q18.95 -5.5 19.55 -5.85 L-20.05 -5.85 Q-20.65 -5.5 -21.1 -4.2 -21.7 -2.45 -21.7 0.0 L-21.7 0.55 M18.15 -2.7 L18.3 -3.45 M21.65 -3.45 L21.4 -4.2 Q20.8 -5.95 19.95 -5.95 L19.55 -5.85 M18.15 -2.7 Q17.9 -1.55 17.9 -0.2 M17.9 0.0 L17.95 1.1 Q18.0 2.4 18.3 3.5 L18.5 4.2 18.8 4.9 19.0 5.25 Q19.4 5.9 19.95 5.95 L9.3 5.95 -19.65 5.95 Q-20.5 5.95 -21.1 4.2 L-21.65 1.4 M21.6 3.5 L21.4 4.2 Q20.8 5.95 19.95 5.95" fill="none" stroke="#3b0101" stroke-linecap="round" stroke-linejoin="round" stroke-opacity="0.4" stroke-width="1.0"/>
  </g>
</svg>
