<?xml version="1.0" encoding="UTF-8" standalone="no"?>
<svg xmlns:ffdec="https://www.free-decompiler.com/flash" xmlns:xlink="http://www.w3.org/1999/xlink" ffdec:objectType="shape" height="27.35px" width="14.6px" xmlns="http://www.w3.org/2000/svg">
  <g transform="matrix(1.0, 0.0, 0.0, 1.0, -37.9, 12.95)">
    <path d="M40.85 10.65 Q40.85 12.0 40.5 12.95 40.15 13.9 39.65 13.9 39.15 13.9 38.75 12.95 38.4 12.0 38.4 10.65 38.4 9.3 38.75 8.35 39.15 7.4 39.65 7.4 40.15 7.4 40.5 8.35 40.85 9.3 40.85 10.65" fill="#ffffff" fill-rule="evenodd" stroke="none"/>
    <path d="M40.85 10.65 Q40.85 12.0 40.5 12.95 40.15 13.9 39.65 13.9 39.15 13.9 38.75 12.95 38.4 12.0 38.4 10.65 38.4 9.3 38.75 8.35 39.15 7.4 39.65 7.4 40.15 7.4 40.5 8.35 40.85 9.3 40.85 10.65 Z" fill="none" stroke="#3b0101" stroke-linecap="round" stroke-linejoin="round" stroke-opacity="0.4" stroke-width="1.0"/>
    <path d="M52.0 -9.2 Q52.0 -7.85 51.6 -6.9 51.25 -5.95 50.75 -5.95 50.25 -5.95 49.85 -6.9 49.55 -7.85 49.55 -9.2 49.55 -10.55 49.85 -11.5 50.25 -12.45 50.75 -12.45 51.25 -12.45 51.6 -11.5 52.0 -10.55 52.0 -9.2" fill="#ffffff" fill-rule="evenodd" stroke="none"/>
    <path d="M52.0 -9.2 Q52.0 -7.85 51.6 -6.9 51.25 -5.95 50.75 -5.95 50.25 -5.95 49.85 -6.9 49.55 -7.85 49.55 -9.2 49.55 -10.55 49.85 -11.5 50.25 -12.45 50.75 -12.45 51.25 -12.45 51.6 -11.5 52.0 -10.55 52.0 -9.2 Z" fill="none" stroke="#3b0101" stroke-linecap="round" stroke-linejoin="round" stroke-opacity="0.4" stroke-width="1.0"/>
  </g>
</svg>
