<?xml version="1.0" encoding="UTF-8" standalone="no"?>
<svg xmlns:ffdec="https://www.free-decompiler.com/flash" xmlns:xlink="http://www.w3.org/1999/xlink" ffdec:objectType="shape" height="7.1px" width="14.1px" xmlns="http://www.w3.org/2000/svg">
  <g transform="matrix(1.0, 0.0, 0.0, 1.0, 7.05, 3.55)">
    <path d="M6.45 -2.0 L7.05 -0.5 7.0 0.05 7.0 0.2 6.9 1.05 6.4 2.25 Q5.95 3.1 1.1 3.5 -3.1 3.8 -5.45 2.15 L-6.2 1.55 -6.75 0.85 -6.75 0.8 -6.85 0.7 -6.9 0.5 -7.05 -0.25 -6.9 -0.85 -6.85 -1.05 -6.75 -1.15 -6.65 -1.3 Q-5.75 -2.5 -3.25 -3.15 L-3.05 -3.15 2.55 -3.4 4.1 -3.15 Q6.0 -2.8 6.45 -2.0" fill="#a36a6a" fill-rule="evenodd" stroke="none"/>
    <path d="M-7.05 -0.2 L-6.85 -0.8 -6.65 -1.0 Q-5.75 -1.9 -3.25 -2.4 L-3.05 -2.45 2.55 -2.6 4.1 -2.45 Q6.0 -2.1 6.45 -1.5 L7.05 -0.4 7.0 0.05 2.6 -0.05 -1.75 0.15 -4.6 0.05 -6.85 -0.2 -7.05 -0.2" fill="#ffffff" fill-rule="evenodd" stroke="none"/>
    <path d="M-7.05 -0.2 L-6.85 -0.2 -4.6 0.05 -1.75 0.15 2.6 -0.05 7.0 0.05 7.0 0.1 7.0 0.15 6.9 0.8 6.4 1.75 Q5.95 2.4 1.1 2.65 -3.8 2.95 -6.2 1.15 L-6.75 0.65 -6.75 0.6 -6.85 0.55 -7.05 -0.2" fill="#e0cbcb" fill-rule="evenodd" stroke="none"/>
  </g>
</svg>
