<?xml version="1.0" encoding="UTF-8" standalone="no"?>
<svg xmlns:ffdec="https://www.free-decompiler.com/flash" xmlns:xlink="http://www.w3.org/1999/xlink" ffdec:objectType="shape" height="7.55px" width="9.1px" xmlns="http://www.w3.org/2000/svg">
  <g transform="matrix(1.0, 0.0, 0.0, 1.0, 4.55, 3.8)">
    <path d="M4.5 -1.5 L4.55 -0.5 Q4.55 0.45 4.0 0.95 L4.0 0.9 3.5 1.25 3.5 1.4 3.5 1.5 3.5 1.7 3.5 1.75 3.4 2.25 3.4 2.3 3.3 2.55 3.3 2.5 Q2.85 3.4 1.8 3.65 L1.85 3.65 1.65 3.7 1.6 3.7 0.75 3.75 0.55 3.75 0.5 3.75 -3.65 2.8 -4.35 0.8 Q-4.35 -0.9 -2.6 -2.15 L-1.85 -2.7 -0.35 -2.95 1.7 -3.65 1.9 -3.7 1.95 -3.75 Q3.05 -3.95 3.75 -3.2 4.3 -2.7 4.5 -1.5" fill="#a36a6a" fill-rule="evenodd" stroke="none"/>
    <path d="M2.25 0.35 L2.4 0.75 2.5 1.4 2.5 1.55 0.95 1.0 -2.05 0.35 -3.7 -0.6 -3.9 -0.7 Q-2.9 -1.65 -0.25 -1.95 0.35 -2.0 2.1 -2.75 3.25 -2.95 3.5 -1.35 L2.9 -1.35 0.45 -0.7 0.45 -0.65 Q0.8 0.15 2.25 0.35" fill="#f2eaea" fill-rule="evenodd" stroke="none"/>
    <path d="M3.5 -1.35 L3.55 -0.5 3.3 0.2 2.95 0.4 2.25 0.35 Q0.8 0.15 0.45 -0.65 L0.45 -0.7 2.9 -1.35 3.5 -1.35 M2.5 1.55 L2.4 2.05 Q2.15 2.55 1.55 2.7 L0.65 2.75 Q-4.55 2.05 -4.55 0.65 L-4.45 0.1 -4.4 0.0 -4.3 -0.25 -4.25 -0.25 -3.95 -0.65 -3.9 -0.7 -3.7 -0.6 -2.05 0.35 0.95 1.0 2.5 1.55" fill="#e0cbcb" fill-rule="evenodd" stroke="none"/>
  </g>
</svg>
