<?xml version="1.0" encoding="UTF-8" standalone="no"?>
<svg xmlns:ffdec="https://www.free-decompiler.com/flash" xmlns:xlink="http://www.w3.org/1999/xlink" ffdec:objectType="shape" height="5.45px" width="10.4px" xmlns="http://www.w3.org/2000/svg">
  <g transform="matrix(1.0, 0.0, 0.0, 1.0, 5.2, 2.75)">
    <path d="M2.85 -1.65 L2.6 -1.45 1.6 -1.2 4.8 -0.65 5.1 -0.45 5.2 -0.1 5.1 0.2 4.75 0.35 2.75 0.6 4.6 1.55 4.85 1.85 4.8 2.2 4.5 2.45 1.65 2.65 -0.6 0.8 -2.5 -0.4 -5.2 -1.15 -4.95 -1.3 -3.35 -2.1 -3.35 -2.05 Q-2.05 -2.85 1.1 -2.75 L1.15 -2.75 2.55 -2.45 2.85 -2.25 2.95 -1.95 2.85 -1.65" fill="#a36a6a" fill-rule="evenodd" stroke="none"/>
    <path d="M2.45 -1.95 L0.85 -1.5 Q-0.15 -1.35 -0.15 -0.85 L1.4 -0.7 4.7 -0.15 0.7 0.3 2.25 0.9 4.35 1.95 Q1.65 2.7 -0.85 1.15 -2.55 0.05 -4.3 -0.9 L-4.8 -0.85 -3.1 -1.65 Q-1.9 -2.35 1.05 -2.25 L2.45 -1.95" fill="#f2eaea" fill-rule="evenodd" stroke="none"/>
  </g>
</svg>
