<?xml version="1.0" encoding="UTF-8" standalone="no"?>
<svg xmlns:ffdec="https://www.free-decompiler.com/flash" xmlns:xlink="http://www.w3.org/1999/xlink" ffdec:objectType="shape" height="13.45px" width="12.2px" xmlns="http://www.w3.org/2000/svg">
  <g transform="matrix(1.0, 0.0, 0.0, 1.0, 6.1, 6.75)">
    <path d="M1.0 -4.25 Q2.9 -0.45 5.7 2.35 L6.1 2.75 5.95 2.9 5.3 3.8 3.35 5.5 Q2.6 6.15 2.35 6.7 L1.85 6.7 1.7 6.7 1.65 6.7 0.65 6.55 Q-3.85 6.3 -5.3 3.55 L-5.4 3.4 -5.45 3.35 Q-6.0 2.35 -6.05 0.7 L-6.1 -0.2 Q-6.1 -2.65 -4.6 -5.05 -3.3 -7.15 -1.7 -6.65 L-1.75 -6.7 Q-0.45 -6.6 0.95 -4.35 L1.0 -4.3 1.0 -4.25" fill="#a36a6a" fill-rule="evenodd" stroke="none"/>
    <path d="M3.65 5.35 L1.8 5.7 0.8 5.55 Q-3.15 5.35 -4.45 3.05 L-4.55 2.9 Q-4.35 2.15 -4.3 0.65 -4.2 -1.2 -3.15 -2.3 L-3.05 -2.05 Q-3.3 -2.1 -3.3 -1.45 -3.3 0.0 -1.25 2.35 0.85 4.75 3.65 5.35" fill="#e0cbcb" fill-rule="evenodd" stroke="none"/>
    <path d="M-4.55 2.9 Q-5.0 2.0 -5.05 0.55 L-5.1 -0.2 Q-5.1 -2.35 -3.75 -4.5 -2.05 -7.25 0.1 -3.8 2.1 0.15 5.0 3.05 L5.4 3.45 4.95 4.2 Q1.15 4.05 -1.25 1.1 -2.45 -0.35 -3.05 -2.05 L-3.15 -2.3 Q-4.2 -1.2 -4.3 0.65 -4.35 2.15 -4.55 2.9" fill="#f2eaea" fill-rule="evenodd" stroke="none"/>
    <path d="M4.95 4.2 L4.55 4.65 3.65 5.35 Q0.85 4.75 -1.25 2.35 -3.3 0.0 -3.3 -1.45 -3.3 -2.1 -3.05 -2.05 -2.45 -0.35 -1.25 1.1 1.15 4.05 4.95 4.2" fill="#a36a6a" fill-rule="evenodd" stroke="none"/>
  </g>
</svg>
