<?xml version="1.0" encoding="UTF-8" standalone="no"?>
<svg xmlns:ffdec="https://www.free-decompiler.com/flash" xmlns:xlink="http://www.w3.org/1999/xlink" ffdec:objectType="shape" height="7.75px" width="6.7px" xmlns="http://www.w3.org/2000/svg">
  <g transform="matrix(1.0, 0.0, 0.0, 1.0, 3.35, 3.9)">
    <path d="M-2.0 -3.85 L-0.15 -3.4 -0.05 -3.4 Q3.05 -2.3 3.35 0.15 L3.35 0.2 3.35 0.7 3.35 0.9 3.3 1.4 3.2 1.7 2.8 2.5 Q1.9 3.85 0.2 3.85 -2.1 3.9 -3.35 1.45 -2.95 1.3 -2.9 0.65 L-2.9 -0.35 -2.55 -2.45 -2.75 -2.95 -2.75 -3.1 -2.75 -3.15 -2.65 -3.7 -2.65 -3.85 -2.5 -3.85 -2.05 -3.85 -2.0 -3.85" fill="#a36a6a" fill-rule="evenodd" stroke="none"/>
    <path d="M2.35 0.25 L2.35 0.7 2.35 0.85 2.3 1.2 1.95 1.95 Q1.35 2.85 0.2 2.85 -1.5 2.85 -2.45 1.0 -3.1 -0.2 -3.1 -1.1 L-2.85 -1.85 -2.8 -1.95 -2.45 -2.55 -2.25 -2.85 -2.1 -2.85 -2.1 -2.8 -2.05 -1.25 -1.3 0.15 Q-0.5 1.05 0.85 1.05 L1.65 0.75 2.35 0.25" fill="#e0cbcb" fill-rule="evenodd" stroke="none"/>
    <path d="M-2.1 -2.85 L-0.4 -2.45 Q2.05 -1.6 2.35 0.25 L1.65 0.75 0.85 1.05 Q-0.5 1.05 -1.3 0.15 L-2.05 -1.25 -2.1 -2.8 -2.1 -2.85" fill="#f2eaea" fill-rule="evenodd" stroke="none"/>
  </g>
</svg>
