<?xml version="1.0" encoding="UTF-8" standalone="no"?>
<svg xmlns:ffdec="https://www.free-decompiler.com/flash" xmlns:xlink="http://www.w3.org/1999/xlink" ffdec:objectType="shape" height="4.4px" width="4.45px" xmlns="http://www.w3.org/2000/svg">
  <g transform="matrix(1.0, 0.0, 0.0, 1.0, 2.05, 2.1)">
    <path d="M1.05 2.0 L-0.7 2.15 -1.8 1.05 Q-2.1 0.15 -2.0 -0.6 L-1.6 -1.95 0.25 -2.0 1.9 -1.6 Q2.5 -1.4 2.4 -0.5 L2.3 -0.85 Q2.15 -1.4 1.45 -1.45 L0.7 -1.15 0.45 -0.8 Q0.0 0.0 0.15 1.05 0.25 2.0 1.05 2.0" fill="#ffffff" fill-rule="evenodd" stroke="none"/>
    <path d="M1.05 2.0 Q0.25 2.0 0.15 1.05 0.0 0.0 0.45 -0.8 L0.7 -1.15 1.45 -1.45 Q2.15 -1.4 2.3 -0.85 L2.4 -0.5 2.3 -0.1 1.6 1.7 1.05 2.0" fill="#330000" fill-rule="evenodd" stroke="none"/>
  </g>
</svg>
