<?xml version="1.0" encoding="UTF-8" standalone="no"?>
<svg xmlns:ffdec="https://www.free-decompiler.com/flash" xmlns:xlink="http://www.w3.org/1999/xlink" ffdec:objectType="shape" height="10.9px" width="37.75px" xmlns="http://www.w3.org/2000/svg">
  <g transform="matrix(1.0, 0.0, 0.0, 1.0, 18.85, 5.45)">
    <path d="M18.9 -3.05 L9.55 -3.05 9.55 -5.0 18.9 -5.0 18.9 -3.05" fill="#5e5e5e" fill-rule="evenodd" stroke="none"/>
    <path d="M9.55 -3.05 L18.9 -3.05 18.9 -0.9 9.55 -0.9 9.55 -3.05" fill="#333333" fill-rule="evenodd" stroke="none"/>
    <path d="M-9.1 0.5 L-6.8 0.5 -6.8 5.45 -9.1 5.45 -9.1 0.5" fill="#333333" fill-rule="evenodd" stroke="none"/>
    <path d="M3.15 -2.7 L3.2 -2.5 4.8 -2.45 6.95 -2.55 9.15 -2.55 9.45 -2.9 9.05 -3.2 7.15 -3.2 4.25 -2.95 3.15 -2.7 M-13.05 -2.75 L-13.05 -5.05 9.6 -5.05 9.6 0.8 -1.9 0.8 -1.95 -0.35 -1.8 -1.95 -2.05 -2.55 -4.3 -2.95 -8.1 -2.95 -8.3 -3.0 -12.65 -2.95 -13.05 -2.75 M-2.6 0.8 L-13.05 0.8 -13.05 -2.3 Q-12.85 -1.95 -11.9 -2.1 L-8.2 -2.1 -8.1 -2.05 -2.55 -1.9 -2.65 0.05 -2.6 0.8 M-7.2 -1.3 L-7.45 -1.05 -7.3 -0.7 -6.05 -0.6 -3.35 -0.7 -3.0 -1.0 Q-3.0 -1.4 -3.45 -1.4 L-4.85 -1.4 -5.55 -1.3 -6.5 -1.25 -7.2 -1.3" fill="#999999" fill-rule="evenodd" stroke="none"/>
    <path d="M3.15 -2.7 L4.25 -2.95 7.15 -3.2 9.05 -3.2 9.45 -2.9 9.15 -2.55 6.95 -2.55 4.8 -2.45 3.2 -2.5 3.15 -2.7 M-13.05 -2.75 L-12.65 -2.95 -8.3 -3.0 -8.1 -2.95 -4.3 -2.95 -2.05 -2.55 -1.8 -1.95 -1.95 -0.35 -1.9 0.8 -2.3 1.15 -2.6 0.8 -2.65 0.05 -2.55 -1.9 -8.1 -2.05 -8.2 -2.1 -11.9 -2.1 Q-12.85 -1.95 -13.05 -2.3 L-13.1 -2.55 -13.05 -2.75 M-7.2 -1.3 L-6.5 -1.25 -5.55 -1.3 -4.85 -1.4 -3.45 -1.4 Q-3.0 -1.4 -3.0 -1.0 L-3.35 -0.7 -6.05 -0.6 -7.3 -0.7 -7.45 -1.05 -7.2 -1.3" fill="#5e5e5e" fill-rule="evenodd" stroke="none"/>
    <path d="M-13.05 -5.45 L-13.05 1.35 -18.85 2.8 -18.75 -5.45 -13.05 -5.45" fill="#333333" fill-rule="evenodd" stroke="none"/>
  </g>
</svg>
