<?xml version="1.0" encoding="UTF-8" standalone="no"?>
<svg xmlns:ffdec="https://www.free-decompiler.com/flash" xmlns:xlink="http://www.w3.org/1999/xlink" ffdec:objectType="shape" height="10.9px" width="30.5px" xmlns="http://www.w3.org/2000/svg">
  <g transform="matrix(1.0, 0.0, 0.0, 1.0, 15.25, 5.45)">
    <path d="M15.25 -1.75 L15.25 3.25 0.6 3.25 0.6 -1.75 15.25 -1.75" fill="#333333" fill-rule="evenodd" stroke="none"/>
    <path d="M-5.5 0.5 L-3.2 0.5 -3.2 5.45 -5.5 5.45 -5.5 0.5" fill="#333333" fill-rule="evenodd" stroke="none"/>
    <path d="M1.7 0.8 L1.65 -0.35 1.8 -1.95 1.55 -2.55 -0.7 -2.95 -4.5 -2.95 -4.7 -3.0 -9.05 -2.95 -9.45 -2.75 -9.45 -5.05 13.2 -5.05 13.2 0.8 1.7 0.8 M0.25 -0.7 L0.6 -1.0 Q0.6 -1.4 0.15 -1.4 L-1.25 -1.4 -1.95 -1.3 -2.9 -1.25 -3.6 -1.3 -3.85 -1.05 -3.7 -0.7 -2.45 -0.6 0.25 -0.7 M-9.45 -2.3 Q-9.25 -1.95 -8.3 -2.1 L-4.6 -2.1 -4.5 -2.05 1.05 -1.9 0.95 0.05 Q0.9 0.55 1.0 0.8 L-9.45 0.8 -9.45 -2.3 M7.85 -2.95 L6.75 -2.7 6.8 -2.5 8.4 -2.45 10.55 -2.55 12.75 -2.55 13.05 -2.9 12.65 -3.2 10.75 -3.2 7.85 -2.95" fill="#999999" fill-rule="evenodd" stroke="none"/>
    <path d="M0.25 -0.7 L-2.45 -0.6 -3.7 -0.7 -3.85 -1.05 -3.6 -1.3 -2.9 -1.25 -1.95 -1.3 -1.25 -1.4 0.15 -1.4 Q0.6 -1.4 0.6 -1.0 L0.25 -0.7 M-9.45 -2.75 L-9.05 -2.95 -4.7 -3.0 -4.5 -2.95 -0.7 -2.95 1.55 -2.55 1.8 -1.95 1.65 -0.35 1.7 0.8 1.3 1.15 1.0 0.8 Q0.9 0.55 0.95 0.05 L1.05 -1.9 -4.5 -2.05 -4.6 -2.1 -8.3 -2.1 Q-9.25 -1.95 -9.45 -2.3 L-9.5 -2.55 -9.45 -2.75 M7.85 -2.95 L10.75 -3.2 12.65 -3.2 13.05 -2.9 12.75 -2.55 10.55 -2.55 8.4 -2.45 6.8 -2.5 6.75 -2.7 7.85 -2.95" fill="#5e5e5e" fill-rule="evenodd" stroke="none"/>
    <path d="M-9.45 -5.45 L-9.45 1.35 -15.25 2.8 -15.15 -5.45 -9.45 -5.45" fill="#333333" fill-rule="evenodd" stroke="none"/>
  </g>
</svg>
