<?xml version="1.0" encoding="UTF-8" standalone="no"?>
<svg xmlns:ffdec="https://www.free-decompiler.com/flash" xmlns:xlink="http://www.w3.org/1999/xlink" ffdec:objectType="shape" height="6.45px" width="6.5px" xmlns="http://www.w3.org/2000/svg">
  <g transform="matrix(1.0, 0.0, 0.0, 1.0, 3.35, 4.0)">
    <path d="M0.65 -1.45 L0.85 -1.35 0.0 -1.5 Q-0.55 -1.1 -0.55 0.1 L-0.35 0.8 Q-0.05 1.35 0.6 1.35 1.35 1.35 1.8 0.8 L2.15 -0.05 2.3 0.2 2.3 0.4 2.25 0.75 1.75 1.65 Q1.1 2.45 0.25 2.45 -0.9 2.45 -1.55 1.5 L-1.5 1.5 -1.65 1.25 -1.7 1.2 -1.95 0.35 -2.05 -0.35 -2.05 -0.45 Q-0.55 -1.85 0.65 -1.45" fill="#ffffff" fill-rule="evenodd" stroke="none"/>
    <path d="M0.85 -1.35 L2.1 -0.15 2.15 -0.05 1.8 0.8 Q1.35 1.35 0.6 1.35 -0.05 1.35 -0.35 0.8 L-0.55 0.1 Q-0.55 -1.1 0.0 -1.5 L0.85 -1.35" fill="#330000" fill-rule="evenodd" stroke="none"/>
    <path d="M0.85 -1.35 L0.65 -1.45 0.75 -1.45 2.6 -1.15 3.15 -0.75 2.3 0.4 2.3 0.2 2.15 -0.05 2.1 -0.15 0.85 -1.35 M-2.05 -0.35 L-1.95 0.35 -1.7 1.2 -1.65 1.25 -1.5 1.5 -1.55 1.5 -2.4 1.1 Q-3.25 1.1 -3.25 0.75 L-2.45 -0.05 -2.05 -0.35" fill="#330000" fill-opacity="0.29803923" fill-rule="evenodd" stroke="none"/>
    <path d="M2.1 -2.3 Q1.8 -2.3 1.1 -2.8 0.35 -3.35 -0.2 -3.35 -1.35 -3.35 -2.2 -2.75 L-3.35 -1.95 Q-3.15 -2.7 -0.95 -3.8 L1.25 -3.7 Q2.5 -3.25 2.5 -2.7 2.5 -2.3 2.1 -2.3" fill="#330000" fill-opacity="0.49803922" fill-rule="evenodd" stroke="none"/>
  </g>
</svg>
