<?xml version="1.0" encoding="UTF-8" standalone="no"?>
<svg xmlns:ffdec="https://www.free-decompiler.com/flash" xmlns:xlink="http://www.w3.org/1999/xlink" ffdec:objectType="shape" height="8.15px" width="47.7px" xmlns="http://www.w3.org/2000/svg">
  <g transform="matrix(1.0, 0.0, 0.0, 1.0, 8.7, 10.65)">
    <path d="M39.0 -4.1 L39.0 -2.5 20.55 -2.5 20.55 -4.1 39.0 -4.1" fill="#333333" fill-rule="evenodd" stroke="none"/>
    <path d="M-4.15 -8.05 L-4.15 -10.55 5.2 -10.55 5.2 -8.05 -4.15 -8.05" fill="#5e5e5e" fill-rule="evenodd" stroke="none"/>
    <path d="M5.2 -8.05 L5.2 -5.2 -4.15 -5.2 -4.15 -8.05 5.2 -8.05" fill="#333333" fill-rule="evenodd" stroke="none"/>
    <path d="M-8.7 -7.8 L-4.0 -7.8 -4.0 -5.45 -8.7 -5.45 -8.7 -7.8" fill="#333333" fill-rule="evenodd" stroke="none"/>
    <path d="M-8.7 -7.8 L-8.7 -10.65 -4.0 -10.65 -4.0 -7.8 -8.7 -7.8" fill="#5e5e5e" fill-rule="evenodd" stroke="none"/>
    <path d="M5.0 -8.0 L11.8 -8.0 11.8 -5.45 5.0 -5.45 5.0 -8.0" fill="#333333" fill-rule="evenodd" stroke="none"/>
    <path d="M5.0 -8.0 L5.0 -10.65 11.8 -10.65 11.8 -8.0 5.0 -8.0" fill="#5e5e5e" fill-rule="evenodd" stroke="none"/>
    <path d="M5.65 -4.4 L5.65 -2.5 -1.75 -2.5 -1.75 -4.4 5.65 -4.4" fill="#ffffff" fill-rule="evenodd" stroke="none"/>
  </g>
</svg>
