<?xml version="1.0" encoding="UTF-8" standalone="no"?>
<svg xmlns:ffdec="https://www.free-decompiler.com/flash" xmlns:xlink="http://www.w3.org/1999/xlink" ffdec:objectType="shape" height="30.8px" width="92.6px" xmlns="http://www.w3.org/2000/svg">
  <g transform="matrix(1.0, 0.0, 0.0, 1.0, 48.3, -1.65)">
    <path d="M-36.3 28.1 Q-36.4 30.25 -38.2 31.0 -41.4 33.75 -44.7 31.25 L-43.6 28.05 Q-42.0 24.0 -37.75 23.95 -36.15 25.75 -36.3 28.1 M-37.5 13.1 L-36.35 16.2 Q-37.95 20.35 -42.6 19.8 -46.1 19.45 -48.3 16.6 L-47.1 12.7 -37.5 13.1 M-29.7 3.35 L-28.65 5.75 -29.95 9.05 -34.3 8.9 Q-36.95 7.35 -37.6 4.4 -36.85 3.3 -35.85 2.55 -35.0 1.9 -33.9 1.65 L-29.7 3.35 M-19.75 11.05 L-16.4 13.25 Q-15.85 16.4 -18.35 18.35 -21.15 20.6 -23.65 18.25 -25.4 16.65 -25.1 14.45 -24.9 12.8 -23.25 11.8 -21.65 10.8 -19.75 11.05 M-13.05 11.5 Q-11.4 9.35 -8.6 9.0 -5.4 8.85 -3.8 11.5 L-3.45 14.55 -5.7 16.6 Q-9.0 17.2 -11.45 14.8 -12.95 13.35 -13.05 11.5 M2.3 17.9 Q3.35 16.95 4.9 16.95 6.45 16.95 7.55 17.9 8.6 18.8 8.6 20.1 8.6 21.4 7.55 22.35 6.45 23.25 4.9 23.25 3.35 23.25 2.3 22.35 1.2 21.4 1.2 20.1 1.2 18.8 2.3 17.9 M22.0 13.1 Q23.15 14.15 23.15 15.6 23.15 17.05 22.0 18.1 20.8 19.15 19.15 19.15 17.5 19.15 16.35 18.1 15.15 17.05 15.15 15.6 15.15 14.15 16.35 13.1 17.5 12.05 19.15 12.05 20.8 12.05 22.0 13.1 M22.6 24.1 Q23.7 22.95 25.25 22.95 26.8 22.95 27.95 24.1 29.05 25.2 29.05 26.75 29.05 28.3 27.95 29.45 26.8 30.55 25.25 30.55 23.7 30.55 22.6 29.45 21.45 28.3 21.45 26.75 21.45 25.2 22.6 24.1 M20.7 2.35 Q22.8 2.7 24.0 4.5 24.95 6.0 24.45 7.55 23.15 10.2 20.2 10.55 17.4 10.65 15.75 8.45 15.95 3.65 20.7 2.35 M44.3 16.15 Q44.25 18.05 42.75 19.05 39.25 21.6 35.35 19.8 32.0 18.25 31.85 14.6 L31.95 12.6 Q36.5 9.4 41.55 11.7 44.35 13.0 44.3 16.15" fill="#ffffff" fill-rule="evenodd" stroke="none"/>
  </g>
</svg>
