<?xml version="1.0" encoding="UTF-8" standalone="no"?>
<svg xmlns:ffdec="https://www.free-decompiler.com/flash" xmlns:xlink="http://www.w3.org/1999/xlink" ffdec:objectType="shape" height="45.75px" width="130.7px" xmlns="http://www.w3.org/2000/svg">
  <g transform="matrix(1.0, 0.0, 0.0, 1.0, 64.45, 0.75)">
    <path d="M-55.5 36.7 Q-53.8 34.45 -51.05 34.85 L-49.1 36.65 -48.55 38.0 Q-48.3 38.85 -48.5 39.7 -48.7 40.7 -49.25 41.6 -50.45 43.4 -52.55 43.85 -55.45 44.35 -56.35 41.45 -57.15 38.9 -55.5 36.7 M-59.6 15.55 Q-57.6 15.55 -56.15 16.9 -54.75 18.2 -54.75 20.1 -54.75 22.0 -56.15 23.35 -57.6 24.65 -59.6 24.65 -61.6 24.65 -63.0 23.35 -64.45 22.0 -64.45 20.1 -64.45 18.2 -63.0 16.9 -61.6 15.55 -59.6 15.55 M-45.6 6.15 Q-46.95 7.25 -48.8 7.25 -50.65 7.25 -51.9 6.15 -53.3 4.9 -53.3 3.25 -53.3 1.6 -51.9 0.45 -50.65 -0.75 -48.8 -0.75 -46.95 -0.75 -45.6 0.45 -44.3 1.6 -44.3 3.25 -44.3 4.9 -45.6 6.15 M-33.5 16.4 Q-31.7 16.4 -30.4 17.6 -29.1 18.8 -29.1 20.5 -29.1 22.2 -30.4 23.45 -31.7 24.6 -33.5 24.6 -35.3 24.6 -36.55 23.45 -37.9 22.2 -37.9 20.5 -37.9 18.8 -36.55 17.6 -35.3 16.4 -33.5 16.4 M-28.85 7.85 Q-27.2 7.85 -26.05 9.0 -24.9 10.15 -24.9 11.75 -24.9 13.35 -26.05 14.5 -27.2 15.65 -28.85 15.65 -30.5 15.65 -31.65 14.5 -32.8 13.35 -32.8 11.75 -32.8 10.15 -31.65 9.0 -30.5 7.85 -28.85 7.85 M-16.6 6.2 Q-15.5 7.25 -15.5 8.75 -15.5 10.25 -16.6 11.3 -17.75 12.35 -19.35 12.35 -20.95 12.35 -22.05 11.3 -23.2 10.25 -23.2 8.75 -23.2 7.25 -22.05 6.2 -20.95 5.15 -19.35 5.15 -17.75 5.15 -16.6 6.2 M-5.35 8.9 L-4.7 10.65 Q-1.15 11.0 -0.45 14.4 -0.1 16.15 -0.95 17.9 -1.6 19.15 -3.15 19.25 L-7.9 17.3 -8.1 14.7 -12.2 13.75 -13.7 6.5 -10.85 4.95 -5.35 8.9 M36.85 37.6 Q38.45 37.6 39.6 38.7 40.75 39.75 40.75 41.3 40.75 42.85 39.6 43.95 38.45 45.0 36.85 45.0 35.25 45.0 34.1 43.95 32.95 42.85 32.95 41.3 32.95 39.75 34.1 38.7 35.25 37.6 36.85 37.6 M17.4 31.25 Q18.7 32.8 17.2 34.15 L13.05 37.35 9.8 32.45 14.25 28.95 17.4 31.25 M12.05 7.95 Q13.25 9.15 13.25 10.9 13.25 12.65 12.05 13.9 10.8 15.1 9.1 15.1 7.4 15.1 6.2 13.9 4.95 12.65 4.95 10.9 4.95 9.15 6.2 7.95 7.4 6.7 9.1 6.7 10.8 6.7 12.05 7.95 M32.2 20.35 Q33.95 20.35 35.2 21.6 36.4 22.8 36.4 24.55 36.4 26.3 35.2 27.55 33.95 28.75 32.2 28.75 30.45 28.75 29.25 27.55 28.0 26.3 28.0 24.55 28.0 22.8 29.25 21.6 30.45 20.35 32.2 20.35 M42.15 1.2 L43.05 1.45 Q46.45 2.7 48.0 5.65 L46.75 8.5 Q45.7 10.5 43.5 10.4 38.9 10.15 37.7 5.7 L38.25 4.35 Q39.5 1.75 42.15 1.2 M65.35 20.8 L66.25 24.05 Q66.25 25.25 65.5 26.15 64.7 27.2 63.35 27.5 59.85 28.55 56.95 26.25 54.95 24.6 55.3 22.0 55.8 18.35 59.45 18.4 63.0 18.4 65.35 20.8" fill="#ffffff" fill-rule="evenodd" stroke="none"/>
  </g>
</svg>
