<?xml version="1.0" encoding="UTF-8" standalone="no"?>
<svg xmlns:ffdec="https://www.free-decompiler.com/flash" xmlns:xlink="http://www.w3.org/1999/xlink" ffdec:objectType="shape" height="47.0px" width="140.4px" xmlns="http://www.w3.org/2000/svg">
  <g transform="matrix(1.0, 0.0, 0.0, 1.0, 67.95, -3.2)">
    <path d="M-55.65 41.05 Q-54.15 41.05 -53.05 42.1 -52.0 43.15 -52.0 44.65 -52.0 46.15 -53.05 47.2 -54.15 48.25 -55.65 48.25 -57.15 48.25 -58.2 47.2 -59.3 46.15 -59.3 44.65 -59.3 43.15 -58.2 42.1 -57.15 41.05 -55.65 41.05 M-67.95 24.25 Q-67.95 22.9 -66.95 21.95 -66.0 21.0 -64.65 21.0 -63.3 21.0 -62.3 21.95 -61.35 22.9 -61.35 24.25 -61.35 25.6 -62.3 26.55 -63.3 27.5 -64.65 27.5 -66.0 27.5 -66.95 26.55 -67.95 25.6 -67.95 24.25 M-58.8 7.4 Q-58.8 5.65 -57.55 4.45 -56.3 3.2 -54.55 3.2 -52.8 3.2 -51.55 4.45 -50.3 5.65 -50.3 7.4 -50.3 9.15 -51.55 10.4 -52.8 11.6 -54.55 11.6 -56.3 11.6 -57.55 10.4 -58.8 9.15 -58.8 7.4 M-36.55 20.15 Q-33.3 20.8 -32.95 24.05 -32.8 25.7 -33.8 27.1 -35.65 29.65 -39.0 29.15 -40.1 28.8 -40.85 27.7 -42.7 24.8 -40.15 22.1 -38.7 20.55 -36.55 20.15 M-33.8 4.5 Q-31.8 4.5 -30.4 5.85 -29.0 7.15 -29.0 9.05 -29.0 10.95 -30.4 12.3 -31.8 13.6 -33.8 13.6 -35.8 13.6 -37.2 12.3 -38.6 10.95 -38.6 9.05 -38.6 7.15 -37.2 5.85 -35.8 4.5 -33.8 4.5 M-17.35 4.3 L-16.1 6.95 Q-17.35 11.35 -21.75 11.75 -24.1 11.8 -25.45 9.85 -25.7 7.35 -24.15 5.55 -21.25 2.15 -17.35 4.3 M15.3 40.55 Q14.1 39.35 14.1 37.7 14.1 36.05 15.3 34.85 16.5 33.65 18.15 33.65 19.8 33.65 21.0 34.85 22.2 36.05 22.2 37.7 22.2 39.35 21.0 40.55 19.8 41.75 18.15 41.75 16.5 41.75 15.3 40.55 M3.6 21.2 Q3.6 22.95 2.5 24.2 1.3 25.45 -0.35 25.45 -2.0 25.45 -3.15 24.2 -4.3 22.95 -4.3 21.2 -4.3 19.45 -3.15 18.25 -2.0 16.95 -0.35 16.95 1.3 16.95 2.5 18.25 3.6 19.45 3.6 21.2 M4.05 7.3 Q6.05 9.15 4.8 11.45 L1.75 13.35 Q0.9 13.85 -0.1 13.9 -4.0 14.75 -5.65 11.2 L-7.8 12.05 -10.2 11.9 Q-10.9 11.8 -11.45 11.35 -13.65 9.55 -12.6 6.95 -12.2 5.9 -11.1 5.4 -7.25 3.5 -4.75 6.95 L-2.05 5.0 Q1.6 5.05 4.05 7.3 M19.05 9.7 Q20.25 10.8 19.75 12.15 L18.1 16.1 14.5 16.2 Q11.55 14.55 11.75 11.05 L15.3 8.35 Q17.45 8.2 19.05 9.7 M72.45 28.4 Q72.45 29.95 71.15 31.05 69.85 32.1 68.05 32.1 66.25 32.1 64.95 31.05 63.65 29.95 63.65 28.4 63.65 26.85 64.95 25.8 66.25 24.7 68.05 24.7 69.85 24.7 71.15 25.8 72.45 26.85 72.45 28.4 M43.85 46.65 Q43.85 48.1 42.8 49.15 41.75 50.2 40.3 50.2 38.85 50.2 37.8 49.15 36.75 48.1 36.75 46.65 36.75 45.2 37.8 44.15 38.85 43.1 40.3 43.1 41.75 43.1 42.8 44.15 43.85 45.2 43.85 46.65 M41.05 25.35 Q43.05 27.4 41.7 29.6 L37.3 32.2 Q35.95 31.85 35.05 30.9 33.2 28.8 34.25 26.25 34.75 25.0 35.9 24.4 38.7 23.0 41.05 25.35 M50.7 5.35 Q52.35 5.35 53.5 6.5 54.65 7.65 54.65 9.3 54.65 10.95 53.5 12.1 52.35 13.25 50.7 13.25 49.05 13.25 47.9 12.1 46.75 10.95 46.75 9.3 46.75 7.65 47.9 6.5 49.05 5.35 50.7 5.35" fill="#ffffff" fill-rule="evenodd" stroke="none"/>
  </g>
</svg>
