<?xml version="1.0" encoding="UTF-8" standalone="no"?>
<svg xmlns:ffdec="https://www.free-decompiler.com/flash" xmlns:xlink="http://www.w3.org/1999/xlink" ffdec:objectType="shape" height="54.15px" width="108.1px" xmlns="http://www.w3.org/2000/svg">
  <g transform="matrix(1.0, 0.0, 0.0, 1.0, 59.45, -0.4)">
    <path d="M-58.45 46.15 Q-57.5 45.2 -56.15 45.2 -54.8 45.2 -53.8 46.15 -52.85 47.1 -52.85 48.45 -52.85 49.8 -53.8 50.75 -54.8 51.7 -56.15 51.7 -57.5 51.7 -58.45 50.75 -59.45 49.8 -59.45 48.45 -59.45 47.1 -58.45 46.15 M-36.15 31.3 Q-37.85 33.65 -40.4 34.8 -42.75 35.75 -44.15 33.55 -44.95 32.35 -44.8 30.9 -44.5 28.3 -42.2 27.15 -40.1 25.95 -38.0 26.95 -35.25 28.45 -36.15 31.3 M-35.55 5.95 Q-34.55 8.2 -36.5 9.9 -38.95 12.15 -42.05 11.2 -45.8 9.95 -46.15 6.2 -43.05 2.95 -38.65 3.7 -36.45 4.0 -35.55 5.95 M-28.7 12.1 Q-28.7 10.35 -27.45 9.1 -26.2 7.85 -24.5 7.85 -22.8 7.85 -21.55 9.1 -20.3 10.35 -20.3 12.1 -20.3 13.85 -21.55 15.1 -22.8 16.35 -24.5 16.35 -26.2 16.35 -27.45 15.1 -28.7 13.85 -28.7 12.1 M-17.0 1.85 Q-15.45 2.95 -15.5 4.7 -15.5 6.95 -17.6 7.9 -21.0 9.6 -23.4 6.6 -25.2 7.9 -27.4 7.5 -29.2 7.0 -30.1 5.2 -30.65 4.15 -30.3 3.15 -29.4 0.75 -27.0 0.5 -24.45 0.0 -22.8 2.1 -21.55 1.15 -19.95 0.95 -18.35 0.85 -17.0 1.85 M-8.2 3.1 L-5.8 4.05 -4.4 6.0 -1.1 7.35 -0.75 8.0 Q0.0 9.55 -0.75 10.85 -2.6 14.15 -6.05 13.2 L-6.85 13.45 -14.3 9.65 -12.65 5.55 -10.4 5.15 -8.2 3.1 M45.3 53.75 Q44.4 54.55 43.1 54.55 41.8 54.55 40.9 53.75 40.0 52.85 40.0 51.65 40.0 50.45 40.9 49.6 41.8 48.75 43.1 48.75 44.4 48.75 45.3 49.6 46.2 50.45 46.2 51.65 46.2 52.85 45.3 53.75 M18.6 45.05 Q17.65 44.05 17.65 42.7 17.65 41.35 18.6 40.4 19.55 39.4 20.9 39.4 22.25 39.4 23.2 40.4 24.15 41.35 24.15 42.7 24.15 44.05 23.2 45.05 22.25 46.0 20.9 46.0 19.55 46.0 18.6 45.05 M2.6 21.9 Q4.25 21.9 5.45 23.1 6.65 24.3 6.65 25.95 6.65 27.6 5.45 28.8 4.25 30.0 2.6 30.0 0.95 30.0 -0.25 28.8 -1.45 27.6 -1.45 25.95 -1.45 24.3 -0.25 23.1 0.95 21.9 2.6 21.9 M10.15 5.9 Q11.35 6.9 11.35 8.35 11.35 9.8 10.15 10.85 8.9 11.85 7.15 11.85 5.4 11.85 4.2 10.85 2.95 9.8 2.95 8.35 2.95 6.9 4.2 5.9 5.4 4.85 7.15 4.85 8.9 4.85 10.15 5.9 M40.65 29.0 Q42.0 27.6 43.95 27.6 45.9 27.6 47.3 29.0 48.65 30.35 48.65 32.3 48.65 34.25 47.3 35.65 45.9 37.0 43.95 37.0 42.0 37.0 40.65 35.65 39.25 34.25 39.25 32.3 39.25 30.35 40.65 29.0" fill="#ffffff" fill-rule="evenodd" stroke="none"/>
  </g>
</svg>
