<?xml version="1.0" encoding="UTF-8" standalone="no"?>
<svg xmlns:ffdec="https://www.free-decompiler.com/flash" xmlns:xlink="http://www.w3.org/1999/xlink" ffdec:objectType="shape" height="50.1px" width="104.8px" xmlns="http://www.w3.org/2000/svg">
  <g transform="matrix(1.0, 0.0, 0.0, 1.0, 52.15, 0.15)">
    <path d="M-47.7 4.95 L-46.4 4.95 -43.85 8.9 Q-44.1 11.55 -46.8 12.3 -50.8 13.35 -52.15 9.6 -51.05 6.3 -47.7 4.95 M-39.55 34.8 Q-38.55 36.95 -39.6 39.15 -40.75 41.5 -43.55 41.35 L-46.7 38.8 Q-46.1 34.6 -42.4 32.5 L-39.55 34.8 M-28.15 2.9 Q-28.15 4.15 -29.05 5.05 -29.95 5.95 -31.25 5.95 -32.55 5.95 -33.45 5.05 -34.35 4.15 -34.35 2.9 -34.35 1.65 -33.45 0.75 -32.55 -0.15 -31.25 -0.15 -29.95 -0.15 -29.05 0.75 -28.15 1.65 -28.15 2.9 M-28.6 9.5 L-26.55 11.05 -26.7 13.1 Q-25.7 14.15 -25.65 15.45 -25.45 18.85 -28.75 19.55 -33.1 19.2 -32.95 14.75 L-31.5 12.9 -31.6 11.1 -28.6 9.5 M20.6 45.8 Q21.3 45.05 22.3 45.05 23.3 45.05 24.05 45.8 24.75 46.5 24.75 47.5 24.75 48.5 24.05 49.25 23.3 49.95 22.3 49.95 21.3 49.95 20.6 49.25 19.85 48.5 19.85 47.5 19.85 46.5 20.6 45.8 M7.3 27.95 Q8.35 29.1 8.35 30.8 8.35 32.5 7.3 33.7 6.2 34.85 4.65 34.85 3.1 34.85 2.05 33.7 0.95 32.5 0.95 30.8 0.95 29.1 2.05 27.95 3.1 26.75 4.65 26.75 6.2 26.75 7.3 27.95 M0.2 7.75 L3.3 10.2 Q4.6 12.0 3.35 13.75 L2.1 15.05 -1.55 14.4 -2.0 13.4 -3.6 13.25 -5.3 14.35 -7.0 14.1 -8.2 12.45 Q-10.55 12.2 -11.1 9.7 L-11.15 8.7 -9.55 6.9 Q-7.85 6.3 -6.5 7.55 L-5.1 8.7 Q-4.55 8.65 -3.75 7.6 -3.35 7.15 -2.7 7.0 -0.95 6.4 0.2 7.75 M12.4 5.55 L13.9 5.6 Q15.35 5.75 16.55 6.75 17.6 7.7 18.1 9.2 17.65 13.45 13.35 13.5 9.15 12.95 8.35 8.8 L12.4 5.55 M47.05 35.35 Q48.0 34.4 49.35 34.4 50.7 34.4 51.7 35.35 52.65 36.3 52.65 37.65 52.65 39.0 51.7 39.95 50.7 40.9 49.35 40.9 48.0 40.9 47.05 39.95 46.05 39.0 46.05 37.65 46.05 36.3 47.05 35.35" fill="#ffffff" fill-rule="evenodd" stroke="none"/>
  </g>
</svg>
