<?xml version="1.0" encoding="UTF-8" standalone="no"?>
<svg xmlns:ffdec="https://www.free-decompiler.com/flash" xmlns:xlink="http://www.w3.org/1999/xlink" ffdec:objectType="shape" height="47.6px" width="113.55px" xmlns="http://www.w3.org/2000/svg">
  <g transform="matrix(1.0, 0.0, 0.0, 1.0, 57.7, 1.35)">
    <path d="M2.2 36.1 Q2.2 34.65 3.25 33.6 4.3 32.55 5.8 32.55 7.3 32.55 8.35 33.6 9.4 34.65 9.4 36.1 9.4 37.55 8.35 38.6 7.3 39.65 5.8 39.65 4.3 39.65 3.25 38.6 2.2 37.55 2.2 36.1 M14.65 23.4 Q13.75 22.6 13.75 21.45 13.75 20.3 14.65 19.5 15.5 18.7 16.7 18.7 17.9 18.7 18.8 19.5 19.65 20.3 19.65 21.45 19.65 22.6 18.8 23.4 17.9 24.2 16.7 24.2 15.5 24.2 14.65 23.4 M5.3 4.95 L6.75 5.85 Q8.6 7.15 8.1 9.4 L9.35 10.0 Q11.15 11.2 10.65 13.4 10.4 14.35 9.8 15.1 8.25 16.85 6.25 15.85 3.85 14.6 4.25 11.9 L2.15 11.1 Q1.6 10.85 1.2 10.4 0.1 9.2 0.65 7.65 1.8 4.4 5.3 4.95 M25.0 13.45 Q23.55 14.45 21.5 14.45 19.45 14.45 18.05 13.45 16.6 12.4 16.6 10.95 16.6 9.5 18.05 8.5 19.45 7.45 21.5 7.45 23.55 7.45 25.0 8.5 26.4 9.5 26.4 10.95 26.4 12.4 25.0 13.45 M53.2 39.7 Q54.3 39.7 55.1 40.5 55.85 41.25 55.85 42.35 55.85 43.45 55.1 44.25 54.3 45.0 53.2 45.0 52.1 45.0 51.35 44.25 50.55 43.45 50.55 42.35 50.55 41.25 51.35 40.5 52.1 39.7 53.2 39.7 M-57.7 12.2 Q-57.7 10.65 -56.55 9.5 -55.4 8.35 -53.85 8.35 -52.3 8.35 -51.15 9.5 -50.0 10.65 -50.0 12.2 -50.0 13.75 -51.15 14.9 -52.3 16.05 -53.85 16.05 -55.4 16.05 -56.55 14.9 -57.7 13.75 -57.7 12.2 M-39.9 41.95 L-40.35 44.0 -44.35 46.25 -46.05 45.7 Q-47.85 43.6 -46.5 41.15 -45.2 38.85 -42.8 38.8 L-39.9 41.95 M-34.85 13.2 Q-32.0 12.0 -30.6 14.6 -30.2 15.4 -30.1 16.4 -30.05 17.3 -30.85 17.95 -27.95 18.9 -27.8 21.85 -27.7 23.3 -28.4 24.65 -29.1 26.0 -30.6 26.35 -33.5 27.0 -35.2 24.7 -36.8 22.55 -35.6 20.3 L-34.7 18.75 -35.9 18.1 -34.85 13.2 M-23.4 4.4 Q-22.2 4.4 -21.3 5.3 -20.4 6.2 -20.4 7.4 -20.4 8.6 -21.3 9.5 -22.2 10.4 -23.4 10.4 -24.6 10.4 -25.5 9.5 -26.4 8.6 -26.4 7.4 -26.4 6.2 -25.5 5.3 -24.6 4.4 -23.4 4.4 M-8.45 9.8 Q-8.5 7.2 -5.9 6.9 L-4.25 7.9 -2.4 12.05 -3.3 13.4 -4.65 13.4 -5.55 12.4 -7.5 12.25 Q-8.4 11.1 -8.45 9.8 M-35.3 -1.35 Q-34.05 -1.35 -33.15 -0.45 -32.25 0.45 -32.25 1.7 -32.25 2.95 -33.15 3.85 -34.05 4.75 -35.3 4.75 -36.55 4.75 -37.45 3.85 -38.35 2.95 -38.35 1.7 -38.35 0.45 -37.45 -0.45 -36.55 -1.35 -35.3 -1.35" fill="#ffffff" fill-rule="evenodd" stroke="none"/>
  </g>
</svg>
