<?xml version="1.0" encoding="UTF-8" standalone="no"?>
<svg xmlns:ffdec="https://www.free-decompiler.com/flash" xmlns:xlink="http://www.w3.org/1999/xlink" ffdec:objectType="shape" height="30.8px" width="92.6px" xmlns="http://www.w3.org/2000/svg">
  <g transform="matrix(1.0, 0.0, 0.0, 1.0, 48.3, -1.65)">
    <path d="M-36.4 26.8 Q-35.85 29.55 -38.15 31.05 -41.5 33.75 -44.7 31.25 -44.5 28.55 -42.95 26.45 -41.15 24.05 -37.95 23.8 -36.7 25.05 -36.4 26.8 M-36.35 16.2 Q-36.7 17.4 -37.55 18.15 -40.3 20.45 -44.1 19.5 -46.85 18.7 -48.3 16.6 L-47.1 12.7 -37.5 13.1 -36.35 16.2 M-28.6 5.95 L-29.95 9.05 Q-31.25 9.75 -32.55 9.4 -36.5 8.35 -37.6 4.4 -36.85 3.3 -35.85 2.55 -35.0 1.9 -33.9 1.65 L-29.65 3.5 -28.6 5.95 M-19.75 11.05 L-16.4 13.25 Q-15.85 16.4 -18.35 18.35 -21.15 20.6 -23.65 18.25 -25.4 16.65 -25.1 14.45 -24.9 12.8 -23.25 11.8 -21.65 10.8 -19.75 11.05 M-13.05 11.5 Q-10.7 8.55 -7.05 9.15 -4.7 9.5 -3.75 11.7 L-3.45 14.55 -5.7 16.6 Q-8.45 17.1 -10.7 15.35 -12.75 13.8 -13.05 11.5 M2.3 17.9 Q3.35 16.95 4.9 16.95 6.45 16.95 7.55 17.9 8.6 18.8 8.6 20.1 8.6 21.4 7.55 22.35 6.45 23.25 4.9 23.25 3.35 23.25 2.3 22.35 1.2 21.4 1.2 20.1 1.2 18.8 2.3 17.9 M22.0 13.1 Q23.15 14.15 23.15 15.6 23.15 17.05 22.0 18.1 20.8 19.15 19.15 19.15 17.5 19.15 16.35 18.1 15.15 17.05 15.15 15.6 15.15 14.15 16.35 13.1 17.5 12.05 19.15 12.05 20.8 12.05 22.0 13.1 M22.6 24.1 Q23.7 22.95 25.25 22.95 26.8 22.95 27.95 24.1 29.05 25.2 29.05 26.75 29.05 28.3 27.95 29.45 26.8 30.55 25.25 30.55 23.7 30.55 22.6 29.45 21.45 28.3 21.45 26.75 21.45 25.2 22.6 24.1 M20.7 2.35 L23.55 3.85 Q25.25 5.15 24.6 7.35 24.05 9.25 22.1 9.95 18.2 11.45 15.75 8.45 15.65 3.45 20.7 2.35 M44.3 16.15 Q44.25 18.05 42.75 19.05 39.25 21.6 35.35 19.8 32.0 18.25 31.85 14.6 L31.95 12.6 Q36.5 9.4 41.55 11.7 44.35 13.0 44.3 16.15" fill="#ffffff" fill-rule="evenodd" stroke="none"/>
  </g>
</svg>
