<?xml version="1.0" encoding="UTF-8" standalone="no"?>
<svg xmlns:ffdec="https://www.free-decompiler.com/flash" xmlns:xlink="http://www.w3.org/1999/xlink" ffdec:objectType="shape" height="72.65px" width="105.15px" xmlns="http://www.w3.org/2000/svg">
  <g transform="matrix(1.0, 0.0, 0.0, 1.0, 125.15, 40.0)">
    <path d="M-122.75 -37.5 Q-123.5 -37.5 -123.85 -38.2 L-124.0 -38.75 Q-124.0 -40.0 -122.75 -40.0 -121.5 -40.0 -121.5 -38.75 L-121.75 -38.0 Q-122.1 -37.5 -122.75 -37.5 M-85.4 -1.25 Q-82.55 -1.75 -82.55 0.45 -82.55 1.35 -83.75 2.2 L-84.6 2.7 Q-85.65 3.25 -87.25 3.25 -88.35 3.25 -88.8 2.35 L-89.0 1.35 Q-89.0 -0.65 -86.95 -0.8 L-85.4 -1.25 M-86.55 -21.25 L-87.0 -22.75 Q-87.0 -25.45 -84.0 -25.2 -81.0 -25.0 -81.0 -21.9 -81.0 -19.75 -83.6 -19.75 -85.7 -19.75 -86.55 -21.25 M-66.55 -20.15 Q-66.85 -19.65 -67.5 -19.65 -68.6 -19.65 -68.5 -20.75 -68.5 -21.8 -67.45 -21.8 -66.4 -21.8 -66.4 -20.75 L-66.55 -20.15 M-50.55 -10.65 Q-50.55 -9.8 -51.45 -8.95 -52.5 -8.05 -53.85 -8.05 -55.75 -8.05 -56.45 -9.25 -56.8 -9.8 -56.8 -10.45 -56.8 -11.5 -56.1 -12.6 -55.15 -14.0 -53.5 -14.0 -50.55 -14.0 -50.55 -10.65 M-40.0 -4.0 L-40.75 -4.65 Q-40.75 -5.35 -40.1 -5.45 -39.4 -5.55 -39.0 -4.75 L-39.15 -4.35 Q-39.4 -4.0 -40.0 -4.0 M-32.5 -3.75 Q-33.45 -3.75 -33.85 -4.6 L-34.0 -5.25 Q-34.0 -6.65 -32.45 -6.6 -30.9 -6.55 -30.9 -5.15 -30.9 -4.6 -31.4 -4.15 -31.9 -3.75 -32.5 -3.75 M-21.0 2.65 Q-21.9 2.65 -21.9 1.8 -21.9 0.85 -20.95 0.8 -20.0 0.8 -20.0 1.75 -20.0 2.15 -20.3 2.4 L-21.0 2.65 M-28.6 2.35 Q-28.9 2.75 -29.5 2.75 L-30.0 2.65 -30.3 2.4 Q-30.5 2.3 -30.5 1.65 -30.5 0.6 -29.4 0.7 -28.3 0.8 -28.3 1.65 -28.3 2.05 -28.6 2.35 M-37.0 3.95 Q-37.55 4.5 -38.5 4.5 -40.45 4.5 -41.3 3.2 L-41.75 1.85 Q-41.75 -0.4 -39.1 -0.05 -36.5 0.3 -36.5 2.8 -36.5 3.45 -37.0 3.95 M-45.5 12.2 L-45.9 13.15 Q-46.35 13.65 -47.1 13.65 -48.75 13.65 -48.65 12.2 -48.65 10.8 -47.05 10.8 -45.5 10.8 -45.5 12.2 M-52.1 6.35 Q-53.75 6.35 -53.8 4.75 -53.8 3.05 -52.05 3.05 -50.3 3.1 -50.3 4.8 -50.3 5.5 -50.8 5.95 -51.3 6.35 -52.1 6.35 M-78.5 8.35 Q-80.3 8.35 -80.3 6.75 -80.3 5.05 -78.4 5.05 -76.5 5.1 -76.5 6.65 -76.5 7.45 -77.1 7.9 -77.65 8.35 -78.5 8.35 M-63.05 16.5 Q-63.65 17.25 -64.5 17.25 -66.4 17.25 -66.4 15.5 -66.4 13.9 -64.45 13.75 -62.5 13.6 -62.5 15.25 -62.5 15.85 -63.05 16.5 M-90.35 14.65 Q-92.15 14.65 -92.15 13.0 -92.15 11.3 -90.3 11.3 -88.5 11.3 -88.5 12.95 -88.5 13.6 -88.95 14.1 -89.5 14.65 -90.35 14.65 M-102.7 32.1 Q-103.25 32.65 -104.1 32.65 -105.0 32.65 -105.5 31.9 L-105.8 31.0 Q-105.8 29.35 -104.0 29.35 -102.25 29.3 -102.25 30.95 -102.25 31.6 -102.7 32.1 M-122.1 11.9 Q-122.55 12.65 -123.5 12.65 -124.5 12.65 -124.9 11.9 L-125.15 11.0 Q-125.15 9.3 -123.45 9.3 -121.75 9.3 -121.75 10.95 -121.75 11.4 -122.1 11.9" fill="#db0202" fill-rule="evenodd" stroke="none"/>
  </g>
</svg>
