<?xml version="1.0" encoding="UTF-8" standalone="no"?>
<svg xmlns:ffdec="https://www.free-decompiler.com/flash" xmlns:xlink="http://www.w3.org/1999/xlink" ffdec:objectType="shape" height="19.2px" width="48.5px" xmlns="http://www.w3.org/2000/svg">
  <g transform="matrix(1.0, 0.0, 0.0, 1.0, 22.1, 9.9)">
    <path d="M-22.1 2.5 L-22.1 -2.55 -14.5 0.3 -14.5 5.35 -22.1 2.5" fill="#333333" fill-rule="evenodd" stroke="none"/>
    <path d="M22.15 -4.65 L22.15 1.75 -16.05 1.75 -16.05 -4.65 22.15 -4.65" fill="#333333" fill-rule="evenodd" stroke="none"/>
    <path d="M-20.95 -9.9 L-18.75 -9.65 -19.8 -1.0 -22.0 -1.25 -20.95 -9.9" fill="#333333" fill-rule="evenodd" stroke="none"/>
    <path d="M-1.15 -0.2 L-3.35 0.1 -4.55 -8.55 -2.35 -8.85 -1.15 -0.2" fill="#333333" fill-rule="evenodd" stroke="none"/>
    <path d="M24.1 -3.15 L-16.05 -3.15 -16.05 -4.65 24.1 -4.65 24.1 -3.15" fill="#919191" fill-rule="evenodd" stroke="none"/>
    <path d="M24.1 -0.7 L-16.05 -0.7 -16.05 -2.2 24.1 -2.2 24.1 -0.7" fill="#6a6a6a" fill-rule="evenodd" stroke="none"/>
    <path d="M24.1 1.75 L-16.05 1.75 -16.05 0.25 24.1 0.25 24.1 1.75" fill="#6a6a6a" fill-rule="evenodd" stroke="none"/>
    <path d="M26.4 -5.5 L26.35 2.5 18.5 2.45 18.55 -5.55 26.4 -5.5" fill="#333333" fill-rule="evenodd" stroke="none"/>
    <path d="M11.55 -5.55 L11.5 2.45 9.3 2.45 9.35 -5.55 11.55 -5.55" fill="#333333" fill-rule="evenodd" stroke="none"/>
    <path d="M-1.7 -5.55 L-1.75 2.45 -16.05 2.4 -16.0 -5.6 -1.7 -5.55" fill="#333333" fill-rule="evenodd" stroke="none"/>
    <path d="M-15.95 -5.65 L-1.65 -5.65 -1.7 -1.95 -16.0 -2.0 -15.95 -5.65" fill="#555555" fill-rule="evenodd" stroke="none"/>
    <path d="M0.8 4.5 L-14.1 4.5 -14.15 6.9 -14.1 -0.35 0.85 -0.3 0.8 4.5" fill="#fffbdd" fill-rule="evenodd" stroke="none"/>
    <path d="M-14.15 6.9 L-14.1 4.5 0.8 4.5 0.85 4.5 0.75 9.3 -14.2 9.25 -14.15 6.9" fill="#d9c7ae" fill-rule="evenodd" stroke="none"/>
  </g>
</svg>
