<?xml version="1.0" encoding="UTF-8" standalone="no"?>
<svg xmlns:ffdec="https://www.free-decompiler.com/flash" xmlns:xlink="http://www.w3.org/1999/xlink" ffdec:objectType="shape" height="8.0px" width="36.45px" xmlns="http://www.w3.org/2000/svg">
  <g transform="matrix(1.0, 0.0, 0.0, 1.0, 17.6, 4.8)">
    <path d="M4.3 -3.35 L4.3 -1.75 11.7 -1.8 11.7 -1.95 11.25 -3.35 4.3 -3.35 M-7.3 -3.65 L-5.35 -4.8 3.85 -4.8 3.85 -4.15 18.8 -4.15 18.85 -0.9 17.5 -0.9 17.5 -0.85 14.6 -0.85 14.6 -0.9 13.3 -0.9 13.3 0.9 13.25 0.9 13.25 2.35 4.35 2.45 4.35 0.9 3.85 0.9 3.85 -0.2 3.55 -0.2 3.55 -0.25 3.1 -0.25 3.1 -0.05 -1.9 0.0 -1.9 -0.25 -4.55 -0.25 -4.55 3.2 -6.8 3.2 -6.8 -0.25 -8.65 -0.25 -8.65 -0.4 -17.5 1.4 -17.6 -4.7 -8.15 -3.15 -8.15 -1.4 -3.15 -1.4 -3.15 -3.65 -7.3 -3.65 M3.1 -1.4 L3.1 -3.65 -1.9 -3.65 -1.9 -1.4 3.1 -1.4" fill="#333333" fill-rule="evenodd" stroke="none"/>
    <path d="M4.3 -3.35 L11.25 -3.35 11.7 -1.95 11.7 -1.8 4.3 -1.75 4.3 -3.35 M-7.3 -3.65 L-3.15 -3.65 -3.15 -1.4 -8.15 -1.4 -8.15 -3.15 -7.3 -3.65 M3.1 -1.4 L-1.9 -1.4 -1.9 -3.65 3.1 -3.65 3.1 -1.4" fill="#666666" fill-rule="evenodd" stroke="none"/>
  </g>
</svg>
