<?xml version="1.0" encoding="UTF-8" standalone="no"?>
<svg xmlns:ffdec="https://www.free-decompiler.com/flash" xmlns:xlink="http://www.w3.org/1999/xlink" ffdec:objectType="shape" height="8.0px" width="27.5px" xmlns="http://www.w3.org/2000/svg">
  <g transform="matrix(1.0, 0.0, 0.0, 1.0, 8.65, 4.8)">
    <path d="M1.95 -1.4 L-1.9 -1.4 -1.9 -3.65 3.1 -3.65 3.1 -1.8 1.9 -1.8 1.95 -1.4 M4.3 -1.8 L4.3 -3.35 11.25 -3.35 11.7 -1.95 11.7 -1.8 4.3 -1.8 M-7.3 -3.65 L-3.15 -3.65 -3.15 -1.4 -8.15 -1.4 -8.15 -3.15 -7.3 -3.65" fill="#666666" fill-rule="evenodd" stroke="none"/>
    <path d="M2.0 -0.05 L1.95 -1.4 1.9 -1.8 3.1 -1.8 4.3 -1.8 11.7 -1.8 12.1 -1.8 13.2 -1.8 17.4 -1.85 17.45 -0.85 17.5 0.8 13.3 0.85 13.25 0.85 4.35 0.85 3.85 0.85 2.0 0.85 2.0 -0.05" fill="#993300" fill-rule="evenodd" stroke="none"/>
    <path d="M1.95 -1.4 L2.0 -0.05 -1.9 0.0 -1.9 -0.25 -4.55 -0.25 -4.55 3.2 -6.8 3.2 -6.8 -0.25 -8.65 -0.25 -8.65 -2.85 -8.15 -3.15 -8.15 -1.4 -3.15 -1.4 -3.15 -3.65 -7.3 -3.65 -5.35 -4.8 3.85 -4.8 3.85 -4.15 18.8 -4.15 18.85 -0.9 17.5 -0.9 17.5 -0.85 17.45 -0.85 17.4 -1.85 13.2 -1.8 13.2 -1.85 12.1 -1.8 11.7 -1.8 11.7 -1.95 11.25 -3.35 4.3 -3.35 4.3 -1.8 3.1 -1.8 3.1 -3.65 -1.9 -3.65 -1.9 -1.4 1.95 -1.4 M3.85 0.85 L4.35 0.85 4.35 0.9 3.85 0.9 3.85 0.85 M13.25 0.85 L13.3 0.85 13.3 0.9 13.25 0.9 13.25 0.85" fill="#333333" fill-rule="evenodd" stroke="none"/>
  </g>
</svg>
