<?xml version="1.0" encoding="UTF-8" standalone="no"?>
<svg xmlns:ffdec="https://www.free-decompiler.com/flash" xmlns:xlink="http://www.w3.org/1999/xlink" ffdec:objectType="shape" height="10.65px" width="16.75px" xmlns="http://www.w3.org/2000/svg">
  <g transform="matrix(1.0, 0.0, 0.0, 1.0, 6.2, 4.85)">
    <path d="M1.2 -3.55 Q2.0 -2.45 2.0 -0.85 L2.0 -0.65 0.55 -0.65 0.55 -0.85 Q0.55 -2.45 -0.2 -3.55 L1.2 -3.55" fill="#666666" fill-rule="evenodd" stroke="none"/>
    <path d="M2.0 -0.65 Q1.9 0.85 1.1 2.0 0.2 3.1 -0.95 3.15 L-1.1 3.15 -1.7 3.05 Q-0.95 2.8 -0.35 2.0 0.5 0.85 0.55 -0.65 L2.0 -0.65" fill="#333335" fill-rule="evenodd" stroke="none"/>
    <path d="M-1.1 3.15 L-2.45 3.15 -2.8 3.15 Q-3.8 3.0 -4.55 2.0 -5.4 0.8 -5.4 -0.85 -5.4 -2.5 -4.55 -3.65 L-4.45 -3.8 Q-3.75 -4.7 -2.8 -4.8 L-2.45 -4.85 -2.3 -4.85 -1.7 -4.75 Q-0.95 -4.5 -0.35 -3.65 L-0.2 -3.55 Q0.55 -2.45 0.55 -0.85 L0.55 -0.65 Q0.5 0.85 -0.35 2.0 -0.95 2.8 -1.7 3.05 L-1.1 3.15" fill="#333333" fill-rule="evenodd" stroke="none"/>
    <path d="M-2.3 -4.85 L-0.95 -4.85 Q0.2 -4.8 1.1 -3.65 L1.2 -3.55 -0.2 -3.55 -0.35 -3.65 Q-0.95 -4.5 -1.7 -4.75 L-2.3 -4.85" fill="#9d9d9d" fill-rule="evenodd" stroke="none"/>
    <path d="M-2.9 2.1 L-3.95 2.1 -4.2 2.1 Q-5.0 2.0 -5.55 1.2 -6.2 0.3 -6.2 -0.95 -6.2 -2.2 -5.55 -3.05 L-5.5 -3.2 Q-4.95 -3.85 -4.2 -3.95 L-3.95 -3.95 -3.85 -3.95 -3.4 -3.9 -2.35 -3.05 -2.3 -3.0 Q-1.7 -2.15 -1.7 -0.95 L-1.7 -0.8 Q-1.75 0.35 -2.35 1.2 -2.8 1.85 -3.4 2.0 L-2.9 2.1" fill="#333333" fill-rule="evenodd" stroke="none"/>
    <path d="M-3.85 -3.95 L-2.8 -3.95 Q-1.95 -3.95 -1.3 -3.05 L-1.2 -3.0 -2.3 -3.0 -2.35 -3.05 -3.4 -3.9 -3.85 -3.95" fill="#9d9d9d" fill-rule="evenodd" stroke="none"/>
    <path d="M-1.2 -3.0 Q-0.6 -2.15 -0.6 -0.95 L-0.6 -0.8 -1.7 -0.8 -1.7 -0.95 Q-1.7 -2.15 -2.3 -3.0 L-1.2 -3.0" fill="#666666" fill-rule="evenodd" stroke="none"/>
    <path d="M-0.6 -0.8 Q-0.65 0.35 -1.3 1.2 -1.95 2.05 -2.8 2.1 L-2.9 2.1 -3.4 2.0 Q-2.8 1.85 -2.35 1.2 -1.75 0.35 -1.7 -0.8 L-0.6 -0.8" fill="#333335" fill-rule="evenodd" stroke="none"/>
    <path d="M0.8 1.0 Q4.1 5.45 5.95 5.3 7.8 5.15 9.0 4.5" fill="none" stroke="#333333" stroke-linecap="round" stroke-linejoin="round" stroke-width="1.0"/>
    <path d="M9.2 2.5 Q9.75 2.5 10.15 2.85 10.55 3.2 10.55 3.7 10.55 4.2 10.15 4.55 L9.2 4.9 Q8.65 4.9 8.25 4.55 7.85 4.2 7.85 3.7 7.85 3.2 8.25 2.85 8.65 2.5 9.2 2.5" fill="#333333" fill-rule="evenodd" stroke="none"/>
  </g>
</svg>
