<?xml version="1.0" encoding="UTF-8" standalone="no"?>
<svg xmlns:ffdec="https://www.free-decompiler.com/flash" xmlns:xlink="http://www.w3.org/1999/xlink" ffdec:objectType="shape" height="21.95px" width="71.2px" xmlns="http://www.w3.org/2000/svg">
  <g transform="matrix(1.0, 0.0, 0.0, 1.0, 35.6, 11.0)">
    <path d="M19.2 -9.5 Q22.5 -10.85 24.75 -10.85 27.5 -10.85 30.75 -8.4 32.7 -6.95 33.9 -5.5 35.6 -3.4 35.6 0.5 35.6 2.55 33.9 5.9 31.3 10.95 26.7 10.95 23.95 10.95 20.9 9.5 L18.05 7.9 Q16.8 6.85 15.15 6.25 12.15 5.1 4.2 5.1 L-7.6 6.05 -14.2 7.4 Q-17.5 7.95 -21.0 9.2 -23.65 10.1 -25.5 10.1 -32.0 10.1 -34.4 5.65 -35.6 3.4 -35.6 0.3 -35.6 -2.25 -34.0 -5.6 -31.4 -11.0 -26.3 -11.0 -23.6 -11.0 -20.85 -9.5 L-16.75 -7.1 -12.85 -5.25 -10.4 -4.3 -8.15 -4.0 -7.25 -3.95 -3.35 -4.0 0.35 -3.85 -2.55 -3.85 Q4.45 -2.9 13.05 -6.7 L19.2 -9.5" fill="#a36a6a" fill-rule="evenodd" stroke="none"/>
  </g>
</svg>
