<?xml version="1.0" encoding="UTF-8" standalone="no"?>
<svg xmlns:ffdec="https://www.free-decompiler.com/flash" xmlns:xlink="http://www.w3.org/1999/xlink" ffdec:objectType="shape" height="20.4px" width="68.6px" xmlns="http://www.w3.org/2000/svg">
  <g transform="matrix(1.0, 0.0, 0.0, 1.0, 36.5, 5.25)">
    <path d="M30.5 -0.3 Q32.1 1.55 32.1 5.05 32.1 6.9 30.5 9.9 28.0 14.4 23.55 14.4 20.9 14.4 17.95 13.1 17.8 13.7 15.45 14.55 13.7 12.7 10.75 13.8 7.75 14.9 1.6 13.95 -4.6 12.95 -7.85 14.6 -11.15 16.25 -16.8 13.15 -21.75 14.8 -23.45 14.35 L-29.05 13.75 Q-33.0 13.65 -35.3 9.65 -36.5 7.65 -36.5 4.85 -36.5 2.6 -34.95 -0.4 -32.45 -5.25 -27.5 -5.25 -24.9 -5.25 -22.25 -3.9 L-18.3 -1.75 -14.55 -0.1 -12.2 0.75 -10.05 1.0 -9.15 1.05 -5.4 1.0 -1.85 1.15 -4.65 1.15 Q2.1 2.0 10.4 -1.4 L16.3 -3.9 Q19.5 -5.1 21.65 -5.1 24.3 -5.1 27.45 -2.9 L30.5 -0.3" fill="#050303" fill-rule="evenodd" stroke="none"/>
  </g>
</svg>
