<?xml version="1.0" encoding="UTF-8" standalone="no"?>
<svg xmlns:ffdec="https://www.free-decompiler.com/flash" xmlns:xlink="http://www.w3.org/1999/xlink" ffdec:objectType="shape" height="24.3px" width="23.65px" xmlns="http://www.w3.org/2000/svg">
  <g transform="matrix(1.0, 0.0, 0.0, 1.0, -35.35, 56.7)">
    <path d="M40.1 -54.45 L40.15 -55.35 40.25 -54.8 40.1 -54.45 M39.35 -55.3 L39.75 -56.7 40.15 -55.5 39.55 -46.6 46.55 -48.8 43.75 -46.3 58.15 -45.7 59.0 -44.4 57.45 -44.25 53.7 -44.55 44.6 -43.4 45.45 -42.95 45.85 -42.05 38.15 -42.9 38.25 -43.65 37.85 -43.5 35.7 -50.9 35.7 -51.35 35.6 -51.7 35.7 -51.8 35.7 -51.35 39.35 -55.3 M36.0 -37.95 L38.7 -42.75 38.05 -32.4 35.7 -35.55 35.7 -36.0 35.35 -36.5 35.7 -37.5 35.7 -37.05 36.0 -37.95" fill="#ffff00" fill-rule="evenodd" stroke="none"/>
  </g>
</svg>
