<?xml version="1.0" encoding="UTF-8" standalone="no"?>
<svg xmlns:ffdec="https://www.free-decompiler.com/flash" xmlns:xlink="http://www.w3.org/1999/xlink" ffdec:objectType="shape" height="48.8px" width="86.8px" xmlns="http://www.w3.org/2000/svg">
  <g transform="matrix(1.0, 0.0, 0.0, 1.0, 43.4, 24.4)">
    <path d="M16.7 -19.85 L16.75 -19.8 20.2 -17.95 20.25 -17.95 22.05 -16.7 22.45 -16.15 22.4 -15.5 21.95 -15.0 Q19.7 -13.7 17.3 -12.65 L17.25 -12.6 Q14.65 -11.35 11.95 -10.5 L11.95 -10.45 Q9.8 -9.9 7.8 -9.15 L8.1 -6.8 8.1 -6.75 Q8.3 -5.4 8.85 -4.2 L10.95 0.3 12.15 2.3 12.15 2.35 13.1 3.9 13.05 3.9 16.25 8.35 18.8 11.8 24.9 10.9 Q27.15 8.15 29.35 6.25 31.75 4.05 33.35 3.65 L35.25 2.85 Q35.5 2.6 35.9 2.65 L36.5 2.95 41.75 8.3 Q43.95 10.8 43.25 13.8 L43.25 13.85 43.15 14.1 43.05 14.35 42.95 14.7 42.85 14.85 41.3 17.15 41.15 17.35 40.55 17.85 40.35 18.05 40.25 18.1 40.1 18.2 37.35 20.0 Q32.7 22.55 27.85 23.35 L27.9 23.35 18.55 24.25 18.5 24.25 -1.4 23.6 -1.45 23.6 -5.35 22.55 -5.25 22.55 Q-7.15 22.0 -8.75 21.0 L-8.8 21.0 -11.45 18.5 Q-12.75 16.95 -13.5 15.15 L-17.6 4.6 Q-19.15 0.25 -20.85 -3.85 -21.5 -5.25 -22.45 -6.3 -26.9 -11.15 -33.6 -11.6 L-39.6 -12.6 -39.65 -12.65 Q-41.4 -13.2 -42.4 -14.95 L-42.4 -14.9 -42.45 -15.05 -42.5 -15.05 Q-43.25 -16.35 -43.3 -17.75 L-43.35 -19.4 -43.4 -20.7 Q-43.4 -22.3 -42.3 -23.6 L-41.9 -23.85 -38.85 -24.4 -30.55 -23.8 -18.75 -22.9 -5.65 -22.0 3.6 -21.45 14.65 -20.7 14.85 -20.65 Q15.8 -20.35 16.7 -19.85 M0.0 15.7 Q1.25 16.65 3.45 16.65 6.05 16.65 6.9 15.0 7.25 14.25 7.25 12.65 6.75 8.45 5.65 4.2 3.5 -4.25 0.75 -4.25 L-0.2 -4.05 -0.2 -4.15 Q-0.2 -5.75 -1.55 -6.2 L-3.15 -5.75 -4.05 -5.15 Q-6.65 -5.15 -7.15 -4.6 -7.5 -4.25 -7.5 -2.15 -7.5 3.1 -6.25 8.0 L-4.6 13.2 Q-4.45 13.6 -3.55 14.0 L-1.65 14.6 Q-1.4 14.65 0.0 15.7" fill="#a36a6a" fill-rule="evenodd" stroke="none"/>
    <path d="M-42.35 -19.45 L-42.4 -20.7 Q-42.4 -21.95 -41.55 -22.95 L-38.9 -23.4 -30.7 -22.8 -18.85 -21.9 -5.7 -21.0 3.55 -20.45 14.5 -19.7 16.25 -18.95 19.7 -17.1 21.45 -15.9 Q19.2 -14.6 16.85 -13.55 14.3 -12.3 11.65 -11.45 L6.75 -9.85 6.9 -8.25 7.1 -6.65 Q7.3 -5.15 7.9 -3.8 L10.05 0.75 11.3 2.85 12.2 4.4 Q13.65 6.75 15.45 8.95 L18.3 12.9 25.4 11.85 Q27.75 8.95 30.0 7.0 32.2 5.0 33.6 4.6 35.0 4.2 35.8 3.65 L41.0 8.95 Q42.85 11.05 42.25 13.6 L42.2 13.9 42.15 13.9 42.15 13.95 42.05 14.3 40.45 16.6 39.9 17.1 39.7 17.3 33.5 17.9 Q26.65 17.9 20.5 15.9 L19.15 15.4 Q13.35 13.25 13.2 11.65 11.7 10.35 10.45 8.45 L10.5 8.05 Q10.5 6.25 9.05 6.05 L9.0 5.95 6.95 1.2 Q7.5 0.55 7.5 -0.3 7.5 -2.1 5.75 -2.2 L4.5 -6.2 Q4.05 -7.25 2.75 -8.25 0.8 -9.8 -3.05 -11.25 L-14.75 -14.95 -33.9 -18.65 -42.35 -19.45 M-41.55 -15.45 L-41.6 -15.55 -41.5 -15.45 -41.55 -15.45 M27.0 13.85 L27.1 13.75 26.35 13.9 27.0 13.85" fill="#ffffff" fill-rule="evenodd" stroke="none"/>
    <path d="M-42.35 -19.45 L-33.9 -18.65 -14.75 -14.95 -3.05 -11.25 Q0.8 -9.8 2.75 -8.25 4.05 -7.25 4.5 -6.2 L5.75 -2.2 4.35 -2.1 Q3.9 -3.45 3.0 -4.5 L2.35 -5.2 2.05 -5.45 Q0.0 -7.1 -2.7 -7.1 -5.4 -7.1 -7.25 -5.45 L-7.5 -5.2 Q-9.3 -3.4 -9.3 -0.35 -9.3 1.95 -8.6 3.65 -7.6 6.15 -7.15 8.75 L-7.0 9.4 Q-6.0 14.0 -3.3 15.6 -1.0 16.95 4.65 16.95 8.95 16.95 10.0 15.8 10.35 15.4 10.35 13.6 L9.05 10.1 9.2 10.0 Q10.25 9.3 10.45 8.45 11.7 10.35 13.2 11.65 13.35 13.25 19.15 15.4 L20.5 15.9 Q26.65 17.9 33.5 17.9 L39.7 17.3 39.65 17.35 39.6 17.35 36.9 19.15 Q32.4 21.6 27.7 22.35 L18.5 23.25 -1.3 22.6 -5.0 21.6 -7.65 20.5 -8.25 20.15 -10.7 17.85 Q-11.9 16.4 -12.6 14.75 L-14.7 9.4 -16.65 4.25 -19.95 -4.25 -20.4 -5.2 -21.75 -7.0 -23.0 -8.25 Q-27.35 -12.15 -33.55 -12.6 L-39.35 -13.6 Q-40.75 -14.05 -41.55 -15.45 L-41.5 -15.45 -41.6 -15.55 Q-42.25 -16.65 -42.3 -17.85 L-42.35 -19.45 M6.95 1.2 L9.0 5.95 9.05 6.05 7.45 6.2 5.7 1.95 6.8 1.3 6.95 1.2 M27.0 13.85 L26.35 13.9 27.1 13.75 27.0 13.85" fill="#e0cbcb" fill-rule="evenodd" stroke="none"/>
  </g>
</svg>
