<?xml version="1.0" encoding="UTF-8" standalone="no"?>
<svg xmlns:ffdec="https://www.free-decompiler.com/flash" xmlns:xlink="http://www.w3.org/1999/xlink" ffdec:objectType="shape" height="24.05px" width="19.8px" xmlns="http://www.w3.org/2000/svg">
  <g transform="matrix(1.0, 0.0, 0.0, 1.0, 9.9, 12.0)">
    <path d="M3.75 -7.0 L5.15 -7.1 Q6.9 -7.0 6.9 -5.2 6.9 -4.35 6.35 -3.7 L6.2 -3.6 Q5.75 -3.15 5.1 -2.95 L6.85 1.3 8.45 1.15 Q9.9 1.35 9.9 3.15 L9.85 3.55 Q9.65 4.4 8.6 5.1 L8.45 5.2 9.75 8.7 Q9.75 10.5 9.4 10.9 8.35 12.05 4.05 12.05 -1.6 12.05 -3.9 10.7 -6.6 9.1 -7.6 4.5 L-7.75 3.85 Q-8.2 1.25 -9.2 -1.25 -9.9 -2.95 -9.9 -5.25 -9.9 -8.3 -8.1 -10.1 L-7.85 -10.35 Q-6.0 -12.0 -3.3 -12.0 -0.6 -12.0 1.45 -10.35 L1.75 -10.1 2.4 -9.4 Q3.3 -8.35 3.75 -7.0 M5.55 -5.95 L4.8 -6.05 4.0 -5.75 4.05 -5.6 3.35 -5.55 2.4 -5.25 2.15 -5.1 1.5 -4.9 2.35 -4.1 2.4 -4.05 3.05 -3.9 3.0 -4.0 2.95 -4.1 4.7 -3.85 Q5.15 -3.85 5.2 -4.2 L5.5 -4.5 5.75 -5.3 5.75 -5.4 5.55 -5.95 M0.5 -5.7 Q0.9 -6.15 1.9 -6.5 0.6 -9.05 -1.0 -10.1 -2.65 -11.15 -4.55 -10.6 L-5.7 -10.1 -7.55 -8.4 Q-8.75 -6.8 -8.75 -5.2 -8.75 -3.45 -6.5 3.5 L-6.45 4.5 -6.4 5.2 Q-6.35 6.65 -5.85 7.65 -4.2 10.75 2.55 10.75 5.15 10.75 6.9 9.95 8.4 9.3 8.4 8.7 L7.15 5.75 5.1 6.0 5.45 7.7 Q5.45 8.95 1.7 8.95 -2.2 8.95 -3.85 5.95 L-4.3 4.5 -4.85 2.6 -6.05 -1.0 Q-6.5 -2.5 -6.5 -4.25 L-6.2 -6.9 Q-5.9 -7.9 -5.25 -8.25 -3.5 -9.4 -1.55 -8.5 -0.4 -7.45 0.4 -5.85 L0.5 -5.7 M1.7 -3.1 L2.4 -1.35 3.6 1.75 3.9 2.55 Q4.45 2.15 5.4 1.8 L3.5 -2.75 2.4 -2.9 1.7 -3.15 1.7 -3.1 M0.1 -5.1 L-0.2 -5.75 Q-1.9 -8.95 -3.5 -8.35 -4.85 -8.35 -5.45 -6.6 -5.85 -5.5 -5.85 -4.2 -5.85 -2.8 -5.3 -1.0 L-4.2 2.25 -3.55 4.5 -3.35 5.4 Q-1.9 8.25 1.65 8.25 4.7 8.25 4.7 7.55 L4.3 5.95 Q3.4 5.7 3.1 5.0 L3.0 3.95 Q3.0 3.5 3.35 3.1 L2.4 0.6 2.0 -0.4 0.6 -4.0 Q0.1 -4.55 0.1 -4.95 L0.1 -5.1 M7.3 2.4 L7.35 2.5 7.25 2.5 Q6.6 2.5 6.05 2.95 L5.95 3.05 5.9 2.95 Q5.2 3.3 4.35 3.8 L4.65 4.6 4.95 4.65 6.6 4.5 6.6 4.45 7.6 4.1 7.95 3.95 7.95 4.0 8.65 3.55 8.75 3.15 Q8.75 2.05 7.3 2.4" fill="#a36a6a" fill-rule="evenodd" stroke="none"/>
    <path d="M5.75 -5.3 L5.5 -4.5 5.2 -4.2 Q5.15 -3.85 4.7 -3.85 L2.95 -4.1 3.0 -4.0 3.05 -3.9 2.4 -4.05 2.35 -4.1 1.5 -4.9 2.15 -5.1 2.4 -5.25 3.35 -5.55 4.05 -5.6 4.0 -5.75 4.8 -6.05 5.55 -5.95 5.75 -5.3 M1.7 -3.1 L1.7 -3.15 2.4 -2.9 3.5 -2.75 5.4 1.8 Q4.45 2.15 3.9 2.55 L3.6 1.75 2.4 -1.35 1.7 -3.1 M0.5 -5.7 L0.4 -5.85 Q-0.4 -7.45 -1.55 -8.5 -3.5 -9.4 -5.25 -8.25 -5.9 -7.9 -6.2 -6.9 L-6.5 -4.25 Q-6.5 -2.5 -6.05 -1.0 L-4.85 2.6 -4.3 4.5 -3.85 5.95 Q-2.2 8.95 1.7 8.95 5.45 8.95 5.45 7.7 L5.1 6.0 7.15 5.75 8.4 8.7 Q8.4 9.3 6.9 9.95 5.15 10.75 2.55 10.75 -4.2 10.75 -5.85 7.65 -6.35 6.65 -6.4 5.2 L-6.45 4.5 -6.5 3.5 Q-8.75 -3.45 -8.75 -5.2 -8.75 -6.8 -7.55 -8.4 L-5.7 -10.1 -4.55 -10.6 Q-2.65 -11.15 -1.0 -10.1 0.6 -9.05 1.9 -6.5 0.9 -6.15 0.5 -5.7 M7.3 2.4 Q8.75 2.05 8.75 3.15 L8.65 3.55 7.95 4.0 7.95 3.95 7.6 4.1 6.6 4.45 6.6 4.5 4.95 4.65 4.65 4.6 4.35 3.8 Q5.2 3.3 5.9 2.95 L5.95 3.05 6.05 2.95 Q6.6 2.5 7.25 2.5 L7.35 2.5 7.3 2.4" fill="#e0cbcb" fill-rule="evenodd" stroke="none"/>
    <path d="M5.75 -5.3 L5.55 -5.95 5.75 -5.4 5.75 -5.3" fill="#ffffff" fill-rule="evenodd" stroke="none"/>
  </g>
</svg>
