<?xml version="1.0" encoding="UTF-8" standalone="no"?>
<svg xmlns:ffdec="https://www.free-decompiler.com/flash" xmlns:xlink="http://www.w3.org/1999/xlink" ffdec:objectType="shape" height="6.3px" width="30.3px" xmlns="http://www.w3.org/2000/svg">
  <g transform="matrix(1.0, 0.0, 0.0, 1.0, 15.15, 3.15)">
    <path d="M8.25 -2.25 L8.25 2.25 8.25 3.15 -15.15 3.15 -15.15 -3.15 8.25 -3.15 8.25 -2.25 M9.4 2.25 L9.4 -1.4 12.75 -0.95 14.15 -0.6 15.15 -0.1 Q15.25 1.5 12.0 3.15 L9.4 3.15 9.4 2.25" fill="#666666" fill-rule="evenodd" stroke="none"/>
    <path d="M9.4 -1.4 L9.4 -2.25 9.4 -3.15 12.0 -3.15 Q14.8 -1.75 15.15 -0.3 L15.15 -0.1 14.15 -0.6 12.75 -0.95 9.4 -1.4" fill="#999999" fill-rule="evenodd" stroke="none"/>
    <path d="M9.4 -2.25 L9.4 -1.4 9.4 2.25 8.25 2.25 8.25 -2.25 9.4 -2.25" fill="#000000" fill-rule="evenodd" stroke="none"/>
  </g>
</svg>
