<?xml version="1.0" encoding="UTF-8" standalone="no"?>
<svg xmlns:ffdec="https://www.free-decompiler.com/flash" xmlns:xlink="http://www.w3.org/1999/xlink" ffdec:objectType="shape" height="9.75px" width="16.5px" xmlns="http://www.w3.org/2000/svg">
  <g transform="matrix(1.0, 0.0, 0.0, 1.0, 8.25, 5.25)">
    <path d="M7.45 -1.2 Q8.25 0.4 8.25 2.15 L8.25 2.45 Q8.2 3.35 6.1 3.9 L6.15 3.9 1.45 4.5 1.4 4.5 0.85 4.5 -0.4 4.5 -5.65 3.8 Q-8.1 3.15 -8.2 2.45 L-8.2 2.15 Q-8.2 -0.2 -6.35 -2.25 L-6.15 -2.5 -6.1 -2.55 -5.35 -3.2 -5.3 -3.3 -5.25 -3.35 -2.95 -4.85 -2.15 -5.1 -2.1 -5.1 -1.75 -5.2 -1.55 -5.2 -1.45 -5.2 -0.6 -5.15 Q4.35 -5.75 6.75 -2.35 L6.9 -2.1 7.45 -1.2" fill="#a36a6a" fill-rule="evenodd" stroke="none"/>
    <path d="M-1.8 -3.55 L0.0 -3.9 Q2.1 -3.8 2.1 -2.8 2.1 -1.9 -0.05 -1.9 -1.95 -1.9 -2.1 -2.7 L-2.0 -3.2 -1.95 -3.25 -1.85 -3.45 -1.85 -3.5 -1.8 -3.55 M-0.55 -0.15 L1.45 -0.1 Q4.85 -0.1 5.65 -1.35 L5.95 -1.75 6.0 -1.65 6.55 -0.75 6.1 -0.3 Q4.7 0.85 1.4 0.85 L-0.5 0.75 -1.4 0.65 Q-3.2 0.3 -4.35 -0.5 L-5.5 -1.7 -5.4 -1.85 -4.8 -2.4 -4.1 -1.45 -2.65 -0.5 -2.35 -0.4 -0.55 -0.15" fill="#a36a6a" fill-rule="evenodd" stroke="none"/>
    <path d="M-2.0 -3.2 L-2.1 -2.7 Q-1.95 -1.9 -0.05 -1.9 2.1 -1.9 2.1 -2.8 2.1 -3.8 0.0 -3.9 L-1.8 -3.55 -1.7 -3.8 -1.45 -4.2 -0.65 -4.15 Q3.8 -4.7 5.95 -1.75 L5.65 -1.35 Q4.85 -0.1 1.45 -0.1 L-0.55 -0.15 -1.05 -0.6 Q-2.15 -1.5 -2.15 -2.5 L-2.0 -3.2 M-0.5 0.75 L1.4 0.85 Q4.7 0.85 6.1 -0.3 L6.55 -0.75 Q7.25 0.65 7.25 2.15 7.25 2.95 5.75 3.5 4.15 4.15 1.4 4.2 L0.65 3.55 Q-0.6 2.5 -0.6 1.7 L-0.5 0.75 M-5.5 -1.7 L-5.4 -1.85 -5.5 -1.7 M-1.9 -4.15 L-2.6 -3.9 -2.55 -3.9 -1.9 -4.15" fill="#ffffff" fill-rule="evenodd" stroke="none"/>
    <path d="M-2.0 -3.2 L-2.15 -2.5 Q-2.15 -1.5 -1.05 -0.6 L-0.55 -0.15 -2.35 -0.4 -2.65 -0.5 -4.1 -1.45 -4.8 -2.4 -4.6 -2.6 -2.55 -3.9 -2.6 -3.9 -1.9 -4.15 -1.55 -4.2 -1.45 -4.2 -1.7 -3.8 -1.8 -3.55 -1.85 -3.5 -1.85 -3.45 -1.95 -3.25 -2.0 -3.2 M-0.5 0.75 L-0.6 1.7 Q-0.6 2.5 0.65 3.55 L1.4 4.2 0.85 4.2 -0.35 4.2 Q-3.35 4.05 -5.35 3.35 -7.2 2.7 -7.2 2.15 -7.2 0.1 -5.5 -1.7 L-4.35 -0.5 Q-3.2 0.3 -1.4 0.65 L-0.5 0.75" fill="#e0cbcb" fill-rule="evenodd" stroke="none"/>
  </g>
</svg>
