<?xml version="1.0" encoding="UTF-8" standalone="no"?>
<svg xmlns:ffdec="https://www.free-decompiler.com/flash" xmlns:xlink="http://www.w3.org/1999/xlink" ffdec:objectType="shape" height="32.95px" width="36.65px" xmlns="http://www.w3.org/2000/svg">
  <g transform="matrix(1.0, 0.0, 0.0, 1.0, 18.5, 14.35)">
    <path d="M-17.3 -13.95 L-18.5 -14.05 -17.15 -14.35 -17.3 -13.95 M14.75 4.0 L8.7 3.6 11.45 3.55 14.0 3.65 14.05 3.6 14.1 3.75 14.75 4.0" fill="#666666" fill-rule="evenodd" stroke="none"/>
    <path d="M-7.4 7.25 L-5.55 5.35 5.3 3.75 6.4 3.75 8.5 3.6 8.7 3.6 14.75 4.0 15.75 5.1 16.05 6.75 Q16.05 8.95 12.9 12.15 L11.45 13.45 Q7.95 16.15 3.15 16.4 L2.2 16.4 0.9 16.35 Q-4.7 15.95 -8.8 12.2 L-7.4 7.25" fill="#724a4a" fill-rule="evenodd" stroke="none"/>
    <path d="M3.15 16.4 Q7.95 16.15 11.45 13.45 L12.9 12.15 Q16.05 8.95 16.05 6.75 L15.75 5.1 14.75 4.0 16.3 4.05 18.15 10.15 9.7 17.05 3.15 16.4" fill="#ffffff" fill-rule="evenodd" stroke="none"/>
    <path d="M-5.55 5.35 L-7.4 7.25 -10.5 10.45 -11.3 9.45 -6.6 5.5 -5.55 5.35" fill="#a36a6a" fill-rule="evenodd" stroke="none"/>
    <path d="M-11.3 9.45 L-10.5 10.45 -7.4 7.25 -8.8 12.2 Q-4.7 15.95 0.9 16.35 L2.2 16.4 3.15 16.4 9.7 17.05 7.8 18.6 -8.65 16.65 -12.6 10.55 -11.3 9.45" fill="#e0cbcb" fill-rule="evenodd" stroke="none"/>
  </g>
</svg>
