<?xml version="1.0" encoding="UTF-8" standalone="no"?>
<svg xmlns:ffdec="https://www.free-decompiler.com/flash" xmlns:xlink="http://www.w3.org/1999/xlink" ffdec:objectType="shape" height="30.05px" width="28.35px" xmlns="http://www.w3.org/2000/svg">
  <g transform="matrix(1.0, 0.0, 0.0, 1.0, 14.1, 14.7)">
    <path d="M9.25 -12.55 L9.4 -12.85 Q9.8 -12.65 9.8 -12.25 L9.25 -12.55 M9.8 -12.15 L9.45 -10.05 Q9.1 -8.55 9.1 -6.85 9.1 -5.55 10.1 -2.55 L-1.1 -2.4 -7.05 4.65 Q-7.85 1.9 -7.85 -0.95 -7.85 -3.1 -7.1 -5.0 -6.05 -7.9 -3.25 -10.15 L9.8 -12.15" fill="#724a4a" fill-rule="evenodd" stroke="none"/>
    <path d="M9.8 -12.25 L10.3 -12.25 9.8 -12.15 -3.25 -10.15 -9.25 -10.8 -9.0 -11.45 -3.1 -12.5 4.7 -13.4 7.15 -13.7 8.05 -13.2 Q9.0 -13.0 9.25 -12.55 L9.8 -12.25 M-7.05 4.65 Q-6.0 8.3 -3.55 11.8 L-3.15 12.35 -4.45 13.45 -13.4 -0.35 -10.95 -6.5 -7.1 -5.0 Q-7.85 -3.1 -7.85 -0.95 -7.85 1.9 -7.05 4.65" fill="#e0cbcb" fill-rule="evenodd" stroke="none"/>
    <path d="M9.8 -12.25 Q9.8 -12.65 9.4 -12.85 L9.25 -12.55 Q9.0 -13.0 8.05 -13.2 L7.15 -13.7 4.7 -13.4 -3.1 -12.5 -9.0 -11.45 -9.25 -10.8 -10.95 -6.5 -13.4 -0.35 -4.45 13.45 -3.15 12.35 -3.55 11.8 Q-6.0 8.3 -7.05 4.65 L-1.1 -2.4 10.1 -2.55 Q9.1 -5.55 9.1 -6.85 9.1 -8.55 9.45 -10.05 L9.8 -12.15 10.3 -12.25 9.8 -12.25 M11.0 -13.15 L9.75 -7.7 14.25 5.95 13.6 7.8 -4.15 15.35 -14.1 -0.1 -10.2 -12.3 5.8 -14.7 11.0 -13.15" fill="#a36a6a" fill-rule="evenodd" stroke="none"/>
    <path d="M-10.95 -6.5 L-9.25 -10.8 -3.25 -10.15 Q-6.05 -7.9 -7.1 -5.0 L-10.95 -6.5" fill="#ffffff" fill-rule="evenodd" stroke="none"/>
  </g>
</svg>
