<?xml version="1.0" encoding="UTF-8" standalone="no"?>
<svg xmlns:ffdec="https://www.free-decompiler.com/flash" xmlns:xlink="http://www.w3.org/1999/xlink" ffdec:objectType="shape" height="5.25px" width="5.65px" xmlns="http://www.w3.org/2000/svg">
  <g transform="matrix(1.0, 0.0, 0.0, 1.0, 3.25, 3.35)">
    <path d="M0.3 -2.85 L1.25 -2.25 1.35 -1.45 1.05 -0.25 -0.05 -1.0 -0.65 -0.55 -0.8 0.25 0.25 0.95 -0.7 1.7 -1.35 1.9 -2.4 1.25 -2.45 0.5 -1.8 -1.3 -0.45 -2.6 0.3 -2.85 M2.05 0.35 L2.35 0.55 Q2.5 1.5 2.2 1.65 L1.55 1.8 1.25 1.6 Q0.9 0.7 2.05 0.35" fill="#999999" fill-rule="evenodd" stroke="none"/>
    <path d="M0.3 -2.85 L-0.45 -2.6 -1.8 -1.3 -2.45 0.5 -2.4 1.25 -3.2 0.7 -3.25 -0.05 -2.6 -1.8 -1.25 -3.15 -0.5 -3.35 0.3 -2.85 M0.25 0.95 L-0.8 0.25 -0.65 -0.55 -0.05 -1.0 1.05 -0.25 2.05 0.35 Q0.9 0.7 1.25 1.6 L0.25 0.95" fill="#666666" fill-rule="evenodd" stroke="none"/>
  </g>
</svg>
