<?xml version="1.0" encoding="UTF-8" standalone="no"?>
<svg xmlns:ffdec="https://www.free-decompiler.com/flash" xmlns:xlink="http://www.w3.org/1999/xlink" ffdec:objectType="shape" height="5.55px" width="11.4px" xmlns="http://www.w3.org/2000/svg">
  <g transform="matrix(1.0, 0.0, 0.0, 1.0, 5.7, 2.8)">
    <path d="M4.9 -1.7 L4.95 -1.65 Q6.2 -0.8 5.4 1.6 L5.2 1.9 5.0 2.05 4.85 2.1 4.65 2.15 3.3 2.25 3.25 2.25 -0.7 1.95 -0.8 2.05 -0.95 2.15 -1.2 2.15 -4.6 2.15 -4.65 2.15 -5.5 1.95 -5.65 1.9 -5.7 1.8 -5.7 1.6 -5.65 0.95 -5.55 -0.85 -5.55 -0.9 -5.55 -1.0 -5.3 -1.85 -5.25 -1.95 -4.75 -2.6 -4.55 -2.75 -4.35 -2.8 2.3 -2.8 Q3.65 -2.8 4.9 -1.7" fill="#330000" fill-rule="evenodd" stroke="none"/>
    <path d="M-5.15 0.75 L-5.05 -0.85 -4.85 -1.65 -4.35 -2.3 2.3 -2.3 Q3.5 -2.3 4.6 -1.3 5.4 -0.7 5.1 0.8 L4.95 1.25 5.05 0.8 0.55 0.85 -4.45 0.7 -5.15 0.75" fill="#993300" fill-rule="evenodd" stroke="none"/>
    <path d="M-5.15 0.75 L-4.45 0.7 0.55 0.85 5.05 0.8 4.95 1.25 4.95 1.3 4.55 2.3 3.15 2.6 Q0.7 3.15 -0.95 1.35 L-1.3 2.35 -4.5 2.25 -5.2 1.85 -5.15 0.75" fill="#ab8632" fill-rule="evenodd" stroke="none"/>
  </g>
</svg>
