<?xml version="1.0" encoding="UTF-8" standalone="no"?>
<svg xmlns:ffdec="https://www.free-decompiler.com/flash" xmlns:xlink="http://www.w3.org/1999/xlink" ffdec:objectType="shape" height="21.7px" width="28.85px" xmlns="http://www.w3.org/2000/svg">
  <g transform="matrix(1.0, 0.0, 0.0, 1.0, 14.9, 10.85)">
    <path d="M10.25 3.8 L10.45 3.6 11.0 3.1 12.6 0.8 12.7 0.45 12.7 0.4 12.75 0.4 12.8 0.1 Q13.4 -2.45 11.55 -4.55 L6.35 -9.85 Q5.55 -9.3 4.15 -8.9 2.75 -8.5 0.55 -6.5 -1.7 -4.55 -4.05 -1.65 L-5.75 -1.4 -5.95 -2.0 -13.35 1.25 -12.85 4.9 -13.0 4.85 -13.75 9.85 -10.95 9.75 -1.75 8.85 Q2.95 8.1 7.45 5.65 L10.15 3.85 10.2 3.85 10.25 3.8 M6.45 -10.85 L7.05 -10.55 12.3 -5.2 Q14.5 -2.7 13.8 0.3 L13.8 0.35 13.7 0.6 13.6 0.85 13.5 1.2 13.4 1.35 11.85 3.65 11.7 3.85 11.1 4.35 10.9 4.55 10.8 4.6 10.65 4.7 Q9.5 5.6 7.9 6.5 3.25 9.05 -1.6 9.85 L-1.55 9.85 -10.9 10.75 -10.95 10.75 -13.4 10.85 -13.9 10.85 -13.85 10.6 -14.9 10.05 -13.65 4.4 -14.45 0.5 -6.25 -2.2 -6.1 -2.35 -4.55 -2.6 Q-2.3 -5.35 -0.1 -7.25 2.3 -9.45 3.9 -9.85 5.1 -10.2 5.8 -10.65 L6.45 -10.85" fill="#a36a6a" fill-rule="evenodd" stroke="none"/>
    <path d="M-5.75 -1.4 L-4.05 -1.65 Q-1.7 -4.55 0.55 -6.5 2.75 -8.5 4.15 -8.9 5.55 -9.3 6.35 -9.85 L11.55 -4.55 Q13.4 -2.45 12.8 0.1 L12.75 0.4 12.7 0.4 12.7 0.45 12.6 0.8 11.0 3.1 10.45 3.6 10.25 3.8 4.05 4.4 Q-1.7 4.4 -6.9 3.0 L-4.8 1.5 -5.25 0.05 -5.4 -0.3 -5.75 -1.4 M-2.35 0.25 L-3.1 0.4 -2.45 0.35 -2.35 0.25" fill="#ffffff" fill-rule="evenodd" stroke="none"/>
    <path d="M-6.9 3.0 Q-1.7 4.4 4.05 4.4 L10.25 3.8 10.2 3.85 10.15 3.85 7.45 5.65 Q2.95 8.1 -1.75 8.85 L-10.95 9.75 -13.75 9.85 -13.0 4.85 -12.85 4.9 -10.4 5.5 -7.8 3.65 -6.9 3.0 M-10.8 4.75 L-12.35 4.25 -12.3 1.55 -6.45 -1.2 -5.7 1.15 -10.8 4.75" fill="#e0cbcb" fill-rule="evenodd" stroke="none"/>
    <path d="M-5.4 -0.3 L-5.25 0.05 -4.8 1.5 -6.9 3.0 -7.8 3.65 -10.4 5.5 -12.85 4.9 -13.35 1.25 -5.95 -2.0 -5.4 -0.3 M-10.8 4.75 L-5.7 1.15 -6.45 -1.2 -12.3 1.55 -12.35 4.25 -10.8 4.75" fill="#d6a2a2" fill-rule="evenodd" stroke="none"/>
  </g>
</svg>
