<?xml version="1.0" encoding="UTF-8" standalone="no"?>
<svg xmlns:ffdec="https://www.free-decompiler.com/flash" xmlns:xlink="http://www.w3.org/1999/xlink" ffdec:objectType="shape" height="29.3px" width="25.25px" xmlns="http://www.w3.org/2000/svg">
  <g transform="matrix(1.0, 0.0, 0.0, 1.0, 12.6, 14.65)">
    <path d="M-5.25 -14.0 L-3.75 -13.65 -4.2 -13.5 -3.9 -11.15 -3.9 -11.1 Q-3.7 -9.75 -3.15 -8.55 L-1.05 -4.05 0.15 -2.05 0.15 -2.0 1.1 -0.45 1.05 -0.45 4.25 4.0 6.8 7.45 11.35 6.8 11.7 7.75 6.3 8.55 3.45 4.6 Q1.65 2.4 0.2 0.05 L-0.7 -1.5 -1.95 -3.6 -4.1 -8.15 Q-4.7 -9.5 -4.9 -11.0 L-5.1 -12.6 -5.25 -14.0 M-3.25 12.15 L-5.8 11.55 -5.1 10.65 Q-4.75 9.9 -4.75 8.3 L-5.2 5.25 -5.0 5.25 Q-4.15 5.25 -3.55 4.85 -2.9 4.5 -2.9 3.95 -2.9 3.4 -3.55 3.0 -4.15 2.65 -5.0 2.65 L-5.65 2.7 -6.35 -0.15 -7.2 -3.1 Q-6.75 -3.2 -6.4 -3.45 -5.9 -3.75 -5.9 -4.2 -5.9 -4.65 -6.4 -5.0 L-7.6 -5.3 -8.0 -5.25 Q-9.5 -8.6 -11.25 -8.6 L-12.2 -8.4 -12.2 -8.5 Q-12.2 -9.4 -12.6 -9.9 L-11.65 -10.85 -9.95 -9.8 -9.65 -9.55 -9.0 -8.85 Q-8.1 -7.8 -7.65 -6.45 L-6.25 -6.55 Q-4.5 -6.45 -4.5 -4.65 -4.5 -3.8 -5.05 -3.15 L-5.2 -3.05 Q-5.65 -2.6 -6.3 -2.4 L-4.55 1.85 -2.95 1.7 Q-1.5 1.9 -1.5 3.7 L-1.55 4.1 Q-1.75 4.95 -2.8 5.65 L-2.95 5.75 -1.65 9.25 Q-1.65 11.05 -2.0 11.45 -2.4 11.9 -3.25 12.15" fill="#a36a6a" fill-rule="evenodd" stroke="none"/>
    <path d="M11.7 7.75 L12.65 10.65 10.5 12.15 8.5 11.55 7.15 11.05 Q1.35 8.9 1.2 7.3 -0.3 6.0 -1.55 4.1 L-1.5 3.7 Q-1.5 1.9 -2.95 1.7 L-3.0 1.6 -5.05 -3.15 Q-4.5 -3.8 -4.5 -4.65 -4.5 -6.45 -6.25 -6.55 L-7.5 -10.55 Q-7.95 -11.6 -9.25 -12.6 L-9.6 -12.85 -7.7 -14.65 -5.25 -14.0 -5.1 -12.6 -4.9 -11.0 Q-4.7 -9.5 -4.1 -8.15 L-1.95 -3.6 -0.7 -1.5 0.2 0.05 Q1.65 2.4 3.45 4.6 L6.3 8.55 11.7 7.75" fill="#ffffff" fill-rule="evenodd" stroke="none"/>
    <path d="M10.5 12.15 L7.05 14.65 -3.25 12.15 Q-2.4 11.9 -2.0 11.45 -1.65 11.05 -1.65 9.25 L-2.95 5.75 -2.8 5.65 Q-1.75 4.95 -1.55 4.1 -0.3 6.0 1.2 7.3 1.35 8.9 7.15 11.05 L8.5 11.55 10.5 12.15 M-11.65 -10.85 L-9.6 -12.85 -9.25 -12.6 Q-7.95 -11.6 -7.5 -10.55 L-6.25 -6.55 -7.65 -6.45 Q-8.1 -7.8 -9.0 -8.85 L-9.65 -9.55 -9.95 -9.8 -11.65 -10.85 M-5.05 -3.15 L-3.0 1.6 -2.95 1.7 -4.55 1.85 -6.3 -2.4 Q-5.65 -2.6 -5.2 -3.05 L-5.05 -3.15" fill="#e0cbcb" fill-rule="evenodd" stroke="none"/>
  </g>
</svg>
