<?xml version="1.0" encoding="UTF-8" standalone="no"?>
<svg xmlns:ffdec="https://www.free-decompiler.com/flash" xmlns:xlink="http://www.w3.org/1999/xlink" ffdec:objectType="shape" height="22.7px" width="13.85px" xmlns="http://www.w3.org/2000/svg">
  <g transform="matrix(1.0, 0.0, 0.0, 1.0, 8.15, 11.3)">
    <path d="M-6.65 1.9 Q-7.7 -1.4 -8.15 -4.65 -8.15 -8.3 -6.45 -10.3 -3.85 -13.25 1.1 -7.7 L3.5 -2.55 Q5.55 2.1 5.55 2.9 5.9 5.35 5.45 7.4 4.6 11.4 0.85 11.4 -0.75 11.4 -2.15 10.25 L0.4 5.7 Q3.6 -0.3 3.6 -1.05 3.6 -4.25 -0.9 4.65 L-3.15 9.25 Q-4.2 8.0 -5.05 6.1 -3.05 3.25 1.1 -6.15 1.1 -8.75 -3.05 -3.5 -5.7 -0.15 -6.65 1.9" fill="#999999" fill-rule="evenodd" stroke="none"/>
    <path d="M-6.65 1.9 Q-5.7 -0.15 -3.05 -3.5 1.1 -8.75 1.1 -6.15 -3.05 3.25 -5.05 6.1 L-6.2 3.3 -6.55 2.25 -6.65 1.9 M-3.15 9.25 L-0.9 4.65 Q3.6 -4.25 3.6 -1.05 3.6 -0.3 0.4 5.7 L-2.15 10.25 -3.15 9.25" fill="#cccccc" fill-rule="evenodd" stroke="none"/>
  </g>
</svg>
