<?xml version="1.0" encoding="UTF-8" standalone="no"?>
<svg xmlns:ffdec="https://www.free-decompiler.com/flash" xmlns:xlink="http://www.w3.org/1999/xlink" ffdec:objectType="shape" height="18.5px" width="71.2px" xmlns="http://www.w3.org/2000/svg">
  <g transform="matrix(1.0, 0.0, 0.0, 1.0, 35.6, 9.25)">
    <path d="M8.3 -4.05 L7.9 0.45 Q7.65 2.55 7.7 4.25 7.55 4.85 5.6 4.85 L-4.0 4.0 -5.55 2.45 -6.85 0.85 -7.85 -0.5 Q-7.3 -3.05 -7.3 -4.2 L-7.1 -4.7 -6.55 -5.15 3.55 -4.85 7.8 -5.05 Q8.45 -5.05 8.3 -4.05 M7.15 -3.8 L2.6 -4.0 -6.35 -3.8 -6.45 -2.8 -6.65 -1.65 -6.85 -0.8 Q-5.15 0.9 -4.6 1.85 -4.05 2.7 -2.95 3.0 L4.3 3.7 6.7 3.7 Q6.7 0.25 7.15 -3.2 L7.15 -3.8 M15.3 -5.6 L13.4 -5.95 13.4 -6.7 12.85 -8.2 12.2 -8.2 12.15 -7.8 12.2 -5.85 11.7 -5.75 Q11.5 -7.2 10.85 -7.2 L2.25 -7.35 -3.7 -7.2 Q-5.1 -6.9 -7.85 -7.2 -9.6 -7.45 -10.4 -6.45 L-10.4 -7.25 -10.45 -8.0 -10.45 -8.25 34.6 -8.2 34.45 2.0 30.15 -2.3 21.1 -2.1 13.25 7.4 13.35 3.4 Q14.75 3.35 15.4 2.55 L15.5 2.4 Q16.05 2.25 16.1 1.45 16.2 -0.2 16.5 -0.8 18.2 -4.05 29.5 -4.05 30.2 -4.05 30.75 -3.1 31.3 -2.15 32.15 -2.15 32.85 -2.15 32.85 -4.4 L32.7 -5.6 32.45 -6.75 32.05 -7.15 31.65 -7.35 23.4 -7.5 15.8 -6.95 Q15.1 -6.95 14.9 -5.75 L15.3 -5.6 M11.7 -2.85 L12.25 -2.75 12.3 -0.25 11.7 -0.15 11.7 -2.85 M11.5 3.3 L12.4 3.4 12.35 2.4 10.95 2.2 10.95 1.0 11.65 1.0 12.35 1.0 12.35 1.1 12.85 1.05 13.35 1.1 13.35 1.0 14.65 1.0 14.9 1.0 14.95 1.8 14.9 1.9 14.65 2.2 13.35 2.5 13.35 2.45 12.95 2.45 12.4 2.35 12.5 5.7 11.8 5.6 11.1 5.65 11.5 3.3 M13.4 -5.05 L15.35 -5.0 15.45 -4.25 15.35 -3.55 14.7 -3.5 13.6 -3.55 12.15 -3.8 Q11.1 -4.1 11.1 -4.4 11.1 -4.8 11.45 -4.9 L12.2 -5.0 12.2 -4.95 13.0 -5.15 13.4 -4.95 13.4 -5.05 M15.2 -0.05 Q14.65 -0.6 13.55 -0.5 L13.4 -0.45 13.4 -2.65 14.85 -2.65 14.75 -0.35 15.2 -0.05 M13.3 1.5 L13.35 1.6 13.35 1.5 13.3 1.5 M10.55 6.55 L10.55 6.6 10.65 6.55 12.55 6.5 12.7 8.0 12.5 8.25 -7.4 8.25 -13.15 0.3 Q-12.9 -0.15 -12.9 -1.15 L-12.5 -5.5 Q-12.4 -7.25 -12.8 -8.25 L-11.25 -8.25 -11.45 -7.9 -11.3 -6.9 -11.4 -6.0 -11.5 -4.3 -11.65 -2.65 -11.55 -1.6 -11.6 -0.5 -10.35 1.75 -8.85 3.65 -7.8 4.95 -6.1 6.25 -4.6 6.6 1.4 6.75 10.55 6.55 M-31.05 -6.9 Q-32.65 -6.9 -32.85 -6.45 L-32.85 -3.6 Q-32.85 -1.3 -33.15 2.2 -32.95 3.65 -32.3 3.65 L-29.7 0.15 Q-26.65 -3.35 -22.65 -3.35 L-19.2 -3.1 -16.7 -2.85 Q-16.05 -2.85 -15.7 -4.55 L-15.5 -6.75 Q-15.5 -7.1 -16.05 -7.2 L-20.25 -7.2 -31.05 -6.9 M-13.95 -0.8 L-14.2 -1.15 -26.7 -1.3 -31.7 6.3 -34.45 6.25 -34.6 -8.25 -13.5 -8.25 Q-13.95 -5.5 -13.95 -1.15 L-13.95 -0.8" fill="#ffffff" fill-rule="evenodd" stroke="none"/>
    <path d="M11.7 -5.75 L12.2 -5.85 12.15 -7.8 12.2 -8.2 12.85 -8.2 13.4 -6.7 13.4 -5.95 15.3 -5.6 16.05 -4.95 16.2 -4.3 16.1 -3.25 16.05 -3.2 Q15.8 -2.65 15.0 -2.65 L14.85 -2.65 13.4 -2.65 13.4 -0.45 13.55 -0.5 Q14.65 -0.6 15.2 -0.05 L15.55 0.35 15.6 0.5 15.75 1.45 15.5 2.4 15.4 2.55 Q14.75 3.35 13.35 3.4 L13.25 7.4 21.1 -2.1 30.15 -2.3 34.45 2.0 34.6 -8.2 -10.45 -8.25 -10.45 -8.0 -10.4 -7.25 -10.4 -6.45 -10.55 -4.05 -10.8 -2.65 Q-10.8 -1.25 -10.25 -0.1 L-9.0 1.9 -7.25 4.15 -6.55 5.2 Q-5.65 5.85 -2.6 5.85 L11.1 5.65 11.8 5.6 12.5 5.7 12.4 2.35 12.95 2.45 13.35 2.45 13.35 2.5 14.65 2.2 14.9 1.9 14.95 1.8 14.9 1.0 14.65 1.0 13.35 1.0 13.35 1.1 12.85 1.05 12.35 1.1 12.35 1.0 11.65 1.0 10.95 1.0 10.95 2.2 12.35 2.4 12.4 3.4 11.5 3.3 10.65 3.05 10.5 2.95 10.2 2.6 10.2 1.6 10.15 0.6 Q10.15 0.0 10.55 -0.1 L11.7 -0.15 12.3 -0.25 12.25 -2.75 11.7 -2.85 11.2 -2.95 Q10.35 -3.25 10.35 -4.4 10.35 -5.4 11.7 -5.75 M13.4 -5.05 L13.4 -4.95 13.0 -5.15 12.2 -4.95 12.2 -5.0 11.45 -4.9 Q11.1 -4.8 11.1 -4.4 11.1 -4.1 12.15 -3.8 L13.6 -3.55 14.7 -3.5 15.35 -3.55 15.45 -4.25 15.35 -5.0 13.4 -5.05 M21.55 -1.1 L13.25 8.9 12.9 9.15 12.95 9.15 12.5 9.25 -7.4 9.25 -7.85 9.15 -8.2 8.85 -14.7 -0.15 -26.15 -0.3 -30.85 6.85 -30.85 6.9 -31.25 7.2 -31.7 7.3 -34.45 7.25 -35.15 6.95 -35.45 6.25 -35.6 -8.25 -35.3 -8.95 -34.6 -9.25 34.6 -9.2 Q35.0 -9.25 35.3 -8.9 L35.6 -8.2 35.45 2.0 35.15 2.7 34.45 3.0 33.75 2.7 29.75 -1.3 21.55 -1.1 M13.3 1.5 L13.35 1.5 13.35 1.6 13.3 1.5 M10.65 6.55 L10.55 6.55 1.4 6.75 -4.6 6.6 -6.1 6.25 -7.8 4.95 -7.9 4.8 Q-8.1 4.3 -8.75 3.55 L-9.85 2.25 -11.15 -0.2 -11.55 -1.6 -11.65 -2.65 -11.5 -4.3 -11.4 -6.0 -11.3 -6.9 -11.45 -7.9 -11.25 -8.25 -12.8 -8.25 Q-12.4 -7.25 -12.5 -5.5 L-12.9 -1.15 Q-12.9 -0.15 -13.15 0.3 L-7.4 8.25 12.5 8.25 12.7 8.0 12.55 6.5 10.65 6.55 M-13.95 -0.8 L-13.95 -1.15 Q-13.95 -5.5 -13.5 -8.25 L-34.6 -8.25 -34.45 6.25 -31.7 6.3 -26.7 -1.3 -14.2 -1.15 -13.95 -0.8" fill="#a36a6a" fill-rule="evenodd" stroke="none"/>
    <path d="M7.15 -3.8 L7.15 -3.2 Q6.7 0.25 6.7 3.7 L4.3 3.7 -2.95 3.0 Q-4.05 2.7 -4.6 1.85 -5.15 0.9 -6.85 -0.8 L-6.65 -1.65 -6.45 -2.8 -6.35 -3.8 2.6 -4.0 7.15 -3.8 M8.3 -4.05 Q8.45 -5.05 7.8 -5.05 L3.55 -4.85 -6.55 -5.15 -7.1 -4.7 -7.3 -4.2 Q-7.3 -3.05 -7.85 -0.5 L-6.85 0.85 -5.55 2.45 -4.0 4.0 5.6 4.85 Q7.55 4.85 7.7 4.25 7.65 2.55 7.9 0.45 L8.3 -4.05 M15.3 -5.6 L14.9 -5.75 Q15.1 -6.95 15.8 -6.95 L23.4 -7.5 31.65 -7.35 32.05 -7.15 32.45 -6.75 32.7 -5.6 32.85 -4.4 Q32.85 -2.15 32.15 -2.15 31.3 -2.15 30.75 -3.1 30.2 -4.05 29.5 -4.05 18.2 -4.05 16.5 -0.8 16.2 -0.2 16.1 1.45 16.05 2.25 15.5 2.4 L15.75 1.45 15.6 0.5 15.55 0.35 15.2 -0.05 14.75 -0.35 14.85 -2.65 15.0 -2.65 Q15.8 -2.65 16.05 -3.2 L16.1 -3.25 16.2 -4.3 16.05 -4.95 15.3 -5.6 M-10.4 -6.45 Q-9.6 -7.45 -7.85 -7.2 -5.1 -6.9 -3.7 -7.2 L2.25 -7.35 10.85 -7.2 Q11.5 -7.2 11.7 -5.75 10.35 -5.4 10.35 -4.4 10.35 -3.25 11.2 -2.95 L11.7 -2.85 11.7 -0.15 10.55 -0.1 Q10.15 0.0 10.15 0.6 L10.2 1.6 10.2 2.6 10.5 2.95 10.65 3.05 11.5 3.3 11.1 5.65 -2.6 5.85 Q-5.65 5.85 -6.55 5.2 L-7.25 4.15 -9.0 1.9 -10.25 -0.1 Q-10.8 -1.25 -10.8 -2.65 L-10.55 -4.05 -10.4 -6.45 M10.65 6.55 L10.55 6.6 10.55 6.55 10.65 6.55 M-7.8 4.95 L-8.85 3.65 -10.35 1.75 -11.6 -0.5 -11.55 -1.6 -11.15 -0.2 -9.85 2.25 -8.75 3.55 Q-8.1 4.3 -7.9 4.8 L-7.8 4.95 M-31.05 -6.9 L-20.25 -7.2 -16.05 -7.2 Q-15.5 -7.1 -15.5 -6.75 L-15.7 -4.55 Q-16.05 -2.85 -16.7 -2.85 L-19.2 -3.1 -22.65 -3.35 Q-26.65 -3.35 -29.7 0.15 L-32.3 3.65 Q-32.95 3.65 -33.15 2.2 -32.85 -1.3 -32.85 -3.6 L-32.85 -6.45 Q-32.65 -6.9 -31.05 -6.9" fill="#e0cbcb" fill-rule="evenodd" stroke="none"/>
  </g>
</svg>
