<?xml version="1.0" encoding="UTF-8" standalone="no"?>
<svg xmlns:ffdec="https://www.free-decompiler.com/flash" xmlns:xlink="http://www.w3.org/1999/xlink" ffdec:objectType="shape" height="24.45px" width="63.55px" xmlns="http://www.w3.org/2000/svg">
  <g transform="matrix(1.0, 0.0, 0.0, 1.0, 30.95, 12.6)">
    <path d="M3.75 -5.45 Q1.05 -7.15 1.05 -9.0 1.05 -11.65 2.15 -10.1 L3.6 -7.5 Q4.35 -6.45 6.55 -5.4 9.05 -4.2 9.8 -3.5 L11.75 -1.25 13.7 1.05 16.95 3.15 Q19.85 5.05 19.85 5.6 L19.65 6.15 19.05 6.5 Q16.6 6.5 9.2 -1.5 7.85 -2.95 3.75 -5.45 M18.15 -10.0 Q20.85 -9.85 24.05 -8.4 32.6 -4.55 32.6 2.4 32.6 3.5 31.65 3.5 L27.45 1.0 21.35 -2.4 Q20.35 -2.8 17.85 -5.75 15.45 -8.55 15.45 -8.9 15.45 -10.1 18.15 -10.0 M30.0 -0.05 L29.75 -0.65 29.4 -0.5 30.0 -0.05 M0.9 3.65 Q0.15 1.9 -0.8 0.9 L-8.15 -4.4 Q-13.05 -7.95 -13.05 -9.95 L-12.75 -10.85 -12.5 -10.95 -12.05 -10.4 -10.25 -10.5 -9.95 -10.5 -10.1 -11.1 Q-10.1 -12.85 -7.45 -10.7 -4.4 -7.95 -3.65 -7.5 0.85 -4.8 1.95 -2.0 3.35 1.4 7.1 4.4 10.25 6.9 10.25 8.85 L10.1 10.5 Q9.7 11.85 8.25 11.85 4.65 11.85 3.0 9.4 2.65 8.9 1.85 6.45 L0.9 3.65 M-23.5 -10.6 Q-21.7 -9.05 -21.3 -7.95 -20.8 -6.8 -19.4 -5.4 L-16.95 -3.15 -12.5 2.3 Q-9.2 6.55 -9.2 6.9 -9.2 7.45 -9.5 7.9 -9.9 8.4 -10.65 8.4 -11.55 8.4 -14.3 4.15 -17.25 -0.45 -21.15 -1.5 -30.95 -4.25 -30.95 -10.55 -30.95 -12.15 -30.45 -12.4 L-27.75 -12.6 Q-25.75 -12.6 -23.5 -10.6" fill="#00ff00" fill-rule="evenodd" stroke="none"/>
  </g>
</svg>
