<?xml version="1.0" encoding="UTF-8" standalone="no"?>
<svg xmlns:ffdec="https://www.free-decompiler.com/flash" xmlns:xlink="http://www.w3.org/1999/xlink" ffdec:objectType="shape" height="17.95px" width="69.65px" xmlns="http://www.w3.org/2000/svg">
  <g transform="matrix(1.0, 0.0, 0.0, 1.0, 34.85, 8.9)">
    <path d="M18.95 -1.15 L20.05 -2.45 21.05 -2.35 24.15 -2.65 25.65 -2.45 25.75 -2.15 23.75 -1.85 Q21.45 -1.7 20.5 -0.5 L19.75 0.7 Q19.3 1.3 18.5 1.3 18.15 1.3 17.95 1.05 L17.8 0.8 18.3 -0.25 18.95 -1.15 M30.35 -7.9 L32.55 -7.95 32.05 -7.95 Q34.05 -8.2 34.65 -7.35 L34.8 -6.2 34.65 -5.05 34.45 -3.95 Q34.45 -3.15 34.1 -3.15 33.6 -3.15 33.6 -4.2 L33.6 -5.75 Q33.35 -6.55 31.8 -7.05 L30.3 -7.6 30.35 -7.9 M14.1 2.05 Q14.1 3.0 11.5 3.0 10.9 3.0 10.9 2.55 10.9 1.8 11.8 1.75 L14.0 1.85 14.1 2.05 M-14.05 -6.5 Q-15.0 -7.4 -16.8 -8.1 -14.8 -9.4 -13.6 -8.6 -12.7 -8.0 -12.7 -6.85 -12.7 -5.75 -13.45 -5.75 L-14.05 -6.5 M-9.95 -4.25 L-9.9 -4.1 -10.15 -1.35 -7.25 3.6 -7.3 3.85 -7.55 3.95 Q-8.8 3.95 -10.0 1.25 L-10.95 -1.5 Q-10.95 -3.4 -10.05 -4.25 L-9.95 -4.25 M-8.25 8.05 L-9.65 5.9 Q-9.25 5.15 -7.65 6.9 L-5.45 7.6 Q-3.95 8.0 -3.95 8.55 -3.95 9.05 -4.25 9.05 L-5.2 8.95 -5.2 8.85 Q-7.75 8.9 -8.25 8.05 M-34.05 0.85 Q-33.7 2.85 -33.7 3.65 -33.65 5.0 -32.8 5.65 L-31.95 6.35 Q-31.95 6.85 -32.7 6.85 -34.35 6.85 -34.75 5.8 L-34.85 4.45 -34.8 2.3 Q-34.65 0.95 -34.05 0.85" fill="#999999" fill-rule="evenodd" stroke="none"/>
  </g>
</svg>
