<?xml version="1.0" encoding="UTF-8" standalone="no"?>
<svg xmlns:ffdec="https://www.free-decompiler.com/flash" xmlns:xlink="http://www.w3.org/1999/xlink" ffdec:objectType="shape" height="13.95px" width="10.1px" xmlns="http://www.w3.org/2000/svg">
  <g transform="matrix(1.0, 0.0, 0.0, 1.0, -29.85, 16.35)">
    <path d="M32.2 -3.75 Q31.9 -2.9 31.45 -2.9 31.0 -2.9 30.65 -3.75 30.35 -4.6 30.35 -5.8 30.35 -7.0 30.65 -7.85 31.0 -8.7 31.45 -8.7 31.9 -8.7 32.2 -7.85 32.55 -7.0 32.55 -5.8 32.55 -4.6 32.2 -3.75" fill="#ffffff" fill-rule="evenodd" stroke="none"/>
    <path d="M32.2 -3.75 Q31.9 -2.9 31.45 -2.9 31.0 -2.9 30.65 -3.75 30.35 -4.6 30.35 -5.8 30.35 -7.0 30.65 -7.85 31.0 -8.7 31.45 -8.7 31.9 -8.7 32.2 -7.85 32.55 -7.0 32.55 -5.8 32.55 -4.6 32.2 -3.75 Z" fill="none" stroke="#3b0101" stroke-linecap="round" stroke-linejoin="round" stroke-opacity="0.4" stroke-width="1.0"/>
    <path d="M37.55 -10.9 Q37.25 -11.75 37.25 -12.95 37.25 -14.15 37.55 -15.0 37.9 -15.85 38.35 -15.85 38.8 -15.85 39.1 -15.0 39.45 -14.15 39.45 -12.95 39.45 -11.75 39.1 -10.9 38.8 -10.05 38.35 -10.05 37.9 -10.05 37.55 -10.9" fill="#ffffff" fill-rule="evenodd" stroke="none"/>
    <path d="M37.55 -10.9 Q37.25 -11.75 37.25 -12.95 37.25 -14.15 37.55 -15.0 37.9 -15.85 38.35 -15.85 38.8 -15.85 39.1 -15.0 39.45 -14.15 39.45 -12.95 39.45 -11.75 39.1 -10.9 38.8 -10.05 38.35 -10.05 37.9 -10.05 37.55 -10.9 Z" fill="none" stroke="#3b0101" stroke-linecap="round" stroke-linejoin="round" stroke-opacity="0.4" stroke-width="1.0"/>
  </g>
</svg>
