<?xml version="1.0" encoding="UTF-8" standalone="no"?>
<svg xmlns:ffdec="https://www.free-decompiler.com/flash" xmlns:xlink="http://www.w3.org/1999/xlink" ffdec:objectType="shape" height="9.2px" width="14.2px" xmlns="http://www.w3.org/2000/svg">
  <g transform="matrix(1.0, 0.0, 0.0, 1.0, 7.1, 4.6)">
    <path d="M4.15 -1.3 L4.15 -2.9 -2.3 -2.9 -2.3 -1.3 4.15 -1.3 M6.1 -3.6 L7.1 -3.6 7.1 -0.55 -1.5 -0.55 -2.7 4.6 -7.1 4.6 -5.75 -1.1 -6.95 -3.15 -6.0 -3.7 -5.4 -2.65 -5.2 -3.55 -5.2 -3.6 4.7 -3.6 4.7 -4.6 6.1 -4.6 6.1 -3.6" fill="#333333" fill-rule="evenodd" stroke="none"/>
    <path d="M4.15 -1.3 L-2.3 -1.3 -2.3 -2.9 4.15 -2.9 4.15 -1.3" fill="#666666" fill-rule="evenodd" stroke="none"/>
  </g>
</svg>
