<?xml version="1.0" encoding="UTF-8" standalone="no"?>
<svg xmlns:ffdec="https://www.free-decompiler.com/flash" xmlns:xlink="http://www.w3.org/1999/xlink" ffdec:objectType="shape" height="10.05px" width="9.35px" xmlns="http://www.w3.org/2000/svg">
  <g transform="matrix(1.0, 0.0, 0.0, 1.0, 4.8, 4.65)">
    <path d="M3.85 -1.85 L3.85 -1.8 3.8 -1.85 4.4 -0.3 4.5 1.8 4.5 1.85 Q4.2 3.85 2.8 4.5 L2.75 4.5 1.55 5.1 1.45 5.1 1.35 5.15 Q-0.1 5.85 -1.75 4.7 -3.2 3.75 -4.1 1.9 L-4.1 1.85 Q-4.95 -0.05 -4.8 -1.8 L-4.8 -1.85 Q-4.55 -3.85 -3.05 -4.45 L-3.0 -4.45 Q1.4 -4.6 2.4 -3.5 L3.85 -1.85" fill="#a36a6a" fill-rule="evenodd" stroke="none"/>
    <path d="M2.35 -2.95 L0.4 -2.95 -0.25 -3.45 Q-1.1 -4.0 -2.65 -3.8 L-1.25 -4.45 Q-0.2 -4.95 1.15 -4.1 L2.35 -2.95" fill="#ffffff" fill-rule="evenodd" stroke="none"/>
    <path d="M0.4 -2.95 L2.35 -2.95 3.25 -1.5 3.75 -0.15 2.15 -0.2 1.85 -0.85 0.4 -2.95" fill="#e0cbcb" fill-rule="evenodd" stroke="none"/>
    <path d="M0.4 -2.95 L1.85 -0.85 2.15 -0.2 3.75 -0.15 3.85 1.7 Q3.6 3.3 2.55 3.8 L1.3 4.4 1.15 4.45 Q0.05 4.95 -1.25 4.05 -2.55 3.2 -3.35 1.55 -4.1 -0.15 -3.95 -1.75 -3.75 -3.3 -2.65 -3.8 -1.1 -4.0 -0.25 -3.45 L0.4 -2.95" fill="#cca9a9" fill-rule="evenodd" stroke="none"/>
    <path d="M-1.95 -1.25 L-0.5 1.25" fill="none" stroke="#a36a6a" stroke-linecap="round" stroke-linejoin="round" stroke-width="1.0"/>
  </g>
</svg>
