<?xml version="1.0" encoding="UTF-8" standalone="no"?>
<svg xmlns:ffdec="https://www.free-decompiler.com/flash" xmlns:xlink="http://www.w3.org/1999/xlink" ffdec:objectType="shape" height="25.4px" width="63.45px" xmlns="http://www.w3.org/2000/svg">
  <g transform="matrix(1.0, 0.0, 0.0, 1.0, 35.9, 14.95)">
    <path d="M-30.4 -12.7 Q-31.05 -12.85 -31.95 -11.55 -33.2 -9.95 -33.9 -7.1 L-28.5 -5.7 -28.5 -5.8 -27.2 -5.6 -27.2 -5.35 -26.0 -5.05 -25.4 -4.85 Q-25.4 -4.35 -25.7 -3.7 L-25.85 -3.35 -26.7 -3.55 -27.05 -3.65 -27.1 -3.7 -27.6 -3.8 -28.15 -4.0 -28.35 -3.85 -28.5 -3.75 -28.5 -4.05 -29.0 -4.15 -29.05 -4.2 -34.25 -5.55 -34.3 -5.4 -34.3 -5.3 -34.45 -4.75 -34.4 -4.65 -34.4 -4.6 -34.5 -4.0 -34.65 -2.3 Q-35.0 -1.95 -35.7 -1.95 L-35.9 -2.0 -35.85 -2.85 Q-35.6 -8.1 -33.4 -11.7 -32.15 -13.7 -31.05 -14.1 L-30.25 -14.95 -23.35 -8.15 -24.5 -7.0 -27.7 -10.15 -27.7 -10.1 -29.05 -11.75 -30.1 -13.05 -30.4 -12.7" fill="#99cc00" fill-rule="evenodd" stroke="none"/>
    <path d="M-28.5 -5.8 Q-28.65 -7.95 -29.05 -9.95 -29.4 -11.6 -29.85 -12.25 L-30.15 -12.6 -30.4 -12.7 -30.1 -13.05 -29.05 -11.75 -27.7 -10.1 -27.7 -10.15 Q-27.15 -8.3 -27.15 -6.55 L-27.2 -6.2 -27.2 -5.6 -28.5 -5.8 M-35.9 -2.0 L-35.7 -1.95 Q-35.0 -1.95 -34.65 -2.3 L-34.65 -1.85 -34.2 1.0 -28.65 -0.55 -28.5 -4.05 -28.5 -3.75 -28.35 -3.85 -28.15 -4.0 -27.6 -3.8 -27.1 -3.7 -27.05 -3.65 -26.7 -3.55 -27.2 -3.7 -27.2 -0.95 -25.75 -1.35 -25.3 0.2 -27.4 0.8 -27.65 4.85 -24.5 1.6 -23.35 2.75 -28.15 7.65 Q-28.8 9.45 -30.1 9.6 L-30.15 9.65 -30.2 9.6 -30.3 9.6 Q-33.1 9.6 -34.8 4.25 -35.6 1.55 -35.9 -1.35 L-35.9 -2.0 M-34.4 -4.65 L-34.45 -4.75 -34.3 -5.3 -34.3 -5.4 -34.4 -4.65 M-25.85 -3.35 L-25.7 -3.7 Q-25.4 -4.35 -25.4 -4.85 L-26.0 -5.05 -25.25 -4.85 -25.7 -3.3 -25.85 -3.35 M-28.75 1.15 L-33.75 2.5 -33.4 3.6 Q-32.1 7.2 -30.9 8.1 L-29.7 6.9 -29.3 4.75 Q-28.85 2.35 -28.75 1.15" fill="#006600" fill-rule="evenodd" stroke="none"/>
    <path d="M22.45 -2.7 L22.45 -7.4 -23.15 -7.4 Q-25.4 -5.65 -24.95 -2.8 L22.45 -2.7 M8.75 10.45 L6.05 10.45 6.05 2.95 -24.65 2.95 Q-27.9 -2.5 -24.65 -8.75 L24.0 -8.75 24.0 2.95 12.75 2.95 12.75 5.25 8.75 5.25 8.75 10.45" fill="#006600" fill-rule="evenodd" stroke="none"/>
    <path d="M22.45 -2.7 L-24.95 -2.8 Q-25.4 -5.65 -23.15 -7.4 L22.45 -7.4 22.45 -2.7" fill="#99cc00" fill-rule="evenodd" stroke="none"/>
    <path d="M24.45 -8.1 L24.3 -8.25 23.95 -8.55 Q22.8 -8.55 22.2 -7.25 L21.45 -5.5 21.35 -5.55 21.65 -7.6 Q22.25 -9.45 24.05 -9.45 24.75 -9.45 25.3 -8.35 L25.1 -8.05 24.9 -7.8 24.45 -8.1 M25.95 1.7 Q25.35 3.5 24.45 3.5 23.6 3.5 23.6 2.95 23.6 2.75 24.0 2.8 L25.05 2.25 25.7 1.35 25.95 1.7" fill="#99cc00" fill-rule="evenodd" stroke="none"/>
    <path d="M24.9 -7.8 L25.65 -6.7 Q26.45 -5.1 26.45 -2.9 26.45 -0.7 25.65 0.8 24.95 2.4 23.9 2.4 22.85 2.4 22.1 0.8 21.35 -0.7 21.35 -2.9 21.35 -5.1 22.1 -6.7 22.85 -8.2 23.9 -8.2 L24.45 -8.1 24.9 -7.8" fill="#000000" fill-rule="evenodd" stroke="none"/>
    <path d="M24.45 -8.1 L23.9 -8.2 Q22.85 -8.2 22.1 -6.7 21.35 -5.1 21.35 -2.9 21.35 -0.7 22.1 0.8 22.85 2.4 23.9 2.4 24.95 2.4 25.65 0.8 26.45 -0.7 26.45 -2.9 26.45 -5.1 25.65 -6.7 L24.9 -7.8 25.1 -8.05 25.3 -8.35 Q24.75 -9.45 24.05 -9.45 22.25 -9.45 21.65 -7.6 L21.35 -5.55 21.45 -5.5 22.2 -7.25 Q22.8 -8.55 23.95 -8.55 L24.3 -8.25 24.45 -8.1 M23.9 -10.5 Q25.4 -10.5 26.45 -8.3 27.55 -6.05 27.55 -2.9 27.55 0.25 26.45 2.45 25.4 4.7 23.9 4.7 22.4 4.7 21.3 2.45 20.25 0.25 20.25 -2.9 20.25 -6.05 21.3 -8.3 22.4 -10.5 23.9 -10.5 M25.95 1.7 L25.7 1.35 25.05 2.25 24.0 2.8 Q23.6 2.75 23.6 2.95 23.6 3.5 24.45 3.5 25.35 3.5 25.95 1.7" fill="#006600" fill-rule="evenodd" stroke="none"/>
  </g>
</svg>
