<?xml version="1.0" encoding="UTF-8" standalone="no"?>
<svg xmlns:ffdec="https://www.free-decompiler.com/flash" xmlns:xlink="http://www.w3.org/1999/xlink" ffdec:objectType="shape" height="8.75px" width="22.15px" xmlns="http://www.w3.org/2000/svg">
  <g transform="matrix(1.0, 0.0, 0.0, 1.0, 11.9, 3.45)">
    <path d="M-5.05 -0.45 L-4.95 -0.45 Q-1.45 -0.45 2.0 -1.2 4.85 -1.85 7.6 -3.15 L8.3 -3.45 Q9.3 -3.15 9.8 -1.75 L10.25 1.0 Q10.2 2.35 8.9 3.15 7.0 4.3 4.6 4.65 L0.5 5.05 -4.1 5.2 -4.05 5.2 -4.25 4.9 -4.65 4.3 -4.45 2.85 -4.55 1.5 -5.2 0.2 -5.05 -0.45" fill="#666666" fill-rule="evenodd" stroke="none"/>
    <path d="M-4.1 5.2 L-7.8 5.3 -11.45 4.95 Q-12.05 2.65 -11.85 0.3 L-11.3 -0.3 -5.85 -0.45 -5.55 -0.45 -5.05 -0.45 -5.2 0.2 -4.55 1.5 -4.45 2.85 -4.65 4.3 -4.25 4.9 -4.05 5.2 -4.1 5.2" fill="#333333" fill-rule="evenodd" stroke="none"/>
  </g>
</svg>
