<?xml version="1.0" encoding="UTF-8" standalone="no"?>
<svg xmlns:ffdec="https://www.free-decompiler.com/flash" xmlns:xlink="http://www.w3.org/1999/xlink" ffdec:objectType="shape" height="6.3px" width="16.15px" xmlns="http://www.w3.org/2000/svg">
  <g transform="matrix(1.0, 0.0, 0.0, 1.0, 8.1, 3.15)">
    <path d="M7.5 -0.1 Q7.5 -1.1 7.1 -1.8 6.7 -2.55 6.15 -2.55 5.6 -2.55 5.2 -1.8 4.8 -1.1 4.8 -0.1 4.8 0.9 5.2 1.65 5.6 2.35 6.15 2.35 6.7 2.35 7.1 1.65 7.5 0.9 7.5 -0.1 M4.2 -1.4 L4.8 -2.55 -6.4 -2.0 -6.8 -1.4 4.2 -1.4 M-8.1 -0.2 Q-8.0 -1.75 -6.65 -2.45 L6.15 -3.15 Q7.9 -3.4 8.05 0.1 7.6 3.2 6.15 3.15 L-6.65 2.2 Q-8.2 1.65 -8.1 -0.2" fill="#333333" fill-rule="evenodd" stroke="none"/>
    <path d="M4.2 -1.4 L-6.8 -1.4 -6.4 -2.0 4.8 -2.55 4.2 -1.4" fill="#666666" fill-rule="evenodd" stroke="none"/>
    <path d="M7.5 -0.1 Q7.5 0.9 7.1 1.65 6.7 2.35 6.15 2.35 5.6 2.35 5.2 1.65 4.8 0.9 4.8 -0.1 4.8 -1.1 5.2 -1.8 5.6 -2.55 6.15 -2.55 6.7 -2.55 7.1 -1.8 7.5 -1.1 7.5 -0.1" fill="#0066ff" fill-rule="evenodd" stroke="none"/>
    <path d="M7.05 -1.45 L7.1 -1.35 7.1 -0.65 Q6.65 -0.25 5.6 -0.3 L5.6 -0.85 5.7 -1.35 Q5.85 -2.15 6.3 -2.1 6.75 -2.0 7.05 -1.45" fill="#abcdfe" fill-rule="evenodd" stroke="none"/>
  </g>
</svg>
