<?xml version="1.0" encoding="UTF-8" standalone="no"?>
<svg xmlns:ffdec="https://www.free-decompiler.com/flash" xmlns:xlink="http://www.w3.org/1999/xlink" ffdec:objectType="shape" height="14.5px" width="22.5px" xmlns="http://www.w3.org/2000/svg">
  <g transform="matrix(1.0, 0.0, 0.0, 1.0, 9.1, 6.05)">
    <path d="M1.3 7.3 L-0.7 6.3 1.4 6.3 Q3.15 6.3 5.25 5.55 6.55 5.05 7.45 4.45 L8.35 3.7 8.35 2.9 11.85 5.45 Q10.4 4.9 8.8 5.9 L7.65 6.7 Q5.45 9.05 1.3 7.3 M-8.35 -2.65 L-8.35 -2.8 Q-8.35 -3.8 -5.9 -4.6 -3.45 -5.45 -0.35 -5.45 2.7 -5.5 5.55 -4.65 8.4 -3.85 8.45 -3.3 L8.45 -2.7 8.05 -2.05 Q7.45 -1.55 6.0 -1.1 3.55 -0.4 0.05 -0.4 -3.45 -0.4 -5.9 -1.1 -7.45 -1.55 -8.0 -2.05 L-8.35 -2.65" fill="#f8f3f3" fill-rule="evenodd" stroke="none"/>
    <path d="M11.85 5.45 Q12.65 5.75 12.55 6.85 L8.8 5.9 Q10.4 4.9 11.85 5.45" fill="#cca9a9" fill-rule="evenodd" stroke="none"/>
    <path d="M-8.1 4.4 L-8.45 5.1 -9.05 4.1 -9.05 4.05 -9.1 3.65 -9.05 3.25 -9.0 -2.75 Q-9.15 -4.25 -6.0 -5.25 -3.5 -6.15 0.2 -6.05 3.8 -5.95 6.35 -5.15 9.45 -4.25 9.3 -2.75 L9.3 -2.65 9.25 2.4 9.3 2.5 9.35 2.6 12.3 4.8 12.4 4.85 Q13.55 5.3 13.4 6.9 L13.25 7.4 12.9 7.6 12.95 7.6 12.45 7.6 9.15 6.75 9.05 6.75 8.95 6.8 8.3 7.25 8.3 7.3 8.05 7.5 7.8 7.75 Q4.15 9.35 1.3 7.3 5.45 9.05 7.65 6.7 L8.8 5.9 12.55 6.85 Q12.65 5.75 11.85 5.45 L8.35 2.9 8.45 -2.7 8.45 -3.3 Q8.4 -3.85 5.55 -4.65 2.7 -5.5 -0.35 -5.45 -3.45 -5.45 -5.9 -4.6 -8.35 -3.8 -8.35 -2.8 L-8.35 -2.65 -8.35 1.85 -8.4 3.35 -8.45 3.65 -8.4 3.8 -8.1 4.4" fill="#a36a6a" fill-rule="evenodd" stroke="none"/>
    <path d="M-0.7 6.3 L-3.8 6.05 -6.0 5.5 Q-7.55 5.0 -8.1 4.4 L-8.4 3.8 -8.45 3.65 -8.4 3.35 -8.35 1.85 -8.35 -2.65 -8.0 -2.05 Q-7.45 -1.55 -5.9 -1.1 -3.45 -0.4 0.05 -0.4 3.55 -0.4 6.0 -1.1 7.45 -1.55 8.05 -2.05 L8.45 -2.7 8.35 2.9 8.35 3.7 7.45 4.45 Q6.55 5.05 5.25 5.55 3.15 6.3 1.4 6.3 L-0.7 6.3" fill="url(#gradient0)" fill-rule="evenodd" stroke="none"/>
  </g>
  <defs>
    <linearGradient gradientTransform="matrix(0.002, 0.0, 0.0, 0.0055, -0.4, 1.8)" gradientUnits="userSpaceOnUse" id="gradient0" spreadMethod="pad" x1="-819.2" x2="819.2">
      <stop offset="0.0" stop-color="#cca9a9"/>
      <stop offset="1.0" stop-color="#e0cbcb"/>
    </linearGradient>
  </defs>
</svg>
