<?xml version="1.0" encoding="UTF-8" standalone="no"?>
<svg xmlns:ffdec="https://www.free-decompiler.com/flash" xmlns:xlink="http://www.w3.org/1999/xlink" ffdec:objectType="shape" height="35.35px" width="34.3px" xmlns="http://www.w3.org/2000/svg">
  <g transform="matrix(1.0, 0.0, 0.0, 1.0, 17.15, 18.7)">
    <path d="M11.1 -16.9 L11.65 -16.65 12.85 -16.15 Q14.95 -15.25 17.15 -13.95 L17.15 -11.95 14.65 -9.25 10.55 -11.5 10.2 -11.65 7.1 -12.85 9.8 -15.35 11.1 -16.9 M11.65 3.25 L12.15 3.0 13.0 2.6 15.0 1.55 17.15 0.15 17.15 2.15 14.65 4.9 11.45 6.95 10.55 7.45 Q8.75 8.35 7.05 8.85 L9.7 6.05 11.1 3.45 11.65 3.25" fill="#666666" fill-rule="evenodd" stroke="none"/>
    <path d="M14.65 -2.2 L10.55 -4.75 Q8.75 -5.65 7.05 -6.2 L7.05 -12.85 7.1 -12.85 10.2 -11.65 10.55 -11.5 14.65 -9.25 14.65 -2.2 M14.65 11.9 L10.55 14.2 Q8.75 15.05 7.05 15.6 L7.05 8.85 Q8.75 8.35 10.55 7.45 L11.45 6.95 14.65 4.9 14.65 11.9" fill="#cccccc" fill-rule="evenodd" stroke="none"/>
    <path d="M-8.0 -1.7 L-6.9 0.1 Q-4.2 2.5 -1.3 3.7 2.65 5.25 7.05 4.55 L9.8 3.9 10.55 3.65 10.8 3.55 11.65 3.25 11.1 3.45 9.7 6.05 7.05 8.85 Q-1.05 11.25 -7.7 4.85 -9.05 3.05 -9.05 1.15 -9.05 0.0 -8.4 -1.15 L-8.0 -1.7 M-16.95 0.05 L-17.15 -1.25 -17.15 -1.35 -17.15 -1.5 -17.1 -1.5 -17.05 -1.95 -17.0 -2.25 -17.15 -3.25 -17.15 -3.35 -17.15 -3.5 -17.1 -3.5 Q-16.55 -8.75 -11.25 -13.95 -9.0 -15.7 -6.6 -16.8 0.95 -20.3 9.8 -17.35 L11.1 -16.9 9.8 -15.35 7.1 -12.85 7.05 -12.85 Q0.05 -15.1 -6.0 -12.65 -8.95 -11.5 -11.65 -9.25 -16.05 -4.6 -16.95 0.05" fill="#990000" fill-rule="evenodd" stroke="none"/>
    <path d="M17.15 -11.95 L17.15 -4.9 14.65 -2.2 14.65 -9.25 17.15 -11.95 M17.15 2.15 L17.15 9.2 14.65 11.9 14.65 4.9 17.15 2.15" fill="#999999" fill-rule="evenodd" stroke="none"/>
    <path d="M7.05 -6.2 Q0.9 -8.0 -4.4 -4.7 -6.1 -3.65 -7.7 -2.1 L-8.0 -1.7 -8.4 -1.15 Q-9.05 0.0 -9.05 1.15 -9.05 3.05 -7.7 4.85 -1.05 11.25 7.05 8.85 L7.05 15.6 Q-3.3 18.9 -11.65 11.9 -16.6 6.75 -17.15 1.45 L-17.15 1.4 -17.15 1.2 -17.1 1.2 -16.95 0.05 Q-16.05 -4.6 -11.65 -9.25 -8.95 -11.5 -6.0 -12.65 0.05 -15.1 7.05 -12.85 L7.05 -6.2" fill="#cc0000" fill-rule="evenodd" stroke="none"/>
    <path d="M6.85 -12.6 L6.8 -12.6 5.25 -13.0 2.0 -13.3 -0.55 -13.35 -4.5 -12.8 -7.3 -12.1 -7.85 -12.1 -7.8 -12.15 -7.45 -12.15 -7.3 -12.3 -4.8 -13.3 0.35 -14.1 3.15 -14.1 6.1 -13.75 Q6.95 -13.45 7.15 -13.15 L6.85 -12.8 6.85 -12.6" fill="#ff9900" fill-rule="evenodd" stroke="none"/>
    <path d="M7.15 -13.15 L7.45 -13.2 Q7.9 -13.2 10.0 -12.0 L13.2 -10.1 13.35 -10.05 13.2 -10.0 Q12.1 -10.0 9.65 -11.3 9.1 -11.55 8.1 -12.1 L7.1 -12.4 Q6.9 -12.45 6.85 -12.6 L6.85 -12.8 7.15 -13.15" fill="#ffffff" fill-rule="evenodd" stroke="none"/>
  </g>
</svg>
