<?xml version="1.0" encoding="UTF-8" standalone="no"?>
<svg xmlns:ffdec="https://www.free-decompiler.com/flash" xmlns:xlink="http://www.w3.org/1999/xlink" ffdec:objectType="shape" height="12.0px" width="29.0px" xmlns="http://www.w3.org/2000/svg">
  <g transform="matrix(1.0, 0.0, 0.0, 1.0, 14.5, 6.0)">
    <path d="M13.9 -2.7 Q14.5 -1.5 14.5 0.0 14.5 2.5 12.75 4.25 11.0 6.0 8.5 6.0 L-0.05 6.0 -0.05 0.6 8.5 0.6 Q11.0 0.6 12.75 -1.15 L13.9 -2.7" fill="#990000" fill-rule="evenodd" stroke="none"/>
    <path d="M-0.05 -6.0 L8.5 -6.0 Q11.0 -6.0 12.75 -4.25 L13.9 -2.7 12.75 -1.15 Q11.0 0.6 8.5 0.6 L-0.05 0.6 -0.05 -6.0" fill="#cc0000" fill-rule="evenodd" stroke="none"/>
    <path d="M-13.85 -2.7 L-12.75 -4.25 Q-11.0 -6.0 -8.55 -6.0 L-0.05 -6.0 -0.05 0.6 -8.55 0.6 Q-11.0 0.6 -12.75 -1.15 -13.45 -1.85 -13.85 -2.7" fill="#00ccff" fill-rule="evenodd" stroke="none"/>
    <path d="M-0.05 6.0 L-8.55 6.0 Q-11.0 6.0 -12.75 4.25 -14.5 2.5 -14.5 0.0 -14.5 -1.5 -13.85 -2.7 -13.45 -1.85 -12.75 -1.15 -11.0 0.6 -8.55 0.6 L-0.05 0.6 -0.05 6.0" fill="#0066cc" fill-rule="evenodd" stroke="none"/>
  </g>
</svg>
