<?xml version="1.0" encoding="UTF-8" standalone="no"?>
<svg xmlns:ffdec="https://www.free-decompiler.com/flash" xmlns:xlink="http://www.w3.org/1999/xlink" ffdec:objectType="shape" height="24.0px" width="24.0px" xmlns="http://www.w3.org/2000/svg">
  <g transform="matrix(1.0, 0.0, 0.0, 1.0, 12.0, 12.0)">
    <path d="M-2.65 -8.5 Q-3.75 -4.95 -3.75 0.0 -3.75 4.95 -2.65 8.45 -1.55 11.95 -0.05 12.0 L-0.05 -12.0 Q-1.55 -11.95 -2.65 -8.5 M0.15 12.0 L0.0 12.0 -0.05 12.0 Q-4.95 12.0 -8.5 8.45 -12.0 4.95 -12.0 0.0 -12.0 -4.95 -8.5 -8.5 -4.95 -12.0 -0.05 -12.0 L0.0 -12.0 0.15 -12.0 Q1.6 -11.85 2.65 -8.5 3.75 -4.95 3.75 0.0 3.75 4.95 2.65 8.45 1.6 11.85 0.15 12.0" fill="#ffffff" fill-rule="evenodd" stroke="none"/>
    <path d="M-2.65 -8.5 Q-1.55 -11.95 -0.05 -12.0 L-0.05 12.0 Q-1.55 11.95 -2.65 8.45 -3.75 4.95 -3.75 0.0 -3.75 -4.95 -2.65 -8.5 M0.15 -12.0 Q5.0 -11.95 8.45 -8.5 12.0 -4.95 12.0 0.0 12.0 4.95 8.45 8.45 5.0 11.95 0.15 12.0 1.6 11.85 2.65 8.45 3.75 4.95 3.75 0.0 3.75 -4.95 2.65 -8.5 1.6 -11.85 0.15 -12.0" fill="#d6e3e7" fill-rule="evenodd" stroke="none"/>
  </g>
</svg>
