<?xml version="1.0" encoding="UTF-8" standalone="no"?>
<svg xmlns:ffdec="https://www.free-decompiler.com/flash" xmlns:xlink="http://www.w3.org/1999/xlink" ffdec:objectType="shape" height="26.2px" width="28.95px" xmlns="http://www.w3.org/2000/svg">
  <g transform="matrix(1.0, 0.0, 0.0, 1.0, 47.05, 27.2)">
    <path d="M-28.8 -26.8 Q-26.2 -27.05 -24.75 -25.0 L-24.75 -24.95 -23.55 -22.7 Q-22.5 -20.75 -22.05 -18.5 L-21.65 -15.9 -21.5 -13.8 Q-21.45 -11.6 -22.55 -9.4 -23.25 -8.25 -24.35 -7.95 L-24.45 -7.95 -26.35 -8.0 Q-28.8 -8.1 -30.8 -9.25 L-30.8 -9.3 -32.45 -10.6 Q-34.05 -12.3 -34.55 -14.5 L-34.6 -14.55 Q-35.15 -17.1 -35.05 -19.65 L-34.9 -21.6 Q-34.65 -23.2 -34.05 -24.45 -33.4 -25.8 -32.1 -26.25 L-32.15 -26.25 Q-30.6 -26.95 -28.9 -26.8 L-28.8 -26.8" fill="#000000" fill-rule="evenodd" stroke="none"/>
    <path d="M-33.55 -23.65 Q-33.0 -25.7 -29.7 -26.0 -26.5 -26.3 -25.5 -24.5 -24.2 -22.65 -23.3 -19.8 -22.35 -16.85 -22.35 -14.75 -22.35 -12.9 -22.6 -11.65 -23.25 -8.8 -25.0 -8.8 -30.35 -8.8 -32.5 -11.85 -34.2 -14.25 -34.2 -18.8 L-34.15 -21.05 -33.55 -23.65" fill="#666666" fill-rule="evenodd" stroke="none"/>
    <path d="M-25.9 -27.15 Q-23.15 -27.4 -21.6 -25.2 L-21.55 -25.15 -20.25 -22.75 Q-19.15 -20.65 -18.65 -18.3 L-18.25 -15.45 Q-18.1 -14.4 -18.1 -13.2 -18.05 -10.85 -19.2 -8.55 -19.95 -7.3 -21.15 -7.0 L-21.25 -7.0 -23.25 -7.0 Q-25.9 -7.1 -28.05 -8.35 L-28.05 -8.4 -29.8 -9.8 Q-31.55 -11.65 -32.05 -14.0 L-32.1 -14.05 Q-32.7 -16.8 -32.6 -19.5 L-32.45 -21.6 Q-32.15 -23.3 -31.55 -24.6 -30.85 -26.1 -29.45 -26.6 -27.85 -27.3 -26.0 -27.15 L-25.9 -27.15" fill="#000000" fill-rule="evenodd" stroke="none"/>
    <path d="M-31.0 -23.8 Q-30.4 -26.0 -26.9 -26.3 -23.45 -26.6 -22.35 -24.7 -21.0 -22.7 -20.0 -19.65 -19.0 -16.5 -19.0 -14.25 -19.0 -12.25 -19.25 -10.95 -19.95 -7.9 -21.85 -7.9 -27.55 -7.9 -29.9 -11.15 -31.65 -13.7 -31.65 -18.6 L-31.6 -21.0 -31.0 -23.8" fill="#666666" fill-rule="evenodd" stroke="none"/>
    <path d="M-40.8 -20.8 Q-38.2 -21.05 -36.75 -19.0 L-36.75 -18.95 -35.55 -16.7 Q-34.5 -14.75 -34.05 -12.5 L-33.65 -9.9 -33.5 -7.8 Q-33.45 -5.6 -34.55 -3.4 -35.25 -2.25 -36.35 -1.95 L-36.45 -1.95 -38.35 -2.0 Q-40.8 -2.1 -42.8 -3.25 L-42.8 -3.3 -44.45 -4.6 Q-46.05 -6.3 -46.55 -8.5 L-46.6 -8.55 Q-47.15 -11.1 -47.05 -13.65 L-46.9 -15.6 Q-46.65 -17.2 -46.05 -18.45 -45.4 -19.8 -44.1 -20.25 L-44.15 -20.25 Q-42.6 -20.95 -40.9 -20.8 L-40.8 -20.8" fill="#000000" fill-rule="evenodd" stroke="none"/>
    <path d="M-46.15 -15.05 L-45.55 -17.65 Q-45.0 -19.7 -41.7 -20.0 -38.5 -20.3 -37.5 -18.5 -36.2 -16.65 -35.3 -13.8 -34.35 -10.85 -34.35 -8.75 -34.35 -6.9 -34.6 -5.65 -35.25 -2.8 -37.0 -2.8 -42.35 -2.8 -44.5 -5.85 -46.2 -8.25 -46.2 -12.8 L-46.15 -15.05" fill="#666666" fill-rule="evenodd" stroke="none"/>
    <path d="M-44.1 -8.05 Q-44.7 -10.8 -44.6 -13.5 L-44.45 -15.6 Q-44.15 -17.3 -43.55 -18.6 -42.85 -20.1 -41.45 -20.6 -39.85 -21.3 -38.0 -21.15 L-37.9 -21.15 Q-35.15 -21.4 -33.6 -19.2 L-33.55 -19.15 -32.25 -16.75 Q-31.15 -14.65 -30.65 -12.3 L-30.25 -9.45 Q-30.1 -8.4 -30.1 -7.2 -30.05 -4.85 -31.2 -2.55 -31.95 -1.3 -33.15 -1.0 L-33.25 -1.0 -35.25 -1.0 Q-37.9 -1.1 -40.05 -2.35 L-40.05 -2.4 -41.8 -3.8 Q-43.55 -5.65 -44.05 -8.0 L-44.1 -8.05" fill="#000000" fill-rule="evenodd" stroke="none"/>
    <path d="M-43.0 -17.8 Q-42.4 -20.0 -38.9 -20.3 -35.45 -20.6 -34.35 -18.7 -33.0 -16.7 -32.0 -13.65 -31.0 -10.5 -31.0 -8.25 -31.0 -6.25 -31.25 -4.95 -31.95 -1.9 -33.85 -1.9 -39.55 -1.9 -41.9 -5.15 -43.65 -7.7 -43.65 -12.6 L-43.6 -15.0 -43.0 -17.8" fill="#666666" fill-rule="evenodd" stroke="none"/>
  </g>
</svg>
