<?xml version="1.0" encoding="UTF-8" standalone="no"?>
<svg xmlns:ffdec="https://www.free-decompiler.com/flash" xmlns:xlink="http://www.w3.org/1999/xlink" ffdec:objectType="shape" height="31.9px" width="15.9px" xmlns="http://www.w3.org/2000/svg">
  <g transform="matrix(1.0, 0.0, 0.0, 1.0, 19.65, 1.0)">
    <path d="M-15.3 -0.9 Q-14.3 -0.5 -14.3 0.55 L-15.1 2.5 -15.25 2.95 -14.75 4.1 -14.5 5.35 -14.9 7.0 Q-15.3 6.7 -15.6 5.0 L-15.8 3.5 -16.1 2.25 -16.35 -0.15 Q-16.35 -1.3 -15.3 -0.9 M-4.65 18.4 Q-3.75 18.8 -3.75 19.65 -3.75 20.35 -4.3 21.55 -4.9 22.8 -5.35 22.8 -6.2 22.65 -6.55 22.0 -5.95 21.75 -5.6 20.1 -5.2 18.55 -4.65 18.4 M-6.2 22.95 Q-6.2 24.35 -7.05 27.25 -8.1 30.9 -9.4 30.9 L-11.4 30.55 Q-12.7 30.1 -13.0 29.35 L-11.75 29.1 Q-10.6 29.1 -9.1 26.9 L-6.35 22.65 -6.25 22.6 -6.2 22.95 M-15.25 30.05 L-16.1 30.65 -17.8 30.85 Q-19.45 30.85 -19.65 29.4 -19.05 28.7 -16.7 28.7 -15.6 28.7 -15.25 30.05" fill="#999999" fill-rule="evenodd" stroke="none"/>
  </g>
</svg>
