<?xml version="1.0" encoding="UTF-8" standalone="no"?>
<svg xmlns:ffdec="https://www.free-decompiler.com/flash" xmlns:xlink="http://www.w3.org/1999/xlink" ffdec:objectType="shape" height="64.95px" width="45.95px" xmlns="http://www.w3.org/2000/svg">
  <g transform="matrix(1.0, 0.0, 0.0, 1.0, 23.0, 32.45)">
    <path d="M22.95 -29.35 Q23.05 -26.8 15.0 -11.65 9.95 -2.2 5.35 5.75 2.75 10.25 -5.0 25.95 L-8.25 31.65 -8.75 32.2 -8.95 32.3 -9.7 32.4 -12.95 32.2 -13.25 32.2 -14.25 32.2 -15.3 32.2 -21.3 32.5 -21.35 32.5 -22.2 32.35 -22.75 31.85 -22.85 31.75 -23.0 30.85 Q-22.35 23.15 -22.35 20.65 L-22.35 -30.5 Q-22.35 -32.35 -21.15 -32.35 L-20.55 -32.45 1.35 -32.2 15.2 -32.3 21.15 -32.35 21.95 -32.1 22.1 -32.05 22.6 -31.15 22.6 -31.2 22.95 -29.35" fill="#a36a6a" fill-rule="evenodd" stroke="none"/>
    <path d="M18.8 -30.85 L17.4 -27.0 15.55 -23.3 13.65 -19.5 11.85 -15.75 Q10.8 -13.45 10.5 -12.0 L8.25 -8.65 Q6.05 -5.45 6.05 -4.65 6.05 -4.15 -3.15 13.2 L-5.6 17.85 Q-7.0 20.45 -7.65 22.25 L-8.35 24.65 Q-8.75 26.1 -9.3 26.85 L-10.1 27.95 -12.95 27.65 -12.9 19.4 Q-8.95 20.65 -8.95 15.9 -8.95 14.35 -9.55 13.15 -10.55 11.15 -12.9 11.0 L-12.9 4.35 -12.95 -10.15 -10.1 -10.0 Q-8.65 -10.4 -8.65 -11.8 -8.65 -14.05 -9.75 -16.05 -10.95 -18.2 -13.1 -18.8 -13.3 -29.95 -13.65 -30.4 -14.15 -25.5 -14.35 -19.05 L-15.1 -19.1 Q-17.05 -19.1 -17.7 -17.6 L-17.95 -16.0 Q-17.95 -12.45 -14.5 -10.75 L-14.55 -2.35 -15.15 -2.95 -20.85 -2.75 -20.85 -30.5 -20.75 -30.9 -20.55 -30.95 -13.65 -30.85 1.35 -30.7 15.2 -30.8 18.8 -30.85 M-15.3 30.7 L-15.4 30.7 -15.35 30.7 -15.3 30.7 M-21.2 27.45 Q-20.85 22.55 -20.85 20.65 L-20.85 -1.1 -15.15 -1.0 Q-14.85 -1.0 -14.55 -1.25 L-14.55 4.35 -14.55 11.1 Q-15.95 11.4 -16.85 12.7 -17.6 13.85 -17.6 14.6 -17.6 15.95 -16.25 17.35 L-14.55 18.7 -14.55 18.85 -14.6 25.95 -14.55 27.8 -21.2 27.45 M-16.35 -16.45 L-15.75 -17.2 -14.4 -17.1 -14.4 -16.8 -13.9 -17.1 Q-13.6 -17.1 -13.05 -16.7 L-13.05 -16.75 Q-11.65 -16.25 -10.85 -15.15 -9.95 -13.9 -9.95 -12.6 -9.95 -11.6 -11.85 -12.05 -13.05 -11.85 -14.2 -13.15 L-14.5 -13.5 -14.5 -13.2 -14.5 -13.0 Q-16.6 -14.1 -16.6 -15.5 L-16.35 -16.45 M-12.9 13.3 L-12.9 12.95 Q-11.05 13.25 -10.45 14.35 -10.05 15.15 -10.3 15.95 -10.3 16.45 -10.65 17.6 L-12.9 17.5 -12.9 17.3 Q-14.1 17.1 -14.65 16.6 -16.25 15.4 -16.25 14.65 -15.15 13.05 -14.55 12.9 L-14.55 13.75 Q-14.25 13.3 -13.2 13.3 L-12.9 13.3" fill="#e0cbcb" fill-rule="evenodd" stroke="none"/>
    <path d="M-12.95 27.65 L-12.95 30.7 -13.25 30.7 -14.25 30.7 -14.3 30.3 -14.55 27.8 -14.6 25.95 -14.55 18.85 -14.55 18.7 -16.25 17.35 Q-17.6 15.95 -17.6 14.6 -17.6 13.85 -16.85 12.7 -15.95 11.4 -14.55 11.1 L-14.55 4.35 -14.55 -1.25 Q-14.85 -1.0 -15.15 -1.0 L-20.85 -1.1 -20.85 -2.75 -15.15 -2.95 -14.55 -2.35 -14.5 -10.75 Q-17.95 -12.45 -17.95 -16.0 L-17.7 -17.6 Q-17.05 -19.1 -15.1 -19.1 L-14.35 -19.05 Q-14.15 -25.5 -13.65 -30.4 -13.3 -29.95 -13.1 -18.8 -10.95 -18.2 -9.75 -16.05 -8.65 -14.05 -8.65 -11.8 -8.65 -10.4 -10.1 -10.0 L-12.95 -10.15 -12.9 4.35 -12.9 11.0 Q-10.55 11.15 -9.55 13.15 -8.95 14.35 -8.95 15.9 -8.95 20.65 -12.9 19.4 L-12.95 27.65 M-16.35 -16.45 L-16.6 -15.5 Q-16.6 -14.1 -14.5 -13.0 L-14.5 -13.2 -14.5 -13.5 -14.2 -13.15 Q-13.05 -11.85 -11.85 -12.05 -9.95 -11.6 -9.95 -12.6 -9.95 -13.9 -10.85 -15.15 -11.65 -16.25 -13.05 -16.75 L-13.05 -16.7 Q-13.6 -17.1 -13.9 -17.1 L-14.4 -16.8 -14.4 -17.1 -15.75 -17.2 -16.35 -16.45 M-12.9 13.3 L-13.2 13.3 Q-14.25 13.3 -14.55 13.75 L-14.55 12.9 Q-15.15 13.05 -16.25 14.65 -16.25 15.4 -14.65 16.6 -14.1 17.1 -12.9 17.3 L-12.9 17.5 -10.65 17.6 Q-10.3 16.45 -10.3 15.95 -10.05 15.15 -10.45 14.35 -11.05 13.25 -12.9 12.95 L-12.9 13.3" fill="#a36a6a" fill-rule="evenodd" stroke="none"/>
    <path d="M18.8 -30.85 L21.15 -30.85 21.45 -29.35 Q21.45 -27.0 13.65 -12.35 8.65 -2.95 4.05 5.0 1.45 9.5 -6.35 25.25 L-9.55 30.9 -11.55 30.75 -12.95 30.7 -12.95 27.65 -10.1 27.95 -9.3 26.85 Q-8.75 26.1 -8.35 24.65 L-7.65 22.25 Q-7.0 20.45 -5.6 17.85 L-3.15 13.2 Q6.05 -4.15 6.05 -4.65 6.05 -5.45 8.25 -8.65 L10.5 -12.0 Q10.8 -13.45 11.85 -15.75 L13.65 -19.5 15.55 -23.3 17.4 -27.0 18.8 -30.85 M-14.25 30.7 L-15.3 30.7 -15.35 30.7 -15.4 30.7 -21.5 31.0 -21.4 30.1 -21.35 29.3 -21.3 28.8 -21.2 27.45 -14.55 27.8 -14.3 30.3 -14.25 30.7" fill="#ffffff" fill-rule="evenodd" stroke="none"/>
  </g>
</svg>
