<?xml version="1.0" encoding="UTF-8" standalone="no"?>
<svg xmlns:ffdec="https://www.free-decompiler.com/flash" xmlns:xlink="http://www.w3.org/1999/xlink" ffdec:objectType="shape" height="63.55px" width="113.75px" xmlns="http://www.w3.org/2000/svg">
  <g transform="matrix(1.0, 0.0, 0.0, 1.0, 56.6, 32.0)">
    <path d="M46.6 -30.45 L56.15 -19.85 56.4 -19.3 56.4 -19.25 56.25 -18.7 37.55 14.05 37.6 14.05 37.1 14.5 37.1 14.45 36.45 14.5 -55.6 14.5 -56.15 14.35 -56.5 13.95 -56.5 13.9 -56.6 13.4 -56.6 13.35 -54.45 0.5 -54.15 0.0 -54.15 -0.05 -53.9 -0.2 -34.35 -30.6 -34.35 -30.55 -34.0 -30.9 -33.95 -30.95 -33.5 -31.05 43.85 -31.05 44.2 -31.0 45.4 -30.8 45.85 -30.8 45.9 -30.8 46.3 -30.7 46.25 -30.7 46.6 -30.45" fill="#a36a6a" fill-rule="evenodd" stroke="none"/>
    <path d="M44.7 -29.85 L26.1 -1.1 26.6 -1.15 25.55 0.5 36.55 13.35 36.45 13.5 -55.6 13.5 -53.55 1.3 -51.0 1.4 -25.65 1.35 -24.95 1.35 -24.05 1.35 13.75 1.2 21.35 1.05 22.05 0.8 21.85 0.65 20.95 0.6 20.6 0.6 Q11.15 0.25 -10.95 0.25 L-21.95 0.25 -23.3 0.25 -23.3 0.2 -23.35 0.25 -25.55 0.2 -27.6 0.1 -28.3 0.2 -28.35 -0.05 -26.55 -2.4 -20.8 -16.25 -19.25 -19.75 Q-15.9 -27.1 -14.05 -30.05 -11.75 -33.75 -11.75 -30.45 L-11.8 -30.05 43.85 -30.05 44.7 -29.85 M39.05 -6.75 L36.65 -6.95 Q37.85 -7.9 41.85 -14.05 46.3 -19.25 50.75 -17.85 L50.75 -17.8 Q49.65 -14.3 47.95 -11.7 44.65 -6.75 39.05 -6.75" fill="#e0cbcb" fill-rule="evenodd" stroke="none"/>
    <path d="M26.6 -1.15 L26.1 -1.1 44.7 -29.85 46.2 -30.5 46.05 -29.6 26.6 -1.15 M-28.3 0.2 L-27.6 0.1 -25.55 0.2 -23.35 0.25 -23.3 0.25 -21.95 0.25 -10.95 0.25 Q11.15 0.25 20.6 0.6 L20.95 0.6 21.85 0.65 22.05 0.8 21.35 1.05 13.75 1.2 -24.05 1.35 -24.95 1.35 -25.65 1.35 -51.0 1.4 -53.55 1.3 Q-54.55 1.15 -54.1 0.85 L-53.85 0.4 -53.1 0.35 -48.65 0.3 -47.0 0.3 -28.45 0.25 -28.3 0.2 M39.05 -6.75 Q44.65 -6.75 47.95 -11.7 49.65 -14.3 50.75 -17.8 L50.75 -17.85 Q46.3 -19.25 41.85 -14.05 37.85 -7.9 36.65 -6.95 L39.05 -6.75 M35.1 -6.45 L35.1 -6.6 37.5 -9.6 40.7 -13.6 43.5 -17.95 44.6 -18.4 46.55 -18.65 46.55 -18.7 47.4 -18.7 51.6 -19.25 52.5 -19.2 52.6 -18.55 50.75 -15.2 48.4 -11.5 Q47.45 -8.9 46.45 -7.85 45.3 -6.5 43.05 -6.05 L39.45 -1.8 Q37.9 -2.45 35.2 -6.2 L35.15 -6.3 34.8 -6.75 35.1 -6.45 M35.75 -5.9 L35.95 -5.95 36.05 -5.95 35.55 -6.1 35.75 -5.9 M41.3 -5.8 L41.3 -5.65 41.55 -5.8 41.3 -5.8" fill="#a36a6a" fill-rule="evenodd" stroke="none"/>
    <path d="M-14.05 -30.05 Q-15.9 -27.1 -19.25 -19.75 L-20.8 -16.25 -26.55 -2.4 -28.35 -0.05 -28.3 0.2 -28.45 0.25 -47.0 0.3 -48.65 0.3 -53.1 0.35 -33.5 -30.05 -14.05 -30.05 M-23.35 0.25 L-23.3 0.2 -23.3 0.25 -23.35 0.25 M36.55 13.35 L25.55 0.5 26.6 -1.15 46.05 -29.6 55.4 -19.2 36.7 13.55 36.55 13.35 M41.3 -5.8 L41.55 -5.8 41.3 -5.65 41.3 -5.8 M35.75 -5.9 L35.55 -6.1 36.05 -5.95 35.95 -5.95 35.75 -5.9 M35.1 -6.45 L34.8 -6.75 35.15 -6.3 35.2 -6.2 Q37.9 -2.45 39.45 -1.8 L43.05 -6.05 Q45.3 -6.5 46.45 -7.85 47.45 -8.9 48.4 -11.5 L50.75 -15.2 52.6 -18.55 52.5 -19.2 51.6 -19.25 47.4 -18.7 46.55 -18.7 46.55 -18.65 44.6 -18.4 43.5 -17.95 40.7 -13.6 37.5 -9.6 35.1 -6.6 35.1 -6.45" fill="#ffffff" fill-rule="evenodd" stroke="none"/>
    <path d="M-43.35 -5.05 L-41.75 -7.55 M-46.55 -0.05 L-44.95 -2.55 M-29.85 -26.25 L-28.25 -28.85 M-30.75 -16.25 L-33.75 -16.25 M-39.25 -16.25 L-36.25 -16.25 -34.65 -18.75 M-33.05 -21.25 L-31.45 -23.75 M-40.15 -10.05 L-38.55 -12.55 M-36.95 -15.15 L-36.25 -16.25 M-24.75 -16.25 L-27.75 -16.25 M-18.75 -16.25 L-21.75 -16.25 M-47.0 6.5 L-47.0 3.5 M-47.0 12.5 L-47.0 9.5" fill="none" stroke="#3b0101" stroke-linecap="round" stroke-linejoin="round" stroke-opacity="0.4" stroke-width="1.0"/>
    <path d="M56.65 -3.05 L36.35 31.05 36.35 13.7 56.65 -20.4 56.65 -3.05" fill="#ffffff" fill-rule="evenodd" stroke="none"/>
    <path d="M56.65 -3.05 L36.35 31.05 36.35 13.7 56.65 -20.4 56.65 -3.05 Z" fill="none" stroke="#3b0101" stroke-linecap="round" stroke-linejoin="round" stroke-opacity="0.4" stroke-width="1.0"/>
  </g>
</svg>
