<?xml version="1.0" encoding="UTF-8" standalone="no"?>
<svg xmlns:ffdec="https://www.free-decompiler.com/flash" xmlns:xlink="http://www.w3.org/1999/xlink" ffdec:objectType="shape" height="65.35px" width="47.6px" xmlns="http://www.w3.org/2000/svg">
  <g transform="matrix(1.0, 0.0, 0.0, 1.0, 23.8, 32.7)">
    <path d="M0.3 -32.7 L1.0 -32.55 1.0 -32.6 1.45 -32.05 23.75 23.75 23.8 24.0 23.75 24.05 Q23.4 24.35 23.2 24.85 L23.0 25.45 22.8 26.05 22.5 26.5 19.05 32.15 18.5 32.6 17.8 32.55 17.75 32.55 17.25 32.0 15.25 26.85 -22.8 26.85 Q-23.2 26.85 -23.5 26.55 L-23.8 25.85 -23.8 -31.3 -23.5 -32.0 Q-23.2 -32.3 -22.8 -32.3 L-0.3 -32.3 Q-0.1 -32.6 0.3 -32.65 L0.3 -32.7" fill="#a36a6a" fill-rule="evenodd" stroke="none"/>
    <path d="M0.2 -30.4 L0.5 -30.8 22.8 25.0 18.2 32.55 15.95 26.75 14.7 23.5 -3.45 -22.5 -4.15 -24.3 -4.55 -24.3 -4.75 -24.5 0.2 -30.4" fill="#ffffff" fill-rule="evenodd" stroke="none"/>
    <path d="M0.0 -30.4 L0.2 -30.4 -4.75 -24.5 0.0 -30.4 M15.95 26.75 L15.65 26.75 14.7 23.5 15.95 26.75 M14.15 26.75 L-22.8 26.75 -22.8 -30.4 -1.25 -30.4 -6.0 -25.0 14.15 26.75 M-4.55 -24.3 L-4.15 -24.3 -3.45 -22.5 -4.55 -24.3" fill="#cca9a9" fill-rule="evenodd" stroke="none"/>
    <path d="M15.65 26.75 L15.4 27.75 14.15 26.75 -6.0 -25.0 -1.25 -30.4 -0.2 -31.45 0.0 -30.4 -4.75 -24.5 -4.55 -24.3 -3.45 -22.5 14.7 23.5 15.65 26.75" fill="#a36a6a" fill-rule="evenodd" stroke="none"/>
    <path d="M23.5 26.45 L23.6 26.75 23.3 26.75 23.5 26.45" fill="#e0cbcb" fill-rule="evenodd" stroke="none"/>
  </g>
</svg>
