<?xml version="1.0" encoding="UTF-8" standalone="no"?>
<svg xmlns:ffdec="https://www.free-decompiler.com/flash" xmlns:xlink="http://www.w3.org/1999/xlink" ffdec:objectType="shape" height="110.85px" width="90.0px" xmlns="http://www.w3.org/2000/svg">
  <g transform="matrix(1.0, 0.0, 0.0, 1.0, 45.0, 55.45)">
    <path d="M27.35 -55.4 L27.45 -55.4 30.8 -54.8 30.85 -54.75 Q32.45 -54.0 33.95 -53.35 L33.95 -53.3 37.4 -51.2 37.45 -51.2 Q40.0 -49.4 41.85 -47.35 L42.95 -46.15 Q44.2 -44.7 44.7 -43.05 L44.7 -43.0 44.95 -41.05 45.0 -40.45 45.0 -40.35 44.95 -40.1 44.85 -39.9 -14.3 43.6 -14.35 43.65 -14.75 43.9 -14.95 43.95 -15.2 43.95 -15.7 43.8 -34.5 30.4 -35.05 29.9 -35.05 29.55 -34.85 29.1 -34.85 29.0 22.75 -52.1 23.4 -53.25 23.45 -53.35 Q24.4 -54.95 26.1 -55.25 L26.15 -55.25 27.35 -55.4" fill="#a36a6a" fill-rule="evenodd" stroke="none"/>
    <path d="M-24.45 36.55 L-34.15 29.7 23.45 -51.5 Q23.6 -52.2 24.15 -52.7 L25.1 -53.8 Q26.75 -55.0 30.35 -53.85 L30.3 -53.85 Q33.35 -52.9 36.8 -50.45 40.25 -48.0 42.15 -45.45 L42.1 -45.5 Q44.45 -42.45 43.9 -40.5 L44.0 -40.45 42.85 -38.9 Q42.3 -38.15 40.3 -37.95 38.15 -37.65 36.25 -38.6 34.3 -39.45 33.05 -40.25 L31.15 -41.75 Q30.85 -42.05 29.45 -39.9 L3.6 -3.45 -22.6 33.75 -24.45 36.55" fill="#ffffff" fill-rule="evenodd" stroke="none"/>
    <path d="M-24.45 36.55 L-22.6 33.75 3.6 -3.45 29.45 -39.9 Q30.85 -42.05 31.15 -41.75 L33.05 -40.25 Q34.3 -39.45 36.25 -38.6 38.15 -37.65 40.3 -37.95 42.3 -38.15 42.85 -38.9 L-15.25 43.05 -24.45 36.55" fill="#e0cbcb" fill-rule="evenodd" stroke="none"/>
    <path d="M29.65 -51.5 Q32.35 -50.7 35.45 -48.5 38.55 -46.3 40.2 -44.05 41.9 -41.75 41.15 -40.75 L37.75 -40.6 Q35.1 -41.4 32.0 -43.6 28.9 -45.8 27.2 -48.05 25.55 -50.35 26.25 -51.35 L29.65 -51.5" fill="#a36a6a" fill-rule="evenodd" stroke="none"/>
    <path d="M-12.6 -7.95 L-12.55 -8.0 -12.45 -7.95 Q-11.05 -9.05 -8.55 -8.85 L-8.5 -8.85 -7.8 -8.55 -7.85 -8.55 -7.6 -8.0 -7.75 -7.25 -7.75 -7.3 -8.9 -5.75 -9.6 -4.65 -9.6 -4.4 Q-9.45 -4.2 -9.45 -3.85 -9.4 -3.55 -9.6 -3.2 -9.9 -2.35 -8.4 -0.35 -6.4 2.4 -2.6 5.0 L-2.45 5.2 Q1.2 7.65 4.25 8.65 L7.55 8.85 7.55 8.8 8.05 8.4 Q8.9 8.15 10.65 5.85 L11.25 5.5 12.0 5.65 11.95 5.65 Q12.25 5.75 12.4 6.05 13.2 7.9 12.95 9.5 L12.95 9.65 12.8 10.35 -18.75 54.95 -19.55 54.7 Q-20.45 54.5 -23.0 54.65 L-28.8 54.1 Q-30.15 53.8 -34.95 49.25 L-40.1 44.1 -43.25 40.75 -44.7 39.15 -45.0 37.8 -14.95 -4.6 Q-14.6 -5.6 -13.85 -6.35 L-12.6 -7.95" fill="#a36a6a" fill-rule="evenodd" stroke="none"/>
    <path d="M-36.0 52.5 Q-38.05 50.95 -39.45 48.9 -41.7 43.9 -42.55 42.5 -43.55 40.45 -44.45 38.95 L-13.55 -4.65 -12.6 -6.1 -11.5 -7.6 Q-10.25 -8.45 -8.15 -8.3 L-9.25 -6.8 Q-10.1 -5.8 -10.2 -5.25 L-10.25 -4.65 -10.05 -4.25 Q-10.85 -3.0 -8.85 -0.2 -6.75 2.65 -2.8 5.45 1.1 8.25 4.45 9.25 7.85 10.25 8.85 8.95 9.85 8.65 11.9 6.05 12.6 7.85 12.25 9.2 L12.35 9.3 10.95 11.3 Q10.2 12.25 7.75 12.4 5.0 12.8 2.6 11.7 0.2 10.55 -1.3 9.6 L-3.85 7.7 Q-4.2 7.35 -6.0 10.05 L-36.0 52.5" fill="#ffffff" fill-rule="evenodd" stroke="none"/>
    <path d="M-36.0 52.5 L-6.0 10.05 Q-4.2 7.35 -3.85 7.7 L-1.3 9.6 Q0.2 10.55 2.6 11.7 5.0 12.8 7.75 12.4 10.2 12.25 10.95 11.3 L-18.95 53.45 -19.1 53.55 Q-24.7 56.25 -29.95 55.05 -33.5 54.2 -36.0 52.5" fill="#e0cbcb" fill-rule="evenodd" stroke="none"/>
  </g>
</svg>
