<?xml version="1.0" encoding="UTF-8" standalone="no"?>
<svg xmlns:ffdec="https://www.free-decompiler.com/flash" xmlns:xlink="http://www.w3.org/1999/xlink" ffdec:objectType="shape" height="12.35px" width="13.3px" xmlns="http://www.w3.org/2000/svg">
  <g transform="matrix(1.0, 0.0, 0.0, 1.0, 7.4, 5.5)">
    <path d="M-2.85 -1.8 L-3.3 -1.15 Q-4.4 0.5 -4.8 1.95 L-7.05 1.4 Q-6.6 -0.35 -5.35 -2.2 L-5.25 -2.3 -2.85 -1.8" fill="#4d4d4d" fill-rule="evenodd" stroke="none"/>
    <path d="M5.85 -2.9 Q4.55 -4.6 1.5 -4.55 -1.05 -4.15 -2.85 -1.8 L-5.25 -2.3 Q-3.1 -5.5 0.45 -5.5 3.5 -5.3 4.4 -4.45 L5.9 -2.9 5.85 -2.9" fill="#666666" fill-rule="evenodd" stroke="none"/>
    <path d="M5.85 -2.9 L5.35 -2.9 Q4.1 -4.0 1.8 -3.95 -0.4 -3.6 -2.0 -1.65 L-3.05 -0.3 Q-3.7 0.6 -4.35 3.1 -5.05 5.5 -4.75 6.85 L-7.35 5.85 -7.4 3.9 Q-7.45 2.7 -7.05 1.4 L-4.8 1.95 Q-4.4 0.5 -3.3 -1.15 L-2.85 -1.8 Q-1.05 -4.15 1.5 -4.55 4.55 -4.6 5.85 -2.9" fill="#333333" fill-rule="evenodd" stroke="none"/>
  </g>
</svg>
