<?xml version="1.0" encoding="UTF-8" standalone="no"?>
<svg xmlns:ffdec="https://www.free-decompiler.com/flash" xmlns:xlink="http://www.w3.org/1999/xlink" ffdec:objectType="shape" height="24.35px" width="33.35px" xmlns="http://www.w3.org/2000/svg">
  <g transform="matrix(1.0, 0.0, 0.0, 1.0, 20.1, 10.75)">
    <path d="M5.15 -7.4 L4.95 -6.8 4.8 -6.4 4.6 -6.35 Q4.1 -6.35 4.1 -7.2 L3.2 -7.25 3.15 -7.55 3.25 -7.7 3.0 -7.7 Q2.5 -7.7 2.25 -7.95 2.4 -8.4 4.2 -8.7 L6.75 -9.35 7.6 -10.45 Q8.25 -11.2 8.25 -10.15 8.25 -9.2 7.2 -8.55 L5.3 -7.85 5.15 -7.4 M11.5 1.4 Q11.5 0.5 12.4 0.2 13.25 -0.1 13.25 0.75 L12.8 1.65 13.2 2.1 Q13.2 2.65 12.75 2.65 11.5 2.65 11.5 1.4 M0.05 4.1 Q-0.25 4.3 -0.2 4.85 L-0.05 5.55 Q-0.05 6.05 -0.4 6.05 L-0.75 5.95 -0.95 4.4 Q-0.95 4.05 0.1 3.4 1.15 2.7 1.85 2.7 2.35 2.7 2.65 3.0 L1.4 3.65 0.05 4.1 M-16.9 -1.25 L-15.9 -0.7 -15.9 -0.45 -16.2 -0.4 Q-17.5 -0.4 -17.95 -1.15 L-18.1 -1.95 Q-18.1 -2.9 -17.65 -2.95 -17.25 -3.05 -17.25 -1.75 -17.25 -1.35 -16.9 -1.25 M-9.55 -6.85 Q-7.8 -7.0 -5.35 -5.2 L-5.1 -5.4 -4.8 -5.65 -3.8 -5.2 -3.1 -4.75 -3.85 -3.95 -5.05 -3.2 -5.05 -2.6 Q-5.15 -2.1 -5.6 -2.1 -6.3 -2.1 -6.25 -3.05 -6.2 -4.25 -6.65 -4.6 L-8.4 -5.5 Q-9.6 -6.1 -9.6 -6.55 L-9.55 -6.85 M-1.1 -4.8 L-1.25 -4.7 Q-1.3 -4.6 -1.45 -4.6 L-2.0 -5.15 Q-2.0 -5.7 -1.4 -5.75 L-0.15 -5.65 0.45 -5.4 Q0.1 -4.7 -0.25 -4.65 L-1.1 -4.8 M-2.95 4.6 Q-2.95 3.6 -2.6 3.3 L-0.1 1.85 0.1 2.1 Q0.1 2.5 -0.95 3.35 -2.05 4.2 -2.2 5.35 L-2.55 5.5 Q-2.95 5.5 -2.95 4.6 M-17.15 2.25 L-16.9 3.35 -17.1 3.85 -16.85 4.4 -16.65 5.05 Q-16.65 5.6 -16.9 5.6 -17.95 5.6 -18.0 3.6 -17.8 1.7 -17.5 1.4 L-17.15 2.25 M-15.8 5.1 L-14.55 5.2 Q-13.45 5.2 -13.45 6.2 L-13.75 6.4 -14.4 6.15 Q-15.0 6.15 -15.6 6.6 -16.0 6.6 -16.0 6.1 -16.0 5.15 -15.8 5.1 M-20.1 10.6 Q-20.1 9.9 -19.35 10.25 L-18.1 10.75 Q-17.9 10.75 -17.35 11.1 L-16.8 11.5 -16.85 11.05 Q-16.75 10.75 -16.4 10.75 L-14.7 11.55 -12.6 12.55 -13.15 12.85 -13.75 12.95 -14.35 12.7 -14.55 12.8 -14.75 12.9 Q-16.0 12.9 -18.1 11.95 -20.1 11.0 -20.1 10.6 M-11.5 12.35 L-9.5 12.7 -9.45 12.9 -9.65 13.3 -10.05 13.6 -10.9 13.4 Q-11.35 13.4 -11.9 12.9 L-12.5 12.1 -11.5 12.35 M-12.8 11.85 L-12.35 12.4 -12.45 12.5 -12.95 12.1 -12.95 11.85 -12.8 11.85 M-8.1 12.7 L-8.05 12.85 Q-8.05 13.15 -8.65 13.15 L-9.1 13.1 -9.15 12.85 Q-9.15 12.55 -8.55 12.55 -8.25 12.55 -8.1 12.7" fill="#999999" fill-rule="evenodd" stroke="none"/>
  </g>
</svg>
