<?xml version="1.0" encoding="UTF-8" standalone="no"?>
<svg xmlns:ffdec="https://www.free-decompiler.com/flash" xmlns:xlink="http://www.w3.org/1999/xlink" ffdec:objectType="shape" height="9.1px" width="14.25px" xmlns="http://www.w3.org/2000/svg">
  <g transform="matrix(1.0, 0.0, 0.0, 1.0, 7.15, 4.55)">
    <path d="M2.35 -3.45 L2.3 -3.45 Q1.2 -3.45 0.4 -2.65 -0.4 -1.9 -0.4 -0.75 L-0.4 -0.6 Q-0.35 0.4 0.4 1.15 1.2 1.95 2.3 1.95 L2.35 1.95 Q3.45 1.95 4.25 1.15 4.95 0.4 5.0 -0.6 L5.0 -0.75 Q5.0 -1.9 4.25 -2.65 3.45 -3.45 2.35 -3.45 M-4.15 0.0 L-7.15 -4.55 6.15 -4.55 7.1 2.5 -1.2 4.55 -3.6 0.85 -3.2 0.85 -1.6 0.75 Q-1.25 0.65 -1.25 0.4 -1.25 0.0 -2.95 -0.05 L-4.15 0.0 M-5.55 -2.2 L-5.25 -1.8 Q-4.8 -1.5 -4.0 -1.5 L-2.15 -1.6 Q-1.75 -1.7 -1.75 -1.95 -1.75 -2.2 -2.45 -2.4 L-4.8 -2.65 Q-5.55 -2.65 -5.55 -2.2" fill="#333333" fill-rule="evenodd" stroke="none"/>
    <path d="M2.35 -3.45 Q3.45 -3.45 4.25 -2.65 5.0 -1.9 5.0 -0.75 L5.0 -0.6 Q4.95 0.4 4.25 1.15 3.45 1.95 2.35 1.95 L2.3 1.95 Q1.2 1.95 0.4 1.15 -0.35 0.4 -0.4 -0.6 L-0.4 -0.75 Q-0.4 -1.9 0.4 -2.65 1.2 -3.45 2.3 -3.45 L2.35 -3.45 M3.9 -0.65 L3.9 -0.75 Q3.9 -1.45 3.45 -1.9 3.0 -2.35 2.35 -2.35 L2.3 -2.35 Q1.65 -2.35 1.15 -1.9 0.7 -1.45 0.7 -0.75 L0.7 -0.65 Q0.75 -0.05 1.15 0.4 1.65 0.85 2.3 0.85 L2.35 0.85 Q3.0 0.85 3.45 0.4 3.85 -0.05 3.9 -0.65" fill="#cccccc" fill-rule="evenodd" stroke="none"/>
    <path d="M3.9 -0.65 Q3.85 -0.05 3.45 0.4 3.0 0.85 2.35 0.85 L2.3 0.85 Q1.65 0.85 1.15 0.4 0.75 -0.05 0.7 -0.65 L0.7 -0.75 Q0.7 -1.45 1.15 -1.9 1.65 -2.35 2.3 -2.35 L2.35 -2.35 Q3.0 -2.35 3.45 -1.9 3.9 -1.45 3.9 -0.75 L3.9 -0.65 M-3.6 0.85 L-4.15 0.0 -2.95 -0.05 Q-1.25 0.0 -1.25 0.4 -1.25 0.65 -1.6 0.75 L-3.2 0.85 -3.6 0.85 M-5.55 -2.2 Q-5.55 -2.65 -4.8 -2.65 L-2.45 -2.4 Q-1.75 -2.2 -1.75 -1.95 -1.75 -1.7 -2.15 -1.6 L-4.0 -1.5 Q-4.8 -1.5 -5.25 -1.8 L-5.55 -2.2" fill="#666666" fill-rule="evenodd" stroke="none"/>
  </g>
</svg>
