<?xml version="1.0" encoding="UTF-8" standalone="no"?>
<svg xmlns:ffdec="https://www.free-decompiler.com/flash" xmlns:xlink="http://www.w3.org/1999/xlink" ffdec:objectType="shape" height="6.95px" width="9.9px" xmlns="http://www.w3.org/2000/svg">
  <g transform="matrix(1.0, 0.0, 0.0, 1.0, 4.95, 3.5)">
    <path d="M-1.25 -2.55 Q1.5 -4.05 4.55 -3.15 L4.75 -3.05 4.8 -3.0 4.95 -2.75 4.95 -2.5 4.4 -0.6 4.2 -0.3 3.85 -0.25 3.6 -0.35 Q1.85 -0.8 0.3 0.2 L0.1 0.25 Q-1.45 1.15 -1.95 2.9 L-2.0 3.0 -2.1 3.25 -2.3 3.45 -2.6 3.45 -4.55 2.9 -4.85 2.7 -4.95 2.4 -4.85 2.0 Q-4.0 -1.0 -1.25 -2.5 L-1.25 -2.55" fill="#a36a6a" fill-rule="evenodd" stroke="none"/>
    <path d="M3.9 -0.75 L3.85 -0.8 Q1.85 -1.35 0.05 -0.25 L0.0 -0.3 Q-1.85 0.7 -2.45 2.75 L-2.5 2.95 -4.45 2.4 -4.4 2.2 Q-3.6 -0.65 -1.0 -2.1 1.55 -3.5 4.4 -2.7 L4.45 -2.65 3.9 -0.75" fill="#ffffff" fill-rule="evenodd" stroke="none"/>
  </g>
</svg>
