<?xml version="1.0" encoding="UTF-8" standalone="no"?>
<svg xmlns:ffdec="https://www.free-decompiler.com/flash" xmlns:xlink="http://www.w3.org/1999/xlink" ffdec:objectType="shape" height="14.05px" width="14.25px" xmlns="http://www.w3.org/2000/svg">
  <g transform="matrix(1.0, 0.0, 0.0, 1.0, 7.8, 6.7)">
    <path d="M0.0 -6.7 Q3.3 -6.7 5.7 -4.2 L6.45 -3.45 Q6.0 -1.6 1.55 -2.3 -2.95 -3.05 -1.9 1.55 L-0.45 3.25 -1.45 7.35 -2.5 7.35 -2.35 6.35 Q-2.4 5.9 -2.75 5.1 -3.15 4.25 -4.2 4.2 -5.25 4.15 -5.75 4.7 -6.3 5.25 -6.3 6.0 -7.85 4.5 -7.8 1.15 -7.8 -2.25 -5.55 -4.5 -3.3 -6.75 0.0 -6.7" fill="#000000" fill-rule="evenodd" stroke="none"/>
  </g>
</svg>
