<?xml version="1.0" encoding="UTF-8" standalone="no"?>
<svg xmlns:ffdec="https://www.free-decompiler.com/flash" xmlns:xlink="http://www.w3.org/1999/xlink" ffdec:objectType="shape" height="9.2px" width="12.85px" xmlns="http://www.w3.org/2000/svg">
  <g transform="matrix(1.0, 0.0, 0.0, 1.0, 6.4, 4.6)">
    <path d="M6.0 -2.5 L6.25 -1.85 6.45 -0.25 6.4 1.15 6.4 1.1 5.7 2.7 5.7 2.75 Q5.35 3.3 4.15 3.8 2.05 4.6 -1.75 4.6 -5.7 4.6 -6.25 2.55 L-6.3 2.4 -6.4 1.9 -6.4 1.75 -6.4 1.65 -6.4 1.55 -6.4 1.5 Q-6.35 -0.75 -2.35 -2.85 0.95 -4.65 2.6 -4.6 4.8 -4.6 5.85 -2.8 L5.85 -2.85 6.0 -2.5" fill="#a36a6a" fill-rule="evenodd" stroke="none"/>
    <path d="M-5.9 1.55 L-5.7 1.65 -5.1 1.95 -0.35 1.65 Q1.3 1.25 3.7 -0.1 4.4 -0.5 5.15 -1.85 L5.4 -2.55 5.55 -2.3 5.75 -1.7 5.95 -0.25 5.9 1.0 5.25 2.45 3.95 3.3 Q1.95 4.1 -1.75 4.1 -5.25 4.1 -5.8 2.4 L-5.75 2.35 -5.8 2.35 -5.9 1.85 -5.9 1.75 -5.9 1.65 -5.9 1.55" fill="#e0cbcb" fill-rule="evenodd" stroke="none"/>
    <path d="M5.4 -2.55 L5.15 -1.85 Q4.4 -0.5 3.7 -0.1 1.3 1.25 -0.35 1.65 L-5.1 1.95 -5.7 1.65 -5.9 1.55 Q-5.8 -0.45 -2.15 -2.4 1.05 -4.1 2.6 -4.1 4.55 -4.1 5.4 -2.55" fill="#ffffff" fill-rule="evenodd" stroke="none"/>
  </g>
</svg>
