<?xml version="1.0" encoding="UTF-8" standalone="no"?>
<svg xmlns:ffdec="https://www.free-decompiler.com/flash" xmlns:xlink="http://www.w3.org/1999/xlink" ffdec:objectType="shape" height="7.0px" width="11.95px" xmlns="http://www.w3.org/2000/svg">
  <g transform="matrix(1.0, 0.0, 0.0, 1.0, 6.0, 3.5)">
    <path d="M-5.85 -3.35 L-5.5 -3.5 5.15 -3.5 5.5 -3.35 5.65 -3.0 5.95 3.0 5.9 3.3 5.6 3.5 5.3 3.5 -5.65 -0.15 -5.9 -0.35 -6.0 -0.65 -6.0 -3.0 -5.85 -3.35" fill="#a36a6a" fill-rule="evenodd" stroke="none"/>
    <path d="M5.25 -1.45 L5.35 1.05 4.7 1.05 -0.55 1.0 -0.6 1.0 -5.5 -0.65 -5.5 -1.45 3.65 -1.5 5.25 -1.45" fill="#e0cbcb" fill-rule="evenodd" stroke="none"/>
    <path d="M-5.5 -1.45 L-5.5 -3.0 5.15 -3.0 5.25 -1.45 3.65 -1.5 -5.5 -1.45 M5.35 1.05 L5.45 3.0 -0.55 1.0 4.7 1.05 5.35 1.05" fill="#ffffff" fill-rule="evenodd" stroke="none"/>
  </g>
</svg>
