<?xml version="1.0" encoding="UTF-8" standalone="no"?>
<svg xmlns:ffdec="https://www.free-decompiler.com/flash" xmlns:xlink="http://www.w3.org/1999/xlink" ffdec:objectType="shape" height="5.2px" width="17.05px" xmlns="http://www.w3.org/2000/svg">
  <g transform="matrix(1.0, 0.0, 0.0, 1.0, 8.55, 2.6)">
    <path d="M7.4 -2.15 Q8.5 -1.15 8.5 -0.05 8.5 1.1 7.95 1.55 7.25 2.15 5.35 2.3 L3.2 2.6 -1.35 1.95 -2.05 1.7 -2.0 1.85 -5.1 1.1 Q-7.65 0.4 -8.55 -0.2 L-8.4 -0.55 -8.05 -1.25 -4.75 -0.1 -2.9 0.4 -2.85 0.5 -2.05 0.55 -0.5 1.1 3.05 1.55 4.65 1.15 5.35 1.15 Q7.45 1.15 7.45 -0.05 7.45 -0.7 6.85 -1.2 L6.6 -1.45 6.45 -2.55 Q6.7 -2.75 7.4 -2.15" fill="#999999" fill-rule="evenodd" stroke="none"/>
  </g>
</svg>
