<?xml version="1.0" encoding="UTF-8" standalone="no"?>
<svg xmlns:ffdec="https://www.free-decompiler.com/flash" xmlns:xlink="http://www.w3.org/1999/xlink" ffdec:objectType="shape" height="15.05px" width="17.15px" xmlns="http://www.w3.org/2000/svg">
  <g transform="matrix(1.0, 0.0, 0.0, 1.0, 8.55, 7.55)">
    <path d="M-4.25 7.0 L-4.0 7.4 -3.9 7.5 -3.95 7.5 -4.25 7.0" fill="#6d4723" fill-rule="evenodd" stroke="none"/>
    <path d="M8.6 -2.4 Q8.6 -1.15 7.7 0.55 L7.45 0.05 7.1 -0.75 5.55 0.4 5.15 0.2 4.55 0.8 4.05 0.55 3.6 0.7 2.0 0.25 1.35 0.95 1.25 0.25 1.35 -0.35 0.95 0.25 -0.05 0.45 -0.6 1.15 -1.15 1.15 -1.4 1.55 -1.95 1.45 -2.45 2.4 -4.1 2.3 -3.7 1.35 -3.65 1.3 -3.25 0.35 -2.65 -0.75 Q-1.0 0.45 -0.55 -1.35 L-0.5 -0.7 -0.5 -0.5 -0.05 -0.35 1.0 -1.0 1.95 -1.6 2.25 -0.75 3.05 -1.0 3.65 -0.65 4.15 -1.1 4.95 -1.4 5.25 -1.3 5.85 -1.6 6.2 -1.45 6.5 -1.75 Q6.75 -2.1 7.2 -2.1 L7.8 -2.35 8.2 -2.15 8.55 -2.4 8.6 -2.4" fill="#e0cbcb" fill-rule="evenodd" stroke="none"/>
    <path d="M-8.5 0.4 L-8.5 0.35 -8.55 -2.6 -8.15 -2.2 -8.0 -2.95 Q-7.95 -3.2 -7.85 -3.05 L-7.4 -2.95 -6.6 -4.7 -6.1 -4.95 -6.0 -3.65 -4.5 -6.65 -3.5 -6.1 -2.45 -7.1 -2.3 -6.45 -1.1 -6.9 -1.05 -6.65 -1.0 -6.35 -0.95 -6.35 -0.2 -6.9 0.45 -7.5 1.55 -6.55 1.9 -7.35 2.55 -6.9 3.0 -7.55 3.4 -6.7 4.3 -6.55 4.05 -5.75 4.85 -5.95 5.25 -5.55 6.25 -5.65 Q6.2 -5.0 7.2 -5.0 L8.05 -4.7 7.95 -4.05 8.35 -3.7 8.6 -2.4 8.55 -2.4 8.2 -2.15 7.8 -2.35 7.2 -2.1 Q6.75 -2.1 6.5 -1.75 L6.2 -1.45 5.85 -1.6 5.25 -1.3 4.95 -1.4 4.15 -1.1 3.65 -0.65 3.05 -1.0 2.25 -0.75 1.95 -1.6 1.0 -1.0 -0.05 -0.35 -0.5 -0.5 -0.5 -0.7 -0.55 -1.35 Q-1.0 0.45 -2.65 -0.75 L-3.25 0.35 -3.65 1.3 -3.7 1.35 -4.1 2.3 -4.1 2.35 -4.65 2.25 Q-4.65 1.85 -5.0 1.5 -5.4 1.1 -5.9 1.15 -5.9 0.5 -6.5 0.5 L-6.95 0.7 -7.2 0.5 -7.5 0.4 Q-7.75 0.4 -8.1 0.75 -8.2 0.45 -8.5 0.4" fill="#f2eaea" fill-rule="evenodd" stroke="none"/>
    <path d="M-2.45 2.4 L-2.7 2.85 -2.3 2.6 Q-2.05 2.75 -1.85 2.85 L-1.9 3.35 -2.25 3.8 Q-2.05 5.6 -3.0 7.25 -3.05 6.85 -3.6 6.2 -4.55 5.1 -5.35 5.4 L-6.15 5.75 -6.35 6.95 -6.35 6.85 Q-7.15 6.95 -7.75 4.35 -8.55 1.7 -8.5 0.4 -8.2 0.45 -8.1 0.75 -7.75 0.4 -7.5 0.4 L-7.2 0.5 -6.95 0.7 -6.5 0.5 Q-5.9 0.5 -5.9 1.15 -5.4 1.1 -5.0 1.5 -4.65 1.85 -4.65 2.25 L-4.1 2.35 -4.1 2.3 -2.45 2.4" fill="#e0cbcb" fill-opacity="0.49803922" fill-rule="evenodd" stroke="none"/>
  </g>
</svg>
