<?xml version="1.0" encoding="UTF-8" standalone="no"?>
<svg xmlns:ffdec="https://www.free-decompiler.com/flash" xmlns:xlink="http://www.w3.org/1999/xlink" ffdec:objectType="shape" height="14.2px" width="19.1px" xmlns="http://www.w3.org/2000/svg">
  <g transform="matrix(1.0, 0.0, 0.0, 1.0, 9.65, 7.15)">
    <path d="M2.55 -0.35 L2.05 -0.85 3.85 -0.75 5.0 0.05 5.3 0.8 Q5.2 1.1 4.2 0.4 L4.1 0.35 2.75 -0.3 2.55 -0.35 M5.2 -0.75 Q4.6 -1.1 4.6 -1.4 4.6 -2.3 6.55 -1.15 L8.35 0.15 7.6 0.0 5.9 -0.45 5.85 -0.5 5.2 -0.75 M7.75 -1.6 L6.9 -2.35 Q6.9 -3.0 8.4 -2.15 L9.45 -1.4 9.45 -0.45 9.35 -0.55 9.2 -0.65 8.1 -1.45 7.75 -1.6 M-8.6 -0.4 L-8.5 -0.05 -8.5 0.35 -8.2 1.3 -7.05 1.3 -6.25 1.15 -4.45 1.5 Q-4.05 1.5 -3.8 1.0 L-3.4 0.2 -2.55 -0.45 -1.4 -0.9 -0.1 -0.9 2.05 0.1 2.5 0.4 2.55 0.4 2.7 0.9 2.75 1.05 2.75 1.1 1.6 0.8 1.55 0.75 1.5 0.75 0.4 0.2 0.2 0.15 -2.05 0.3 -2.1 0.35 -2.25 0.4 Q-3.05 1.85 -2.55 3.4 -2.05 4.85 -2.15 6.35 L-3.35 6.6 Q-3.4 5.5 -3.7 5.1 L-4.35 4.45 Q-4.7 4.2 -5.15 4.25 -5.65 4.25 -5.95 4.9 -6.35 5.5 -6.35 6.05 L-6.1 7.0 Q-6.75 7.2 -7.5 6.3 -8.25 5.5 -8.55 4.4 L-8.9 1.4 -8.9 1.2 -8.7 -0.1 -8.6 -0.4" fill="#e0cbcb" fill-rule="evenodd" stroke="none"/>
    <path d="M5.0 0.05 L3.85 -0.75 2.05 -0.85 2.55 -0.35 1.8 -0.6 2.5 0.4 2.05 0.1 -0.1 -0.9 -1.4 -0.9 -2.55 -0.45 -3.4 0.2 -3.8 1.0 Q-4.05 1.5 -4.45 1.5 L-6.25 1.15 -7.05 1.3 -8.2 1.3 -8.5 0.35 -8.5 -0.05 -8.6 -0.4 -8.25 -1.65 -9.65 -1.95 -7.0 -3.9 -6.7 -4.0 Q-6.65 -5.15 -6.9 -6.25 -7.2 -7.4 -6.95 -7.1 L-6.3 -6.35 -5.55 -5.1 Q-2.75 -6.95 0.55 -6.75 L5.3 -5.35 Q7.55 -4.5 9.05 -2.55 L9.45 -1.4 8.4 -2.15 Q6.9 -3.0 6.9 -2.35 L7.75 -1.6 7.25 -1.75 Q7.65 -0.75 8.4 0.2 L7.6 0.0 8.35 0.15 6.55 -1.15 Q4.6 -2.3 4.6 -1.4 4.6 -1.1 5.2 -0.75 L4.55 -1.05 5.0 0.05" fill="#f2eaea" fill-rule="evenodd" stroke="none"/>
  </g>
</svg>
