<?xml version="1.0" encoding="UTF-8" standalone="no"?>
<svg xmlns:ffdec="https://www.free-decompiler.com/flash" xmlns:xlink="http://www.w3.org/1999/xlink" ffdec:objectType="shape" height="16.1px" width="23.05px" xmlns="http://www.w3.org/2000/svg">
  <g transform="matrix(1.0, 0.0, 0.0, 1.0, 10.4, 12.1)">
    <path d="M3.2 -11.85 L3.55 -11.05 Q3.5 -9.85 2.65 -8.65 L1.65 -7.4 Q1.65 -7.15 1.85 -7.1 3.45 -8.4 3.9 -10.05 L3.95 -9.65 3.65 -8.3 3.35 -7.0 Q3.35 -5.8 4.55 -5.8 5.05 -5.8 5.7 -6.3 L5.8 -6.35 5.75 -6.3 5.7 -6.3 Q5.45 -5.85 5.45 -5.0 L5.45 -4.55 Q5.5 -4.1 5.85 -4.1 6.45 -4.1 7.95 -6.0 8.25 -6.35 9.3 -6.9 L10.95 -7.45 9.0 -6.0 8.15 -4.25 7.75 -3.1 7.8 -3.05 Q8.3 -3.1 8.45 -3.55 L8.6 -4.3 9.4 -5.65 10.75 -6.8 11.6 -7.15 11.5 -7.1 10.65 -6.5 Q10.15 -5.75 9.85 -4.6 L9.75 -2.7 Q9.75 -1.6 9.2 -1.05 L8.5 -0.85 Q6.95 -0.4 6.95 0.05 L7.0 0.15 7.65 0.4 Q9.9 0.5 10.6 1.05 L11.45 2.15 11.95 3.4 12.0 3.6 Q10.65 2.8 9.8 2.6 L8.4 2.45 7.7 2.5 Q6.3 2.5 5.8 1.2 L5.75 0.45 Q5.75 0.0 5.2 -0.3 4.0 -1.0 3.65 -3.2 1.25 -3.2 0.75 -4.3 0.35 -5.2 -0.5 -5.45 L-1.3 -5.35 -1.1 -5.35 -2.3 -5.15 -3.2 -4.8 -5.35 -3.7 -6.1 -2.55 Q-6.9 -1.5 -7.5 -1.5 L-7.6 -1.5 -7.95 -1.45 Q-8.7 -1.45 -9.25 -2.55 L-9.55 -3.2 -10.4 -3.75 -8.2 -4.35 -6.85 -4.35 -7.5 -5.2 Q-8.8 -6.85 -10.3 -7.2 L-10.35 -7.4 -10.3 -7.35 -8.9 -7.35 -5.1 -6.45 -4.3 -6.65 Q-3.9 -6.8 -3.9 -7.0 L-4.0 -7.65 -3.95 -7.65 -3.9 -8.3 -3.85 -8.25 Q-3.5 -7.85 -2.8 -7.85 -2.0 -7.85 -1.7 -8.5 L-0.95 -10.05 Q-0.2 -11.05 1.25 -11.65 L0.85 -11.05 Q0.5 -10.25 0.5 -9.45 L0.7 -7.95 2.1 -9.15 3.25 -10.55 3.2 -11.85" fill="#e0cbcb" fill-rule="evenodd" stroke="none"/>
    <path d="M3.2 -11.85 L3.2 -12.1 3.75 -11.85 Q4.5 -11.25 5.5 -9.4 L5.75 -7.95 5.7 -6.8 5.7 -6.5 5.7 -6.4 5.75 -6.4 5.85 -6.5 6.8 -7.1 Q8.5 -8.1 10.65 -8.1 L11.95 -7.9 12.3 -7.8 12.1 -7.5 12.0 -7.4 11.65 -7.2 11.6 -7.15 10.75 -6.8 9.4 -5.65 8.6 -4.3 8.45 -3.55 Q8.3 -3.1 7.8 -3.05 L7.75 -3.1 8.15 -4.25 9.0 -6.0 10.95 -7.45 9.3 -6.9 Q8.25 -6.35 7.95 -6.0 6.45 -4.1 5.85 -4.1 5.5 -4.1 5.45 -4.55 L5.45 -5.0 Q5.45 -5.85 5.7 -6.3 L5.75 -6.3 5.8 -6.35 5.7 -6.3 Q5.05 -5.8 4.55 -5.8 3.35 -5.8 3.35 -7.0 L3.65 -8.3 3.95 -9.65 3.9 -10.05 Q3.45 -8.4 1.85 -7.1 1.65 -7.15 1.65 -7.4 L2.65 -8.65 Q3.5 -9.85 3.55 -11.05 L3.2 -11.85 M9.2 -1.05 L9.15 -1.0 9.05 -0.95 9.15 -0.95 9.4 -0.95 10.05 -0.85 Q10.9 -0.6 11.55 0.3 12.4 1.5 12.65 3.6 L12.65 4.0 12.0 3.6 11.95 3.4 11.45 2.15 10.6 1.05 Q9.9 0.5 7.65 0.4 L7.0 0.15 6.95 0.05 Q6.95 -0.4 8.5 -0.85 L9.2 -1.05 M-10.35 -7.4 L-9.4 -7.75 Q-6.6 -8.75 -5.55 -8.35 L-4.3 -7.85 -4.0 -7.7 -4.0 -7.65 -3.9 -7.0 Q-3.9 -6.8 -4.3 -6.65 L-5.1 -6.45 -8.9 -7.35 -10.3 -7.35 -10.35 -7.4 M-3.9 -8.3 L-3.85 -8.45 Q-3.75 -9.25 -3.25 -9.95 -2.15 -11.55 0.65 -12.05 L1.25 -12.05 1.3 -11.8 1.3 -11.75 1.25 -11.65 Q-0.2 -11.05 -0.95 -10.05 L-1.7 -8.5 Q-2.0 -7.85 -2.8 -7.85 -3.5 -7.85 -3.85 -8.25 L-3.9 -8.3" fill="#f2eaea" fill-rule="evenodd" stroke="none"/>
  </g>
</svg>
