<?xml version="1.0" encoding="UTF-8" standalone="no"?>
<svg xmlns:ffdec="https://www.free-decompiler.com/flash" xmlns:xlink="http://www.w3.org/1999/xlink" ffdec:objectType="shape" height="12.95px" width="15.1px" xmlns="http://www.w3.org/2000/svg">
  <g transform="matrix(1.0, 0.0, 0.0, 1.0, 7.95, 6.65)">
    <path d="M2.8 -0.95 L1.6 -1.1 Q-0.35 -1.1 -1.15 0.6 -1.6 1.55 -1.6 2.6 L-1.25 3.5 -0.95 4.65 Q-0.95 6.05 -2.35 6.05 -3.05 6.05 -3.35 5.0 -3.65 3.9 -4.6 3.9 -5.15 3.9 -5.45 4.55 L-5.65 5.3 -5.55 5.8 Q-5.55 6.3 -6.6 6.3 -7.6 6.3 -7.85 5.55 L-7.95 4.65 -7.85 2.9 Q-8.0 1.2 -7.45 -0.4 L-7.3 -0.35 -7.05 -1.35 -6.6 -2.1 -6.25 -2.8 Q-5.5 -3.4 -3.65 -3.55 L-1.6 -3.55 Q-0.8 -3.4 -0.15 -2.9 L1.0 -2.15 2.6 -1.05 2.8 -0.95 M6.9 -1.35 L6.15 -0.75 5.65 -0.75 Q6.5 -0.9 6.9 -1.35" fill="#d6d6d6" fill-opacity="0.49803922" fill-rule="evenodd" stroke="none"/>
    <path d="M-6.65 -3.7 L-6.2 -4.35 Q-3.55 -6.35 -1.2 -6.65 L0.4 -6.65 2.8 -6.1 Q4.3 -5.7 4.9 -5.05 L6.35 -3.6 7.15 -2.45 7.1 -2.45 7.0 -2.75 6.4 -2.45 3.7 -2.25 Q3.4 -2.25 1.1 -3.4 -1.25 -4.6 -2.0 -4.6 -5.35 -4.6 -6.65 -3.7" fill="#f2eaea" fill-rule="evenodd" stroke="none"/>
    <path d="M5.65 -0.75 L4.45 -0.65 Q3.35 -0.65 2.8 -0.95 L2.6 -1.05 1.0 -2.15 -0.15 -2.9 Q-0.8 -3.4 -1.6 -3.55 L-3.65 -3.55 Q-5.5 -3.4 -6.25 -2.8 L-6.6 -2.1 -7.05 -1.35 -7.3 -0.35 -7.45 -0.4 -7.8 -0.6 Q-7.8 -1.35 -7.2 -2.65 L-6.95 -3.15 -6.85 -3.35 -6.8 -3.45 -6.75 -3.6 -6.65 -3.7 Q-5.35 -4.6 -2.0 -4.6 -1.25 -4.6 1.1 -3.4 3.4 -2.25 3.7 -2.25 L6.4 -2.45 7.0 -2.75 7.1 -2.45 7.15 -2.45 7.15 -2.2 7.15 -1.9 6.9 -1.35 Q6.5 -0.9 5.65 -0.75" fill="#e0cbcb" fill-rule="evenodd" stroke="none"/>
  </g>
</svg>
