<?xml version="1.0" encoding="UTF-8" standalone="no"?>
<svg xmlns:ffdec="https://www.free-decompiler.com/flash" xmlns:xlink="http://www.w3.org/1999/xlink" ffdec:objectType="shape" height="14.75px" width="23.1px" xmlns="http://www.w3.org/2000/svg">
  <g transform="matrix(1.0, 0.0, 0.0, 1.0, 11.55, 7.35)">
    <path d="M-2.9 3.7 L-2.8 5.95 -3.35 6.5 Q-4.1 6.45 -4.35 5.3 -4.45 4.85 -4.8 4.5 -5.4 3.95 -6.15 4.25 -6.85 4.7 -7.0 5.6 L-7.15 6.55 -7.2 6.6 -7.55 6.4 -8.25 5.95 -8.85 5.1 -9.25 3.0 -9.35 2.5 -9.25 2.55 -9.1 0.8 -2.8 1.9 -2.8 1.95 -2.9 3.7" fill="#e0cbcb" fill-rule="evenodd" stroke="none"/>
    <path d="M-4.85 7.3 L-4.75 7.4 -4.8 7.4 -5.1 6.9 -4.85 7.3" fill="#6d4723" fill-rule="evenodd" stroke="none"/>
    <path d="M4.65 -5.95 L2.95 -5.55 2.2 -5.35 Q0.9 -4.95 0.85 -4.45 L1.0 -4.35 2.15 -4.75 2.55 -4.7 4.15 -4.8 5.0 -4.8 7.15 -4.5 Q9.6 -3.95 11.55 -2.2 L9.35 -1.65 8.5 -2.3 Q6.4 -3.8 5.0 -4.0 L7.8 -1.55 7.9 -1.45 7.95 -1.4 9.05 -0.4 9.25 -0.25 10.95 1.95 11.2 2.6 9.6 2.1 9.0 1.5 7.8 0.75 7.75 0.75 8.3 1.7 8.65 1.85 8.25 1.7 9.15 2.7 9.25 2.95 4.35 2.1 Q0.4 0.95 -0.65 -1.05 L-0.7 -1.05 -0.1 -0.15 0.4 0.7 0.9 1.5 0.2 0.7 Q1.0 3.3 3.25 4.95 0.95 4.45 -0.65 2.9 -2.75 -0.9 -2.75 0.4 L-2.5 1.4 -2.35 1.8 -2.55 1.75 Q-2.3 2.7 -2.65 3.7 L-3.1 4.75 -4.0 3.0 -4.7 3.0 Q-5.1 1.7 -5.45 1.15 L-5.6 1.2 -5.65 1.6 -5.25 3.25 -5.45 3.65 -6.15 3.75 -7.55 2.2 -7.35 2.4 -7.25 1.6 -7.35 1.1 -7.4 1.1 -7.8 2.8 -8.0 2.95 -9.15 2.85 -8.95 0.85 -10.9 1.5 -9.85 -0.45 -9.9 -0.45 -9.25 -1.35 -9.3 -1.55 -9.55 -1.55 -10.6 -0.7 -11.55 -1.0 Q-10.75 -1.85 -9.75 -2.2 L-9.0 -2.4 Q-9.1 -2.85 -10.05 -2.95 -8.8 -3.85 -7.3 -3.9 L-6.4 -4.05 -6.1 -5.95 -5.55 -5.9 -5.15 -5.15 Q-3.65 -6.5 -1.8 -7.0 L-0.9 -7.0 -1.9 -6.05 Q-2.4 -6.0 -3.55 -5.05 L-3.35 -4.95 -3.8 -4.45 -4.0 -4.0 -1.6 -5.95 -1.75 -6.0 Q-0.3 -6.75 1.4 -7.1 L5.35 -7.3 4.1 -5.95 4.65 -5.95 M-4.35 -4.45 L-5.2 -4.4 -5.05 -3.65 -6.25 -3.2 -4.95 -3.2 -4.0 -3.65 -4.35 -4.45" fill="#f2eaea" fill-rule="evenodd" stroke="none"/>
    <path d="M5.0 -4.8 L4.15 -4.8 2.55 -4.7 2.15 -4.75 1.0 -4.35 0.85 -4.45 Q0.9 -4.95 2.2 -5.35 L2.95 -5.55 4.65 -5.95 5.1 -5.95 6.05 -5.75 6.35 -5.6 5.05 -5.15 4.5 -4.95 4.35 -4.9 5.0 -4.8 M-1.75 -6.0 L-1.6 -5.95 -4.0 -4.0 -3.8 -4.45 -3.35 -4.95 -3.55 -5.05 Q-2.4 -6.0 -1.9 -6.05 L-2.15 -5.8 -1.75 -6.0 M-10.6 -0.7 L-9.55 -1.55 -9.3 -1.55 -9.25 -1.35 -9.9 -0.45 -10.25 -0.55 -10.6 -0.7 M-7.8 2.8 L-7.4 1.1 -7.35 1.1 -7.25 1.6 -7.35 2.4 -7.55 2.2 -7.65 2.65 -7.8 2.8 M-5.25 3.25 L-5.65 1.6 -5.6 1.2 -5.45 1.15 Q-5.1 1.7 -4.7 3.0 L-5.0 2.6 -5.25 3.3 -5.25 3.25 M-2.35 1.8 L-2.5 1.4 -2.75 0.4 Q-2.75 -0.9 -0.65 2.9 L-1.95 1.35 -2.1 1.8 -2.35 1.8 M0.9 1.5 L0.4 0.7 -0.1 -0.15 -0.7 -1.05 -0.65 -1.05 Q0.4 0.95 4.35 2.1 L9.25 2.95 9.15 2.7 9.65 3.2 3.6 2.95 Q2.35 2.65 1.35 1.9 L0.9 1.5 M8.65 1.85 L8.3 1.7 7.75 0.75 7.8 0.75 9.0 1.5 9.6 2.1 8.8 1.85 8.65 1.85 M9.25 -0.25 L9.05 -0.4 7.95 -1.4 9.25 -0.25 M7.9 -1.45 L7.8 -1.55 5.0 -4.0 Q6.4 -3.8 8.5 -2.3 L9.35 -1.65 7.9 -1.45 M-4.35 -4.45 L-4.0 -3.65 -4.95 -3.2 -6.25 -3.2 -5.05 -3.65 -5.2 -4.4 -4.35 -4.45" fill="#e0cbcb" fill-rule="evenodd" stroke="none"/>
  </g>
</svg>
