<?xml version="1.0" encoding="UTF-8" standalone="no"?>
<svg xmlns:ffdec="https://www.free-decompiler.com/flash" xmlns:xlink="http://www.w3.org/1999/xlink" ffdec:objectType="shape" height="18.4px" width="22.0px" xmlns="http://www.w3.org/2000/svg">
  <g transform="matrix(1.0, 0.0, 0.0, 1.0, 13.65, 11.35)">
    <path d="M-11.6 -5.6 L-11.6 -5.55 -12.05 -4.25 -12.1 -3.2 -11.85 -2.95 -11.05 -2.85 -10.7 -3.15 -10.45 -3.15 -10.4 -2.9 -10.75 -2.0 Q-10.8 -1.3 -10.4 -1.05 L-9.8 -1.05 -9.3 -1.45 -9.05 -1.45 -9.05 -1.2 -9.25 -0.6 Q-9.45 0.15 -8.3 -0.05 L-7.1 -0.75 -6.85 -0.45 -7.0 -0.2 -6.75 0.1 -6.0 0.1 -5.15 -0.5 -4.9 -0.1 -4.8 0.1 -4.7 0.3 -4.3 0.3 -3.4 0.1 -3.2 -0.1 -2.8 -0.6 Q-2.5 -0.6 -2.5 -0.45 L-2.4 -0.05 -1.95 -0.05 -1.7 -0.25 -2.2 -0.75 -1.85 -1.1 -1.1 -0.85 -0.05 -0.85 0.1 -1.0 -0.15 -1.3 0.05 -1.7 Q-0.1 -1.8 -0.05 -2.05 0.0 -2.45 0.45 -2.45 L0.85 -2.35 Q1.2 -2.6 1.35 -2.2 1.55 -1.65 2.1 -1.7 L2.5 -1.7 2.4 -1.85 2.55 -1.75 Q2.35 -1.8 2.4 -2.05 L2.5 -2.2 2.4 -2.05 2.5 -2.25 2.25 -2.5 2.3 -3.1 2.7 -3.0 2.85 -2.65 3.3 -2.65 4.0 -3.0 4.05 -2.65 3.65 -2.15 3.7 -2.15 4.45 -1.95 4.8 -1.95 4.85 -1.8 4.8 -2.0 4.9 -2.2 5.3 -2.4 6.45 -2.7 Q6.85 -3.15 7.1 -3.0 L7.25 -2.65 7.2 -2.35 7.55 -2.65 7.9 -3.35 8.0 -3.2 8.0 -3.1 8.05 -2.95 8.05 -2.85 8.1 -2.85 8.35 -1.95 7.8 -0.7 7.95 -0.25 8.05 0.1 8.05 0.6 Q7.65 0.85 7.65 1.35 7.6 1.85 7.15 2.15 6.7 2.45 6.6 1.65 L6.25 0.1 6.15 -0.6 6.05 -1.2 5.75 -1.0 5.75 -0.95 5.65 -0.9 5.6 -0.9 4.9 -0.8 4.55 -0.7 4.35 -0.75 3.0 -0.95 Q1.0 -1.5 -0.6 -0.05 L-1.1 0.4 -1.1 0.45 -1.2 0.95 -1.4 2.55 Q-1.7 3.9 -2.45 4.95 -2.2 5.9 -2.55 6.65 L-4.15 6.7 -4.3 5.95 Q-4.4 4.9 -4.85 4.1 -5.25 3.4 -6.0 3.85 -7.3 4.8 -6.85 6.4 L-7.2 6.75 -7.5 7.05 -7.85 6.95 -8.35 6.5 -8.45 6.55 -8.45 6.6 -8.55 6.55 -8.6 6.55 Q-9.0 6.55 -9.0 6.15 -9.95 6.05 -10.2 5.65 L-10.35 5.1 Q-11.55 4.95 -11.65 4.55 L-11.55 3.9 Q-12.65 3.55 -12.65 2.85 L-12.55 2.45 Q-13.3 2.1 -13.3 1.05 L-13.25 0.95 -13.15 0.35 -13.35 0.1 -13.65 -1.4 -13.65 -1.5 Q-13.4 -2.65 -12.55 -3.55 L-12.45 -3.9 -12.4 -3.9 -12.2 -5.1 Q-11.85 -5.3 -11.6 -5.6 M3.95 -5.05 Q3.9 -4.65 3.35 -4.65 2.9 -4.65 2.95 -5.0 2.95 -5.3 3.5 -5.35 4.0 -5.45 3.95 -5.05 M4.5 -3.7 Q4.55 -4.05 4.75 -4.05 L5.35 -3.65 5.45 -3.65 Q5.6 -3.85 5.9 -3.95 L6.35 -3.9 6.15 -4.05 6.4 -4.55 6.55 -4.1 Q6.5 -3.45 6.0 -3.2 L5.15 -3.15 4.7 -3.4 4.5 -3.7 M6.85 -4.6 Q6.9 -5.05 7.2 -5.05 7.45 -5.05 7.4 -4.6 7.35 -4.1 7.05 -4.1 6.9 -4.1 6.9 -4.35 L6.85 -4.6 M-10.45 -5.15 L-10.35 -4.5 Q-10.3 -3.95 -10.0 -3.85 -9.2 -3.8 -9.2 -3.45 -9.25 -3.1 -9.85 -3.1 -11.0 -3.1 -10.9 -4.3 L-10.45 -5.15 M-5.3 -4.1 Q-5.0 -4.1 -4.9 -3.9 L-4.9 -3.8 Q-4.9 -3.45 -5.4 -3.45 -5.9 -3.45 -5.9 -3.8 -5.85 -4.1 -5.3 -4.1 M-7.55 -4.05 Q-8.35 -4.05 -8.55 -5.05 -8.45 -6.1 -7.0 -4.4 L-7.55 -4.05 M-8.35 -1.65 Q-8.85 -1.65 -9.1 -2.05 L-9.25 -2.65 -9.05 -2.95 Q-8.85 -3.1 -8.6 -2.75 -8.45 -2.5 -7.95 -2.4 L-7.65 -2.0 Q-7.7 -1.65 -8.35 -1.65 M-5.7 -1.3 Q-5.75 -0.85 -6.4 -0.85 L-7.0 -1.25 -7.15 -1.7 -6.45 -1.65 Q-5.7 -1.7 -5.7 -1.3 M-4.95 -1.45 Q-4.9 -1.8 -4.15 -1.75 -3.4 -1.7 -3.45 -1.25 L-3.55 -0.95 -4.1 -0.8 Q-5.0 -0.8 -4.95 -1.45 M-2.3 -1.25 Q-2.9 -1.25 -2.9 -1.75 -2.85 -2.15 -2.45 -2.0 L-1.9 -1.5 Q-1.95 -1.25 -2.3 -1.25" fill="#e0cbcb" fill-rule="evenodd" stroke="none"/>
    <path d="M-11.6 -5.6 L-11.35 -6.05 Q-10.9 -7.9 -9.45 -8.25 L-8.95 -9.15 Q-8.1 -10.4 -6.95 -9.9 -6.35 -10.7 -5.6 -10.8 L-4.8 -10.4 -4.6 -10.55 Q-3.6 -11.35 -2.6 -11.35 L-2.1 -10.75 -0.15 -11.3 0.4 -10.55 2.05 -10.7 2.8 -10.25 2.95 -9.65 4.2 -9.65 4.6 -9.1 Q5.45 -9.05 5.9 -8.4 L6.1 -7.25 6.6 -7.0 7.55 -6.45 7.55 -6.05 7.6 -5.35 8.15 -4.8 8.0 -3.2 7.9 -3.35 7.55 -2.65 7.2 -2.35 7.25 -2.65 7.1 -3.0 Q6.85 -3.15 6.45 -2.7 L5.3 -2.4 4.9 -2.2 4.8 -2.0 4.85 -1.8 4.8 -1.95 4.45 -1.95 3.7 -2.15 3.65 -2.15 4.05 -2.65 4.0 -3.0 3.3 -2.65 2.85 -2.65 2.7 -3.0 2.3 -3.1 2.25 -2.5 2.5 -2.25 2.4 -2.05 2.5 -2.2 2.4 -2.05 Q2.35 -1.8 2.55 -1.75 L2.4 -1.85 2.5 -1.7 2.1 -1.7 Q1.55 -1.65 1.35 -2.2 1.2 -2.6 0.85 -2.35 L0.45 -2.45 Q0.0 -2.45 -0.05 -2.05 -0.1 -1.8 0.05 -1.7 L-0.15 -1.3 0.1 -1.0 -0.05 -0.85 -1.1 -0.85 -1.85 -1.1 -2.2 -0.75 -1.7 -0.25 -1.95 -0.05 -2.4 -0.05 -2.5 -0.45 Q-2.5 -0.6 -2.8 -0.6 L-3.2 -0.1 -3.4 0.1 -4.3 0.3 -4.7 0.3 -4.8 0.1 -4.9 -0.1 -5.15 -0.5 -6.0 0.1 -6.75 0.1 -7.0 -0.2 -6.85 -0.45 -7.1 -0.75 -8.3 -0.05 Q-9.45 0.15 -9.25 -0.6 L-9.05 -1.2 -9.05 -1.45 -9.3 -1.45 -9.8 -1.05 -10.4 -1.05 Q-10.8 -1.3 -10.75 -2.0 L-10.4 -2.9 -10.45 -3.15 -10.7 -3.15 -11.05 -2.85 -11.85 -2.95 -12.1 -3.2 -12.05 -4.25 -11.6 -5.55 -11.6 -5.6 M8.05 -2.95 L8.1 -2.85 8.05 -2.85 8.05 -2.95 M5.6 -0.9 L4.55 -0.7 4.9 -0.8 5.6 -0.9 M-12.45 -3.9 L-12.35 -5.0 -12.2 -5.1 -12.4 -3.9 -12.45 -3.9 M4.5 -3.7 L4.7 -3.4 5.15 -3.15 6.0 -3.2 Q6.5 -3.45 6.55 -4.1 L6.4 -4.55 6.15 -4.05 6.35 -3.9 5.9 -3.95 Q5.6 -3.85 5.45 -3.65 L5.35 -3.65 4.75 -4.05 Q4.55 -4.05 4.5 -3.7 M3.95 -5.05 Q4.0 -5.45 3.5 -5.35 2.95 -5.3 2.95 -5.0 2.9 -4.65 3.35 -4.65 3.9 -4.65 3.95 -5.05 M6.85 -4.6 L6.9 -4.35 Q6.9 -4.1 7.05 -4.1 7.35 -4.1 7.4 -4.6 7.45 -5.05 7.2 -5.05 6.9 -5.05 6.85 -4.6 M-2.3 -1.25 Q-1.95 -1.25 -1.9 -1.5 L-2.45 -2.0 Q-2.85 -2.15 -2.9 -1.75 -2.9 -1.25 -2.3 -1.25 M-4.95 -1.45 Q-5.0 -0.8 -4.1 -0.8 L-3.55 -0.95 -3.45 -1.25 Q-3.4 -1.7 -4.15 -1.75 -4.9 -1.8 -4.95 -1.45 M-5.7 -1.3 Q-5.7 -1.7 -6.45 -1.65 L-7.15 -1.7 -7.0 -1.25 -6.4 -0.85 Q-5.75 -0.85 -5.7 -1.3 M-8.35 -1.65 Q-7.7 -1.65 -7.65 -2.0 L-7.95 -2.4 Q-8.45 -2.5 -8.6 -2.75 -8.85 -3.1 -9.05 -2.95 L-9.25 -2.65 -9.1 -2.05 Q-8.85 -1.65 -8.35 -1.65 M-7.55 -4.05 L-7.0 -4.4 Q-8.45 -6.1 -8.55 -5.05 -8.35 -4.05 -7.55 -4.05 M-5.3 -4.1 Q-5.85 -4.1 -5.9 -3.8 -5.9 -3.45 -5.4 -3.45 -4.9 -3.45 -4.9 -3.8 L-4.9 -3.9 Q-5.0 -4.1 -5.3 -4.1 M-10.45 -5.15 L-10.9 -4.3 Q-11.0 -3.1 -9.85 -3.1 -9.25 -3.1 -9.2 -3.45 -9.2 -3.8 -10.0 -3.85 -10.3 -3.95 -10.35 -4.5 L-10.45 -5.15" fill="#f2eaea" fill-rule="evenodd" stroke="none"/>
  </g>
</svg>
