<?xml version="1.0" encoding="UTF-8" standalone="no"?>
<svg xmlns:ffdec="https://www.free-decompiler.com/flash" xmlns:xlink="http://www.w3.org/1999/xlink" ffdec:objectType="shape" height="4.7px" width="6.1px" xmlns="http://www.w3.org/2000/svg">
  <g transform="matrix(1.0, 0.0, 0.0, 1.0, -1.2, 1.4)">
    <path d="M3.05 -0.15 Q4.1 -2.25 5.5 -0.8 L5.55 0.05 Q5.55 0.95 5.2 1.7 4.8 2.45 4.25 2.6 3.75 2.7 3.35 2.15 2.95 1.5 2.95 0.6 L3.05 -0.15" fill="#090909" fill-rule="evenodd" stroke="none"/>
    <path d="M5.5 -0.8 Q6.4 -0.45 7.3 0.9 4.2 4.8 1.2 2.3 2.1 0.65 3.05 -0.15 L2.95 0.6 Q2.95 1.5 3.35 2.15 3.75 2.7 4.25 2.6 4.8 2.45 5.2 1.7 5.55 0.95 5.55 0.05 L5.5 -0.8" fill="#ffffff" fill-rule="evenodd" stroke="none"/>
  </g>
</svg>
