<?xml version="1.0" encoding="UTF-8" standalone="no"?>
<svg xmlns:ffdec="https://www.free-decompiler.com/flash" xmlns:xlink="http://www.w3.org/1999/xlink" ffdec:objectType="shape" height="4.9px" width="4.9px" xmlns="http://www.w3.org/2000/svg">
  <g transform="matrix(1.0, 0.0, 0.0, 1.0, 2.45, 2.45)">
    <path d="M-1.05 -2.2 L0.0 -2.45 Q1.0 -2.45 1.7 -1.75 2.45 -1.0 2.45 0.0 L2.45 0.4 1.2 0.95 Q-1.15 0.95 -1.15 -1.6 L-1.05 -2.2" fill="#ffff00" fill-rule="evenodd" stroke="none"/>
    <path d="M2.45 0.4 L2.35 0.8 2.2 1.1 2.15 1.15 1.7 1.7 Q1.0 2.45 0.0 2.45 -1.0 2.45 -1.75 1.7 -2.45 1.0 -2.45 0.0 -2.45 -1.0 -1.75 -1.75 L-1.05 -2.2 -1.15 -1.6 Q-1.15 0.95 1.2 0.95 L2.45 0.4" fill="#d9ca48" fill-rule="evenodd" stroke="none"/>
    <path d="M-1.05 -2.2 L0.0 -2.45 Q1.0 -2.45 1.7 -1.75 2.45 -1.0 2.45 0.0 L2.45 0.4 2.35 0.8 2.2 1.1 2.15 1.15 1.7 1.7 Q1.0 2.45 0.0 2.45 -1.0 2.45 -1.75 1.7 -2.45 1.0 -2.45 0.0 -2.45 -1.0 -1.75 -1.75 L-1.05 -2.2 Z" fill="none" stroke="#a36a6a" stroke-linecap="round" stroke-linejoin="round" stroke-width="0.05"/>
  </g>
</svg>
