<?xml version="1.0" encoding="UTF-8" standalone="no"?>
<svg xmlns:ffdec="https://www.free-decompiler.com/flash" xmlns:xlink="http://www.w3.org/1999/xlink" ffdec:objectType="shape" height="5.7px" width="5.7px" xmlns="http://www.w3.org/2000/svg">
  <g transform="matrix(1.0, 0.0, 0.0, 1.0, 2.85, 2.85)">
    <path d="M0.0 -0.6 Q0.2 -0.1 0.75 -0.1 1.6 -0.1 1.6 -0.85 1.6 -1.65 0.75 -1.9 -0.1 -2.1 -0.1 -1.05 L0.0 -0.6 M2.0 -2.05 Q2.85 -1.2 2.85 0.0 2.85 1.2 2.0 2.0 1.2 2.85 0.0 2.85 -1.2 2.85 -2.05 2.0 -2.85 1.2 -2.85 0.0 -2.85 -1.2 -2.05 -2.05 -1.2 -2.85 0.0 -2.85 1.2 -2.85 2.0 -2.05" fill="#cc0000" fill-rule="evenodd" stroke="none"/>
    <path d="M0.0 -0.6 L-0.1 -1.05 Q-0.1 -2.1 0.75 -1.9 1.6 -1.65 1.6 -0.85 1.6 -0.1 0.75 -0.1 0.2 -0.1 0.0 -0.6" fill="#ffffff" fill-rule="evenodd" stroke="none"/>
    <path d="M2.0 -2.05 Q2.85 -1.2 2.85 0.0 2.85 1.2 2.0 2.0 1.2 2.85 0.0 2.85 -1.2 2.85 -2.05 2.0 -2.85 1.2 -2.85 0.0 -2.85 -1.2 -2.05 -2.05 -1.2 -2.85 0.0 -2.85 1.2 -2.85 2.0 -2.05 Z" fill="none" stroke="#a36a6a" stroke-linecap="round" stroke-linejoin="round" stroke-width="0.05"/>
  </g>
</svg>
