<?xml version="1.0" encoding="UTF-8" standalone="no"?>
<svg xmlns:ffdec="https://www.free-decompiler.com/flash" xmlns:xlink="http://www.w3.org/1999/xlink" ffdec:objectType="shape" height="8.75px" width="9.2px" xmlns="http://www.w3.org/2000/svg">
  <g transform="matrix(1.0, 0.0, 0.0, 1.0, 4.6, 4.4)">
    <path d="M3.7 -2.5 L2.3 -1.85 -0.45 -0.3 -2.25 1.3 -3.25 2.75 Q-3.6 2.35 -3.6 1.6 -3.6 -1.65 3.85 -3.55 L3.85 -2.8 3.7 -2.5" fill="#ffffff" fill-rule="evenodd" stroke="none"/>
    <path d="M-3.25 2.75 L-2.75 3.1 -2.15 3.3 -1.8 3.3 -1.25 3.25 Q-1.05 2.8 -0.95 1.75 -0.6 0.75 0.8 0.0 2.35 -0.8 2.95 -1.4 L3.35 -1.9 3.7 -2.5 3.85 -2.8 3.85 -3.55 Q-3.6 -1.65 -3.6 1.6 -3.6 2.35 -3.25 2.75 M3.8 -0.7 Q4.4 -0.2 4.4 0.3 4.4 0.8 2.35 2.35 0.25 3.95 -0.6 3.95 -0.95 4.35 -1.65 4.35 -4.6 4.35 -4.6 1.6 -4.6 0.2 -4.1 -0.6 -3.45 -1.7 -1.55 -2.55 2.95 -4.6 4.0 -4.4 4.6 -4.3 4.6 -2.45 4.6 -1.6 3.75 -0.75 L3.8 -0.7 M3.7 0.2 L3.35 -0.35 1.4 0.9 Q0.0 1.65 -0.3 3.0 L1.35 1.95 Q3.7 0.6 3.7 0.2" fill="#a36a6a" fill-rule="evenodd" stroke="none"/>
    <path d="M3.7 -2.5 L3.35 -1.9 2.95 -1.4 Q2.35 -0.8 0.8 0.0 -0.6 0.75 -0.95 1.75 -1.05 2.8 -1.25 3.25 L-1.8 3.3 -2.15 3.3 -2.75 3.1 -3.25 2.75 -2.25 1.3 -0.45 -0.3 2.3 -1.85 3.7 -2.5 M3.7 0.2 Q3.7 0.6 1.35 1.95 L-0.3 3.0 Q0.0 1.65 1.4 0.9 L3.35 -0.35 3.7 0.2" fill="#e0cbcb" fill-rule="evenodd" stroke="none"/>
  </g>
</svg>
