<?xml version="1.0" encoding="UTF-8" standalone="no"?>
<svg xmlns:ffdec="https://www.free-decompiler.com/flash" xmlns:xlink="http://www.w3.org/1999/xlink" ffdec:objectType="shape" height="41.85px" width="87.35px" xmlns="http://www.w3.org/2000/svg">
  <g transform="matrix(1.0, 0.0, 0.0, 1.0, 43.7, 20.9)">
    <path d="M31.35 -19.85 L41.9 -10.5 Q42.95 -9.5 43.4 -7.85 L43.45 -7.85 Q43.85 -6.35 43.5 -4.7 43.1 -3.15 42.1 -2.1 L20.75 19.7 20.7 19.7 Q19.5 20.95 17.9 20.95 L0.0 20.8 -0.75 20.75 -39.3 20.5 Q-41.2 20.55 -42.5 18.8 -43.7 17.2 -43.7 15.1 -43.7 12.9 -42.35 11.4 L-17.35 -19.2 -17.3 -19.2 Q-16.0 -20.9 -14.2 -20.9 L28.75 -20.9 Q30.15 -20.9 31.35 -19.85" fill="#a36a6a" fill-rule="evenodd" stroke="none"/>
    <path d="M17.8 -18.35 L17.5 -18.4 17.4 -18.35 -9.4 -18.45 Q-14.6 -18.35 -15.55 -16.9 L-18.0 -13.6 Q-19.55 -12.7 -22.25 -9.65 L-29.85 -0.8 -29.9 -0.8 Q-29.15 -2.6 -26.65 -5.65 L-22.5 -10.55 -20.25 -12.9 Q-18.7 -14.55 -18.3 -15.4 L-17.45 -16.5 -16.2 -17.75 -15.45 -18.85 -15.35 -19.25 -15.15 -19.55 -11.6 -19.75 -6.3 -19.85 29.3 -19.85 36.45 -13.7 Q42.6 -7.95 42.6 -6.95 L42.3 -5.45 Q42.0 -5.75 41.45 -7.1 L40.2 -8.95 36.5 -12.5 32.85 -15.8 Q32.1 -16.7 30.65 -17.45 L29.9 -17.95 28.95 -18.25 17.8 -18.35" fill="#ffffff" fill-rule="evenodd" stroke="none"/>
    <path d="M17.8 -18.35 L28.95 -18.25 29.9 -17.95 30.65 -17.45 Q32.1 -16.7 32.85 -15.8 L36.5 -12.5 40.2 -8.95 41.45 -7.1 Q42.0 -5.75 42.3 -5.45 L42.6 -6.95 Q42.6 -7.95 36.45 -13.7 L29.3 -19.85 -6.3 -19.85 -11.6 -19.75 -15.15 -19.55 -15.35 -19.25 -15.45 -18.85 -16.2 -17.75 -17.45 -16.5 -18.3 -15.4 Q-18.7 -14.55 -20.25 -12.9 L-22.5 -10.55 -26.65 -5.65 Q-29.15 -2.6 -29.9 -0.8 L-29.85 -0.8 -22.25 -9.65 Q-19.55 -12.7 -18.0 -13.6 L-15.55 -16.9 Q-14.6 -18.35 -9.4 -18.45 L17.4 -18.35 17.5 -18.4 17.8 -18.35 M30.75 -19.15 L41.25 -9.85 Q42.2 -9.0 42.6 -7.65 42.95 -6.35 42.6 -4.9 42.3 -3.6 41.45 -2.7 L20.1 19.1 Q19.15 20.05 17.9 20.05 L0.0 19.95 -0.65 19.9 -39.3 19.6 Q-40.8 19.6 -41.8 18.25 -42.8 16.9 -42.8 15.1 -42.8 13.25 -41.7 11.95 L-16.65 -18.7 Q-15.65 -20.0 -14.2 -20.0 L28.75 -20.0 Q29.8 -20.0 30.75 -19.15 M15.95 2.6 L16.0 2.7 16.0 2.3 15.95 2.6" fill="#e0cbcb" fill-rule="evenodd" stroke="none"/>
    <path d="M15.95 2.6 L16.0 2.3 16.0 2.7 15.95 2.6" fill="#a36a6a" fill-rule="evenodd" stroke="none"/>
    <path d="M-7.3 -12.25 L-7.3 -15.25 M-7.3 -6.25 L-7.3 -9.25 M-7.3 -0.25 L-7.3 -3.25 M-28.1 0.2 L-30.35 0.2 M-22.1 0.2 L-25.1 0.2 M-16.1 0.2 L-19.1 0.2 M-10.1 0.2 L-13.1 0.2 M-7.3 5.75 L-7.3 2.75 M-7.3 11.75 L-7.3 8.75 M-7.3 17.75 L-7.3 14.75" fill="none" stroke="#3b0101" stroke-linecap="round" stroke-linejoin="round" stroke-width="1.0"/>
    <path d="M14.2 -12.85 L14.2 -15.85 M14.2 -6.85 L14.2 -9.85 M14.2 -0.85 L14.2 -3.85 M14.2 5.15 L14.2 2.15 M14.2 11.15 L14.2 8.15 M14.2 17.15 L14.2 14.15" fill="none" stroke="#3b0101" stroke-linecap="round" stroke-linejoin="round" stroke-width="1.0"/>
  </g>
</svg>
