<?xml version="1.0" encoding="UTF-8" standalone="no"?>
<svg xmlns:ffdec="https://www.free-decompiler.com/flash" xmlns:xlink="http://www.w3.org/1999/xlink" ffdec:objectType="shape" height="35.65px" width="62.6px" xmlns="http://www.w3.org/2000/svg">
  <g transform="matrix(1.0, 0.0, 0.0, 1.0, 25.75, 18.1)">
    <path d="M11.05 -13.9 L12.15 -12.35 12.2 -12.3 12.9 -10.15 13.15 -9.0 33.5 -8.95 34.2 -8.65 34.5 -8.1 34.55 -8.0 34.7 -7.7 Q36.3 -5.35 36.6 -2.35 L36.8 1.05 36.8 2.85 36.85 2.95 36.65 4.85 36.6 4.85 36.35 6.1 36.0 7.55 36.0 7.6 Q35.6 9.3 34.4 10.35 L34.2 10.55 33.55 10.85 12.6 11.0 11.4 11.25 Q9.75 13.5 7.15 14.8 L7.1 14.85 4.6 15.9 4.1 16.1 4.0 16.1 Q-0.2 17.35 -4.45 17.5 L-4.5 17.5 -7.35 17.55 -12.8 17.15 -12.9 17.15 -15.1 16.6 -15.25 16.55 -17.4 15.6 Q-19.85 14.6 -21.75 12.65 -24.4 9.8 -25.25 6.1 -25.9 3.3 -25.7 0.3 -25.55 -2.6 -24.9 -5.45 L-24.45 -7.2 -23.6 -9.5 Q-22.9 -11.3 -21.4 -12.85 L-21.45 -12.85 -19.6 -14.7 -19.5 -14.75 -18.05 -15.5 -17.95 -15.5 -15.85 -16.0 -15.9 -16.0 -12.3 -17.0 -12.25 -17.0 -7.95 -17.85 -7.85 -17.9 -3.2 -18.1 -2.95 -18.05 1.8 -17.2 1.75 -17.25 3.45 -17.05 3.55 -17.0 6.65 -16.2 9.1 -15.35 9.15 -15.3 11.0 -13.95 11.05 -13.9" fill="#a36a6a" fill-rule="evenodd" stroke="none"/>
    <path d="M2.65 -12.9 L2.45 -12.8 2.55 -12.95 2.65 -12.9 M6.55 -13.55 Q6.5 -14.7 2.5 -15.2 L-4.4 -15.6 Q-15.3 -15.75 -15.3 -13.15 -15.3 -12.15 -12.3 -10.9 -9.35 -9.65 -3.1 -9.8 L2.5 -10.2 Q4.15 -10.45 4.9 -10.8 6.65 -11.7 6.55 -13.55 M-17.75 -14.25 L-15.65 -14.75 Q-12.4 -15.85 -7.8 -16.6 -3.2 -17.4 1.6 -15.95 L2.5 -15.85 Q8.95 -15.25 10.95 -12.35 11.7 -11.25 12.15 -8.5 11.45 -8.5 9.35 -6.15 8.95 -5.6 8.7 -4.6 L8.35 -3.15 7.9 0.25 7.7 2.85 7.9 5.05 7.95 5.45 8.0 5.45 7.5 5.6 4.5 6.35 4.5 5.85 4.2 4.15 3.6 2.1 2.5 1.25 1.1 1.4 -1.1 3.0 -1.45 3.3 Q-2.45 4.25 -2.7 6.3 L-2.75 6.7 -7.0 6.2 -6.9 3.3 -6.9 0.8 -6.9 0.55 -6.55 0.35 Q-6.1 -0.1 -6.1 -3.75 -6.1 -5.05 -8.65 -6.3 -11.7 -7.8 -16.5 -7.8 -18.15 -7.8 -19.2 -4.95 -19.6 -6.4 -19.6 -7.8 -17.75 -14.95 -17.75 -14.15 L-17.75 -14.25 M12.5 -7.85 L12.75 -7.8 13.0 -7.7 13.1 -7.65 33.5 -7.65 33.5 3.35 33.15 3.35 25.8 3.35 13.2 3.5 12.55 3.6 12.55 3.3 11.05 3.55 9.5 0.55 9.45 0.5 9.45 0.6 8.95 -0.7 9.15 -2.95 Q9.15 -4.15 9.95 -5.5 10.85 -7.1 12.5 -7.85 M-18.65 -13.85 L-18.5 -13.9 -18.95 -13.6 -18.65 -13.85 M8.85 -11.8 Q8.85 -12.3 8.5 -12.3 7.85 -11.35 6.05 -10.45 4.5 -9.65 2.5 -9.2 L-3.5 -8.6 Q-10.0 -8.6 -13.4 -10.1 -15.3 -10.9 -17.05 -12.5 L-17.1 -12.2 Q-17.1 -10.7 -13.9 -9.3 -9.5 -7.4 -1.4 -7.4 L2.5 -7.85 3.95 -8.2 Q8.85 -9.45 8.85 -11.8 M9.75 7.35 L9.8 7.3 10.1 8.05 9.75 7.35 M10.1 10.7 Q9.25 10.25 8.65 8.55 L9.25 9.65 10.1 10.7 M-1.2 6.55 L-1.15 4.65 Q-0.85 4.05 0.55 3.3 L2.45 2.4 2.5 2.85 2.9 4.35 3.35 5.85 3.35 6.5 1.05 6.35 -1.2 6.55 M2.45 8.25 L2.4 8.3 2.3 8.25 2.45 8.25 M0.15 5.1 L0.25 4.7 0.1 4.2 Q-0.8 3.8 -0.85 4.8 L-0.75 5.2 -0.3 5.25 0.15 5.1 M2.15 4.5 L2.25 4.05 2.1 3.55 1.1 3.6 Q0.85 3.8 0.85 4.05 L0.9 4.35 Q1.05 4.65 1.55 4.65 L2.15 4.5 M-18.8 -2.85 L-18.7 -4.35 Q-18.45 -6.25 -17.5 -6.6 L-16.7 -6.7 -16.9 -6.1 Q-16.9 -5.75 -16.3 -5.25 -16.05 -5.3 -15.75 -5.7 -15.45 -6.1 -15.45 -6.45 L-15.45 -6.65 -11.8 -6.1 -10.95 -5.9 -11.2 -5.25 Q-10.7 -4.05 -10.25 -4.05 -9.9 -4.05 -9.7 -4.5 L-9.55 -5.1 -9.65 -5.55 -10.45 -5.8 Q-7.05 -4.9 -7.05 -3.7 L-7.2 -2.05 -7.35 -1.2 -7.3 -1.65 -7.55 -2.0 Q-10.0 -3.9 -11.0 -3.25 -12.85 -2.1 -15.95 -2.55 L-18.75 -2.85 -18.8 -2.85 M-18.5 -1.15 L-19.05 -1.3 -19.0 -1.5 -18.5 -1.15 M-18.0 -0.05 L-17.8 0.0 -10.4 0.75 -8.0 0.7 -8.05 3.3 -7.95 5.6 Q-7.9 6.1 -8.15 6.45 L-10.4 5.2 -14.35 3.3 -14.45 3.25 -18.0 -0.05 M-5.65 8.55 L-5.65 8.45 -5.6 8.45 -5.65 8.55 M-0.2 8.55 L-0.15 8.55 -0.2 8.6 -0.2 8.55" fill="#ffffff" fill-rule="evenodd" stroke="none"/>
    <path d="M6.55 -13.55 Q6.65 -11.7 4.9 -10.8 4.15 -10.45 2.5 -10.2 L-3.1 -9.8 Q-9.35 -9.65 -12.3 -10.9 -15.3 -12.15 -15.3 -13.15 -15.3 -15.75 -4.4 -15.6 L2.5 -15.2 Q6.5 -14.7 6.55 -13.55 M2.65 -12.9 L2.55 -12.95 2.45 -12.8 2.65 -12.9 M-19.2 -4.95 Q-18.15 -7.8 -16.5 -7.8 -11.7 -7.8 -8.65 -6.3 -6.1 -5.05 -6.1 -3.75 -6.1 -0.1 -6.55 0.35 L-6.9 0.55 -6.9 0.8 -6.9 3.3 -7.0 6.2 -7.1 6.6 Q-7.4 7.4 -8.25 7.85 L-8.75 8.1 -11.6 8.45 Q-18.15 8.45 -19.7 6.7 -20.05 6.3 -20.05 4.15 L-20.05 3.3 -19.95 1.6 -19.6 -0.4 -19.5 -0.65 Q-20.0 -0.95 -20.0 -1.3 -20.0 -2.65 -19.25 -4.8 L-19.2 -4.95 M-2.75 6.7 L-2.7 6.3 Q-2.45 4.25 -1.45 3.3 L-1.1 3.0 1.1 1.4 2.5 1.25 3.6 2.1 4.2 4.15 4.5 5.85 4.5 6.35 Q4.35 7.5 3.65 8.75 L3.25 9.3 2.65 10.05 2.65 10.1 Q0.9 11.9 -1.8 11.9 -2.7 11.9 -2.85 11.2 L-2.85 10.45 -2.8 8.8 -2.75 7.05 -2.75 6.7 M8.0 5.45 L7.95 5.45 7.9 5.05 7.7 2.85 7.9 0.25 8.35 -3.15 8.7 -4.6 Q8.95 -5.6 9.35 -6.15 11.45 -8.5 12.15 -8.5 L12.25 -7.85 12.25 -7.9 12.5 -7.85 Q10.85 -7.1 9.95 -5.5 9.15 -4.15 9.15 -2.95 L8.95 -0.7 8.9 -0.35 8.8 0.55 8.65 2.15 Q8.65 5.0 9.75 7.35 L10.1 8.05 10.5 9.1 10.65 9.35 10.65 9.4 11.2 10.3 11.05 10.6 10.85 10.6 10.8 10.6 10.65 10.8 10.65 10.85 10.6 10.8 10.1 10.7 9.25 9.65 8.65 8.55 8.4 7.65 8.35 7.5 8.0 5.45 M3.35 6.5 L3.35 5.85 2.9 4.35 2.5 2.85 2.45 2.4 0.55 3.3 Q-0.85 4.05 -1.15 4.65 L-1.2 6.55 -1.2 7.1 -1.25 7.95 -1.3 8.45 -1.7 10.4 -1.6 10.6 2.4 8.3 2.45 8.25 2.7 8.05 Q3.2 7.6 3.35 6.5 M2.15 4.5 L1.55 4.65 Q1.05 4.65 0.9 4.35 L0.85 4.05 Q0.85 3.8 1.1 3.6 L2.1 3.55 2.25 4.05 2.15 4.5 M0.15 5.1 L-0.3 5.25 -0.75 5.2 -0.85 4.8 Q-0.8 3.8 0.1 4.2 L0.25 4.7 0.15 5.1 M1.45 6.75 L2.05 6.75 Q2.25 6.55 2.25 7.05 L2.2 7.4 2.1 7.4 1.85 7.5 Q1.45 7.35 1.45 6.75 M3.8 11.3 Q3.8 9.3 5.95 9.15 8.1 9.0 8.1 10.85 L7.65 12.15 Q7.0 13.25 5.8 13.25 4.7 13.25 4.15 12.3 L3.8 11.3 M-7.35 -1.2 L-7.2 -2.05 -7.05 -3.7 Q-7.05 -4.9 -10.45 -5.8 L-9.65 -5.55 -9.55 -5.1 -9.7 -4.5 Q-9.9 -4.05 -10.25 -4.05 -10.7 -4.05 -11.2 -5.25 L-10.95 -5.9 -11.8 -6.1 -15.45 -6.65 -15.45 -6.45 Q-15.45 -6.1 -15.75 -5.7 -16.05 -5.3 -16.3 -5.25 -16.9 -5.75 -16.9 -6.1 L-16.7 -6.7 -17.5 -6.6 Q-18.45 -6.25 -18.7 -4.35 L-18.8 -2.85 -19.0 -1.5 -19.05 -1.3 -18.5 -1.15 -16.9 -0.7 -13.7 -0.25 -10.45 -0.3 -7.5 -0.45 -7.4 -0.7 -7.4 -1.1 -7.35 -1.2 M-18.0 -0.05 L-18.5 -0.2 -18.8 -0.3 -18.9 1.8 -19.0 3.3 -19.05 4.0 Q-19.05 5.85 -18.5 6.3 L-18.25 6.5 Q-18.2 4.55 -17.55 4.7 -16.9 4.85 -16.9 6.7 L-16.85 6.95 -12.2 7.35 -12.1 6.45 -11.7 5.8 -11.7 5.75 -11.5 5.7 Q-10.85 5.7 -10.8 7.35 -8.75 7.2 -8.15 6.45 -7.9 6.1 -7.95 5.6 L-8.05 3.3 -8.0 0.7 -10.4 0.75 -17.8 0.0 -18.0 -0.05 M-0.2 8.6 L-0.15 8.7 -0.65 9.15 -1.05 9.1 -1.15 8.7 -1.1 8.5 -1.0 8.3 -0.65 8.2 -0.45 8.3 -0.2 8.55 -0.2 8.6" fill="#a36a6a" fill-rule="evenodd" stroke="none"/>
    <path d="M-17.75 -14.25 L-17.75 -14.15 Q-17.75 -14.95 -19.6 -7.8 -19.6 -6.4 -19.2 -4.95 L-19.25 -4.8 Q-20.0 -2.65 -20.0 -1.3 -20.0 -0.95 -19.5 -0.65 L-19.6 -0.4 -19.95 1.6 -20.05 3.3 -20.05 4.15 Q-20.05 6.3 -19.7 6.7 -18.15 8.45 -11.6 8.45 L-8.75 8.1 -8.25 7.85 Q-7.4 7.4 -7.1 6.6 L-7.0 6.2 -2.75 6.7 -2.75 7.05 -2.8 8.8 -2.85 10.45 -2.85 11.2 Q-2.7 11.9 -1.8 11.9 0.9 11.9 2.65 10.1 L2.65 10.05 3.25 9.3 3.65 8.75 Q4.35 7.5 4.5 6.35 L7.5 5.6 8.0 5.45 8.35 7.5 8.4 7.65 8.65 8.55 Q9.25 10.25 10.1 10.7 L10.6 10.8 10.65 10.85 Q9.85 11.95 8.7 12.85 6.85 14.35 4.2 15.25 L4.15 15.3 -0.95 15.65 Q-15.6 15.65 -20.55 5.8 L-21.55 3.3 Q-22.8 -0.6 -22.8 -6.15 L-22.35 -9.65 -22.35 -9.7 Q-21.0 -12.35 -18.95 -13.65 L-18.65 -13.85 -18.95 -13.6 -18.5 -13.9 Q-18.15 -14.1 -17.75 -14.25 M33.5 3.35 L35.6 3.5 35.55 4.05 35.65 4.5 35.25 4.55 33.5 4.6 33.5 7.65 31.2 8.05 32.15 8.1 14.75 8.0 12.55 8.1 12.55 7.45 Q12.35 7.8 11.55 7.9 10.8 8.0 10.3 8.6 L10.5 9.1 10.1 8.05 9.8 7.3 9.75 7.35 Q8.65 5.0 8.65 2.15 L8.8 0.55 8.9 -0.35 8.95 -0.7 9.45 0.6 9.45 0.5 9.5 0.55 11.05 3.55 12.55 3.3 12.55 3.6 13.2 3.5 25.8 3.35 33.15 3.35 33.5 3.35 M3.7 15.45 L2.25 15.85 0.7 16.2 2.25 15.85 3.7 15.45 M8.85 -11.8 Q8.85 -9.45 3.95 -8.2 L2.5 -7.85 -1.4 -7.4 Q-9.5 -7.4 -13.9 -9.3 -17.1 -10.7 -17.1 -12.2 L-17.05 -12.5 Q-15.3 -10.9 -13.4 -10.1 -10.0 -8.6 -3.5 -8.6 L2.5 -9.2 Q4.5 -9.65 6.05 -10.45 7.85 -11.35 8.5 -12.3 8.85 -12.3 8.85 -11.8 M-1.2 6.55 L1.05 6.35 3.35 6.5 Q3.2 7.6 2.7 8.05 L2.45 8.25 2.3 8.25 2.4 8.3 -1.6 10.6 -1.7 10.4 -1.3 8.45 -1.25 7.95 -1.2 7.1 -1.2 6.55 M1.45 6.75 Q1.45 7.35 1.85 7.5 L2.1 7.4 2.2 7.4 2.25 7.05 Q2.25 6.55 2.05 6.75 L1.45 6.75 M3.8 11.3 L4.15 12.3 Q4.7 13.25 5.8 13.25 7.0 13.25 7.65 12.15 L8.1 10.85 Q8.1 9.0 5.95 9.15 3.8 9.3 3.8 11.3 M-18.8 -2.85 L-18.75 -2.85 -15.95 -2.55 Q-12.85 -2.1 -11.0 -3.25 -10.0 -3.9 -7.55 -2.0 L-7.3 -1.65 -7.35 -1.2 -7.4 -1.1 -7.4 -0.7 -7.5 -0.45 -10.45 -0.3 -13.7 -0.25 -16.9 -0.7 -18.5 -1.15 -19.0 -1.5 -18.8 -2.85 M-8.15 6.45 Q-8.75 7.2 -10.8 7.35 -10.85 5.7 -11.5 5.7 L-11.7 5.75 -11.7 5.8 -12.1 6.45 -12.2 7.35 -16.85 6.95 -16.9 6.7 Q-16.9 4.85 -17.55 4.7 -18.2 4.55 -18.25 6.5 L-18.5 6.3 Q-19.05 5.85 -19.05 4.0 L-19.0 3.3 -18.9 1.8 -18.8 -0.3 -18.5 -0.2 -18.0 -0.05 -14.45 3.25 -14.35 3.3 -10.4 5.2 -8.15 6.45 M-5.65 8.55 L-5.6 8.45 -5.65 8.45 -5.65 8.55 M-0.2 8.55 L-0.45 8.3 -0.65 8.2 -1.0 8.3 -1.1 8.5 -1.15 8.7 -1.05 9.1 -0.65 9.15 -0.15 8.7 -0.2 8.6 -0.15 8.55 -0.2 8.55" fill="#e0cbcb" fill-rule="evenodd" stroke="none"/>
    <path d="M33.5 7.65 L33.5 10.3 12.55 10.3 12.55 10.15 11.05 10.6 11.2 10.3 10.65 9.4 10.65 9.35 10.5 9.1 10.3 8.6 Q10.8 8.0 11.55 7.9 12.35 7.8 12.55 7.45 L12.55 8.1 14.75 8.0 32.15 8.1 31.2 8.05 33.5 7.65 M4.15 15.3 L3.7 15.45 2.25 15.85 0.7 16.2 -4.5 16.8 -4.6 16.8 -7.4 16.85 Q-18.9 16.85 -22.9 9.8 -24.6 6.75 -24.65 3.3 L-24.65 2.15 -24.55 -0.7 Q-24.35 -3.8 -23.65 -6.25 L-23.55 -6.6 -22.75 -8.85 -22.35 -9.7 -22.35 -9.65 -22.8 -6.15 Q-22.8 -0.6 -21.55 3.3 L-20.55 5.8 Q-15.6 15.65 -0.95 15.65 L4.15 15.3" fill="#cca9a9" fill-rule="evenodd" stroke="none"/>
    <path d="M32.7 -5.5 Q31.7 -5.5 31.0 -3.5 30.3 -1.45 30.3 1.35 30.3 4.2 31.0 6.2 31.7 8.25 32.7 8.25 33.7 8.25 34.4 6.2 35.1 4.2 35.1 1.35 35.1 -1.45 34.4 -3.5 33.7 -5.5 32.7 -5.5 M32.75 -7.55 Q34.05 -7.55 34.95 -4.95 35.85 -2.3 35.85 1.35 35.85 5.05 34.95 7.65 34.05 10.3 32.75 10.3 31.45 10.3 30.5 7.65 29.6 5.05 29.6 1.35 29.6 -2.3 30.5 -4.95 31.45 -7.55 32.75 -7.55" fill="#ffffff" fill-rule="evenodd" stroke="none"/>
    <path d="M32.7 -5.5 Q33.7 -5.5 34.4 -3.5 35.1 -1.45 35.1 1.35 35.1 4.2 34.4 6.2 33.7 8.25 32.7 8.25 31.7 8.25 31.0 6.2 30.3 4.2 30.3 1.35 30.3 -1.45 31.0 -3.5 31.7 -5.5 32.7 -5.5" fill="#a36a6a" fill-rule="evenodd" stroke="none"/>
  </g>
</svg>
