<?xml version="1.0" encoding="UTF-8" standalone="no"?>
<svg xmlns:ffdec="https://www.free-decompiler.com/flash" xmlns:xlink="http://www.w3.org/1999/xlink" ffdec:objectType="shape" height="16.85px" width="16.85px" xmlns="http://www.w3.org/2000/svg">
  <g transform="matrix(1.0, 0.0, 0.0, 1.0, 8.4, 8.4)">
    <path d="M1.75 -1.75 Q2.5 -1.0 2.5 0.0 2.5 1.05 1.75 1.75 1.05 2.45 0.05 2.45 -1.0 2.45 -1.7 1.75 -2.45 1.05 -2.45 0.0 -2.45 -1.0 -1.7 -1.75 -1.0 -2.45 0.05 -2.45 1.05 -2.45 1.75 -1.75 M5.85 -1.0 Q6.25 -0.6 6.25 0.0 6.25 0.55 5.85 0.95 5.5 1.35 4.9 1.35 4.35 1.35 3.95 0.95 3.55 0.55 3.55 0.0 3.55 -0.6 3.95 -1.0 4.35 -1.35 4.9 -1.35 5.5 -1.35 5.85 -1.0 M0.95 -3.95 Q0.6 -3.55 0.0 -3.55 -0.55 -3.55 -0.95 -3.95 -1.35 -4.35 -1.35 -4.9 -1.35 -5.5 -0.95 -5.9 -0.55 -6.25 0.0 -6.25 0.6 -6.25 0.95 -5.9 1.35 -5.5 1.35 -4.9 1.35 -4.35 0.95 -3.95 M0.0 6.15 Q-0.55 6.15 -0.95 5.75 -1.35 5.35 -1.35 4.8 -1.35 4.2 -0.95 3.8 -0.55 3.45 0.0 3.45 0.6 3.45 0.95 3.8 1.35 4.2 1.35 4.8 1.35 5.35 0.95 5.75 0.6 6.15 0.0 6.15 M-5.95 -1.2 L-5.0 -1.55 Q-4.4 -1.55 -4.05 -1.2 -3.65 -0.8 -3.65 -0.2 -3.65 0.35 -4.05 0.75 -4.4 1.15 -5.0 1.15 -5.55 1.15 -5.95 0.75 -6.35 0.35 -6.35 -0.2 -6.35 -0.8 -5.95 -1.2" fill="#666666" fill-rule="evenodd" stroke="none"/>
    <path d="M1.75 -1.75 Q1.05 -2.45 0.05 -2.45 -1.0 -2.45 -1.7 -1.75 -2.45 -1.0 -2.45 0.0 -2.45 1.05 -1.7 1.75 -1.0 2.45 0.05 2.45 1.05 2.45 1.75 1.75 2.5 1.05 2.5 0.0 2.5 -1.0 1.75 -1.75 M5.6 -5.65 Q7.95 -3.3 7.95 0.0 7.95 3.3 5.6 5.6 3.35 7.95 0.05 7.95 -3.25 7.95 -5.6 5.6 -7.9 3.3 -7.9 0.0 -7.9 -3.3 -5.6 -5.65 -3.25 -7.9 0.05 -7.9 3.35 -7.9 5.6 -5.65 M-5.95 -1.2 Q-6.35 -0.8 -6.35 -0.2 -6.35 0.35 -5.95 0.75 -5.55 1.15 -5.0 1.15 -4.4 1.15 -4.05 0.75 -3.65 0.35 -3.65 -0.2 -3.65 -0.8 -4.05 -1.2 -4.4 -1.55 -5.0 -1.55 L-5.95 -1.2 M0.0 6.15 Q0.6 6.15 0.95 5.75 1.35 5.35 1.35 4.8 1.35 4.2 0.95 3.8 0.6 3.45 0.0 3.45 -0.55 3.45 -0.95 3.8 -1.35 4.2 -1.35 4.8 -1.35 5.35 -0.95 5.75 -0.55 6.15 0.0 6.15 M0.95 -3.95 Q1.35 -4.35 1.35 -4.9 1.35 -5.5 0.95 -5.9 0.6 -6.25 0.0 -6.25 -0.55 -6.25 -0.95 -5.9 -1.35 -5.5 -1.35 -4.9 -1.35 -4.35 -0.95 -3.95 -0.55 -3.55 0.0 -3.55 0.6 -3.55 0.95 -3.95 M5.85 -1.0 Q5.5 -1.35 4.9 -1.35 4.35 -1.35 3.95 -1.0 3.55 -0.6 3.55 0.0 3.55 0.55 3.95 0.95 4.35 1.35 4.9 1.35 5.5 1.35 5.85 0.95 6.25 0.55 6.25 0.0 6.25 -0.6 5.85 -1.0" fill="#959595" fill-rule="evenodd" stroke="none"/>
    <path d="M5.6 -5.65 Q7.95 -3.3 7.95 0.0 7.95 3.3 5.6 5.6 3.35 7.95 0.05 7.95 -3.25 7.95 -5.6 5.6 -7.9 3.3 -7.9 0.0 -7.9 -3.3 -5.6 -5.65 -3.25 -7.9 0.05 -7.9 3.35 -7.9 5.6 -5.65 Z" fill="none" stroke="#3b0101" stroke-linecap="round" stroke-linejoin="round" stroke-opacity="0.4" stroke-width="1.0"/>
  </g>
</svg>
