<?xml version="1.0" encoding="UTF-8" standalone="no"?>
<svg xmlns:ffdec="https://www.free-decompiler.com/flash" xmlns:xlink="http://www.w3.org/1999/xlink" ffdec:objectType="shape" height="9.55px" width="36.1px" xmlns="http://www.w3.org/2000/svg">
  <g transform="matrix(1.0, 0.0, 0.0, 1.0, 18.05, 4.8)">
    <path d="M-1.9 1.15 L-1.9 -0.25 -4.55 -0.25 -4.55 3.2 -6.8 3.2 -6.8 -0.25 -11.3 -0.25 -11.3 0.75 -18.05 3.9 -17.65 -2.9 -11.3 -3.8 -11.3 -4.8 3.85 -4.8 3.85 -4.15 15.25 -4.15 15.25 -3.35 14.8 -3.35 14.8 -1.75 15.25 -1.75 15.25 -0.9 13.3 -0.9 13.3 0.9 3.85 0.9 3.85 -0.2 3.55 -0.2 3.55 -0.25 3.1 -0.25 3.1 1.15 -1.9 1.15 M16.3 -3.35 L16.3 -4.15 18.05 -4.15 18.05 -0.85 16.3 -0.85 16.3 -1.75 16.3 -3.35 M3.1 -1.4 L3.1 -3.65 -1.9 -3.65 -1.9 -1.4 3.1 -1.4 M4.3 -3.35 L4.3 -1.75 14.0 -1.75 14.0 -3.35 4.3 -3.35 M-3.15 -1.4 L-3.15 -3.65 -8.15 -3.65 -8.15 -1.4 -3.15 -1.4 M-10.95 -3.65 L-10.95 -1.4 -9.05 -1.4 -9.05 -3.65 -10.95 -3.65 M-0.9 1.95 L2.1 1.95 2.1 2.65 -0.9 2.65 -0.9 1.95 M-0.9 3.45 L2.1 3.45 2.1 4.1 -0.9 4.1 -0.9 3.45" fill="#333333" fill-rule="evenodd" stroke="none"/>
    <path d="M-1.9 1.15 L3.1 1.15 3.1 4.75 -1.9 4.75 -1.9 1.15 M15.25 -1.75 L14.8 -1.75 14.8 -3.35 15.25 -3.35 16.3 -3.35 16.3 -1.75 15.25 -1.75 M4.3 -3.35 L14.0 -3.35 14.0 -1.75 4.3 -1.75 4.3 -3.35 M3.1 -1.4 L-1.9 -1.4 -1.9 -3.65 3.1 -3.65 3.1 -1.4 M-10.95 -3.65 L-9.05 -3.65 -9.05 -1.4 -10.95 -1.4 -10.95 -3.65 M-3.15 -1.4 L-8.15 -1.4 -8.15 -3.65 -3.15 -3.65 -3.15 -1.4 M-0.9 3.45 L-0.9 4.1 2.1 4.1 2.1 3.45 -0.9 3.45 M-0.9 1.95 L-0.9 2.65 2.1 2.65 2.1 1.95 -0.9 1.95" fill="#666666" fill-rule="evenodd" stroke="none"/>
  </g>
</svg>
