<?xml version="1.0" encoding="UTF-8" standalone="no"?>
<svg xmlns:ffdec="https://www.free-decompiler.com/flash" xmlns:xlink="http://www.w3.org/1999/xlink" ffdec:objectType="shape" height="42.05px" width="30.7px" xmlns="http://www.w3.org/2000/svg">
  <g transform="matrix(1.0, 0.0, 0.0, 1.0, 15.3, 20.95)">
    <path d="M15.15 -7.85 L15.2 -7.85 Q15.6 -6.35 15.2 -4.6 14.8 -3.05 13.8 -1.95 L-7.55 19.85 -7.6 19.85 Q-8.85 21.1 -10.5 21.1 L-14.3 21.1 -15.0 20.8 -15.3 20.1 -15.3 -19.95 -15.0 -20.65 -14.3 -20.95 0.35 -20.95 Q1.75 -21.0 3.05 -19.85 L13.55 -10.55 Q14.65 -9.5 15.15 -7.85" fill="#a36a6a" fill-rule="evenodd" stroke="none"/>
    <path d="M-14.3 -18.35 L-11.0 -18.35 -10.9 -18.4 -10.6 -18.35 0.55 -18.25 1.5 -17.95 2.25 -17.45 4.45 -15.8 8.1 -12.5 11.8 -8.95 Q12.5 -8.35 13.05 -7.1 13.6 -5.75 13.9 -5.45 L14.2 -6.95 Q14.2 -7.95 8.05 -13.7 L0.9 -19.85 -14.3 -19.85 -14.3 -20.0 0.35 -20.0 Q1.4 -20.0 2.35 -19.15 L12.85 -9.85 Q13.8 -9.0 14.2 -7.65 14.55 -6.35 14.2 -4.9 13.9 -3.6 13.05 -2.7 L-8.3 19.1 Q-9.25 20.05 -10.5 20.05 L-14.3 20.05 -14.3 -18.35 M-12.4 2.7 L-12.4 2.3 -12.45 2.6 -12.4 2.7" fill="#e0cbcb" fill-rule="evenodd" stroke="none"/>
    <path d="M-14.3 -19.85 L0.9 -19.85 8.05 -13.7 Q14.2 -7.95 14.2 -6.95 L13.9 -5.45 Q13.6 -5.75 13.05 -7.1 12.5 -8.35 11.8 -8.95 L8.1 -12.5 4.45 -15.8 2.25 -17.45 1.5 -17.95 0.55 -18.25 -10.6 -18.35 -10.9 -18.4 -11.0 -18.35 -14.3 -18.35 -14.3 -19.85" fill="#ffffff" fill-rule="evenodd" stroke="none"/>
    <path d="M-12.4 2.7 L-12.45 2.6 -12.4 2.3 -12.4 2.7" fill="#a36a6a" fill-rule="evenodd" stroke="none"/>
  </g>
</svg>
