<?xml version="1.0" encoding="UTF-8" standalone="no"?>
<svg xmlns:ffdec="https://www.free-decompiler.com/flash" xmlns:xlink="http://www.w3.org/1999/xlink" ffdec:objectType="shape" height="42.05px" width="23.25px" xmlns="http://www.w3.org/2000/svg">
  <g transform="matrix(1.0, 0.0, 0.0, 1.0, 11.6, 21.25)">
    <path d="M11.65 -20.25 L11.65 19.8 11.35 20.5 Q11.05 20.8 10.65 20.8 L-3.45 20.7 -4.1 20.65 -10.6 20.6 -11.3 20.3 -11.6 19.6 -11.6 -20.25 -11.3 -20.95 -10.6 -21.25 10.65 -21.25 Q11.05 -21.25 11.35 -20.95 L11.65 -20.25" fill="#a36a6a" fill-rule="evenodd" stroke="none"/>
    <path d="M10.65 -19.85 L-9.75 -19.85 -10.6 -19.8 -10.6 -20.0 10.65 -20.0 10.65 -19.85 M-10.6 -18.45 L10.65 -18.35 10.65 20.05 -3.45 19.95 -4.1 19.9 -10.6 19.85 -10.6 -18.45" fill="#e0cbcb" fill-rule="evenodd" stroke="none"/>
    <path d="M10.65 -19.85 L10.65 -18.35 -10.6 -18.45 -10.6 -19.8 -9.75 -19.85 10.65 -19.85" fill="#ffffff" fill-rule="evenodd" stroke="none"/>
  </g>
</svg>
