<?xml version="1.0" encoding="UTF-8" standalone="no"?>
<svg xmlns:ffdec="https://www.free-decompiler.com/flash" xmlns:xlink="http://www.w3.org/1999/xlink" ffdec:objectType="shape" height="21.55px" width="37.65px" xmlns="http://www.w3.org/2000/svg">
  <g transform="matrix(1.0, 0.0, 0.0, 1.0, 18.85, 10.75)">
    <path d="M18.5 -10.45 L18.8 -9.75 18.8 9.8 18.5 10.5 17.8 10.8 -14.35 10.55 Q-16.35 10.6 -17.65 8.8 -18.85 7.2 -18.85 5.05 -18.85 2.8 -17.5 1.25 L-17.5 1.3 -7.95 -10.35 -7.6 -10.65 -7.2 -10.75 17.8 -10.75 18.5 -10.45" fill="#a36a6a" fill-rule="evenodd" stroke="none"/>
    <path d="M-8.6 -8.0 L-7.2 -9.75 17.8 -9.75 17.8 -8.0 -8.6 -8.0" fill="#ffffff" fill-rule="evenodd" stroke="none"/>
    <path d="M-8.6 -8.0 L17.8 -8.0 17.8 9.8 -14.35 9.55 Q-15.85 9.55 -16.85 8.2 -17.85 6.85 -17.85 5.05 -17.85 3.2 -16.75 1.9 L-8.6 -8.0" fill="#e0cbcb" fill-rule="evenodd" stroke="none"/>
  </g>
</svg>
