<?xml version="1.0" encoding="UTF-8" standalone="no"?>
<svg xmlns:ffdec="https://www.free-decompiler.com/flash" xmlns:xlink="http://www.w3.org/1999/xlink" ffdec:objectType="shape" height="22.3px" width="27.0px" xmlns="http://www.w3.org/2000/svg">
  <g transform="matrix(1.0, 0.0, 0.0, 1.0, 13.25, 11.15)">
    <path d="M13.45 -10.85 L13.75 -10.15 13.75 10.15 13.45 10.85 Q13.15 11.15 12.75 11.15 L-12.25 11.15 -12.9 10.9 -13.25 10.25 Q-13.3 9.85 -13.0 9.55 L2.45 -9.45 2.5 -9.45 Q3.8 -11.15 5.7 -11.15 L12.75 -11.15 Q13.15 -11.15 13.45 -10.85" fill="#a36a6a" fill-rule="evenodd" stroke="none"/>
    <path d="M12.5 -8.6 L12.5 10.15 -12.5 10.15 3.0 -8.85 Q4.0 -10.15 5.45 -10.15 L12.5 -10.15 12.5 -9.95 12.25 -9.95 8.05 -9.9 4.5 -9.7 4.3 -9.4 4.2 -9.0 3.45 -7.9 2.2 -6.65 1.35 -5.55 -0.6 -3.05 -2.85 -0.7 -7.0 4.2 Q-9.5 7.25 -10.25 9.05 L-10.2 9.05 -2.6 0.2 Q0.1 -2.85 1.65 -3.75 L4.1 -7.05 Q5.05 -8.5 10.25 -8.6 L12.25 -8.6 12.5 -8.6" fill="#e0cbcb" fill-rule="evenodd" stroke="none"/>
    <path d="M12.5 -8.6 L12.25 -8.6 10.25 -8.6 Q5.05 -8.5 4.1 -7.05 L1.65 -3.75 Q0.1 -2.85 -2.6 0.2 L-10.2 9.05 -10.25 9.05 Q-9.5 7.25 -7.0 4.2 L-2.85 -0.7 -0.6 -3.05 1.35 -5.55 2.2 -6.65 3.45 -7.9 4.2 -9.0 4.3 -9.4 4.5 -9.7 8.05 -9.9 12.25 -9.95 12.5 -9.95 12.5 -8.6" fill="#ffffff" fill-rule="evenodd" stroke="none"/>
  </g>
</svg>
