<?xml version="1.0" encoding="UTF-8" standalone="no"?>
<svg xmlns:ffdec="https://www.free-decompiler.com/flash" xmlns:xlink="http://www.w3.org/1999/xlink" ffdec:objectType="shape" height="20.2px" width="50.05px" xmlns="http://www.w3.org/2000/svg">
  <g transform="matrix(1.0, 0.0, 0.0, 1.0, 25.0, 9.15)">
    <path d="M24.85 -5.6 L12.65 10.65 12.3 10.95 11.85 11.05 -23.9 11.05 -24.55 10.8 -24.9 10.15 -25.0 8.85 -24.8 8.15 -12.0 -8.75 -11.5 -9.1 -11.1 -9.15 24.0 -8.5 24.65 -8.2 24.95 -7.55 25.05 -6.25 24.85 -5.6" fill="#a36a6a" fill-rule="evenodd" stroke="none"/>
    <path d="M23.95 -7.8 L11.75 8.45 -24.0 8.45 -11.2 -8.45 -11.15 -7.15 -11.15 -8.45 23.95 -7.8" fill="#ffffff" fill-rule="evenodd" stroke="none"/>
    <path d="M23.95 -7.8 L24.05 -6.5 11.85 9.75 -23.9 9.75 -24.0 8.45 11.75 8.45 23.95 -7.8" fill="#e0cbcb" fill-rule="evenodd" stroke="none"/>
    <path d="M12.15 -0.3 L14.4 -0.3 M6.15 -0.3 L9.15 -0.3 M0.15 -0.3 L3.15 -0.3 M-9.75 -3.4 L-11.45 -0.9 M-6.35 -8.35 L-8.05 -5.85 M-5.85 -0.3 L-2.85 -0.3 M-14.85 -0.3 L-11.85 -0.3 -8.85 -0.3 M-16.55 6.55 L-14.85 4.05 M-13.15 1.6 L-11.85 -0.3" fill="none" stroke="#3b0101" stroke-linecap="round" stroke-linejoin="round" stroke-width="1.0"/>
  </g>
</svg>
