<?xml version="1.0" encoding="UTF-8" standalone="no"?>
<svg xmlns:ffdec="https://www.free-decompiler.com/flash" xmlns:xlink="http://www.w3.org/1999/xlink" ffdec:objectType="shape" height="54.2px" width="14.9px" xmlns="http://www.w3.org/2000/svg">
  <g transform="matrix(1.0, 0.0, 0.0, 1.0, 7.7, 27.1)">
    <path d="M5.95 -27.05 L6.55 -27.05 7.05 -26.65 7.2 -26.1 7.2 9.15 7.0 9.75 -5.9 26.7 Q-6.1 26.95 -6.4 27.05 L-7.0 27.05 -7.5 26.7 -7.7 26.1 -7.7 -9.1 -7.5 -9.75 4.7 -26.0 5.05 -26.3 5.15 -26.3 5.45 -26.7 5.95 -27.05" fill="#a36a6a" fill-rule="evenodd" stroke="none"/>
    <path d="M5.9 -25.4 L6.45 -26.1 6.45 9.15 -6.45 26.1 -6.45 -9.1 -6.4 -9.1 -6.45 -9.15 5.75 -25.4 5.9 -25.4" fill="#ffffff" fill-rule="evenodd" stroke="none"/>
  </g>
</svg>
