<?xml version="1.0" encoding="UTF-8" standalone="no"?>
<svg xmlns:ffdec="https://www.free-decompiler.com/flash" xmlns:xlink="http://www.w3.org/1999/xlink" ffdec:objectType="shape" height="6.3px" width="4.8px" xmlns="http://www.w3.org/2000/svg">
  <g transform="matrix(1.0, 0.0, 0.0, 1.0, 2.7, 3.15)">
    <path d="M2.05 -0.5 Q2.25 0.8 1.65 1.85 1.1 2.95 0.05 3.05 -0.9 3.4 -1.7 2.6 -2.45 1.85 -2.65 0.6 -2.85 -0.7 -2.25 -1.8 -1.7 -2.85 -0.75 -3.1 0.25 -3.3 1.1 -2.5 1.85 -1.8 2.05 -0.5" fill="#ff0000" fill-opacity="0.49803922" fill-rule="evenodd" stroke="none"/>
    <path d="M1.1 -0.1 Q1.2 0.45 0.9 0.9 L0.15 1.4 Q-0.3 1.55 -0.7 1.2 L-1.15 0.35 Q-1.25 -0.2 -0.95 -0.65 -0.7 -1.1 -0.25 -1.2 L0.65 -0.95 1.1 -0.1" fill="#ff0000" fill-opacity="0.69411767" fill-rule="evenodd" stroke="none"/>
  </g>
</svg>
