<?xml version="1.0" encoding="UTF-8" standalone="no"?>
<svg xmlns:ffdec="https://www.free-decompiler.com/flash" xmlns:xlink="http://www.w3.org/1999/xlink" ffdec:objectType="shape" height="53.3px" width="56.05px" xmlns="http://www.w3.org/2000/svg">
  <g transform="matrix(1.0, 0.0, 0.0, 1.0, 28.15, 26.7)">
    <path d="M-0.65 17.35 Q-0.85 16.25 -0.65 17.2 L-0.65 17.35" fill="#a36a6a" fill-rule="evenodd" stroke="none"/>
    <path d="M23.65 -25.75 L27.9 25.55 27.8 26.05 27.45 26.45 26.9 26.6 -27.15 26.6 -27.65 26.45 -28.0 26.1 -28.15 25.55 -26.1 -23.45 -26.05 -23.6 -25.6 -25.65 -25.25 -26.2 -24.6 -26.45 -9.0 -26.0 22.65 -26.7 23.35 -26.45 23.65 -25.75 M-0.45 17.25 L-0.15 17.5 -0.1 17.2 -0.45 17.25" fill="#a36a6a" fill-rule="evenodd" stroke="none"/>
    <path d="M-25.0 -23.4 L-24.55 -25.45 -8.9 -25.0 22.75 -25.7 27.0 25.6 -27.05 25.6 -25.0 -23.4 M-0.65 17.35 L-0.65 17.2 Q-0.85 16.25 -0.65 17.35" fill="#e0cbcb" fill-rule="evenodd" stroke="none"/>
    <path d="M-1.4 -17.95 L-1.4 -20.95 M-1.4 -11.95 L-1.4 -14.95 M-1.4 -5.95 L-1.4 -8.95 M-1.4 6.05 L-1.4 3.05 M-1.4 12.05 L-1.4 9.05 M-1.4 18.05 L-1.4 15.05 M-1.4 24.05 L-1.4 21.05 M-1.4 0.05 L-1.4 -2.95" fill="none" stroke="#3b0101" stroke-linecap="round" stroke-linejoin="round" stroke-width="1.0"/>
    <path d="M-21.4 -20.2 L-21.4 -20.45 -21.4 -20.6 -21.4 -20.65 -21.0 -22.15 Q-19.95 -24.45 -15.25 -24.55 L-12.25 -24.3 Q-11.15 -24.1 -10.5 -23.6 L-10.45 -23.5 -10.15 -22.8 Q-9.9 -22.1 -9.9 -21.15 L-10.0 -18.05 Q-10.1 -17.25 -10.5 -16.8 -11.55 -16.3 -13.5 -16.3 -17.5 -16.3 -19.2 -17.15 -21.25 -18.1 -21.4 -20.15 L-21.4 -20.2" fill="#a36a6a" fill-rule="evenodd" stroke="none"/>
    <path d="M-12.45 -23.35 L-10.95 -22.7 -10.45 -22.25 Q-10.15 -21.8 -10.15 -21.15 L-10.2 -18.5 Q-10.7 -17.3 -13.5 -17.3 -17.2 -17.3 -18.8 -18.05 -20.3 -18.75 -20.4 -20.2 L-20.4 -20.45 -20.4 -20.6 -20.1 -21.7 -19.9 -21.7 -19.05 -21.4 -18.55 -21.15 -14.75 -20.85 Q-13.5 -20.85 -13.2 -21.75 L-12.85 -23.0 -12.45 -23.35 M-11.35 -22.45 Q-12.35 -22.6 -12.35 -20.05 -12.65 -18.0 -11.4 -18.0 -10.4 -18.0 -10.4 -20.5 -10.4 -22.25 -11.35 -22.45" fill="#e0cbcb" fill-rule="evenodd" stroke="none"/>
    <path d="M-11.35 -22.45 Q-10.4 -22.25 -10.4 -20.5 -10.4 -18.0 -11.4 -18.0 -12.65 -18.0 -12.35 -20.05 -12.35 -22.6 -11.35 -22.45" fill="#a36a6a" fill-rule="evenodd" stroke="none"/>
    <path d="M-12.45 -23.35 L-12.85 -23.0 -13.2 -21.75 Q-13.5 -20.85 -14.75 -20.85 L-18.55 -21.15 -19.05 -21.4 -19.9 -21.7 -20.1 -21.7 Q-19.2 -23.45 -15.25 -23.55 L-12.45 -23.35" fill="#ffffff" fill-rule="evenodd" stroke="none"/>
    <path d="M19.85 -22.8 L20.1 -21.15 20.0 -18.05 Q19.9 -17.25 19.5 -16.8 18.45 -16.3 16.5 -16.3 12.5 -16.3 10.8 -17.15 8.75 -18.1 8.6 -20.15 L8.6 -20.2 8.6 -20.45 8.6 -20.6 8.6 -20.65 Q8.65 -21.5 9.0 -22.15 10.05 -24.45 14.75 -24.55 L17.75 -24.3 Q18.85 -24.1 19.5 -23.6 L19.55 -23.5 19.85 -22.8" fill="#a36a6a" fill-rule="evenodd" stroke="none"/>
    <path d="M9.9 -21.7 L10.1 -21.7 10.95 -21.4 11.45 -21.15 15.25 -20.85 Q16.5 -20.85 16.8 -21.75 L17.15 -23.0 17.55 -23.35 Q18.5 -23.15 19.05 -22.7 L19.55 -22.25 19.85 -21.15 19.8 -18.5 Q19.3 -17.3 16.5 -17.3 12.8 -17.3 11.2 -18.05 9.7 -18.75 9.6 -20.2 L9.6 -20.45 9.6 -20.6 9.9 -21.7 M18.65 -22.45 Q17.65 -22.6 17.65 -20.05 17.35 -18.0 18.6 -18.0 19.6 -18.0 19.6 -20.5 19.6 -22.25 18.65 -22.45" fill="#e0cbcb" fill-rule="evenodd" stroke="none"/>
    <path d="M17.55 -23.35 L17.15 -23.0 16.8 -21.75 Q16.5 -20.85 15.25 -20.85 L11.45 -21.15 10.95 -21.4 10.1 -21.7 9.9 -21.7 Q10.8 -23.45 14.75 -23.55 L17.55 -23.35" fill="#ffffff" fill-rule="evenodd" stroke="none"/>
    <path d="M18.65 -22.45 Q19.6 -22.25 19.6 -20.5 19.6 -18.0 18.6 -18.0 17.35 -18.0 17.65 -20.05 17.65 -22.6 18.65 -22.45" fill="#a36a6a" fill-rule="evenodd" stroke="none"/>
  </g>
</svg>
