<?xml version="1.0" encoding="UTF-8" standalone="no"?>
<svg xmlns:ffdec="https://www.free-decompiler.com/flash" xmlns:xlink="http://www.w3.org/1999/xlink" ffdec:objectType="shape" height="24.35px" width="50.55px" xmlns="http://www.w3.org/2000/svg">
  <g transform="matrix(1.0, 0.0, 0.0, 1.0, 39.7, 10.75)">
    <path d="M10.7 -5.7 L10.85 -5.3 Q10.85 -4.7 9.2 -3.9 8.75 -4.2 8.75 -4.5 8.75 -4.65 9.5 -5.15 10.3 -5.7 10.7 -5.7 M9.2 -2.3 L8.7 -0.3 Q8.15 1.4 7.6 1.8 7.1 1.2 7.1 0.0 7.1 -1.1 7.35 -1.6 7.75 -2.35 9.05 -2.7 L9.2 -2.3 M7.15 2.5 L7.4 2.4 7.6 2.0 8.0 2.5 8.0 2.9 7.6 3.15 Q7.15 2.95 7.15 2.5 M-37.25 -2.95 Q-36.85 -3.05 -36.85 -1.75 -36.85 -1.35 -36.5 -1.25 -35.9 -1.1 -35.5 -0.7 L-35.5 -0.45 -35.8 -0.4 Q-37.1 -0.4 -37.55 -1.15 L-37.7 -1.95 Q-37.7 -2.9 -37.25 -2.95 M-29.15 -6.85 Q-27.4 -7.0 -24.95 -5.2 L-24.7 -5.4 -24.4 -5.65 -23.4 -5.2 -22.7 -4.75 -23.45 -3.95 -24.65 -3.2 -24.65 -2.6 Q-24.75 -2.1 -25.2 -2.1 -25.9 -2.1 -25.85 -3.05 -25.8 -4.25 -26.25 -4.6 L-28.0 -5.5 Q-29.2 -6.1 -29.2 -6.55 L-29.15 -6.85 M-20.85 -4.7 Q-20.9 -4.6 -21.05 -4.6 L-21.6 -5.15 Q-21.6 -5.7 -21.0 -5.75 L-19.75 -5.65 Q-19.25 -5.65 -19.15 -5.4 -19.5 -4.7 -19.85 -4.65 L-20.7 -4.8 -20.85 -4.7 M-12.4 -8.55 L-14.3 -7.85 -14.45 -7.4 -14.65 -6.8 -14.8 -6.4 -15.0 -6.35 Q-15.5 -6.35 -15.5 -7.2 L-16.4 -7.25 -16.45 -7.55 -16.35 -7.7 -16.6 -7.7 -17.35 -7.95 Q-17.2 -8.4 -15.4 -8.7 -13.25 -9.1 -12.85 -9.35 L-12.0 -10.45 Q-11.35 -11.2 -11.35 -10.15 -11.35 -9.2 -12.4 -8.55 M-6.35 0.75 Q-6.35 1.1 -6.8 1.65 L-6.4 2.1 Q-6.4 2.65 -6.85 2.65 -8.1 2.65 -8.1 1.4 -8.1 0.5 -7.2 0.2 -6.35 -0.1 -6.35 0.75 M-19.65 5.55 Q-19.65 6.05 -20.0 6.05 L-20.35 5.95 -20.55 4.4 Q-20.55 4.05 -19.5 3.4 -18.45 2.7 -17.75 2.7 -17.25 2.7 -16.95 3.0 -17.2 3.35 -18.2 3.65 L-19.55 4.1 Q-19.85 4.3 -19.8 4.85 L-19.65 5.55 M-19.5 2.1 Q-19.5 2.5 -20.55 3.35 -21.65 4.2 -21.8 5.35 L-22.15 5.5 Q-22.55 5.5 -22.55 4.6 -22.55 3.6 -22.2 3.3 -21.1 2.75 -19.7 1.85 L-19.5 2.1 M-34.15 5.2 Q-33.05 5.2 -33.05 6.2 L-33.35 6.4 -34.0 6.15 Q-34.6 6.15 -35.2 6.6 -35.6 6.6 -35.6 6.1 -35.6 5.15 -35.4 5.1 L-34.15 5.2 M-36.5 5.6 Q-37.55 5.6 -37.6 3.6 -37.4 1.7 -37.1 1.4 L-36.75 2.25 -36.5 3.35 -36.7 3.85 -36.45 4.4 -36.25 5.05 Q-36.25 5.6 -36.5 5.6 M-36.95 11.1 L-36.4 11.5 -36.45 11.05 Q-36.35 10.75 -36.0 10.75 -35.8 10.75 -34.3 11.55 L-32.2 12.55 -32.75 12.85 -33.35 12.95 -33.95 12.7 -34.15 12.8 -34.35 12.9 Q-35.6 12.9 -37.7 11.95 -39.7 11.0 -39.7 10.6 -39.7 9.9 -38.95 10.25 L-37.7 10.75 Q-37.5 10.75 -36.95 11.1 M-31.1 12.35 L-29.1 12.7 -29.05 12.9 -29.25 13.3 -29.65 13.6 -30.5 13.4 Q-30.95 13.4 -31.5 12.9 L-32.1 12.1 -31.1 12.35 M-32.4 11.85 L-31.95 12.4 -32.05 12.5 -32.55 12.1 -32.55 11.85 -32.4 11.85 M-27.65 12.85 Q-27.65 13.15 -28.25 13.15 L-28.7 13.1 -28.75 12.85 Q-28.75 12.55 -28.15 12.55 -27.85 12.55 -27.7 12.7 L-27.65 12.85" fill="#999999" fill-rule="evenodd" stroke="none"/>
  </g>
</svg>
