<?xml version="1.0" encoding="UTF-8" standalone="no"?>
<svg xmlns:ffdec="https://www.free-decompiler.com/flash" xmlns:xlink="http://www.w3.org/1999/xlink" ffdec:objectType="shape" height="17.8px" width="17.8px" xmlns="http://www.w3.org/2000/svg">
  <g transform="matrix(1.0, 0.0, 0.0, 1.0, 8.9, 8.9)">
    <path d="M3.55 -3.5 Q2.1 -4.95 0.0 -4.95 -2.05 -4.95 -3.5 -3.5 -4.95 -2.05 -4.95 0.0 -4.95 2.05 -3.5 3.5 -2.05 4.95 0.0 4.95 2.1 4.95 3.55 3.5 4.95 2.05 4.95 0.0 4.95 -2.05 3.55 -3.5 M0.3 -7.3 Q1.15 -7.35 1.15 -7.65 1.15 -7.9 0.0 -8.05 L-2.2 -7.9 -4.6 -6.55 -5.85 -5.45 Q-6.8 -4.5 -6.8 -3.85 L-6.55 -3.6 Q-6.35 -3.6 -6.0 -4.15 L-5.7 -4.7 -5.0 -5.25 -4.0 -5.9 Q-3.05 -6.6 -1.95 -6.95 L0.3 -7.3 M1.15 -0.05 Q1.15 1.25 0.0 1.25 -1.3 1.25 -1.2 0.15 -1.2 -0.9 0.0 -0.95 1.15 -1.0 1.15 -0.05 M2.45 -2.65 Q3.0 -2.65 3.0 -2.05 3.0 -1.45 2.45 -1.45 1.8 -1.45 1.8 -2.1 1.8 -2.65 2.45 -2.65 M6.3 -6.3 Q8.9 -3.7 8.9 0.0 8.9 3.7 6.3 6.3 3.7 8.9 0.0 8.9 -3.7 8.9 -6.3 6.3 -8.9 3.7 -8.9 0.0 -8.9 -3.7 -6.3 -6.3 -3.7 -8.9 0.0 -8.9 3.7 -8.9 6.3 -6.3 M6.05 2.2 Q6.0 1.85 5.6 1.95 4.25 6.05 0.1 6.05 L-0.6 5.95 Q-1.05 5.95 -1.05 6.25 -1.05 6.9 0.15 6.9 2.0 6.9 3.25 6.1 L4.5 5.05 6.0 2.6 6.05 2.2 M2.8 2.3 L2.35 2.55 Q1.75 2.55 1.8 1.95 1.8 1.3 2.4 1.4 2.95 1.45 2.95 1.9 L2.8 2.3 M-1.25 -2.5 Q-2.1 -2.5 -2.1 -3.05 -2.1 -3.9 -1.45 -3.75 -0.8 -3.55 -0.8 -2.85 -0.8 -2.5 -1.25 -2.5 M-2.9 -0.25 L-3.35 0.0 Q-3.85 0.0 -3.95 -0.6 -3.95 -1.1 -3.35 -1.2 -2.75 -1.25 -2.75 -0.6 L-2.9 -0.25 M-1.8 3.15 Q-2.3 3.15 -2.4 2.6 -2.4 2.05 -1.85 2.05 -1.3 2.05 -1.3 2.6 -1.3 3.15 -1.8 3.15" fill="#333333" fill-rule="evenodd" stroke="none"/>
    <path d="M0.3 -7.3 L-1.95 -6.95 Q-3.05 -6.6 -4.0 -5.9 L-5.0 -5.25 -5.7 -4.7 -6.0 -4.15 Q-6.35 -3.6 -6.55 -3.6 L-6.8 -3.85 Q-6.8 -4.5 -5.85 -5.45 L-4.6 -6.55 -2.2 -7.9 0.0 -8.05 Q1.15 -7.9 1.15 -7.65 1.15 -7.35 0.3 -7.3 M3.55 -3.5 Q4.95 -2.05 4.95 0.0 4.95 2.05 3.55 3.5 2.1 4.95 0.0 4.95 -2.05 4.95 -3.5 3.5 -4.95 2.05 -4.95 0.0 -4.95 -2.05 -3.5 -3.5 -2.05 -4.95 0.0 -4.95 2.1 -4.95 3.55 -3.5 M2.45 -2.65 Q1.8 -2.65 1.8 -2.1 1.8 -1.45 2.45 -1.45 3.0 -1.45 3.0 -2.05 3.0 -2.65 2.45 -2.65 M1.15 -0.05 Q1.15 -1.0 0.0 -0.95 -1.2 -0.9 -1.2 0.15 -1.3 1.25 0.0 1.25 1.15 1.25 1.15 -0.05 M6.05 2.2 L6.0 2.6 4.5 5.05 3.25 6.1 Q2.0 6.9 0.15 6.9 -1.05 6.9 -1.05 6.25 -1.05 5.95 -0.6 5.95 L0.1 6.05 Q4.25 6.05 5.6 1.95 6.0 1.85 6.05 2.2 M-1.8 3.15 Q-1.3 3.15 -1.3 2.6 -1.3 2.05 -1.85 2.05 -2.4 2.05 -2.4 2.6 -2.3 3.15 -1.8 3.15 M-2.9 -0.25 L-2.75 -0.6 Q-2.75 -1.25 -3.35 -1.2 -3.95 -1.1 -3.95 -0.6 -3.85 0.0 -3.35 0.0 L-2.9 -0.25 M-1.25 -2.5 Q-0.8 -2.5 -0.8 -2.85 -0.8 -3.55 -1.45 -3.75 -2.1 -3.9 -2.1 -3.05 -2.1 -2.5 -1.25 -2.5 M2.8 2.3 L2.95 1.9 Q2.95 1.45 2.4 1.4 1.8 1.3 1.8 1.95 1.75 2.55 2.35 2.55 L2.8 2.3" fill="#999999" fill-rule="evenodd" stroke="none"/>
  </g>
</svg>
