<?xml version="1.0" encoding="UTF-8" standalone="no"?>
<svg xmlns:ffdec="https://www.free-decompiler.com/flash" xmlns:xlink="http://www.w3.org/1999/xlink" ffdec:objectType="shape" height="33.95px" width="42.45px" xmlns="http://www.w3.org/2000/svg">
  <g transform="matrix(1.0, 0.0, 0.0, 1.0, 21.25, 17.0)">
    <path d="M16.45 -3.75 Q20.7 -1.3 20.7 1.95 L20.65 2.75 20.7 7.05 Q20.7 10.95 14.6 13.7 8.7 16.4 0.4 16.45 L0.5 15.45 0.5 14.1 0.5 12.35 0.35 11.35 8.2 10.65 16.45 -3.75 M8.2 10.65 Q11.7 9.95 14.6 8.6 18.6 6.8 20.65 2.75 18.6 6.8 14.6 8.6 11.7 9.95 8.2 10.65" fill="#ffffff" fill-rule="evenodd" stroke="none"/>
    <path d="M0.4 16.45 L-0.05 16.45 Q-8.6 16.45 -14.7 13.7 -20.75 10.95 -20.75 7.05 L-20.6 2.9 Q-20.75 3.3 -20.75 1.95 -20.75 -1.95 -14.7 -4.7 -8.6 -7.45 -0.05 -7.45 8.55 -7.45 14.6 -4.7 L16.45 -3.75 8.2 10.65 0.35 11.35 0.5 12.35 0.5 14.1 0.5 15.45 0.4 16.45 M-20.6 2.9 Q-18.65 6.8 -14.7 8.6 -8.65 11.35 -0.15 11.35 -8.65 11.35 -14.7 8.6 -18.65 6.8 -20.6 2.9" fill="#e0cbcb" fill-rule="evenodd" stroke="none"/>
    <path d="M0.4 16.45 L-0.05 16.45 Q-8.6 16.45 -14.7 13.7 -20.75 10.95 -20.75 7.05 L-20.6 2.9 Q-20.75 3.3 -20.75 1.95 -20.75 -1.95 -14.7 -4.7 -8.6 -7.45 -0.05 -7.45 8.55 -7.45 14.6 -4.7 L16.45 -3.75 Q20.7 -1.3 20.7 1.95 L20.65 2.75 20.7 7.05 Q20.7 10.95 14.6 13.7 8.7 16.4 0.4 16.45 M0.35 11.35 L8.2 10.65 Q11.7 9.95 14.6 8.6 18.6 6.8 20.65 2.75 M-0.15 11.35 Q-8.65 11.35 -14.7 8.6 -18.65 6.8 -20.6 2.9" fill="none" stroke="#3b0101" stroke-linecap="round" stroke-linejoin="round" stroke-opacity="0.4" stroke-width="1.0"/>
    <path d="M-2.2 -13.2 L-1.05 -15.05 Q0.45 -16.5 2.5 -16.5 4.6 -16.5 6.1 -15.05 7.6 -13.55 7.6 -11.5 L7.6 -11.05 7.6 0.4 2.7 8.15 2.7 -3.3 2.7 -3.7 Q2.7 -5.8 1.2 -7.3 -0.3 -8.75 -2.35 -8.75 L-2.5 -8.75 Q-4.5 -8.7 -5.9 -7.3 L-6.0 -7.35 -3.1 -11.85 -2.5 -11.5 -2.2 -13.2" fill="#e0cbcb" fill-rule="evenodd" stroke="none"/>
    <path d="M-5.9 -7.3 Q-4.5 -8.7 -2.5 -8.75 L-2.35 -8.75 Q-0.3 -8.75 1.2 -7.3 2.7 -5.8 2.7 -3.7 L2.7 -3.3 2.7 8.15 -7.4 8.15 -7.4 -3.7 Q-7.4 -5.3 -6.55 -6.55 L-5.9 -7.3" fill="#cca9a9" fill-rule="evenodd" stroke="none"/>
    <path d="M2.7 8.15 L7.6 0.4 7.6 -11.05 7.6 -11.5 Q7.6 -13.55 6.1 -15.05 4.6 -16.5 2.5 -16.5 0.45 -16.5 -1.05 -15.05 L-2.2 -13.2 -3.1 -11.85 -6.0 -7.35 -6.55 -6.55 -5.9 -7.3 Q-4.5 -8.7 -2.5 -8.75 L-2.35 -8.75 Q-0.3 -8.75 1.2 -7.3 2.7 -5.8 2.7 -3.7 L2.7 -3.3 2.7 8.15 -7.4 8.15 -7.4 -3.7 Q-7.4 -5.3 -6.55 -6.55" fill="none" stroke="#3b0101" stroke-linecap="round" stroke-linejoin="round" stroke-opacity="0.4" stroke-width="1.0"/>
  </g>
</svg>
