<?xml version="1.0" encoding="UTF-8" standalone="no"?>
<svg xmlns:ffdec="https://www.free-decompiler.com/flash" xmlns:xlink="http://www.w3.org/1999/xlink" ffdec:objectType="shape" height="86.05px" width="97.75px" xmlns="http://www.w3.org/2000/svg">
  <g transform="matrix(1.0, 0.0, 0.0, 1.0, 46.7, 61.45)">
    <path d="M3.25 -34.85 L6.3 -35.6 Q5.45 -34.95 3.9 -34.35 2.5 -33.8 1.4 -33.6 L1.35 -33.65 Q1.7 -34.2 3.25 -34.85 M8.1 -14.85 Q8.1 -11.55 3.8 -9.0 0.45 -6.95 -1.4 -6.95 L-1.85 -7.0 -1.9 -7.25 -0.35 -8.05 Q1.6 -8.85 2.2 -9.2 4.8 -10.6 5.25 -11.1 L7.0 -13.45 7.4 -14.6 7.8 -15.8 8.0 -15.35 8.1 -14.85 M2.7 -16.95 Q2.7 -15.95 -0.65 -14.55 L-3.15 -13.45 Q-5.35 -12.6 -6.6 -12.6 L-8.45 -12.8 -8.5 -12.95 Q-6.75 -13.2 -1.6 -15.1 L0.75 -16.55 Q2.7 -17.75 2.7 -16.95 M3.85 -8.25 Q3.85 -7.8 0.8 -6.55 -2.6 -5.15 -4.95 -5.15 L-5.85 -5.45 -3.65 -6.1 -0.25 -6.9 Q1.0 -7.2 3.75 -8.45 L3.85 -8.25 M3.6 -3.3 L4.15 -2.85 3.6 -2.5 -0.8 -2.4 -0.8 -2.3 Q-0.8 -1.95 -2.15 -1.95 L-6.15 -2.25 -7.9 -2.4 -11.45 -2.7 -11.55 -3.0 -8.9 -3.1 -9.25 -3.15 -9.5 -3.35 -2.6 -3.6 -1.65 -3.5 -1.6 -3.35 -2.0 -3.0 1.1 -3.15 3.6 -3.3 M2.3 -1.1 L-4.65 -1.35 -4.75 -1.5 -4.65 -1.75 -1.05 -1.85 4.35 -1.65 5.3 -1.75 4.85 -1.3 2.3 -1.1 M18.1 -1.7 L21.55 -2.1 Q22.75 -2.4 23.15 -2.9 L24.55 -5.2 24.8 -5.15 24.85 -5.0 Q24.85 -4.2 24.15 -2.9 23.4 -1.65 23.4 -1.45 L24.15 -0.1 24.9 1.05 24.9 1.25 24.55 1.3 Q24.25 1.3 23.2 0.25 L22.1 -0.85 21.25 -0.65 18.55 -0.95 Q17.15 -1.2 17.15 -1.35 17.15 -1.7 18.1 -1.7 M37.95 -24.65 L38.25 -24.4 Q37.35 -23.35 36.35 -21.4 L34.7 -18.45 34.45 -18.7 34.45 -18.75 33.9 -17.9 33.6 -18.2 34.5 -20.3 35.8 -22.75 36.0 -22.45 35.25 -20.55 36.05 -21.9 37.95 -24.65 M50.15 -14.65 Q51.05 -14.15 51.05 -13.2 50.05 -8.7 48.85 -8.7 L48.4 -8.9 49.1 -10.6 49.6 -12.35 49.25 -14.35 Q49.25 -15.2 50.15 -14.65 M48.65 -7.7 Q47.85 -5.85 47.25 -5.1 47.0 -5.15 47.0 -5.35 47.0 -5.85 47.5 -6.9 48.05 -8.0 48.5 -7.85 L48.65 -7.7 M31.65 8.05 Q32.15 8.2 34.15 10.05 36.25 12.0 36.25 12.55 L36.2 12.9 36.1 13.0 35.9 13.1 35.8 13.1 34.85 12.3 34.65 12.05 33.55 10.65 Q31.6 8.7 31.6 8.3 L31.65 8.05 M31.8 11.75 L31.65 11.8 Q31.2 11.8 30.9 11.15 L30.65 10.55 Q30.65 9.7 31.1 10.25 L31.85 11.6 31.8 11.75 M37.85 11.9 L36.95 13.95 37.2 15.85 37.05 17.1 36.85 17.25 36.55 16.5 36.45 15.65 35.85 14.45 35.6 14.15 Q38.7 8.1 38.7 10.4 38.7 10.05 37.85 11.9 M28.35 6.1 Q29.25 7.0 29.25 7.6 29.25 8.0 28.95 8.0 28.6 8.0 27.9 6.9 L27.0 5.35 Q27.45 5.25 28.35 6.1 M24.35 5.85 L24.3 5.95 24.05 5.85 24.05 5.7 24.15 5.7 24.35 5.85 M25.1 8.8 Q25.85 8.6 27.2 10.15 28.5 11.65 28.5 12.45 L27.8 15.7 27.6 15.75 Q27.25 14.9 27.25 14.25 L27.6 12.45 Q27.6 12.1 26.45 10.55 L25.1 8.8 M27.35 16.85 L26.95 17.2 Q26.55 17.2 26.55 16.2 L26.55 14.7 Q27.35 14.65 27.35 16.3 L27.35 16.85 M1.95 7.7 Q2.35 9.55 2.35 14.2 L2.2 17.6 1.6 21.95 1.5 22.05 1.3 21.7 1.1 21.15 1.3 18.2 1.55 14.4 1.4 11.05 Q1.4 9.0 1.95 7.7 M1.15 23.8 L0.95 24.25 Q0.6 24.0 0.6 23.75 0.6 23.1 0.9 22.95 L1.15 23.8 M14.35 20.3 Q12.3 24.6 12.05 24.6 L11.7 24.55 11.65 24.25 Q11.65 23.55 12.65 21.8 13.6 20.05 14.05 19.85 L14.35 20.3 M12.6 20.75 L12.0 22.25 11.0 23.9 10.85 23.9 10.8 23.7 Q10.95 23.05 11.25 22.35 11.8 20.95 12.45 20.55 L12.6 20.75 M-24.85 -55.35 Q-22.75 -56.8 -18.0 -58.15 L-11.3 -59.95 -11.2 -59.9 Q-11.6 -59.25 -14.1 -58.6 -16.85 -57.85 -17.45 -57.4 -18.15 -56.85 -19.45 -56.65 L-21.1 -56.4 -24.25 -55.2 -24.75 -55.2 -24.85 -55.35 M-32.8 -49.55 L-33.2 -48.0 -31.85 -46.0 Q-31.85 -45.6 -32.25 -45.6 -33.3 -45.6 -34.15 -48.8 -34.25 -50.2 -33.4 -49.65 L-33.1 -50.2 Q-32.8 -50.1 -32.8 -49.55 M-13.75 -57.95 Q-10.85 -59.1 -7.55 -59.9 L-2.1 -61.45 -2.0 -61.3 -4.0 -60.4 -6.8 -59.35 -13.1 -57.75 -13.75 -57.95 M-45.65 -32.9 Q-45.65 -32.5 -45.1 -31.75 L-44.4 -30.7 -43.0 -30.55 -42.55 -30.3 Q-42.9 -29.95 -43.9 -29.95 -46.7 -29.95 -46.7 -32.3 -46.7 -32.95 -45.75 -33.45 L-45.65 -32.9 M-16.95 -35.4 Q-18.1 -34.6 -21.8 -33.3 L-25.8 -32.15 -27.65 -32.25 -28.5 -32.4 -28.5 -32.35 Q-28.5 -32.15 -31.25 -31.5 L-34.0 -30.9 Q-34.5 -30.9 -34.5 -31.25 -34.5 -31.6 -31.5 -32.3 L-28.6 -32.55 -28.6 -32.6 Q-28.6 -33.0 -27.7 -33.1 L-24.7 -33.65 -23.15 -34.2 -21.8 -34.5 -21.15 -34.3 -19.15 -34.9 -16.95 -35.4 M-23.7 -6.6 Q-23.85 -6.35 -24.25 -6.35 -25.25 -6.35 -27.8 -7.55 -30.3 -8.75 -31.0 -9.45 -30.5 -9.9 -29.9 -9.45 L-28.05 -8.3 Q-26.5 -8.0 -23.75 -6.75 L-23.7 -6.6 M-3.8 -2.8 L-3.35 -2.75 -3.35 -2.8 -3.8 -2.8 M-6.4 3.3 L-6.85 3.6 -7.55 3.35 -8.55 3.5 -10.9 3.75 -10.95 5.45 Q-11.05 6.65 -11.6 6.65 L-12.15 3.1 -11.75 2.5 -11.15 2.1 Q-10.85 2.25 -10.85 2.55 L-6.95 2.7 -6.4 3.3 M-16.3 12.35 L-16.3 13.7 Q-16.4 14.8 -16.9 14.8 L-26.65 14.35 -26.9 14.25 Q-26.7 13.95 -26.1 13.8 L-21.25 13.5 -18.7 13.7 Q-16.9 13.7 -16.8 12.75 L-17.05 11.2 -17.0 8.7 -17.2 8.2 Q-17.2 7.05 -16.8 6.25 -16.3 8.4 -16.3 12.35 M-24.2 12.15 L-23.95 12.45 -24.0 12.7 -24.35 12.75 -26.5 12.55 -27.2 12.4 Q-26.8 12.1 -26.1 12.1 L-24.2 12.15 M-39.85 2.15 L-41.15 2.25 -42.15 2.05 -43.0 1.95 -43.2 3.35 -43.7 4.8 Q-44.1 4.4 -44.1 3.3 L-43.85 1.35 -41.85 1.2 Q-40.4 1.45 -39.7 1.85 L-39.85 2.15 M-31.0 14.0 Q-31.45 14.5 -33.1 14.5 L-35.35 14.3 -36.3 13.9 -33.7 13.75 Q-31.65 13.8 -31.65 13.05 L-31.85 12.5 Q-30.8 12.45 -30.8 13.15 L-31.0 14.0" fill="#999999" fill-rule="evenodd" stroke="none"/>
  </g>
</svg>
