<?xml version="1.0" encoding="UTF-8" standalone="no"?>
<svg xmlns:ffdec="https://www.free-decompiler.com/flash" xmlns:xlink="http://www.w3.org/1999/xlink" ffdec:objectType="shape" height="23.9px" width="32.65px" xmlns="http://www.w3.org/2000/svg">
  <g transform="matrix(1.0, 0.0, 0.0, 1.0, 21.05, 10.1)">
    <path d="M6.5 0.25 L6.45 -0.15 Q6.45 -1.1 7.1 -1.8 7.8 -2.45 8.75 -2.45 9.75 -2.45 10.4 -1.8 11.1 -1.1 11.1 -0.1 11.1 0.85 10.4 1.5 9.75 2.2 8.75 2.2 7.8 2.2 7.1 1.5 6.6 1.0 6.5 0.25" fill="#cccccc" fill-rule="evenodd" stroke="none"/>
    <path d="M-1.0 0.25 Q-1.05 4.05 -2.5 6.75 -3.95 9.55 -6.05 9.55 -8.15 9.55 -9.65 6.75 -10.65 4.8 -10.95 2.3 L-11.1 -0.05 Q-11.1 -4.0 -9.65 -6.8 -8.15 -9.6 -6.05 -9.6 -3.95 -9.6 -2.5 -6.8 -1.0 -4.0 -1.0 -0.05 L-1.0 0.25 -6.35 0.25 -1.0 0.25" fill="url(#gradient0)" fill-rule="evenodd" stroke="none"/>
    <path d="M6.5 0.25 L6.45 -0.15 Q6.45 -1.1 7.1 -1.8 7.8 -2.45 8.75 -2.45 9.75 -2.45 10.4 -1.8 11.1 -1.1 11.1 -0.1 11.1 0.85 10.4 1.5 9.75 2.2 8.75 2.2 7.8 2.2 7.1 1.5 6.6 1.0 6.5 0.25 L-1.0 0.25 Q-1.05 4.05 -2.5 6.75 -3.95 9.55 -6.05 9.55 -8.15 9.55 -9.65 6.75 -10.65 4.8 -10.95 2.3 L-14.0 7.5 -10.15 10.1 M-10.95 2.3 L-11.1 -0.05 Q-11.1 -4.0 -9.65 -6.8 -8.15 -9.6 -6.05 -9.6 -3.95 -9.6 -2.5 -6.8 -1.0 -4.0 -1.0 -0.05 L-1.0 0.25 -6.35 0.25 M-11.7 0.2 L-14.65 0.9 -18.1 4.75 -14.25 7.35 -14.0 7.5 M-14.25 7.35 L-17.1 12.35 M-11.65 13.3 L-8.85 8.5 M-18.1 4.75 L-20.55 7.4" fill="none" stroke="#3b0101" stroke-linecap="round" stroke-linejoin="round" stroke-opacity="0.4" stroke-width="1.0"/>
  </g>
  <defs>
    <radialGradient cx="0" cy="0" gradientTransform="matrix(0.0117, 0.0, 0.0, 0.0117, -6.25, 4.55)" gradientUnits="userSpaceOnUse" id="gradient0" r="819.2" spreadMethod="pad">
      <stop offset="0.0" stop-color="#cccccc"/>
      <stop offset="1.0" stop-color="#999999"/>
    </radialGradient>
  </defs>
</svg>
