<?xml version="1.0" encoding="UTF-8" standalone="no"?>
<svg xmlns:ffdec="https://www.free-decompiler.com/flash" xmlns:xlink="http://www.w3.org/1999/xlink" ffdec:objectType="shape" height="7.55px" width="18.0px" xmlns="http://www.w3.org/2000/svg">
  <g transform="matrix(1.0, 0.0, 0.0, 1.0, 9.0, 3.8)">
    <path d="M5.25 -3.8 L5.35 -3.8 Q8.35 -4.05 8.85 -1.75 L8.85 -1.6 9.0 -0.6 9.0 -0.55 Q9.05 0.55 8.1 1.1 L8.0 1.15 7.15 1.35 7.1 1.35 6.85 1.4 6.85 1.45 6.85 1.65 6.85 1.7 6.45 2.7 6.35 2.75 Q5.85 3.45 4.3 3.65 L2.3 3.75 Q-9.0 3.05 -9.0 0.7 -9.0 0.0 -8.55 -0.55 L-8.5 -0.6 -8.5 -0.65 -8.4 -0.7 -8.4 -0.75 -8.15 -1.0 -7.95 -1.15 -7.4 -1.5 -7.05 -1.65 Q-4.95 -2.6 0.5 -2.95 L5.25 -3.8" fill="#a36a6a" fill-rule="evenodd" stroke="none"/>
    <path d="M-6.75 -0.65 Q-4.8 -1.6 0.5 -1.95 L5.15 -2.8 Q7.45 -3.0 7.9 -1.4 L6.7 -1.4 1.85 -0.7 1.85 -0.65 Q2.55 0.15 5.45 0.3 L5.75 0.7 5.9 1.35 5.9 1.5 2.9 1.0 -3.05 0.35 -6.3 -0.55 -6.75 -0.65" fill="#f2eaea" fill-rule="evenodd" stroke="none"/>
    <path d="M7.9 -1.4 L8.0 -0.55 7.55 0.15 6.85 0.35 5.45 0.3 Q2.55 0.15 1.85 -0.65 L1.85 -0.7 6.7 -1.4 7.9 -1.4 M5.9 1.5 L5.7 2.0 Q5.3 2.5 4.1 2.65 L2.25 2.75 Q-8.0 2.1 -8.0 0.7 L-7.8 0.15 -7.75 0.05 -7.5 -0.2 -6.85 -0.6 -6.75 -0.65 -6.3 -0.55 -3.05 0.35 2.9 1.0 5.9 1.5" fill="#e0cbcb" fill-rule="evenodd" stroke="none"/>
  </g>
</svg>
