<?xml version="1.0" encoding="UTF-8" standalone="no"?>
<svg xmlns:ffdec="https://www.free-decompiler.com/flash" xmlns:xlink="http://www.w3.org/1999/xlink" ffdec:objectType="shape" height="9.75px" width="18.25px" xmlns="http://www.w3.org/2000/svg">
  <g transform="matrix(1.0, 0.0, 0.0, 1.0, 9.1, 4.9)">
    <path d="M9.15 -1.55 Q9.4 -0.3 5.35 2.35 1.45 4.9 -1.1 4.85 L-3.3 4.55 -5.2 3.55 -6.95 2.3 -8.05 1.45 -8.1 1.35 -8.8 -0.15 -8.25 -1.45 -7.5 -2.85 Q-7.05 -3.35 -5.4 -4.05 L-2.85 -4.85 -1.7 -4.55 -0.25 -3.95 1.55 -3.5 2.2 -3.4 4.85 -3.55 5.25 -3.75 5.4 -3.8 6.55 -4.1 6.6 -4.1 Q8.5 -4.2 9.1 -1.75 L9.15 -1.55" fill="#a36a6a" fill-rule="evenodd" stroke="none"/>
    <path d="M6.55 -3.1 Q7.75 -3.1 8.15 -1.5 8.15 -0.7 4.8 1.5 1.2 3.85 -1.1 3.85 -2.9 3.85 -4.15 3.05 L-6.6 2.05 Q-8.4 1.15 -8.55 0.55 L-8.65 0.55 Q-9.0 0.55 -9.05 0.2 L-9.05 -0.15 Q-9.05 -1.6 -7.75 -2.9 -6.3 -4.3 -3.65 -4.9 L-2.85 -4.75 -2.55 -4.85 -0.9 -3.6 Q0.9 -2.4 2.25 -2.4 L5.0 -2.55 5.7 -2.85 6.55 -3.1" fill="#f2eaea" fill-rule="evenodd" stroke="none"/>
  </g>
</svg>
