<?xml version="1.0" encoding="UTF-8" standalone="no"?>
<svg xmlns:ffdec="https://www.free-decompiler.com/flash" xmlns:xlink="http://www.w3.org/1999/xlink" ffdec:objectType="shape" height="51.6px" width="46.25px" xmlns="http://www.w3.org/2000/svg">
  <g transform="matrix(1.0, 0.0, 0.0, 1.0, 25.5, 30.6)">
    <path d="M18.65 0.55 L18.7 -0.1 18.75 -1.35 18.95 -6.75 18.95 -7.35 19.0 -8.05 18.95 -8.9 18.9 -9.95 18.55 -11.95 Q17.0 -19.35 11.2 -23.9 5.75 -28.0 -1.05 -28.6 -9.9 -29.3 -17.0 -23.9 -23.1 -18.05 -24.1 -9.7 L-24.15 -8.05 -24.15 -7.35 -24.15 -6.45 Q-24.15 -1.9 -23.75 -0.35 -23.3 1.5 -21.5 4.75 L-21.3 4.1 Q-20.7 2.35 -19.1 1.85 L-17.6 1.65 Q-15.6 1.65 -15.6 2.45 -15.6 3.2 -18.5 3.15 L-18.6 3.3 Q-19.8 4.45 -20.05 5.1 L-20.15 6.7 Q-20.15 8.3 -19.0 10.65 -17.3 14.1 -14.15 14.1 L-12.55 13.85 -12.0 13.5 -11.1 12.9 -10.45 13.15 -10.35 13.45 Q-10.35 13.85 -11.3 14.55 L-11.6 14.75 Q-12.65 15.45 -13.85 15.45 -18.45 15.45 -20.45 11.25 -21.45 9.25 -21.55 7.05 -23.9 6.55 -24.9 0.35 -25.45 -3.0 -25.5 -6.45 L-25.5 -7.35 -25.5 -8.05 -25.5 -9.7 -25.25 -11.85 Q-24.1 -18.9 -19.45 -23.9 L-18.0 -25.1 Q-10.7 -30.8 -1.55 -30.6 7.0 -29.9 13.15 -23.9 18.6 -17.95 20.4 -9.95 L20.6 -8.05 20.65 -7.35 20.7 -6.75 Q20.95 -2.6 20.3 4.4 L20.25 4.85 Q19.7 10.0 16.85 14.1 11.55 21.9 0.5 20.9 L-2.65 20.35 Q-7.2 19.15 -10.6 15.6 -7.15 18.35 -2.65 19.1 L-1.35 19.25 Q1.6 19.5 4.2 19.15 L5.55 18.95 6.0 18.8 Q9.4 17.95 11.9 15.9 L12.05 15.75 14.5 13.15 15.0 12.45 Q17.35 9.0 18.15 4.85 L18.45 2.7 18.65 0.55 M-15.9 11.1 L-15.9 11.2 -16.2 11.25 Q-17.05 11.25 -17.4 9.0 L-17.55 6.7 Q-17.55 4.75 -15.3 5.6 -13.05 6.45 -13.05 7.55 -13.05 8.25 -13.65 8.25 L-14.65 7.5 Q-15.5 6.75 -16.15 6.75 -16.9 6.75 -16.7 7.8 L-16.4 9.45 -15.9 11.1" fill="#a36a6a" fill-rule="evenodd" stroke="none"/>
    <path d="M-11.6 14.75 L-11.3 14.55 Q-10.35 13.85 -10.35 13.45 L-10.45 13.15 -11.1 12.9 -12.0 13.5 -12.55 13.85 -14.15 14.1 Q-17.3 14.1 -19.0 10.65 -20.15 8.3 -20.15 6.7 L-20.05 5.1 Q-19.8 4.45 -18.6 3.3 L-18.5 3.15 Q-15.6 3.2 -15.6 2.45 -15.6 1.65 -17.6 1.65 L-19.1 1.85 Q-20.7 2.35 -21.3 4.1 L-21.5 4.75 Q-23.3 1.5 -23.75 -0.35 -24.15 -1.9 -24.15 -6.45 L-24.15 -7.35 -24.15 -8.05 -24.1 -9.7 Q-23.1 -18.05 -17.0 -23.9 -9.9 -29.3 -1.05 -28.6 5.75 -28.0 11.2 -23.9 17.0 -19.35 18.55 -11.95 L18.9 -9.95 18.95 -8.9 19.0 -8.05 18.95 -7.35 18.95 -6.75 18.75 -1.35 18.7 -0.1 18.65 0.55 16.5 1.2 11.85 2.3 Q10.35 3.0 9.35 4.3 L9.05 4.85 8.2 6.4 8.05 6.9 8.05 10.1 Q8.0 13.4 10.5 13.65 12.65 13.85 14.5 13.15 L12.05 15.75 11.9 15.9 Q9.4 17.95 6.0 18.8 L5.55 18.95 4.2 19.15 Q1.6 19.5 -1.35 19.25 L-2.65 19.1 Q-7.15 18.35 -10.6 15.6 L-11.6 14.75 M-15.9 11.1 L-16.4 9.45 -16.7 7.8 Q-16.9 6.75 -16.15 6.75 -15.5 6.75 -14.65 7.5 L-13.65 8.25 Q-13.05 8.25 -13.05 7.55 -13.05 6.45 -15.3 5.6 -17.55 4.75 -17.55 6.7 L-17.4 9.0 Q-17.05 11.25 -16.2 11.25 L-15.9 11.2 -15.9 11.1" fill="#e0cbcb" fill-rule="evenodd" stroke="none"/>
    <path d="M18.65 0.55 L18.45 2.7 18.15 4.85 Q17.35 9.0 15.0 12.45 L14.5 13.15 Q12.65 13.85 10.5 13.65 8.0 13.4 8.05 10.1 L8.05 6.9 8.2 6.4 9.05 4.85 9.35 4.3 Q10.35 3.0 11.85 2.3 L16.5 1.2 18.65 0.55" fill="url(#gradient0)" fill-rule="evenodd" stroke="none"/>
  </g>
  <defs>
    <radialGradient cx="0" cy="0" gradientTransform="matrix(0.0343, 0.0032, -0.0035, 0.0381, -79.5, -89.9)" gradientUnits="userSpaceOnUse" id="gradient0" r="819.2" spreadMethod="pad">
      <stop offset="0.47843137254901963" stop-color="#ffffff"/>
      <stop offset="0.8823529411764706" stop-color="#f2eaea"/>
    </radialGradient>
  </defs>
</svg>
