<?xml version="1.0" encoding="UTF-8" standalone="no"?>
<svg xmlns:ffdec="https://www.free-decompiler.com/flash" xmlns:xlink="http://www.w3.org/1999/xlink" ffdec:objectType="shape" height="18.4px" width="12.4px" xmlns="http://www.w3.org/2000/svg">
  <g transform="matrix(1.0, 0.0, 0.0, 1.0, 6.2, 9.2)">
    <path d="M4.55 -5.35 Q6.2 -3.75 6.2 -0.75 L6.15 0.5 6.15 0.7 6.15 0.75 Q5.65 3.55 3.05 6.2 0.1 9.3 -2.25 9.2 L-2.3 9.2 Q-4.95 9.4 -6.2 5.6 L-6.2 2.7 Q-6.3 -0.4 -5.85 -3.25 -4.9 -9.0 -1.7 -9.0 L1.8 -7.65 4.55 -5.35" fill="#a36a6a" fill-rule="evenodd" stroke="none"/>
    <path d="M-5.75 2.55 L-6.15 -1.35 Q-6.15 -3.3 -5.2 -6.05 -3.95 -9.85 -2.05 -9.1 2.7 -5.55 3.7 -4.5 5.05 -3.2 5.05 -0.7 L5.0 0.45 4.75 0.05 Q4.1 -0.9 3.25 -0.9 2.05 -0.9 0.0 1.7 -2.05 4.3 -2.6 4.3 -4.35 4.3 -5.6 2.85 L-5.75 2.55" fill="#f2eaea" fill-rule="evenodd" stroke="none"/>
    <path d="M5.0 0.45 L5.0 0.55 Q4.5 3.1 2.2 5.45 -0.3 8.1 -2.3 8.1 -4.45 8.1 -5.45 4.35 L-5.65 3.35 -5.75 2.55 -5.6 2.85 Q-4.35 4.3 -2.6 4.3 -2.05 4.3 0.0 1.7 2.05 -0.9 3.25 -0.9 4.1 -0.9 4.75 0.05 L5.0 0.45" fill="#e0cbcb" fill-rule="evenodd" stroke="none"/>
  </g>
</svg>
