<?xml version="1.0" encoding="UTF-8" standalone="no"?>
<svg xmlns:ffdec="https://www.free-decompiler.com/flash" xmlns:xlink="http://www.w3.org/1999/xlink" ffdec:objectType="shape" height="36.2px" width="23.65px" xmlns="http://www.w3.org/2000/svg">
  <g transform="matrix(1.0, 0.0, 0.0, 1.0, 11.85, 18.1)">
    <path d="M11.8 -14.05 Q11.5 -14.0 11.55 -13.35 L11.5 -12.8 11.35 -12.15 10.65 -9.05 10.4 -7.5 9.4 -2.1 Q8.75 1.5 9.35 4.95 L9.55 7.95 9.1 10.3 Q8.25 12.65 6.8 14.5 5.6 16.05 3.8 16.9 L1.3 17.6 -1.3 18.1 Q-5.5 18.3 -8.55 15.6 -10.25 14.05 -11.05 11.65 L-11.75 8.3 -11.8 3.2 -11.6 -0.45 -11.3 -1.75 -10.05 -4.75 -9.3 -6.8 -9.15 -7.05 -7.0 -9.65 -5.1 -12.05 -3.2 -13.9 0.55 -16.45 Q2.2 -17.4 4.0 -17.8 L7.45 -18.1 Q9.9 -17.65 11.15 -15.4 L11.8 -14.05" fill="#a36a6a" fill-rule="evenodd" stroke="none"/>
    <path d="M8.4 -16.4 L8.35 -16.3 8.05 -15.35 6.35 -11.75 Q5.65 -10.35 4.9 -8.1 L3.75 -4.5 Q2.55 -1.3 2.35 2.8 2.25 6.6 -0.7 8.45 -2.7 9.75 -4.95 9.75 -8.6 9.75 -10.5 8.2 L-10.6 4.75 Q-10.6 1.2 -10.25 -0.45 -9.85 -2.25 -8.1 -6.35 -0.4 -17.05 5.65 -17.05 7.25 -17.05 8.4 -16.4" fill="url(#gradient0)" fill-rule="evenodd" stroke="none"/>
    <path d="M8.4 -16.4 L9.4 -15.8 10.0 -15.15 Q10.55 -14.55 10.55 -14.05 L9.95 -11.2 8.45 -7.5 Q6.9 -2.5 6.3 0.0 L5.65 3.7 5.1 7.55 Q3.85 13.3 -3.8 14.35 L-6.75 14.35 -8.5 13.65 -9.8 11.25 -10.25 9.7 -10.5 8.2 Q-8.6 9.75 -4.95 9.75 -2.7 9.75 -0.7 8.45 2.25 6.6 2.35 2.8 2.55 -1.3 3.75 -4.5 L4.9 -8.1 Q5.65 -10.35 6.35 -11.75 L8.05 -15.35 8.35 -16.3 8.4 -16.4" fill="#e0cbcb" fill-rule="evenodd" stroke="none"/>
    <path d="M-8.5 13.65 L-6.75 14.35 -3.8 14.35 Q3.85 13.3 5.1 7.55 L5.65 3.7 6.3 0.0 Q6.9 -2.5 8.45 -7.5 L9.95 -11.2 9.15 -7.75 8.4 -3.65 Q7.85 -0.3 7.85 2.25 7.85 3.45 8.15 5.2 L8.55 7.95 Q8.55 9.75 6.6 12.6 3.75 16.85 -1.3 16.85 -4.45 16.85 -6.55 15.5 L-7.6 14.7 -8.55 13.65 -8.5 13.65" fill="#cca9a9" fill-rule="evenodd" stroke="none"/>
  </g>
  <defs>
    <radialGradient cx="0" cy="0" gradientTransform="matrix(-0.0061, 0.0074, 0.006, 0.005, 37.0, 1.2)" gradientUnits="userSpaceOnUse" id="gradient0" r="819.2" spreadMethod="pad">
      <stop offset="0.47843137254901963" stop-color="#ffffff"/>
      <stop offset="0.8823529411764706" stop-color="#f2eaea"/>
    </radialGradient>
  </defs>
</svg>
