<?xml version="1.0" encoding="UTF-8" standalone="no"?>
<svg xmlns:ffdec="https://www.free-decompiler.com/flash" xmlns:xlink="http://www.w3.org/1999/xlink" ffdec:objectType="shape" height="17.5px" width="23.4px" xmlns="http://www.w3.org/2000/svg">
  <g transform="matrix(1.0, 0.0, 0.0, 1.0, 11.7, 8.75)">
    <path d="M4.45 -4.65 L4.5 -4.6 5.95 -3.55 6.15 -3.5 8.35 -1.75 8.4 -1.75 Q10.95 0.5 11.4 1.9 11.75 2.5 11.7 3.45 L11.7 3.55 11.45 4.95 11.4 5.15 11.4 5.2 11.3 5.35 11.25 5.35 11.25 5.45 9.9 7.2 9.8 7.3 Q8.65 8.1 6.2 8.55 L0.55 8.7 -1.95 8.05 -5.05 7.0 Q-6.9 6.4 -8.15 5.65 -10.6 4.35 -11.35 1.95 L-11.7 0.5 -11.65 0.4 -11.65 0.45 -11.6 0.1 -11.55 -0.15 -9.35 -5.45 Q-7.75 -8.95 -2.95 -8.75 1.75 -8.55 2.8 -6.8 L4.45 -4.65" fill="#a36a6a" fill-rule="evenodd" stroke="none"/>
    <path d="M2.35 -5.35 L2.4 -5.35 2.65 -5.0 2.75 -4.9 3.55 -3.85 3.75 -3.65 4.1 -3.35 4.75 -2.95 4.7 -2.95 5.35 -2.5 2.5 -1.45 Q1.3 -1.05 0.5 -0.45 L0.15 -0.45 -1.85 -0.4 -1.75 -0.5 Q-2.75 -0.65 -3.0 -1.05 L-3.1 -1.65 Q-3.1 -3.45 0.15 -4.7 L2.35 -5.35 M10.45 3.45 L10.3 4.65 10.15 4.95 9.15 6.3 Q8.15 6.95 6.05 7.3 3.95 7.6 -0.4 7.45 L-6.05 6.85 Q-10.25 5.8 -10.95 3.5 L-10.95 2.25 -10.95 2.2 -10.5 0.75 -10.4 0.25 -9.85 1.9 -8.85 3.2 -8.7 3.15 -6.75 3.7 -0.85 4.4 1.3 4.3 1.95 4.45 7.0 4.45 8.9 3.85 10.45 3.45" fill="#e0cbcb" fill-rule="evenodd" stroke="none"/>
    <path d="M4.7 -2.95 L5.5 -2.45 7.55 -0.9 Q9.9 1.2 10.3 2.35 10.55 2.75 10.45 3.45 L8.9 3.85 7.0 4.45 1.95 4.45 1.3 4.3 -0.85 4.4 -6.75 3.7 -8.7 3.15 -8.85 3.2 -9.85 1.9 -10.4 0.25 -8.25 -4.9 Q-6.9 -7.7 -3.05 -7.5 0.9 -7.35 1.85 -6.05 L2.35 -5.35 0.15 -4.7 Q-3.1 -3.45 -3.1 -1.65 L-3.0 -1.05 Q-2.75 -0.65 -1.75 -0.5 L-1.85 -0.4 0.15 -0.45 0.5 -0.45 Q1.3 -1.05 2.5 -1.45 L5.35 -2.5 4.7 -2.95" fill="#f2eaea" fill-rule="evenodd" stroke="none"/>
  </g>
</svg>
