<?xml version="1.0" encoding="UTF-8" standalone="no"?>
<svg xmlns:ffdec="https://www.free-decompiler.com/flash" xmlns:xlink="http://www.w3.org/1999/xlink" ffdec:objectType="shape" height="5.0px" width="6.85px" xmlns="http://www.w3.org/2000/svg">
  <g transform="matrix(1.0, 0.0, 0.0, 1.0, 3.2, 3.9)">
    <path d="M1.35 -1.75 L1.55 -1.6 2.05 -1.05 2.4 -0.45 2.45 -0.35 2.4 -0.25 2.25 0.1 Q1.55 1.15 0.2 1.1 L-2.15 0.25 -2.15 0.2 -2.15 0.1 -2.0 -0.65 -1.5 -1.3 -1.55 -1.3 -1.05 -1.65 0.65 -1.9 1.35 -1.75 M0.45 -1.8 L0.35 -1.8 -0.35 -1.45 -0.65 -0.45 -0.55 -0.1 -0.45 0.05 Q-0.1 0.45 0.55 0.45 1.15 0.45 1.5 0.05 L1.6 -0.1 1.7 -0.3 1.75 -0.65 1.5 -1.3 Q1.15 -1.8 0.6 -1.8 L0.55 -1.8 0.45 -1.8" fill="#ffffff" fill-rule="evenodd" stroke="none"/>
    <path d="M0.45 -1.8 L0.55 -1.8 0.6 -1.8 Q1.15 -1.8 1.5 -1.3 L1.75 -0.65 1.7 -0.3 1.6 -0.1 1.5 0.05 Q1.15 0.45 0.55 0.45 -0.1 0.45 -0.45 0.05 L-0.55 -0.1 -0.65 -0.45 -0.35 -1.45 0.35 -1.8 0.45 -1.8" fill="#330000" fill-rule="evenodd" stroke="none"/>
    <path d="M2.25 0.1 L2.4 -0.25 2.45 -0.35 2.4 -0.45 2.05 -1.05 1.55 -1.6 1.35 -1.75 2.65 -1.3 Q3.65 -0.85 3.65 -0.65 3.65 -0.55 2.25 0.1 M-1.55 -1.3 L-1.5 -1.3 -2.0 -0.65 -2.15 0.1 -2.15 0.2 -2.3 0.3 -2.55 0.25 -2.9 0.15 -3.2 -0.05 -2.3 -0.85 -1.55 -1.3" fill="#330000" fill-opacity="0.29803923" fill-rule="evenodd" stroke="none"/>
    <path d="M2.25 -3.2 Q3.0 -2.75 3.25 -2.7 L3.05 -2.2 Q2.75 -1.35 1.75 -2.35 0.8 -3.4 -0.75 -3.4 L-1.9 -3.25 -2.55 -3.1 -2.9 -3.15 -3.0 -3.2 -1.9 -3.7 0.15 -3.9 Q1.15 -3.9 2.25 -3.2" fill="#330000" fill-opacity="0.6" fill-rule="evenodd" stroke="none"/>
  </g>
</svg>
