<?xml version="1.0" encoding="UTF-8" standalone="no"?>
<svg xmlns:ffdec="https://www.free-decompiler.com/flash" xmlns:xlink="http://www.w3.org/1999/xlink" ffdec:objectType="shape" height="6.75px" width="47.7px" xmlns="http://www.w3.org/2000/svg">
  <g transform="matrix(1.0, 0.0, 0.0, 1.0, 8.7, 9.25)">
    <path d="M39.0 -4.1 L39.0 -2.5 20.55 -2.5 20.55 -4.1 39.0 -4.1" fill="#333333" fill-rule="evenodd" stroke="none"/>
    <path d="M5.2 -7.8 L5.2 -6.8 -4.15 -6.8 -4.15 -7.8 5.2 -7.8" fill="#333333" fill-rule="evenodd" stroke="none"/>
    <path d="M-4.15 -7.8 L-4.15 -8.65 5.2 -8.65 5.2 -7.8 -4.15 -7.8" fill="#5e5e5e" fill-rule="evenodd" stroke="none"/>
    <path d="M-1.15 -9.25 L-1.15 -5.25 -2.95 -5.25 -2.95 -9.25 -1.15 -9.25" fill="#333333" fill-rule="evenodd" stroke="none"/>
    <path d="M-4.0 -7.6 L-8.7 -7.6 -8.7 -9.25 -4.0 -9.25 -4.0 -7.6" fill="#5e5e5e" fill-rule="evenodd" stroke="none"/>
    <path d="M-4.0 -7.6 L-4.0 -6.2 -8.7 -6.2 -8.7 -7.6 -4.0 -7.6" fill="#333333" fill-rule="evenodd" stroke="none"/>
    <path d="M11.8 -7.7 L5.0 -7.7 5.0 -9.25 11.8 -9.25 11.8 -7.7" fill="#5e5e5e" fill-rule="evenodd" stroke="none"/>
    <path d="M11.8 -7.7 L11.8 -6.2 5.0 -6.2 5.0 -7.7 11.8 -7.7" fill="#333333" fill-rule="evenodd" stroke="none"/>
    <path d="M5.65 -4.4 L5.65 -2.5 -1.75 -2.5 -1.75 -4.4 5.65 -4.4" fill="#ffffff" fill-rule="evenodd" stroke="none"/>
    <path d="M3.35 -9.25 L3.35 -5.25 1.55 -5.25 1.55 -9.25 3.35 -9.25" fill="#333333" fill-rule="evenodd" stroke="none"/>
  </g>
</svg>
