<?xml version="1.0" encoding="UTF-8" standalone="no"?>
<svg xmlns:ffdec="https://www.free-decompiler.com/flash" xmlns:xlink="http://www.w3.org/1999/xlink" ffdec:objectType="shape" height="17.55px" width="56.15px" xmlns="http://www.w3.org/2000/svg">
  <g transform="matrix(1.0, 0.0, 0.0, 1.0, 17.15, 9.95)">
    <path d="M3.9 -0.05 L3.9 7.6 -1.3 7.6 -1.3 -0.05 3.9 -0.05" fill="#333333" fill-rule="evenodd" stroke="none"/>
    <path d="M20.6 -3.35 L11.25 -3.35 11.25 -5.3 20.6 -5.3 20.6 -3.35" fill="#5e5e5e" fill-rule="evenodd" stroke="none"/>
    <path d="M11.25 -3.35 L20.6 -3.35 20.6 -1.2 11.25 -1.2 11.25 -3.35" fill="#333333" fill-rule="evenodd" stroke="none"/>
    <path d="M39.0 -4.1 L39.0 -2.5 20.55 -2.5 20.55 -4.1 39.0 -4.1" fill="#333333" fill-rule="evenodd" stroke="none"/>
    <path d="M-4.15 -7.8 L-4.15 -9.0 5.2 -9.0 5.2 -7.8 -4.15 -7.8" fill="#5e5e5e" fill-rule="evenodd" stroke="none"/>
    <path d="M5.2 -7.8 L5.2 -6.45 -4.15 -6.45 -4.15 -7.8 5.2 -7.8" fill="#333333" fill-rule="evenodd" stroke="none"/>
    <path d="M1.85 -4.85 L-0.95 -4.85 -0.95 -9.95 1.85 -9.95 1.85 -4.85" fill="#333333" fill-rule="evenodd" stroke="none"/>
    <path d="M-8.7 -7.55 L-4.0 -7.55 -4.0 -5.65 -8.7 -5.65 -8.7 -7.55" fill="#333333" fill-rule="evenodd" stroke="none"/>
    <path d="M-8.7 -7.55 L-8.7 -9.8 -4.0 -9.8 -4.0 -7.55 -8.7 -7.55" fill="#5e5e5e" fill-rule="evenodd" stroke="none"/>
    <path d="M5.0 -7.7 L11.8 -7.7 11.8 -5.65 5.0 -5.65 5.0 -7.7" fill="#333333" fill-rule="evenodd" stroke="none"/>
    <path d="M5.0 -7.7 L5.0 -9.8 11.8 -9.8 11.8 -7.7 5.0 -7.7" fill="#5e5e5e" fill-rule="evenodd" stroke="none"/>
    <path d="M-7.4 0.2 L-5.1 0.2 -5.1 5.15 -7.4 5.15 -7.4 0.2" fill="#333333" fill-rule="evenodd" stroke="none"/>
    <path d="M6.5 -2.75 L8.65 -2.85 10.85 -2.85 11.15 -3.2 10.75 -3.5 8.85 -3.5 5.95 -3.25 4.85 -3.0 4.9 -2.8 6.5 -2.75 M-11.35 -3.05 L-11.35 -5.35 11.3 -5.35 11.3 0.5 -0.2 0.5 -0.25 -0.65 -0.1 -2.25 Q-0.1 -2.7 -0.35 -2.85 L-2.6 -3.25 -6.4 -3.25 -6.6 -3.3 -10.95 -3.25 -11.35 -3.05 M-0.9 0.5 L-11.35 0.5 -11.35 -2.6 Q-11.15 -2.25 -10.2 -2.4 L-6.5 -2.4 -6.4 -2.35 -0.85 -2.2 -0.95 -0.25 -0.9 0.5 M-5.5 -1.6 L-5.75 -1.35 -5.6 -1.0 -4.35 -0.9 -1.65 -1.0 -1.3 -1.3 Q-1.3 -1.7 -1.75 -1.7 L-3.15 -1.7 -3.85 -1.6 -4.8 -1.55 -5.5 -1.6" fill="#999999" fill-rule="evenodd" stroke="none"/>
    <path d="M6.5 -2.75 L4.9 -2.8 4.85 -3.0 5.95 -3.25 8.85 -3.5 10.75 -3.5 11.15 -3.2 10.85 -2.85 8.65 -2.85 6.5 -2.75 M-11.35 -3.05 L-10.95 -3.25 -6.6 -3.3 -6.4 -3.25 -2.6 -3.25 -0.35 -2.85 Q-0.1 -2.7 -0.1 -2.25 L-0.25 -0.65 -0.2 0.5 -0.6 0.85 -0.9 0.5 -0.95 -0.25 -0.85 -2.2 -6.4 -2.35 -6.5 -2.4 -10.2 -2.4 Q-11.15 -2.25 -11.35 -2.6 L-11.4 -2.85 -11.35 -3.05 M-5.5 -1.6 L-4.8 -1.55 -3.85 -1.6 -3.15 -1.7 -1.75 -1.7 Q-1.3 -1.7 -1.3 -1.3 L-1.65 -1.0 -4.35 -0.9 -5.6 -1.0 -5.75 -1.35 -5.5 -1.6" fill="#5e5e5e" fill-rule="evenodd" stroke="none"/>
    <path d="M-11.35 -5.75 L-11.35 1.05 -17.15 2.5 -17.05 -5.75 -11.35 -5.75" fill="#333333" fill-rule="evenodd" stroke="none"/>
    <path d="M5.65 -4.4 L5.65 -2.5 -1.75 -2.5 -1.75 -4.4 5.65 -4.4" fill="#ffffff" fill-rule="evenodd" stroke="none"/>
  </g>
</svg>
