<?xml version="1.0" encoding="UTF-8" standalone="no"?>
<svg xmlns:ffdec="https://www.free-decompiler.com/flash" xmlns:xlink="http://www.w3.org/1999/xlink" ffdec:objectType="shape" height="7.45px" width="47.7px" xmlns="http://www.w3.org/2000/svg">
  <g transform="matrix(1.0, 0.0, 0.0, 1.0, 8.7, 9.95)">
    <path d="M39.0 -4.1 L39.0 -2.5 11.0 -2.5 11.0 -4.1 39.0 -4.1" fill="#333333" fill-rule="evenodd" stroke="none"/>
    <path d="M-4.15 -7.8 L-4.15 -9.0 5.2 -9.0 5.2 -7.8 -4.15 -7.8" fill="#5e5e5e" fill-rule="evenodd" stroke="none"/>
    <path d="M5.2 -7.8 L5.2 -6.45 -4.15 -6.45 -4.15 -7.8 5.2 -7.8" fill="#333333" fill-rule="evenodd" stroke="none"/>
    <path d="M1.85 -4.85 L-0.95 -4.85 -0.95 -9.95 1.85 -9.95 1.85 -4.85" fill="#333333" fill-rule="evenodd" stroke="none"/>
    <path d="M-8.7 -7.55 L-4.0 -7.55 -4.0 -5.65 -8.7 -5.65 -8.7 -7.55" fill="#333333" fill-rule="evenodd" stroke="none"/>
    <path d="M-8.7 -7.55 L-8.7 -9.8 -4.0 -9.8 -4.0 -7.55 -8.7 -7.55" fill="#5e5e5e" fill-rule="evenodd" stroke="none"/>
    <path d="M5.0 -7.7 L11.8 -7.7 11.8 -5.65 5.0 -5.65 5.0 -7.7" fill="#333333" fill-rule="evenodd" stroke="none"/>
    <path d="M5.0 -7.7 L5.0 -9.8 11.8 -9.8 11.8 -7.7 5.0 -7.7" fill="#5e5e5e" fill-rule="evenodd" stroke="none"/>
    <path d="M5.65 -4.4 L5.65 -2.5 -1.75 -2.5 -1.75 -4.4 5.65 -4.4" fill="#ffffff" fill-rule="evenodd" stroke="none"/>
  </g>
</svg>
