<?xml version="1.0" encoding="UTF-8" standalone="no"?>
<svg xmlns:ffdec="https://www.free-decompiler.com/flash" xmlns:xlink="http://www.w3.org/1999/xlink" ffdec:objectType="shape" height="4.3px" width="5.0px" xmlns="http://www.w3.org/2000/svg">
  <g transform="matrix(1.0, 0.0, 0.0, 1.0, 1.95, 2.35)">
    <path d="M2.35 -0.2 L2.5 0.15 2.6 1.2 2.15 1.7 1.4 1.95 1.05 1.6 -0.1 1.3 -1.3 1.2 Q-2.15 1.0 -1.9 0.1 -1.7 -0.6 -0.1 -1.2 L-0.05 -1.2 0.25 -1.25 0.3 -1.3 0.7 -1.2 Q0.0 -0.95 0.0 -0.1 0.0 1.35 1.1 1.35 1.65 1.35 2.05 0.85 L2.35 0.0 2.35 -0.2" fill="#ffffff" fill-rule="evenodd" stroke="none"/>
    <path d="M0.7 -1.2 L1.1 -1.05 1.25 -1.05 1.75 -0.9 2.05 -0.65 2.2 -0.5 2.35 -0.2 2.35 0.0 2.05 0.85 Q1.65 1.35 1.1 1.35 0.0 1.35 0.0 -0.1 0.0 -0.95 0.7 -1.2 M3.05 -1.95 L-1.85 -1.5 -1.0 -1.85 1.8 -2.35 2.65 -2.3 3.05 -1.95" fill="#330000" fill-rule="evenodd" stroke="none"/>
  </g>
</svg>
