<?xml version="1.0" encoding="UTF-8" standalone="no"?>
<svg xmlns:ffdec="https://www.free-decompiler.com/flash" xmlns:xlink="http://www.w3.org/1999/xlink" ffdec:objectType="shape" height="5.0px" width="6.6px" xmlns="http://www.w3.org/2000/svg">
  <g transform="matrix(1.0, 0.0, 0.0, 1.0, 3.3, 2.5)">
    <path d="M2.4 -0.5 L2.4 -0.35 2.35 0.15 1.95 1.35 1.05 2.25 Q0.15 2.2 0.05 1.3 L0.1 0.4 Q0.2 -0.75 0.55 -1.3 L2.35 -0.95 2.4 -0.5" fill="#330000" fill-rule="evenodd" stroke="none"/>
    <path d="M2.4 -0.5 L2.35 -0.95 2.4 -0.95 2.4 -0.5 M0.55 -1.3 Q0.2 -0.75 0.1 0.4 L0.05 1.3 Q0.15 2.2 1.05 2.25 L-0.2 2.5 Q-1.3 2.4 -1.8 1.2 L-2.05 -0.55 -1.9 -1.8 0.55 -1.3" fill="#ffffff" fill-rule="evenodd" stroke="none"/>
    <path d="M2.35 -0.95 L0.55 -1.3 -1.9 -1.8 -2.8 -2.0 M2.4 -0.95 L2.8 -0.9 M2.4 -0.95 L2.35 -0.95" fill="none" stroke="#330000" stroke-linecap="round" stroke-linejoin="round" stroke-width="1.0"/>
  </g>
</svg>
