<?xml version="1.0" encoding="UTF-8" standalone="no"?>
<svg xmlns:ffdec="https://www.free-decompiler.com/flash" xmlns:xlink="http://www.w3.org/1999/xlink" ffdec:objectType="shape" height="2.5px" width="5.1px" xmlns="http://www.w3.org/2000/svg">
  <g transform="matrix(1.0, 0.0, 0.0, 1.0, 2.55, 1.25)">
    <path d="M-2.4 -0.75 L-2.4 -1.25 1.2 -1.25 1.3 -1.25 2.25 -0.85 2.55 0.05 2.2 0.95 2.15 0.95 1.2 1.25 Q0.65 1.1 0.1 1.25 L-1.65 0.65 1.2 0.65 Q1.95 0.7 2.0 -0.05 2.1 -0.65 1.2 -0.75 L-2.4 -0.75" fill="#a36a6a" fill-rule="evenodd" stroke="none"/>
    <path d="M-1.65 0.65 L-2.55 0.65 -2.55 -0.75 -2.4 -0.75 1.2 -0.75 Q2.1 -0.65 2.0 -0.05 1.95 0.7 1.2 0.65 L-1.65 0.65" fill="#ffffff" fill-rule="evenodd" stroke="none"/>
  </g>
</svg>
