<?xml version="1.0" encoding="UTF-8" standalone="no"?>
<svg xmlns:ffdec="https://www.free-decompiler.com/flash" xmlns:xlink="http://www.w3.org/1999/xlink" ffdec:objectType="shape" height="40.95px" width="110.95px" xmlns="http://www.w3.org/2000/svg">
  <g transform="matrix(1.0, 0.0, 0.0, 1.0, 56.8, 1.9)">
    <path d="M34.8 32.5 Q36.0 33.6 36.0 35.2 36.0 36.8 34.8 37.95 33.6 39.05 31.9 39.05 30.2 39.05 29.0 37.95 27.8 36.8 27.8 35.2 27.8 33.6 29.0 32.5 30.2 31.35 31.9 31.35 33.6 31.35 34.8 32.5 M10.15 21.4 Q11.7 21.4 12.8 22.5 13.85 23.55 13.85 25.05 13.85 26.55 12.8 27.65 11.7 28.7 10.15 28.7 8.6 28.7 7.55 27.65 6.45 26.55 6.45 25.05 6.45 23.55 7.55 22.5 8.6 21.4 10.15 21.4 M25.8 15.45 Q27.5 15.45 28.7 16.7 29.9 17.9 29.9 19.6 29.9 21.3 28.7 22.55 27.5 23.75 25.8 23.75 24.1 23.75 22.9 22.55 21.7 21.3 21.7 19.6 21.7 17.9 22.9 16.7 24.1 15.45 25.8 15.45 M34.9 2.4 Q36.6 3.65 36.6 5.6 36.6 7.55 34.9 8.8 33.4 9.85 31.55 9.85 29.7 9.85 28.2 8.8 26.5 7.55 26.5 5.6 26.5 3.65 28.2 2.4 29.7 1.35 31.55 1.35 33.4 1.35 34.9 2.4 M43.0 15.5 L44.15 14.65 Q47.75 12.35 51.65 14.35 L54.15 19.05 53.4 20.9 Q52.05 23.6 48.95 23.4 45.85 23.1 44.15 20.5 42.65 18.15 43.0 15.5 M-46.2 29.95 Q-44.5 31.7 -44.35 34.0 -44.3 35.3 -45.15 36.35 -47.2 38.8 -50.3 37.9 -53.55 36.9 -53.1 33.45 -50.8 29.3 -46.2 29.95 M-46.0 15.9 Q-46.0 17.75 -47.7 19.05 -49.3 20.2 -51.4 20.2 -53.5 20.2 -55.1 19.05 -56.8 17.75 -56.8 15.9 -56.8 14.05 -55.1 12.8 -53.5 11.6 -51.4 11.6 -49.2 11.6 -47.7 12.8 -46.0 14.05 -46.0 15.9 M-32.8 16.9 L-32.2 16.05 Q-29.85 12.8 -25.95 12.85 L-23.35 14.65 -23.3 17.9 Q-26.55 22.05 -31.55 20.3 L-32.8 16.9 M-15.45 8.85 Q-14.35 9.9 -14.35 11.35 -14.35 12.8 -15.45 13.85 -16.6 14.9 -18.15 14.9 -19.7 14.9 -20.8 13.85 -21.95 12.8 -21.95 11.35 -21.95 9.9 -20.8 8.85 -19.7 7.8 -18.15 7.8 -16.6 7.8 -15.45 8.85 M-12.95 9.6 L-11.1 8.05 Q-7.75 8.05 -6.0 10.75 -5.35 11.7 -5.55 12.9 L-9.45 15.75 Q-11.8 15.0 -12.8 12.75 -13.45 11.25 -12.95 9.6 M-4.65 12.05 Q-4.65 10.4 -3.25 9.25 -1.95 8.1 -0.05 8.1 1.85 8.1 3.2 9.25 4.55 10.4 4.55 12.05 4.55 13.7 3.2 14.9 1.85 16.0 -0.05 16.0 -1.95 16.0 -3.25 14.9 -4.65 13.7 -4.65 12.05 M-44.75 -1.4 L-43.0 -1.9 -37.25 0.25 -38.75 4.85 Q-42.45 6.2 -44.8 3.05 -46.45 0.9 -44.75 -1.4" fill="#ffffff" fill-rule="evenodd" stroke="none"/>
  </g>
</svg>
