<?xml version="1.0" encoding="UTF-8" standalone="no"?>
<svg xmlns:ffdec="https://www.free-decompiler.com/flash" xmlns:xlink="http://www.w3.org/1999/xlink" ffdec:objectType="shape" height="47.75px" width="83.75px" xmlns="http://www.w3.org/2000/svg">
  <g transform="matrix(1.0, 0.0, 0.0, 1.0, 47.2, -2.9)">
    <path d="M-47.2 47.35 Q-47.2 46.0 -46.2 45.05 -45.25 44.05 -43.9 44.05 -42.55 44.05 -41.55 45.05 -40.6 46.0 -40.6 47.35 -40.6 48.7 -41.55 49.7 -42.55 50.65 -43.9 50.65 -45.25 50.65 -46.2 49.7 -47.2 48.7 -47.2 47.35 M-33.6 25.65 L-31.2 26.6 -30.1 29.25 -31.65 32.95 Q-34.45 33.9 -36.25 31.75 -37.75 30.05 -37.0 27.8 L-33.6 25.65 M-38.75 24.3 Q-39.7 23.35 -39.7 22.0 -39.7 20.65 -38.75 19.7 -37.8 18.75 -36.5 18.75 -35.2 18.75 -34.25 19.7 -33.3 20.65 -33.3 22.0 -33.3 23.35 -34.25 24.3 -35.2 25.25 -36.5 25.25 -37.8 25.25 -38.75 24.3 M-34.55 10.35 Q-32.95 10.35 -31.8 11.25 -30.7 12.15 -30.7 13.4 -30.7 14.65 -31.8 15.55 -32.95 16.45 -34.55 16.45 -36.15 16.45 -37.25 15.55 -38.4 14.65 -38.4 13.4 -38.4 12.15 -37.25 11.25 -36.15 10.35 -34.55 10.35 M-24.05 7.6 Q-23.75 10.0 -26.0 10.85 -24.65 12.25 -25.75 13.75 -27.05 15.6 -29.15 14.45 -30.15 13.95 -30.35 12.7 -30.5 11.5 -29.55 10.75 -31.45 9.65 -31.35 7.5 -31.3 5.35 -29.3 4.4 -26.05 3.45 -24.5 6.25 -24.15 6.85 -24.05 7.6 M-9.7 13.8 Q-11.45 11.35 -9.35 9.0 -5.35 8.45 -3.5 12.55 -3.1 13.4 -2.95 14.35 -3.55 15.4 -4.7 16.05 -6.25 16.9 -7.7 15.85 L-8.45 14.2 -9.7 13.8 M7.85 43.95 Q6.4 43.95 5.4 42.95 4.4 41.95 4.4 40.5 4.4 39.05 5.4 38.05 6.4 37.05 7.85 37.05 9.3 37.05 10.3 38.05 11.3 39.05 11.3 40.5 11.3 41.95 10.3 42.95 9.3 43.95 7.85 43.95 M15.1 10.45 L17.55 11.95 18.2 14.0 13.85 17.65 10.65 12.75 15.1 10.45 M15.1 9.55 Q13.95 10.7 12.35 10.7 10.75 10.7 9.6 9.55 8.45 8.4 8.45 6.8 8.45 5.2 9.6 4.05 10.75 2.9 12.35 2.9 13.95 2.9 15.1 4.05 16.25 5.2 16.25 6.8 16.25 8.4 15.1 9.55 M26.95 9.5 Q32.75 7.95 36.1 12.9 36.65 13.65 36.5 14.65 L36.05 15.7 Q34.7 17.9 32.1 18.15 28.7 18.15 26.65 15.4 24.1 12.15 26.95 9.5 M21.95 20.9 Q23.2 20.9 24.1 21.8 25.0 22.7 25.0 23.9 25.0 25.1 24.1 26.0 23.2 26.9 21.95 26.9 20.7 26.9 19.8 26.0 18.9 25.1 18.9 23.9 18.9 22.7 19.8 21.8 20.7 20.9 21.95 20.9" fill="#ffffff" fill-rule="evenodd" stroke="none"/>
  </g>
</svg>
