<?xml version="1.0" encoding="UTF-8" standalone="no"?>
<svg xmlns:ffdec="https://www.free-decompiler.com/flash" xmlns:xlink="http://www.w3.org/1999/xlink" ffdec:objectType="shape" height="36.05px" width="64.2px" xmlns="http://www.w3.org/2000/svg">
  <g transform="matrix(1.0, 0.0, 0.0, 1.0, 70.25, 19.7)">
    <path d="M-66.6 -16.95 Q-67.05 -16.25 -68.0 -16.25 -69.1 -16.25 -69.55 -17.1 L-69.75 -18.0 Q-69.75 -19.7 -68.0 -19.7 -66.25 -19.7 -66.25 -18.05 -66.25 -17.45 -66.6 -16.95 M-63.9 -16.15 Q-62.85 -17.05 -59.25 -18.15 -54.1 -17.9 -52.65 -16.55 -50.8 -14.8 -49.5 -14.5 L-40.05 -12.25 Q-34.3 -10.75 -32.4 -9.25 L-32.85 -8.8 -31.95 -7.75 -31.55 -6.95 -31.3 -6.8 -28.9 -6.5 -28.05 -6.3 Q-27.45 -7.4 -24.7 -6.95 -21.45 -6.4 -21.15 -4.5 L-20.25 -4.3 Q-18.3 -3.5 -14.75 -3.65 L-13.85 -3.5 -12.7 -3.85 Q-9.4 -4.65 -9.4 -2.0 L-9.4 -1.7 -8.45 -1.9 Q-6.05 -2.2 -6.05 0.0 -6.05 0.8 -6.95 1.45 -7.95 2.1 -9.25 2.1 -10.35 2.1 -10.75 1.15 L-10.9 0.3 Q-11.95 0.85 -13.6 0.85 L-15.15 0.6 -16.7 1.75 Q-20.5 4.55 -21.8 4.75 L-23.35 5.65 Q-26.7 7.35 -31.6 7.35 -35.0 7.35 -36.25 5.75 L-36.35 5.6 -36.7 6.1 Q-37.9 7.65 -40.1 7.65 -42.2 7.65 -43.0 6.0 -43.4 5.15 -43.4 4.05 -43.4 1.5 -41.7 0.75 -42.25 0.4 -42.75 0.4 L-43.3 0.65 Q-44.1 2.35 -46.9 3.5 -50.65 5.0 -56.6 5.0 -59.35 5.0 -60.7 3.35 -61.5 2.35 -61.5 1.4 -61.5 -0.05 -60.4 -2.1 -58.95 -4.75 -56.65 -5.75 -53.75 -7.0 -48.45 -5.3 -46.1 -4.55 -44.75 -3.6 -42.0 -5.1 -42.0 -6.4 -42.0 -7.2 -42.8 -7.9 L-43.55 -8.85 -45.95 -9.5 Q-50.75 -11.0 -51.8 -11.0 L-52.8 -10.25 Q-53.65 -9.5 -54.5 -9.5 -64.65 -9.5 -64.65 -14.0 -64.65 -15.45 -63.9 -16.15 M-64.25 -8.75 Q-64.25 -7.8 -65.1 -7.25 -65.85 -6.75 -67.0 -6.75 -68.7 -6.75 -68.75 -8.7 -68.75 -10.6 -66.5 -10.7 -64.25 -10.8 -64.25 -8.75 M-30.95 -1.3 L-28.4 -2.05 -26.6 -2.3 -27.35 -3.05 -27.5 -3.0 Q-29.7 -2.05 -30.45 -1.8 L-30.95 -1.3 M-20.3 -0.05 Q-18.65 -0.45 -18.0 -0.75 L-18.9 -1.1 -20.15 -1.3 -21.15 -1.15 -20.3 -0.05 M-36.2 2.3 Q-35.55 1.3 -34.15 0.35 L-33.0 -0.35 -36.35 0.0 -36.85 0.0 -37.4 0.95 Q-36.6 1.45 -36.2 2.3 M-38.5 9.7 Q-38.5 8.15 -36.25 7.55 -34.0 6.9 -34.0 8.8 -34.0 9.65 -34.8 10.4 -35.65 11.25 -36.75 11.25 -38.5 11.25 -38.5 9.7 M-45.7 7.75 Q-41.65 6.75 -41.65 10.8 -41.65 11.85 -43.45 13.05 -45.35 14.25 -47.1 14.25 -48.95 14.25 -49.55 13.15 L-49.75 11.85 Q-49.75 8.75 -45.7 7.75 M-53.65 15.5 Q-54.8 16.35 -56.5 16.35 -57.6 16.35 -58.3 15.85 L-59.0 15.0 Q-59.35 14.35 -59.3 13.8 -59.3 10.4 -55.95 9.85 -52.65 9.3 -52.65 13.8 -52.65 14.7 -53.65 15.5 M-64.05 2.9 Q-65.45 4.0 -67.85 4.0 -70.25 4.0 -70.25 2.0 -70.25 -1.05 -66.6 -1.55 -63.0 -2.1 -63.0 1.05 -63.0 2.05 -64.05 2.9" fill="#db0202" fill-rule="evenodd" stroke="none"/>
  </g>
</svg>
