<?xml version="1.0" encoding="UTF-8" standalone="no"?>
<svg xmlns:ffdec="https://www.free-decompiler.com/flash" xmlns:xlink="http://www.w3.org/1999/xlink" ffdec:objectType="shape" height="49.65px" width="85.9px" xmlns="http://www.w3.org/2000/svg">
  <g transform="matrix(1.0, 0.0, 0.0, 1.0, 94.4, 27.9)">
    <path d="M-90.35 -23.55 Q-92.0 -23.55 -92.55 -24.6 -92.85 -25.15 -92.8 -25.75 -92.8 -27.9 -90.3 -27.9 -87.8 -27.9 -87.8 -25.8 -87.8 -24.85 -88.4 -24.25 -89.1 -23.55 -90.35 -23.55 M-61.3 -19.15 Q-59.55 -19.05 -59.55 -17.4 -59.55 -16.7 -60.05 -16.25 -60.55 -15.8 -61.35 -15.8 -63.0 -15.8 -63.05 -17.45 -63.25 -16.45 -64.2 -15.75 -65.75 -14.5 -69.0 -14.5 -72.8 -14.5 -74.0 -16.1 -74.5 -16.75 -74.5 -18.0 -74.5 -21.65 -68.75 -21.65 -63.05 -21.7 -63.0 -18.0 -62.75 -19.2 -61.3 -19.15 M-62.1 -15.6 Q-59.75 -15.85 -59.75 -13.65 -59.75 -13.0 -60.25 -12.35 -60.95 -11.5 -62.0 -11.5 -63.55 -11.5 -64.2 -12.5 L-64.5 -13.5 Q-64.5 -15.3 -62.1 -15.6 M-73.0 -6.9 Q-74.4 -6.9 -74.85 -7.95 L-75.0 -9.05 Q-75.0 -11.1 -72.8 -11.4 -70.65 -11.65 -70.65 -9.25 -70.65 -8.65 -71.15 -7.9 -71.85 -6.9 -73.0 -6.9 M-65.7 -2.95 Q-63.7 -1.9 -63.7 0.55 -63.7 1.85 -66.15 3.6 -68.9 5.6 -72.0 5.6 -74.7 5.6 -75.8 3.85 -76.35 3.0 -76.4 2.05 -76.4 0.1 -74.4 -1.45 -72.6 -2.9 -70.05 -3.35 -67.45 -3.85 -65.7 -2.95 M-47.5 -4.7 Q-48.75 -6.25 -48.75 -7.15 -48.75 -9.0 -47.0 -10.5 -45.35 -11.85 -43.1 -12.1 -37.5 -12.8 -37.5 -6.7 -37.5 -5.3 -39.1 -3.95 -40.8 -2.55 -43.0 -2.55 -45.7 -2.55 -47.5 -4.7 M-33.95 -3.05 Q-34.5 -2.5 -35.35 -2.5 -37.15 -2.5 -37.15 -4.2 -37.15 -5.9 -35.3 -5.95 -33.5 -5.95 -33.5 -4.25 -33.5 -3.6 -33.95 -3.05 M-23.25 -1.6 Q-23.55 -2.1 -23.5 -2.7 -23.5 -5.0 -21.0 -5.0 -18.5 -5.0 -18.5 -2.75 -18.5 -2.05 -18.9 -1.45 -19.6 -0.5 -21.0 -0.5 -22.65 -0.5 -23.25 -1.6 M-12.25 1.25 L-12.55 0.25 Q-12.55 -1.65 -10.5 -1.7 -8.5 -1.75 -8.5 0.3 -8.5 0.85 -8.95 1.45 -9.5 2.25 -10.5 2.25 -11.7 2.25 -12.25 1.25 M-23.75 3.0 Q-24.5 4.0 -25.75 4.0 L-26.3 3.95 Q-26.15 4.25 -26.15 4.75 -26.15 5.25 -26.5 5.6 -26.9 6.0 -27.5 6.0 -28.4 6.0 -28.65 5.35 L-28.75 4.7 Q-28.75 3.35 -27.45 3.35 L-27.2 3.35 Q-27.75 2.75 -27.9 1.65 -27.9 -0.65 -25.55 -0.35 -23.25 -0.05 -23.25 1.65 -23.25 2.25 -23.75 3.0 M-29.65 3.9 Q-31.5 5.6 -34.1 5.6 -37.1 5.6 -37.9 4.5 L-38.15 3.05 Q-38.15 1.85 -36.6 0.45 -35.1 -0.85 -33.15 -1.5 -28.15 -3.1 -28.15 1.45 -28.15 2.55 -29.65 3.9 M-46.5 4.05 Q-46.5 1.3 -43.25 1.3 -40.05 1.25 -40.05 4.4 -40.05 5.25 -40.65 5.95 -41.45 6.85 -43.0 6.85 -45.1 6.85 -46.0 5.55 -46.5 4.8 -46.5 4.05 M-41.3 7.9 Q-38.9 7.8 -38.9 10.05 -38.9 12.75 -41.1 12.75 -42.85 12.75 -43.45 11.6 -43.8 11.05 -43.75 10.4 -43.75 8.05 -41.3 7.9 M-55.45 3.85 Q-56.75 5.0 -59.25 5.0 -62.1 5.0 -62.85 3.3 -63.2 2.45 -63.0 1.7 -63.0 -0.95 -58.75 -1.0 -54.5 -1.1 -54.5 1.95 -54.5 3.0 -55.45 3.85 M-54.1 15.0 Q-55.5 15.0 -56.0 13.85 L-56.25 12.7 Q-56.25 9.95 -52.95 9.65 -49.65 9.4 -49.65 12.45 -49.65 13.5 -50.65 14.2 -51.85 15.0 -54.1 15.0 M-57.55 14.75 L-57.5 14.6 -56.8 14.75 -57.55 14.75 M-59.05 14.65 L-59.35 15.25 -60.25 15.4 -61.15 15.1 -60.25 14.35 -59.3 14.25 -59.05 14.65 M-61.95 7.3 Q-62.6 7.9 -63.75 7.9 -64.9 7.9 -65.4 6.9 L-65.75 5.9 Q-65.75 3.95 -63.55 3.9 -61.4 3.9 -61.4 6.05 -61.4 6.8 -61.95 7.3 M-73.5 16.25 Q-70.65 15.8 -70.65 19.15 -70.65 20.1 -71.5 20.85 -72.45 21.75 -73.9 21.75 -75.45 21.75 -76.1 20.5 L-76.4 19.05 Q-76.4 16.65 -73.5 16.25 M-91.75 6.85 Q-93.55 6.85 -94.15 5.8 L-94.4 4.7 Q-94.4 2.2 -91.1 1.65 -87.8 1.15 -87.8 3.85 -87.8 4.65 -88.5 5.55 -89.6 6.85 -91.75 6.85" fill="#db0202" fill-rule="evenodd" stroke="none"/>
  </g>
</svg>
