<?xml version="1.0" encoding="UTF-8" standalone="no"?>
<svg xmlns:ffdec="https://www.free-decompiler.com/flash" xmlns:xlink="http://www.w3.org/1999/xlink" ffdec:objectType="shape" height="68.25px" width="103.1px" xmlns="http://www.w3.org/2000/svg">
  <g transform="matrix(1.0, 0.0, 0.0, 1.0, 120.25, 38.25)">
    <path d="M-83.9 -20.0 Q-84.2 -20.85 -84.05 -21.8 -84.05 -25.45 -80.4 -25.35 -76.8 -25.25 -76.8 -21.75 -76.8 -21.0 -77.95 -19.8 -79.45 -18.3 -81.25 -18.3 -83.4 -18.3 -83.9 -20.0 M-117.4 -35.65 Q-117.85 -35.25 -118.6 -35.25 -119.7 -35.25 -120.1 -36.1 L-120.25 -36.75 Q-120.25 -38.25 -118.6 -38.25 -117.0 -38.25 -117.0 -36.65 -117.0 -36.05 -117.4 -35.65 M-64.05 -19.65 L-64.45 -18.7 Q-65.0 -18.05 -65.75 -18.05 -67.2 -18.05 -67.3 -19.7 -67.3 -21.2 -65.65 -21.3 -64.05 -21.4 -64.05 -19.65 M-65.9 -15.05 Q-65.75 -15.05 -65.75 -14.4 L-65.8 -14.0 -66.5 -13.75 -67.25 -14.4 -67.05 -15.0 -65.9 -15.05 M-78.25 -8.7 Q-78.7 -8.3 -79.35 -8.3 -80.9 -8.3 -80.8 -9.7 -80.8 -11.05 -79.3 -11.1 -77.8 -11.2 -77.8 -9.75 -77.8 -9.15 -78.25 -8.7 M-48.8 -8.1 Q-49.95 -6.75 -52.0 -6.75 -54.4 -6.75 -55.15 -8.3 -55.5 -8.9 -55.5 -10.0 -55.5 -13.5 -51.75 -13.65 -48.05 -13.85 -48.05 -9.9 -48.05 -9.0 -48.8 -8.1 M-37.5 -3.8 Q-37.9 -3.4 -38.5 -3.4 -39.45 -3.4 -39.7 -4.05 L-39.75 -4.75 Q-39.75 -6.15 -38.45 -5.95 -37.15 -5.75 -37.15 -4.65 -37.15 -4.15 -37.5 -3.8 M-28.4 -3.7 Q-29.1 -3.0 -29.85 -3.0 -31.65 -3.0 -31.65 -4.7 -31.65 -6.6 -29.7 -6.65 -27.75 -6.75 -27.75 -5.0 -27.75 -4.35 -28.4 -3.7 M-17.85 2.45 L-18.85 2.75 Q-19.9 2.75 -20.3 2.0 L-20.5 1.2 Q-20.5 -0.25 -18.8 -0.25 -17.15 -0.25 -17.15 1.25 -17.15 2.05 -17.85 2.45 M-28.0 5.25 Q-28.4 5.9 -29.25 5.9 -30.65 5.9 -30.65 4.45 -30.65 3.35 -29.2 3.1 -27.75 2.9 -27.75 4.45 L-28.0 5.25 M-27.85 3.0 Q-29.55 3.0 -29.5 1.45 -29.5 -0.2 -27.8 -0.1 -26.15 0.05 -26.15 1.5 -26.15 3.0 -27.85 3.0 M-35.0 4.2 Q-35.65 5.1 -36.75 5.1 -39.0 5.1 -39.85 3.4 -40.25 2.6 -40.25 1.55 -40.25 -1.65 -37.35 -0.9 -34.5 -0.2 -34.5 2.7 -34.5 3.5 -35.0 4.2 M-48.0 4.3 Q-48.0 6.5 -51.0 6.5 -52.4 6.5 -52.9 5.5 L-53.15 4.45 Q-53.15 2.15 -50.55 2.3 -48.0 2.45 -48.0 4.3 M-44.55 11.8 L-44.95 12.75 Q-45.55 13.5 -46.5 13.5 -47.45 13.5 -47.85 12.65 L-48.0 11.75 Q-48.0 10.25 -46.25 10.15 -44.55 10.0 -44.55 11.8 M-60.45 15.85 Q-61.05 16.6 -62.25 16.6 -63.55 16.6 -64.05 15.7 L-64.3 14.75 Q-64.3 13.0 -62.15 12.65 -60.05 12.25 -60.05 14.65 -60.05 15.35 -60.45 15.85 M-77.75 7.75 Q-78.95 7.75 -79.35 6.85 L-79.5 6.0 Q-79.5 4.25 -77.7 4.2 -75.9 4.1 -75.9 6.05 -75.9 6.7 -76.3 7.15 -76.85 7.75 -77.75 7.75 M-80.5 2.5 Q-81.95 3.35 -83.6 3.35 -85.3 3.35 -86.05 2.2 L-86.5 0.85 Q-86.5 -1.75 -82.75 -2.3 -79.0 -2.9 -79.0 0.3 -79.0 1.55 -80.5 2.5 M-86.45 10.85 L-86.75 9.75 Q-86.75 7.55 -84.7 7.7 -82.65 7.9 -82.65 9.7 -82.65 10.3 -83.0 10.85 -83.55 11.75 -84.75 11.75 -85.95 11.75 -86.45 10.85 M-116.5 9.3 Q-116.5 9.95 -117.0 10.4 -117.55 10.9 -118.5 10.9 -119.7 10.9 -120.1 10.0 L-120.25 9.2 Q-120.25 7.65 -118.35 7.5 -116.5 7.3 -116.5 9.3 M-98.0 30.0 Q-100.0 30.0 -100.0 28.35 -100.0 25.9 -97.75 25.8 -95.5 25.7 -95.5 27.8 -95.5 30.0 -98.0 30.0" fill="#db0202" fill-rule="evenodd" stroke="none"/>
  </g>
</svg>
