<?xml version="1.0" encoding="UTF-8" standalone="no"?>
<svg xmlns:ffdec="https://www.free-decompiler.com/flash" xmlns:xlink="http://www.w3.org/1999/xlink" ffdec:objectType="shape" height="75.5px" width="95.75px" xmlns="http://www.w3.org/2000/svg">
  <g transform="matrix(1.0, 0.0, 0.0, 1.0, 128.0, 41.1)">
    <path d="M-124.55 -39.5 Q-124.85 -39.25 -125.25 -39.25 -125.85 -39.25 -126.05 -39.75 L-126.15 -40.15 Q-126.15 -41.1 -125.2 -41.1 -124.25 -41.1 -124.25 -40.15 -124.25 -39.8 -124.55 -39.5 M-83.95 -21.3 Q-84.55 -20.55 -85.75 -20.55 -87.1 -20.55 -87.6 -21.5 L-87.8 -22.55 Q-87.8 -24.75 -85.65 -24.75 -83.55 -24.75 -83.55 -22.5 -83.55 -21.85 -83.95 -21.3 M-53.0 -9.65 Q-53.85 -8.9 -55.25 -8.9 -57.0 -8.9 -57.8 -10.4 -58.2 -11.15 -58.25 -11.8 -58.25 -14.9 -55.25 -14.9 -52.25 -14.9 -52.25 -11.35 -52.25 -10.35 -53.0 -9.65 M-32.55 -4.25 Q-32.95 -3.75 -33.5 -3.75 -34.3 -3.75 -34.55 -4.45 L-34.65 -5.05 Q-34.65 -6.4 -33.45 -6.4 -32.25 -6.4 -32.25 -5.05 -32.25 -4.65 -32.55 -4.25 M-40.35 4.25 Q-42.0 4.25 -42.65 3.25 L-43.0 2.2 Q-43.0 0.6 -40.6 0.5 -38.25 0.35 -38.25 2.4 -38.25 4.25 -40.35 4.25 M-53.5 6.6 Q-54.35 6.6 -54.65 5.95 L-54.8 5.25 Q-54.8 3.85 -53.35 3.85 -51.9 3.85 -51.9 5.25 -51.9 5.85 -52.45 6.25 -52.95 6.6 -53.5 6.6 M-48.4 12.45 Q-47.75 12.55 -47.75 11.75 L-47.0 12.5 -47.75 13.15 -48.4 12.45 M-79.45 6.1 Q-78.15 6.1 -78.15 7.3 -78.15 8.75 -79.5 8.75 -80.75 8.75 -80.75 7.35 -80.75 6.1 -79.45 6.1 M-64.4 16.95 Q-64.95 17.5 -65.75 17.5 -66.7 17.5 -67.1 16.6 L-67.25 15.95 Q-67.25 14.4 -65.6 14.5 -64.0 14.55 -64.0 15.95 -64.0 16.45 -64.4 16.95 M-86.15 2.3 Q-86.9 3.0 -87.85 3.0 -89.05 3.0 -89.55 2.15 L-89.75 1.2 Q-89.75 -0.45 -87.6 -0.6 -85.5 -0.75 -85.5 0.95 -85.5 1.6 -86.15 2.3 M-93.6 15.25 L-93.75 14.45 Q-93.75 12.8 -92.05 12.9 -90.4 12.95 -90.4 14.5 -90.4 15.3 -91.05 15.7 L-92.1 16.0 Q-93.2 16.0 -93.6 15.25 M-107.65 33.9 Q-108.1 34.4 -108.85 34.4 -110.4 34.4 -110.4 32.95 -110.4 31.55 -108.8 31.55 -107.25 31.55 -107.25 32.95 -107.25 33.5 -107.65 33.9 M-125.75 12.5 L-126.6 12.75 Q-127.65 12.75 -127.9 12.1 L-128.0 11.45 Q-128.0 10.1 -126.55 10.1 -125.15 10.1 -125.15 11.5 -125.15 12.15 -125.75 12.5" fill="#db0202" fill-rule="evenodd" stroke="none"/>
  </g>
</svg>
