<?xml version="1.0" encoding="UTF-8" standalone="no"?>
<svg xmlns:ffdec="https://www.free-decompiler.com/flash" xmlns:xlink="http://www.w3.org/1999/xlink" ffdec:objectType="shape" height="60.1px" width="73.0px" xmlns="http://www.w3.org/2000/svg">
  <g transform="matrix(1.0, 0.0, 0.0, 1.0, 113.0, 24.85)">
    <path d="M-84.8 -21.75 Q-85.35 -21.15 -86.25 -21.15 -87.35 -21.15 -87.8 -22.05 L-88.05 -22.95 Q-88.05 -24.95 -86.2 -24.85 -84.4 -24.75 -84.4 -22.9 -84.4 -22.25 -84.8 -21.75 M-55.25 -11.3 Q-56.05 -10.15 -57.6 -10.15 -59.75 -10.15 -59.75 -12.2 -59.75 -15.8 -57.25 -15.8 -54.75 -15.85 -54.75 -13.05 -54.75 -12.1 -55.25 -11.3 M-40.45 3.85 Q-40.95 4.5 -41.85 4.5 -43.05 4.5 -43.5 3.5 L-43.75 2.5 Q-43.75 0.7 -41.85 0.75 -40.0 0.85 -40.0 2.7 -40.0 3.35 -40.45 3.85 M-88.35 3.25 Q-89.45 3.25 -89.85 2.35 L-90.0 1.7 Q-90.0 0.25 -88.3 0.25 -86.65 0.25 -86.65 1.75 -86.65 2.3 -87.15 2.75 -87.7 3.25 -88.35 3.25 M-111.15 34.4 L-111.25 35.1 -111.55 35.2 -112.1 35.25 Q-112.8 35.25 -113.0 34.85 L-113.0 34.4 Q-113.0 33.55 -111.3 33.75 L-111.15 34.4" fill="#db0202" fill-rule="evenodd" stroke="none"/>
  </g>
</svg>
