<?xml version="1.0" encoding="UTF-8" standalone="no"?>
<svg xmlns:ffdec="https://www.free-decompiler.com/flash" xmlns:xlink="http://www.w3.org/1999/xlink" ffdec:objectType="shape" height="15.25px" width="46.2px" xmlns="http://www.w3.org/2000/svg">
  <g transform="matrix(1.0, 0.0, 0.0, 1.0, 22.1, 9.9)">
    <path d="M-22.1 2.5 L-22.1 -2.55 -14.5 0.3 -14.5 5.35 -22.1 2.5" fill="#333333" fill-rule="evenodd" stroke="none"/>
    <path d="M22.15 -4.3 L22.15 4.3 -16.05 4.3 -16.05 -4.3 22.15 -4.3" fill="#333333" fill-rule="evenodd" stroke="none"/>
    <path d="M-20.95 -9.9 L-18.75 -9.65 -19.8 -1.0 -22.0 -1.25 -20.95 -9.9" fill="#333333" fill-rule="evenodd" stroke="none"/>
    <path d="M-1.15 -0.2 L-3.35 0.1 -4.55 -8.55 -2.35 -8.85 -1.15 -0.2" fill="#333333" fill-rule="evenodd" stroke="none"/>
    <path d="M24.1 -2.3 L-16.05 -2.3 -16.05 -4.3 24.1 -4.3 24.1 -2.3" fill="#919191" fill-rule="evenodd" stroke="none"/>
    <path d="M24.1 -1.05 L24.1 0.95 -16.05 0.95 -16.05 -1.05 24.1 -1.05" fill="#6a6a6a" fill-rule="evenodd" stroke="none"/>
    <path d="M24.1 4.25 L-16.05 4.25 -16.05 2.25 24.1 2.25 24.1 4.25" fill="#6a6a6a" fill-rule="evenodd" stroke="none"/>
    <path d="M20.6 -5.55 L20.55 5.2 18.35 5.2 18.4 -5.55 20.6 -5.55" fill="#333333" fill-rule="evenodd" stroke="none"/>
    <path d="M8.1 -5.55 L8.05 5.2 5.85 5.2 5.9 -5.55 8.1 -5.55" fill="#333333" fill-rule="evenodd" stroke="none"/>
    <path d="M-1.7 -5.55 L-1.75 5.2 -16.05 5.15 -16.0 -5.6 -1.7 -5.55" fill="#333333" fill-rule="evenodd" stroke="none"/>
    <path d="M-15.95 -5.65 L-1.65 -5.6 -1.7 -0.7 -16.0 -0.75 -15.95 -5.65" fill="#555555" fill-rule="evenodd" stroke="none"/>
  </g>
</svg>
