<?xml version="1.0" encoding="UTF-8" standalone="no"?>
<svg xmlns:ffdec="https://www.free-decompiler.com/flash" xmlns:xlink="http://www.w3.org/1999/xlink" ffdec:objectType="shape" height="10.05px" width="10.1px" xmlns="http://www.w3.org/2000/svg">
  <g transform="matrix(1.0, 0.0, 0.0, 1.0, 5.05, 5.05)">
    <path d="M3.1 -3.4 L2.85 -0.75 Q2.6 1.3 3.85 3.05 L5.05 4.8 4.7 5.0 1.25 4.6 Q-1.85 4.3 -3.5 1.7 -5.2 -0.9 -5.05 -2.6 L-4.95 -3.2 Q-4.7 -3.6 -3.8 -3.5 L-2.7 -4.15 -1.15 -4.95 Q1.65 -5.35 2.6 -4.45 3.15 -3.95 3.1 -3.4 M0.55 3.4 L1.2 3.2 1.5 2.7 1.5 2.6 Q1.55 1.8 0.65 1.7 -0.2 1.5 -0.3 2.4 L-0.25 2.8 Q-0.1 3.35 0.5 3.4 L0.55 3.4 M0.45 -0.05 Q1.05 0.0 1.15 -0.4 L1.25 -0.65 Q1.35 -1.8 -0.4 -1.6 -2.15 -1.4 -2.3 -0.2 L-2.05 1.5 -1.55 3.05 -1.2 3.0 -1.3 2.5 -1.4 1.9 -1.4 1.85 -1.35 1.1 -1.0 0.35 Q-0.5 -0.2 0.45 -0.05" fill="#333333" fill-rule="evenodd" stroke="none"/>
    <path d="M0.45 -0.05 Q-0.5 -0.2 -1.0 0.35 L-1.35 1.1 -1.4 1.85 -1.4 1.9 -1.3 2.5 -1.2 3.0 -1.55 3.05 -2.05 1.5 -2.3 -0.2 Q-2.15 -1.4 -0.4 -1.6 1.35 -1.8 1.25 -0.65 L1.15 -0.4 Q1.05 0.0 0.45 -0.05 M0.55 3.4 L0.5 3.4 Q-0.1 3.35 -0.25 2.8 L-0.3 2.4 Q-0.2 1.5 0.65 1.7 1.55 1.8 1.5 2.6 L1.5 2.7 1.2 3.2 0.55 3.4" fill="#666666" fill-rule="evenodd" stroke="none"/>
  </g>
</svg>
