<?xml version="1.0" encoding="UTF-8" standalone="no"?>
<svg xmlns:ffdec="https://www.free-decompiler.com/flash" xmlns:xlink="http://www.w3.org/1999/xlink" ffdec:objectType="shape" height="21.65px" width="17.0px" xmlns="http://www.w3.org/2000/svg">
  <g transform="matrix(1.0, 0.0, 0.0, 1.0, 8.5, 10.85)">
    <path d="M8.5 -7.95 L6.75 0.2 6.75 0.45 6.7 0.5 6.55 1.4 6.55 1.55 6.55 1.6 6.45 2.0 6.4 2.1 Q5.95 3.25 3.85 4.45 0.55 6.15 0.35 6.35 L0.3 6.35 -3.05 8.8 Q-6.0 10.95 -6.45 10.8 -7.9 10.85 -8.35 9.45 L-8.45 8.95 -8.5 8.75 -8.5 7.7 -8.5 7.6 -8.4 7.05 -8.4 7.0 -8.4 6.9 -8.35 6.5 Q-7.4 -0.75 -6.65 -2.85 -6.1 -4.5 -5.2 -5.6 L-5.15 -5.6 Q-4.1 -7.05 -2.0 -8.35 L-1.9 -8.4 Q2.8 -10.7 5.2 -10.85 6.75 -10.95 7.55 -10.3 8.5 -9.7 8.5 -8.2 L8.5 -7.95 M7.0 -8.4 L5.3 -8.25 6.15 -7.4 7.0 -8.4 M-6.65 6.85 L-6.65 8.2 -5.05 7.55 -6.65 6.85" fill="#a36a6a" fill-rule="evenodd" stroke="none"/>
    <path d="M5.8 0.0 L3.95 0.2 4.8 -6.05 4.4 -6.6 Q3.65 -5.25 2.75 -1.5 L2.15 1.1 2.65 0.85 -1.8 3.45 Q-5.75 5.65 -7.4 7.0 -6.4 -0.4 -5.7 -2.55 L-4.4 -5.0 Q-3.4 -6.3 -1.5 -7.5 7.5 -11.85 7.5 -8.2 L5.8 0.0" fill="#ffffff" fill-rule="evenodd" stroke="none"/>
    <path d="M-7.4 7.0 Q-5.75 5.65 -1.8 3.45 L2.65 0.85 2.15 1.1 2.75 -1.5 Q3.65 -5.25 4.4 -6.6 L4.8 -6.05 3.95 0.2 5.8 0.0 5.75 0.3 5.55 1.35 5.55 1.45 5.5 1.7 5.45 1.7 Q5.05 2.6 3.35 3.55 L-0.3 5.55 -3.65 8.0 Q-6.15 9.8 -6.45 9.8 -7.3 9.8 -7.5 8.75 L-7.5 7.7 -7.4 7.15 -7.4 7.0 M-6.0 7.5 L-6.0 7.55 -5.95 7.55 -6.0 7.5" fill="#e0cbcb" fill-rule="evenodd" stroke="none"/>
  </g>
</svg>
