<?xml version="1.0" encoding="UTF-8" standalone="no"?>
<svg xmlns:ffdec="https://www.free-decompiler.com/flash" xmlns:xlink="http://www.w3.org/1999/xlink" ffdec:objectType="shape" height="19.65px" width="70.45px" xmlns="http://www.w3.org/2000/svg">
  <g transform="matrix(1.0, 0.0, 0.0, 1.0, 35.0, 8.2)">
    <path d="M30.65 -5.85 Q32.55 -4.55 33.75 -3.3 35.45 -1.4 35.45 2.1 35.45 3.95 33.75 6.95 31.2 11.45 26.65 11.45 23.95 11.45 20.9 10.15 L18.1 8.7 Q16.85 7.8 15.2 7.25 12.25 6.2 4.4 6.2 L-7.3 7.05 -13.85 8.3 Q-17.1 8.75 -20.6 9.9 -23.2 10.7 -25.0 10.7 -31.45 10.7 -33.8 6.7 -35.0 4.7 -35.0 1.9 -35.0 -0.35 -33.4 -3.35 -30.85 -8.2 -25.8 -8.2 -23.15 -8.2 -20.4 -6.85 L-16.35 -4.7 -12.5 -3.05 -10.05 -2.2 -7.85 -1.95 -6.95 -1.9 -3.1 -1.95 0.6 -1.8 -2.3 -1.8 Q4.65 -0.95 13.1 -4.35 L19.2 -6.85 Q22.5 -8.05 24.7 -8.05 27.45 -8.05 30.65 -5.85" fill="#a36a6a" fill-rule="evenodd" stroke="none"/>
    <path d="M28.85 6.95 L23.8 5.05 22.8 4.75 22.75 4.7 21.2 4.3 20.25 4.05 14.55 3.75 13.8 3.45 13.45 2.8 13.15 1.85 12.95 0.8 Q12.95 -2.35 14.75 -3.35 L16.3 -4.3 18.7 -5.25 19.7 -5.3 20.05 -5.35 20.5 -5.35 Q19.35 -1.75 19.35 -0.8 19.35 0.3 24.25 3.65 L28.85 6.95 M-24.35 -7.4 L-24.15 -7.35 -24.1 -7.35 Q-22.8 -6.75 -22.85 -5.15 L-23.0 -2.45 -22.35 0.3 -22.35 1.85 -22.4 1.95 -22.0 1.75 -21.9 2.5 -21.95 3.15 Q-22.1 3.65 -22.8 3.65 -23.45 3.65 -24.7 2.8 -25.15 2.5 -25.7 2.3 L-25.7 2.15 -25.8 2.3 -26.2 2.15 -26.9 2.05 -26.85 1.7 -26.1 0.7 Q-25.35 -0.05 -25.35 -0.9 L-25.35 -3.35 Q-25.35 -5.95 -24.35 -7.4" fill="#cca9a9" fill-rule="evenodd" stroke="none"/>
    <path d="M28.85 6.95 L24.25 3.65 Q19.35 0.3 19.35 -0.8 19.35 -1.75 20.5 -5.35 L23.7 -5.5 22.5 -0.35 Q22.5 0.9 23.55 1.35 26.35 2.65 27.75 3.65 30.7 5.5 32.15 6.6 L30.95 7.4 30.3 7.5 28.85 6.95 M-34.0 2.1 L-33.6 1.7 Q-32.2 0.5 -30.65 0.35 -27.55 0.15 -27.05 -0.7 -26.75 -1.2 -26.95 -2.35 -26.5 -5.4 -25.3 -7.4 L-25.2 -7.5 -24.35 -7.4 Q-25.35 -5.95 -25.35 -3.35 L-25.35 -0.9 Q-25.35 -0.05 -26.1 0.7 L-26.85 1.7 -26.9 2.05 -28.1 1.95 Q-30.0 1.95 -31.3 2.7 -32.6 3.45 -33.1 3.45 L-33.15 3.45 Q-33.55 3.45 -33.75 3.1 L-33.9 2.7 -34.0 2.1 M-22.35 0.3 L-22.0 1.75 -22.4 1.95 -22.35 1.85 -22.35 0.3 M-25.7 2.3 L-25.8 2.3 -25.7 2.15 -25.7 2.3" fill="#e0cbcb" fill-rule="evenodd" stroke="none"/>
    <path d="M23.7 -5.5 L29.05 -5.15 Q34.05 -0.95 34.05 3.2 34.05 3.9 32.95 5.55 L32.15 6.6 Q30.7 5.5 27.75 3.65 26.35 2.65 23.55 1.35 22.5 0.9 22.5 -0.35 L23.7 -5.5 M-34.0 2.1 L-34.0 1.2 Q-34.0 0.1 -33.5 -1.15 L-32.3 -3.7 Q-31.25 -5.9 -28.0 -6.95 L-25.2 -7.5 -25.3 -7.4 Q-26.5 -5.4 -26.95 -2.35 -26.75 -1.2 -27.05 -0.7 -27.55 0.15 -30.65 0.35 -32.2 0.5 -33.6 1.7 L-34.0 2.1" fill="#ffffff" fill-rule="evenodd" stroke="none"/>
  </g>
</svg>
