<?xml version="1.0" encoding="UTF-8" standalone="no"?>
<svg xmlns:ffdec="https://www.free-decompiler.com/flash" xmlns:xlink="http://www.w3.org/1999/xlink" ffdec:objectType="shape" height="13.2px" width="30.6px" xmlns="http://www.w3.org/2000/svg">
  <g transform="matrix(1.0, 0.0, 0.0, 1.0, -13.3, 4.5)">
    <path d="M16.65 -4.1 L16.9 -4.35 19.75 -4.45 Q22.3 -4.2 23.7 -2.9 25.6 -1.25 25.6 2.1 L25.6 2.95 25.25 5.05 24.95 5.7 Q23.4 8.7 18.35 8.7 L15.05 8.55 15.05 8.6 14.7 7.6 Q13.6 4.3 13.6 3.1 13.6 0.45 14.55 -1.3 15.1 -2.4 16.65 -4.1 M16.9 -1.7 L15.5 -2.3 16.15 -0.7 16.9 -1.7" fill="#a36a6a" fill-rule="evenodd" stroke="none"/>
    <path d="M40.75 -2.95 L16.9 -2.95 16.9 7.6 40.75 7.6 40.75 -2.95 M16.0 -3.35 L16.4 -3.8 16.9 -3.95 40.75 -3.95 41.45 -3.65 41.75 -2.95 41.75 7.6 41.45 8.3 40.75 8.6 16.9 8.6 Q16.5 8.6 16.2 8.3 15.9 8.0 15.9 7.6 L15.9 -2.95 16.0 -3.35" fill="#a36a6a" fill-rule="evenodd" stroke="none"/>
    <path d="M14.8 7.85 L14.65 7.8 14.7 7.8 13.95 6.95 13.95 6.9 13.75 6.35 13.55 5.65 13.55 5.6 13.4 4.85 13.35 4.45 13.3 3.7 Q13.3 0.85 13.55 -0.2 14.1 -2.4 15.95 -3.25 L15.95 -3.15 15.95 -3.0 16.0 -2.75 Q14.65 -1.5 14.2 0.15 14.0 0.8 13.95 1.7 L13.95 1.9 13.95 2.2 13.95 2.25 14.0 3.7 Q14.0 4.95 14.7 6.35 L15.3 7.6 Q15.25 7.8 14.8 7.8 L14.8 7.85 M23.5 3.25 L23.15 5.25 Q22.8 6.25 22.1 6.25 21.25 6.25 21.0 5.3 L20.95 5.15 20.85 4.05 20.9 3.4 Q21.0 0.65 22.2 -0.3 23.55 -1.35 23.55 2.0 L23.5 3.25" fill="#a36a6a" fill-rule="evenodd" stroke="none"/>
    <path d="M16.0 -2.75 L16.25 -2.8 16.4 -2.85 19.8 -3.1 Q21.95 -2.9 23.2 -1.8 21.25 -3.35 20.0 -0.15 19.55 1.0 19.4 3.45 L17.0 3.45 Q16.2 3.4 15.85 3.15 L15.5 2.7 14.65 2.05 14.65 2.1 14.5 2.0 14.0 1.7 13.95 1.7 Q14.0 0.8 14.2 0.15 14.65 -1.5 16.0 -2.75 M13.95 2.25 L13.95 2.2 14.0 2.25 13.95 2.25 M16.3 -1.2 L16.35 -1.25 16.25 -1.25 16.25 -1.15 16.3 -1.2" fill="#ffffff" fill-rule="evenodd" stroke="none"/>
    <path d="M23.2 -1.8 Q24.75 -0.4 24.75 2.45 L24.75 3.25 24.45 5.05 24.2 5.55 Q22.85 8.05 18.5 8.05 L14.8 7.85 14.8 7.8 Q15.25 7.8 15.3 7.6 L14.7 6.35 Q14.0 4.95 14.0 3.7 L13.95 2.25 14.0 2.25 13.95 2.2 13.95 1.9 13.95 1.7 14.0 1.7 14.5 2.0 14.65 2.1 14.65 2.05 15.5 2.7 15.85 3.15 Q16.2 3.4 17.0 3.45 L19.4 3.45 Q19.55 1.0 20.0 -0.15 21.25 -3.35 23.2 -1.8 M23.5 3.25 L23.55 2.0 Q23.55 -1.35 22.2 -0.3 21.0 0.65 20.9 3.4 L20.85 4.05 20.95 5.15 21.0 5.3 Q21.25 6.25 22.1 6.25 22.8 6.25 23.15 5.25 L23.5 3.25" fill="#e0cbcb" fill-rule="evenodd" stroke="none"/>
    <path d="M38.55 -2.15 L39.45 -3.35 39.8 -3.6 40.2 -3.7 41.35 -3.7 42.0 -3.45 Q43.3 -2.45 43.55 -0.95 L43.85 1.45 43.9 3.25 Q43.9 4.6 43.45 5.85 L43.1 6.75 43.05 6.8 42.5 7.6 42.05 8.1 Q41.75 8.4 41.35 8.4 L40.2 8.4 39.6 8.2 39.0 7.6 38.95 7.55 38.1 5.9 38.1 5.85 Q37.75 5.2 37.7 4.1 L37.65 2.3 37.75 0.55 38.05 -1.0 38.05 -1.1 38.55 -2.15" fill="#a36a6a" fill-rule="evenodd" stroke="none"/>
    <path d="M16.9 3.4 L16.9 -2.95 40.75 -2.95 40.75 3.4 16.9 3.4" fill="#ffffff" fill-rule="evenodd" stroke="none"/>
    <path d="M40.75 3.4 L40.75 7.6 16.9 7.6 16.9 3.4 40.75 3.4" fill="#e0cbcb" fill-rule="evenodd" stroke="none"/>
    <path d="M38.95 -0.8 Q39.5 -3.0 40.7 -2.75 41.9 -3.0 42.5 -0.8 L42.45 -0.8 Q42.85 0.5 42.85 2.35 42.85 4.15 42.45 5.5 L42.5 5.45 Q41.9 7.65 40.7 7.4 39.5 7.65 38.95 5.45 L38.95 5.5 Q38.55 4.15 38.55 2.3 38.55 0.5 38.95 -0.8" fill="#ffffff" fill-rule="evenodd" stroke="none"/>
    <path d="M41.5 -0.55 Q41.85 0.65 41.85 2.35 41.85 4.0 41.5 5.2 41.2 6.4 40.7 6.4 40.2 6.4 39.9 5.2 39.55 4.0 39.55 2.3 39.55 0.65 39.9 -0.55 40.2 -1.75 40.7 -1.75 41.2 -1.75 41.5 -0.55" fill="#a36a6a" fill-rule="evenodd" stroke="none"/>
  </g>
</svg>
