<?xml version="1.0" encoding="UTF-8" standalone="no"?>
<svg xmlns:ffdec="https://www.free-decompiler.com/flash" xmlns:xlink="http://www.w3.org/1999/xlink" ffdec:objectType="shape" height="32.75px" width="32.05px" xmlns="http://www.w3.org/2000/svg">
  <g transform="matrix(1.0, 0.0, 0.0, 1.0, -9.35, 12.0)">
    <path d="M26.6 -11.4 Q27.0 -11.2 27.0 -10.8 L26.65 -8.6 Q26.3 -7.1 26.3 -5.4 26.3 -3.45 28.5 2.25 30.8 8.1 31.75 8.1 L33.85 7.95 36.8 7.9 39.35 8.0 39.4 7.95 39.45 8.1 Q40.55 8.35 41.1 9.45 L41.4 11.1 Q41.4 13.3 38.25 16.5 L36.8 17.8 Q32.95 20.75 27.55 20.75 18.95 20.75 13.65 13.25 9.35 7.2 9.35 0.5 9.35 -4.95 13.95 -8.7 18.0 -12.0 22.7 -12.0 25.9 -12.0 26.45 -11.1 L26.6 -11.4" fill="#000000" fill-rule="evenodd" stroke="none"/>
  </g>
</svg>
