<?xml version="1.0" encoding="UTF-8" standalone="no"?>
<svg xmlns:ffdec="https://www.free-decompiler.com/flash" xmlns:xlink="http://www.w3.org/1999/xlink" ffdec:objectType="shape" height="22.7px" width="13.85px" xmlns="http://www.w3.org/2000/svg">
  <g transform="matrix(1.0, 0.0, 0.0, 1.0, 7.6, 7.45)">
    <path d="M-6.1 5.75 Q-7.15 2.45 -7.6 -0.8 -7.6 -4.45 -5.9 -6.45 -3.3 -9.4 1.65 -3.85 L4.05 1.3 Q6.1 5.95 6.1 6.75 6.45 9.2 6.0 11.25 5.15 15.25 1.4 15.25 -0.2 15.25 -1.6 14.1 L0.95 9.55 Q4.15 3.55 4.15 2.8 4.15 -0.4 -0.35 8.5 L-2.6 13.1 Q-3.65 11.85 -4.5 9.95 -2.5 7.1 1.65 -2.3 1.65 -4.9 -2.5 0.35 -5.15 3.7 -6.1 5.75" fill="#999999" fill-rule="evenodd" stroke="none"/>
    <path d="M-1.6 14.1 L-2.6 13.1 -0.35 8.5 Q4.15 -0.4 4.15 2.8 4.15 3.55 0.95 9.55 L-1.6 14.1 M-4.5 9.95 L-5.65 7.15 -6.0 6.1 -6.1 5.75 Q-5.15 3.7 -2.5 0.35 1.65 -4.9 1.65 -2.3 -2.5 7.1 -4.5 9.95" fill="#cccccc" fill-rule="evenodd" stroke="none"/>
  </g>
</svg>
