<?xml version="1.0" encoding="UTF-8" standalone="no"?>
<svg xmlns:ffdec="https://www.free-decompiler.com/flash" xmlns:xlink="http://www.w3.org/1999/xlink" ffdec:objectType="shape" height="38.85px" width="68.3px" xmlns="http://www.w3.org/2000/svg">
  <g transform="matrix(1.0, 0.0, 0.0, 1.0, 38.0, 16.65)">
    <path d="M-28.9 -14.5 L-29.65 -14.2 -30.4 -14.05 -32.75 -14.25 -35.5 -14.45 Q-37.4 -14.45 -37.4 -15.1 L-37.1 -15.6 -36.9 -15.65 -38.0 -15.8 -36.8 -16.3 -35.7 -16.5 Q-33.05 -16.9 -34.05 -16.1 L-28.95 -14.6 -28.9 -14.5 M-26.85 -13.05 Q-26.35 -13.6 -25.95 -13.25 -25.25 -12.75 -24.65 -12.75 L-23.4 -12.45 Q-22.65 -12.15 -22.65 -11.85 L-22.95 -11.55 Q-21.9 -10.85 -21.9 -9.9 L-21.95 -9.6 -21.95 -9.55 -22.1 -9.5 -25.85 -11.35 -27.75 -11.95 Q-29.15 -12.45 -29.15 -12.85 L-26.4 -12.75 -26.85 -13.05 M-0.4 16.35 Q0.8 16.4 0.8 16.85 0.8 17.25 0.3 17.25 L-1.0 17.05 -2.6 16.55 -0.4 16.35 M-5.0 14.9 L-5.15 14.95 Q-6.45 14.95 -7.3 11.95 L-8.2 7.45 Q-7.0 8.95 -5.0 14.3 L-5.0 14.9 M23.35 19.9 L25.4 19.4 Q25.85 19.4 25.85 19.8 26.65 19.8 27.5 19.25 28.05 19.1 28.3 20.65 L28.95 20.75 29.95 20.35 30.25 20.4 30.3 20.7 Q30.3 21.25 29.3 21.55 L27.75 21.75 26.95 22.0 25.8 22.2 Q25.0 22.2 25.3 21.55 24.95 21.55 24.5 21.8 L23.8 22.0 Q22.15 21.65 22.8 20.8 L22.8 20.75 21.85 20.8 21.8 20.55 Q21.8 20.4 23.35 19.9 M18.15 21.4 L17.2 21.65 Q16.6 21.65 16.6 21.2 16.6 20.55 17.65 20.4 18.65 20.25 18.65 20.85 L18.15 21.4" fill="#999999" fill-rule="evenodd" stroke="none"/>
  </g>
</svg>
