<?xml version="1.0" encoding="UTF-8" standalone="no"?>
<svg xmlns:ffdec="https://www.free-decompiler.com/flash" xmlns:xlink="http://www.w3.org/1999/xlink" ffdec:objectType="shape" height="29.9px" width="28.1px" xmlns="http://www.w3.org/2000/svg">
  <g transform="matrix(1.0, 0.0, 0.0, 1.0, -6.35, 1.15)">
    <path d="M9.35 -1.15 Q10.8 -1.15 10.75 0.2 10.75 0.85 9.8 1.4 8.8 2.0 7.6 2.0 6.8 2.0 6.5 1.55 L6.35 1.05 Q6.35 0.4 7.0 -0.25 7.85 -1.15 9.35 -1.15 M34.05 28.1 Q33.5 28.75 32.55 28.75 31.05 28.75 29.8 27.75 28.8 26.95 28.8 26.55 28.8 25.2 31.65 24.95 34.45 24.7 34.45 27.2 34.45 27.6 34.05 28.1" fill="#ffffff" fill-rule="evenodd" stroke="none"/>
  </g>
</svg>
