<?xml version="1.0" encoding="UTF-8" standalone="no"?>
<svg xmlns:ffdec="https://www.free-decompiler.com/flash" xmlns:xlink="http://www.w3.org/1999/xlink" ffdec:objectType="shape" height="15.1px" width="16.5px" xmlns="http://www.w3.org/2000/svg">
  <g transform="matrix(1.0, 0.0, 0.0, 1.0, 8.0, 5.3)">
    <path d="M7.6 7.8 L8.2 8.95 8.45 9.3 8.45 9.5 8.1 9.7 7.5 9.8 -1.0 9.8 -1.6 9.7 -1.95 9.5 -2.4 8.95 -7.95 -1.85 -7.95 -2.25 -7.85 -2.35 -7.95 -3.65 -7.95 -4.55 -7.95 -4.6 -7.95 -4.95 -7.85 -5.05 -7.7 -5.2 -7.65 -5.15 -7.55 -5.2 -7.0 -5.3 1.5 -5.3 2.1 -5.2 2.45 -4.95 8.2 5.05 8.45 5.35 8.45 5.55 8.1 5.75 7.65 5.8 7.45 5.55 1.5 -4.75 1.1 -4.75 -6.25 -4.75 -6.55 -4.85 -7.2 -4.85 -7.2 -3.8 -7.05 -3.25 -7.0 -2.95 -6.8 -2.6 -6.05 -2.2 -5.45 -2.1 -5.4 -2.0 -7.0 -2.0 -1.0 9.65 7.5 9.65 7.6 7.8" fill="#a36a6a" fill-rule="evenodd" stroke="none"/>
    <path d="M7.65 5.8 L7.7 6.3 7.6 7.3 7.6 7.8 7.5 9.65 -1.0 9.65 -7.0 -2.0 -5.4 -2.0 -5.45 -2.1 -5.4 -2.1 0.85 -1.75 1.3 -3.0 1.55 -4.15 Q1.55 -4.7 1.1 -4.7 L1.1 -4.75 1.5 -4.75 7.45 5.55 7.65 5.8 M-6.5 -4.65 L-6.55 -4.75 -6.35 -4.75 -6.35 -4.7 -6.5 -4.65" fill="#ffffff" fill-rule="evenodd" stroke="none"/>
    <path d="M-5.45 -2.1 L-6.05 -2.2 -6.8 -2.6 -7.0 -2.95 -7.05 -3.25 -7.2 -3.8 -7.2 -4.85 -6.55 -4.85 -6.25 -4.75 1.1 -4.75 1.1 -4.7 Q1.55 -4.7 1.55 -4.15 L1.3 -3.0 0.85 -1.75 -5.4 -2.1 -5.45 -2.1 M-6.5 -4.65 L-6.35 -4.7 -6.35 -4.75 -6.55 -4.75 -6.5 -4.65" fill="#e0cbcb" fill-rule="evenodd" stroke="none"/>
  </g>
</svg>
