<?xml version="1.0" encoding="UTF-8" standalone="no"?>
<svg xmlns:ffdec="https://www.free-decompiler.com/flash" xmlns:xlink="http://www.w3.org/1999/xlink" ffdec:objectType="shape" height="7.45px" width="12.65px" xmlns="http://www.w3.org/2000/svg">
  <g transform="matrix(1.0, 0.0, 0.0, 1.0, 9.0, 7.85)">
    <path d="M-5.5 -2.25 L-5.25 -2.3 Q-4.85 -2.3 -4.1 -0.5 L-4.3 -0.4 -5.05 -1.15 -5.6 -2.0 -5.5 -2.25 M-6.5 -3.7 L-6.2 -3.15 Q-6.2 -1.45 -8.9 -5.6 L-8.85 -5.9 -8.4 -6.0 Q-7.35 -5.55 -7.35 -5.3 L-6.8 -4.7 -6.3 -4.05 -6.4 -3.85 -6.5 -3.7 M-8.25 -7.8 L-5.25 -7.6 Q-4.9 -7.45 -4.9 -7.1 -4.9 -6.45 -6.95 -6.4 -9.0 -6.35 -9.0 -7.25 -9.0 -7.8 -8.25 -7.8 M2.5 -7.85 Q2.95 -7.85 2.95 -7.25 L2.55 -5.95 Q2.55 -4.95 3.1 -3.8 L3.65 -2.65 3.6 -2.45 3.45 -2.45 Q3.1 -2.55 2.65 -3.2 L1.85 -4.0 Q0.55 -4.6 -1.05 -4.9 -2.0 -5.05 -2.0 -5.5 -2.0 -6.45 1.65 -6.15 L1.9 -7.1 2.5 -7.85" fill="#999999" fill-rule="evenodd" stroke="none"/>
  </g>
</svg>
