<?xml version="1.0" encoding="UTF-8" standalone="no"?>
<svg xmlns:ffdec="https://www.free-decompiler.com/flash" xmlns:xlink="http://www.w3.org/1999/xlink" ffdec:objectType="shape" height="17.15px" width="22.9px" xmlns="http://www.w3.org/2000/svg">
  <g transform="matrix(1.0, 0.0, 0.0, 1.0, 11.45, 8.6)">
    <path d="M-8.3 6.8 L-8.2 4.8 -8.0 1.8 -7.65 0.0 -6.25 -3.1 Q-5.4 -4.8 -3.75 -6.45 L-2.95 -7.15 -1.85 -7.35 -0.75 -7.5 -0.5 -7.55 0.05 -7.55 Q-1.4 -6.35 -2.55 -4.45 L-3.2 -2.4 -3.7 0.05 -3.25 5.55 Q-3.3 6.2 -4.8 6.6 L-8.3 6.8 M9.1 2.85 L8.05 3.7 8.0 3.75 7.7 3.9 5.5 4.5 5.25 4.45 5.2 4.45 5.25 4.3 6.6 3.3 Q8.0 2.05 8.6 0.75 8.8 2.15 8.55 2.85 L8.55 2.9 8.6 2.9 9.1 2.85" fill="#e0cbcb" fill-rule="evenodd" stroke="none"/>
    <path d="M-2.95 -7.15 L-3.75 -6.45 Q-5.4 -4.8 -6.25 -3.1 L-7.65 0.0 -8.0 1.8 -8.2 4.8 -8.3 6.8 -9.35 6.7 -9.5 6.7 -10.4 6.55 -10.4 6.45 -10.3 5.05 -10.3 4.15 -10.05 0.5 Q-9.8 -2.3 -8.2 -4.2 -7.3 -5.3 -6.0 -6.05 -4.75 -6.8 -2.95 -7.15" fill="#cca9a9" fill-rule="evenodd" stroke="none"/>
    <path d="M0.05 -7.55 L-0.5 -7.55 -0.75 -7.5 -1.85 -7.35 -2.95 -7.15 Q-4.75 -6.8 -6.0 -6.05 -7.3 -5.3 -8.2 -4.2 -9.8 -2.3 -10.05 0.5 L-10.3 4.15 -10.3 5.05 -10.4 6.45 -10.4 6.55 -10.35 7.5 -9.4 7.85 -7.05 8.0 -1.4 8.15 -2.35 8.2 -10.7 8.55 -11.05 8.25 -11.3 7.9 -11.45 6.55 -11.45 6.5 -11.45 6.4 -11.3 5.05 -11.3 4.15 -11.3 4.05 -11.1 0.4 Q-10.8 -2.75 -8.95 -4.9 -8.0 -6.05 -6.55 -6.9 -5.1 -7.7 -3.25 -8.15 L-3.2 -8.2 -2.0 -8.4 -0.85 -8.55 -0.75 -8.5 -0.55 -8.55 0.05 -8.6 Q4.9 -8.55 6.95 -5.55 L6.95 -5.6 Q8.95 -2.7 9.45 -0.35 L9.6 0.6 9.65 0.65 9.75 1.85 Q10.6 1.9 10.95 2.4 L11.0 2.45 Q11.45 2.95 11.4 3.75 L11.4 3.8 Q11.85 3.95 9.4 5.8 7.35 7.25 1.0 7.95 L5.5 6.95 Q7.7 6.25 9.0 5.3 10.3 4.45 10.4 3.7 L10.2 3.1 Q9.85 2.75 9.1 2.85 L8.6 2.9 8.55 2.9 8.55 2.85 Q8.8 2.15 8.6 0.75 L8.4 -0.15 Q7.95 -2.25 6.1 -5.0 4.3 -7.55 0.05 -7.55" fill="#a36a6a" fill-rule="evenodd" stroke="none"/>
    <path d="M-8.3 6.8 L-4.8 6.6 Q-3.3 6.2 -3.25 5.55 L-3.7 0.05 -3.2 -2.4 -2.55 -4.45 Q-1.4 -6.35 0.05 -7.55 4.3 -7.55 6.1 -5.0 7.95 -2.25 8.4 -0.15 L8.6 0.75 Q8.0 2.05 6.6 3.3 L5.25 4.3 5.2 4.45 3.0 5.05 -1.4 6.25 -1.35 6.45 -0.25 6.85 Q1.25 7.0 4.65 5.95 8.15 4.8 8.25 3.9 L8.2 3.7 8.05 3.7 9.1 2.85 Q9.85 2.75 10.2 3.1 L10.4 3.7 Q10.3 4.45 9.0 5.3 7.7 6.25 5.5 6.95 L1.0 7.95 -1.4 8.15 -7.05 8.0 -9.4 7.85 -10.35 7.5 -10.4 6.55 -9.5 6.7 -9.35 6.7 -8.3 6.8" fill="url(#gradient0)" fill-rule="evenodd" stroke="none"/>
    <path d="M8.05 3.7 L8.2 3.7 8.25 3.9 Q8.15 4.8 4.65 5.95 1.25 7.0 -0.25 6.85 L-1.35 6.45 -1.4 6.25 3.0 5.05 5.2 4.45 5.25 4.45 5.5 4.5 7.7 3.9 8.0 3.75 8.05 3.7" fill="#ffffff" fill-rule="evenodd" stroke="none"/>
  </g>
  <defs>
    <radialGradient cx="0" cy="0" gradientTransform="matrix(0.0049, 0.0059, -0.0048, 0.004, 2.3, -2.2)" gradientUnits="userSpaceOnUse" id="gradient0" r="819.2" spreadMethod="pad">
      <stop offset="0.47843137254901963" stop-color="#ffffff"/>
      <stop offset="0.8823529411764706" stop-color="#f2eaea"/>
    </radialGradient>
  </defs>
</svg>
