<?xml version="1.0" encoding="UTF-8" standalone="no"?>
<svg xmlns:ffdec="https://www.free-decompiler.com/flash" xmlns:xlink="http://www.w3.org/1999/xlink" ffdec:objectType="shape" height="10.35px" width="27.45px" xmlns="http://www.w3.org/2000/svg">
  <g transform="matrix(1.0, 0.0, 0.0, 1.0, 15.5, 5.15)">
    <path d="M4.25 -2.7 L0.15 -2.25 Q-5.5 -2.25 -7.8 -3.6 L-8.45 -4.05 -8.5 -4.1 -8.35 -4.4 -12.3 -4.4 -13.25 -4.05 -14.35 -1.65 -12.15 1.3 -12.05 1.15 -11.5 1.65 -11.4 1.7 -9.5 2.4 -5.8 3.4 11.2 4.15 11.05 5.15 -5.9 4.4 -5.95 4.4 -9.85 3.35 -9.75 3.35 -11.1 2.9 -11.95 2.5 -15.5 -1.25 -13.95 -4.6 -8.0 -5.0 -7.95 -5.15 -7.7 -5.05 -6.15 -4.6 Q-5.9 -4.55 -4.5 -3.5 -3.25 -2.55 -1.05 -2.55 0.7 -2.55 1.7 -3.3 L4.25 -2.7" fill="#a36a6a" fill-rule="evenodd" stroke="none"/>
    <path d="M-8.5 -4.1 L-8.45 -4.05 -7.8 -3.6 Q-5.5 -2.25 0.15 -2.25 L4.25 -2.7 11.95 -0.85 11.2 4.15 -5.8 3.4 -9.5 2.4 -11.4 1.7 -11.5 1.65 -8.5 -4.1" fill="#e0cbcb" fill-rule="evenodd" stroke="none"/>
    <path d="M-11.5 1.65 L-12.05 1.15 -12.15 1.3 -14.35 -1.65 -13.25 -4.05 -12.3 -4.4 -8.35 -4.4 -8.5 -4.1 -11.5 1.65" fill="#d6a2a2" fill-rule="evenodd" stroke="none"/>
  </g>
</svg>
