<?xml version="1.0" encoding="UTF-8" standalone="no"?>
<svg xmlns:ffdec="https://www.free-decompiler.com/flash" xmlns:xlink="http://www.w3.org/1999/xlink" ffdec:objectType="shape" height="31.35px" width="23.75px" xmlns="http://www.w3.org/2000/svg">
  <g transform="matrix(1.0, 0.0, 0.0, 1.0, 9.65, 15.4)">
    <path d="M6.75 15.1 L6.1 14.75 5.5 14.4 3.05 12.1 Q1.85 10.65 1.15 9.0 L-0.95 3.65 -2.9 -1.5 -6.2 -10.0 -6.65 -10.95 -7.55 -12.25 5.45 -9.95 Q4.45 -8.4 4.45 -6.1 4.45 -3.8 5.15 -2.1 6.15 0.4 6.6 3.0 L6.75 3.65 Q7.6 7.6 9.75 9.35 L6.75 15.1" fill="#e0cbcb" fill-rule="evenodd" stroke="none"/>
    <path d="M6.75 15.1 L6.3 15.95 5.0 15.25 4.95 15.25 2.3 12.75 Q1.0 11.2 0.25 9.4 L-3.85 -1.15 Q-5.4 -5.5 -7.1 -9.6 L-8.45 -11.75 -8.7 -12.05 -9.65 -13.0 -7.05 -15.4 9.85 -12.75 11.05 -12.85 Q12.7 -12.85 14.1 -12.25 L13.15 -11.3 12.2 -11.95 Q11.5 -12.05 10.6 -11.5 L9.7 -10.9 Q7.1 -10.9 6.6 -10.35 L6.4 -9.8 Q6.25 -9.15 6.25 -7.9 6.25 -2.65 7.5 2.25 L9.15 7.45 10.2 8.25 10.3 8.3 9.75 9.35 Q7.6 7.6 6.75 3.65 L6.6 3.0 Q6.15 0.4 5.15 -2.1 4.45 -3.8 4.45 -6.1 4.45 -8.4 5.45 -9.95 L6.25 -10.95 6.5 -11.2 7.6 -12.0 -6.2 -14.5 -7.8 -12.55 -7.55 -12.25 -6.65 -10.95 -6.2 -10.0 -2.9 -1.5 -0.95 3.65 1.15 9.0 Q1.85 10.65 3.05 12.1 L5.5 14.4 6.1 14.75 6.75 15.1" fill="#a36a6a" fill-rule="evenodd" stroke="none"/>
    <path d="M-7.55 -12.25 L-7.8 -12.55 -6.2 -14.5 7.6 -12.0 6.5 -11.2 6.25 -10.95 5.45 -9.95 -7.55 -12.25" fill="#ffffff" fill-rule="evenodd" stroke="none"/>
  </g>
</svg>
