<?xml version="1.0" encoding="UTF-8" standalone="no"?>
<svg xmlns:ffdec="https://www.free-decompiler.com/flash" xmlns:xlink="http://www.w3.org/1999/xlink" ffdec:objectType="shape" height="20.2px" width="65.85px" xmlns="http://www.w3.org/2000/svg">
  <g transform="matrix(1.0, 0.0, 0.0, 1.0, 32.95, 9.1)">
    <path d="M-31.9 -4.15 L-31.95 -5.4 Q-31.95 -6.65 -31.1 -7.65 L-28.45 -8.1 -20.25 -7.5 -8.4 -6.6 4.75 -5.7 14.0 -5.15 24.95 -4.4 26.7 -3.65 30.15 -1.8 31.85 -0.6 31.9 -0.6 31.9 -0.55 28.9 1.05 28.75 1.1 27.3 1.75 Q24.75 3.0 22.1 3.85 L17.2 5.45 17.2 5.55 17.2 5.65 14.75 5.0 12.85 6.8 Q10.95 5.4 7.4 4.05 4.85 3.05 -4.3 0.35 L-23.45 -3.35 -31.9 -4.15" fill="#ffffff" fill-rule="evenodd" stroke="none"/>
    <path d="M14.05 -6.15 L25.1 -5.4 25.3 -5.35 27.15 -4.55 27.2 -4.5 30.65 -2.65 30.7 -2.65 32.5 -1.4 32.7 -1.25 32.9 -0.85 32.85 -0.2 32.5 0.25 32.4 3.35 30.65 4.8 28.2 2.2 27.75 2.65 27.7 2.7 Q25.1 3.95 22.4 4.8 L22.4 4.85 18.7 6.0 18.35 5.95 17.1 10.1 15.25 11.1 10.05 10.0 2.85 9.85 2.25 9.65 -16.7 5.85 -17.25 5.15 -17.4 5.1 Q-20.05 3.9 -23.15 3.7 L-29.15 2.7 -29.2 2.65 Q-30.95 2.1 -31.95 0.35 L-31.95 0.4 -32.0 0.25 -32.05 0.25 Q-32.8 -1.05 -32.85 -2.45 L-32.9 -4.1 -32.95 -5.4 Q-32.95 -7.0 -31.85 -8.3 L-31.45 -8.55 Q-29.95 -9.15 -28.4 -9.1 L-20.1 -8.5 -8.3 -7.6 4.8 -6.7 14.05 -6.15 M31.9 -0.55 L31.9 -0.6 31.85 -0.6 30.15 -1.8 26.7 -3.65 24.95 -4.4 14.0 -5.15 4.75 -5.7 -8.4 -6.6 -20.25 -7.5 -28.45 -8.1 -31.1 -7.65 Q-31.95 -6.65 -31.95 -5.4 L-31.9 -4.15 -31.85 -2.55 Q-31.8 -1.35 -31.15 -0.25 L-31.1 -0.15 Q-30.3 1.25 -28.9 1.7 L-23.1 2.7 Q-20.55 2.9 -18.35 3.65 -16.2 4.4 -14.35 5.65 L4.3 9.05 Q5.8 8.2 7.75 8.2 L10.2 8.6 10.6 8.75 10.7 8.75 10.8 8.8 11.55 9.1 11.45 9.15 12.25 9.4 14.65 10.1 15.25 10.05 16.3 9.7 17.35 6.6 17.1 6.5 17.2 5.65 17.2 5.55 17.2 5.45 22.1 3.85 Q24.75 3.0 27.3 1.75 L28.75 1.1 28.9 1.05 30.7 3.55 32.1 2.75 32.2 0.45 31.9 -0.55" fill="#a36a6a" fill-rule="evenodd" stroke="none"/>
    <path d="M-31.9 -4.15 L-23.45 -3.35 -4.3 0.35 Q4.85 3.05 7.4 4.05 10.95 5.4 12.85 6.8 L10.8 8.8 10.7 8.75 10.6 8.75 10.2 8.6 7.75 8.2 Q5.8 8.2 4.3 9.05 L-14.35 5.65 Q-16.2 4.4 -18.35 3.65 -20.55 2.9 -23.1 2.7 L-28.9 1.7 Q-30.3 1.25 -31.1 -0.15 L-31.05 -0.15 -31.15 -0.25 Q-31.8 -1.35 -31.85 -2.55 L-31.9 -4.15 M28.9 1.05 L31.9 -0.55 32.2 0.45 32.1 2.75 30.7 3.55 28.9 1.05 M12.25 9.4 L11.45 9.15 11.55 9.1 12.25 9.4 M14.9 9.8 L11.95 8.75 15.0 5.75 16.75 6.4 16.25 8.8 14.9 9.8" fill="#e0cbcb" fill-rule="evenodd" stroke="none"/>
    <path d="M12.85 6.8 L14.75 5.0 17.2 5.65 17.1 6.5 17.35 6.6 16.3 9.7 15.25 10.05 14.65 10.1 12.25 9.4 11.55 9.1 10.8 8.8 12.85 6.8 M14.9 9.8 L16.25 8.8 16.75 6.4 15.0 5.75 11.95 8.75 14.9 9.8" fill="#d6a2a2" fill-rule="evenodd" stroke="none"/>
  </g>
</svg>
