<?xml version="1.0" encoding="UTF-8" standalone="no"?>
<svg xmlns:ffdec="https://www.free-decompiler.com/flash" xmlns:xlink="http://www.w3.org/1999/xlink" ffdec:objectType="shape" height="14.75px" width="18.15px" xmlns="http://www.w3.org/2000/svg">
  <g transform="matrix(1.0, 0.0, 0.0, 1.0, 9.1, 7.4)">
    <path d="M8.5 -6.3 L8.45 -6.35 Q9.05 -5.9 9.05 -4.4 9.15 -2.3 5.9 1.9 L5.9 1.85 Q1.6 7.4 -4.25 7.35 -7.2 7.35 -8.35 6.0 -9.15 5.1 -9.1 4.15 -9.2 3.0 -7.4 0.55 L-7.35 0.55 -5.2 -2.2 -5.15 -2.25 Q-3.3 -4.45 -0.9 -5.95 1.7 -7.6 3.35 -7.25 7.4 -7.75 8.5 -6.3" fill="#a36a6a" fill-rule="evenodd" stroke="none"/>
    <path d="M7.75 -5.65 Q8.05 -5.35 8.05 -4.4 8.05 -2.55 5.1 1.25 1.15 6.35 -4.25 6.35 -6.65 6.35 -7.6 5.3 L-8.1 4.15 Q-8.1 3.2 -6.6 1.15 L-4.4 -1.6 Q-2.65 -3.7 -0.4 -5.1 1.95 -6.55 3.35 -6.25 6.8 -6.7 7.75 -5.65 M3.2 -5.8 L3.1 -6.1 Q1.85 -6.15 -1.75 -2.5 -5.3 1.15 -5.3 2.4 -5.4 3.0 -4.6 3.0 L-1.1 -1.35 3.2 -5.8" fill="#e0cbcb" fill-rule="evenodd" stroke="none"/>
    <path d="M3.2 -5.8 L-1.1 -1.35 -4.6 3.0 Q-5.4 3.0 -5.3 2.4 -5.3 1.15 -1.75 -2.5 1.85 -6.15 3.1 -6.1 L3.2 -5.8" fill="#ffffff" fill-rule="evenodd" stroke="none"/>
  </g>
</svg>
