<?xml version="1.0" encoding="UTF-8" standalone="no"?>
<svg xmlns:ffdec="https://www.free-decompiler.com/flash" xmlns:xlink="http://www.w3.org/1999/xlink" ffdec:objectType="shape" height="6.55px" width="4.45px" xmlns="http://www.w3.org/2000/svg">
  <g transform="matrix(1.0, 0.0, 0.0, 1.0, 6.4, 22.2)">
    <path d="M-1.95 -18.55 Q-1.95 -19.2 -2.2 -19.65 L-2.9 -20.15 Q-4.0 -20.1 -4.25 -17.75 L-4.3 -16.85 Q-4.2 -15.95 -3.3 -15.9 -3.85 -15.55 -4.55 -15.65 -5.65 -15.75 -6.15 -16.95 -6.5 -17.8 -6.4 -18.7 L-5.95 -21.0 Q-5.3 -22.4 -4.25 -22.15 -2.75 -21.85 -2.2 -20.3 -1.9 -19.5 -1.95 -18.55" fill="#ffffff" fill-rule="evenodd" stroke="none"/>
    <path d="M-3.3 -15.9 Q-4.2 -15.95 -4.3 -16.85 L-4.25 -17.75 Q-4.0 -20.1 -2.9 -20.15 L-2.2 -19.65 Q-1.95 -19.2 -1.95 -18.55 L-1.95 -18.5 -2.0 -18.0 -2.4 -16.8 Q-2.7 -16.15 -3.3 -15.9" fill="#330000" fill-rule="evenodd" stroke="none"/>
  </g>
</svg>
