<?xml version="1.0" encoding="UTF-8" standalone="no"?>
<svg xmlns:ffdec="https://www.free-decompiler.com/flash" xmlns:xlink="http://www.w3.org/1999/xlink" ffdec:objectType="shape" height="15.05px" width="20.1px" xmlns="http://www.w3.org/2000/svg">
  <g transform="matrix(1.0, 0.0, 0.0, 1.0, 12.05, 5.8)">
    <path d="M7.95 4.85 L7.7 5.3 7.2 5.45 7.15 5.45 7.35 2.4 4.15 -0.85 -7.2 0.75 -8.35 9.2 -10.7 9.2 Q-12.2 6.75 -12.05 3.45 -11.9 -0.45 -8.95 -3.1 L-7.5 -4.2 Q-5.1 -5.8 -1.9 -5.8 L-1.2 -5.75 Q2.45 -5.55 5.1 -3.1 8.05 -0.4 8.05 3.4 L7.95 4.85" fill="#a36a6a" fill-rule="evenodd" stroke="none"/>
    <path d="M-7.15 -3.6 Q-4.9 -5.05 -1.95 -5.05 L-1.4 -5.0 Q-2.75 -4.55 -3.8 -3.6 -6.1 -1.6 -6.1 1.25 -6.1 3.25 -5.0 4.85 -6.5 6.1 -6.75 8.05 L-6.8 8.5 Q-9.8 5.85 -9.8 2.3 -9.8 -1.05 -7.15 -3.6" fill="#e0cbcb" fill-rule="evenodd" stroke="none"/>
    <path d="M-1.4 -5.0 Q2.05 -4.85 4.55 -2.55 7.25 -0.1 7.25 3.4 L7.15 4.7 6.55 2.4 Q6.1 1.75 4.75 1.85 3.35 1.9 -1.45 3.2 -3.7 3.8 -5.0 4.85 -6.1 3.25 -6.1 1.25 -6.1 -1.6 -3.8 -3.6 -2.75 -4.55 -1.4 -5.0" fill="#f2eaea" fill-rule="evenodd" stroke="none"/>
    <path d="M-6.8 8.5 L-6.85 9.25 -9.85 9.25 Q-11.5 6.85 -11.35 3.45 -11.2 -0.1 -8.5 -2.55 L-7.15 -3.6 Q-9.8 -1.05 -9.8 2.3 -9.8 5.85 -6.8 8.5" fill="#cca9a9" fill-rule="evenodd" stroke="none"/>
  </g>
</svg>
