<?xml version="1.0" encoding="UTF-8" standalone="no"?>
<svg xmlns:ffdec="https://www.free-decompiler.com/flash" xmlns:xlink="http://www.w3.org/1999/xlink" ffdec:objectType="shape" height="17.8px" width="17.8px" xmlns="http://www.w3.org/2000/svg">
  <g transform="matrix(1.0, 0.0, 0.0, 1.0, 8.9, 8.9)">
    <path d="M3.55 -3.5 Q2.1 -4.95 0.0 -4.95 -2.05 -4.95 -3.5 -3.5 -4.95 -2.05 -4.95 0.0 -4.95 2.05 -3.5 3.5 -2.05 4.95 0.0 4.95 2.1 4.95 3.55 3.5 4.95 2.05 4.95 0.0 4.95 -2.05 3.55 -3.5 M6.3 -6.3 Q8.9 -3.7 8.9 0.0 8.9 3.7 6.3 6.3 3.7 8.9 0.0 8.9 -3.7 8.9 -6.3 6.3 -8.9 3.7 -8.9 0.0 -8.9 -3.7 -6.3 -6.3 -3.7 -8.9 0.0 -8.9 3.7 -8.9 6.3 -6.3" fill="#333333" fill-rule="evenodd" stroke="none"/>
  </g>
</svg>
