<?xml version="1.0" encoding="UTF-8" standalone="no"?>
<svg xmlns:ffdec="https://www.free-decompiler.com/flash" xmlns:xlink="http://www.w3.org/1999/xlink" ffdec:objectType="shape" height="41.1px" width="36.35px" xmlns="http://www.w3.org/2000/svg">
  <g transform="matrix(1.0, 0.0, 0.0, 1.0, 18.4, 21.05)">
    <path d="M8.55 -5.9 Q8.75 -7.2 4.6 -3.35 L0.45 0.8 Q0.3 1.45 0.9 1.45 1.9 1.45 8.55 -5.9 M6.65 -0.05 Q6.65 -0.8 5.8 -0.5 4.95 -0.2 4.95 0.5 L5.0 0.85 5.5 1.15 Q6.1 1.15 6.65 -0.05 M9.55 -4.3 L9.6 -4.0 Q9.7 -3.7 10.1 -3.7 10.3 -3.7 10.85 -4.15 L11.35 -4.75 Q11.35 -5.55 10.45 -5.2 9.55 -4.8 9.55 -4.3 M8.1 -3.05 Q7.2 -2.6 7.2 -1.9 7.2 -1.45 8.1 -1.45 L8.65 -1.85 8.95 -2.45 Q8.95 -3.45 8.1 -3.05 M1.3 -4.35 Q2.4 -4.75 3.25 -5.5 4.05 -6.25 3.1 -6.3 L-0.8 -6.4 -5.75 -5.8 Q-6.35 -5.5 -6.35 -4.75 L-6.2 -4.45 -2.75 -4.05 1.3 -4.35 M-6.5 -7.45 L-6.35 -7.65 15.95 -7.65 15.65 -7.25 6.65 2.85 6.5 3.0 -15.65 2.7 -15.6 2.65 -13.95 0.85 -13.4 0.95 Q-12.5 0.95 -11.9 0.1 -11.4 -0.55 -11.4 -1.05 L-11.4 -1.55 -11.6 -1.8 -6.5 -7.45 M11.6 -5.75 Q11.75 -5.45 12.25 -5.45 13.0 -5.45 13.0 -6.15 13.0 -6.95 12.3 -6.8 11.55 -6.6 11.55 -6.1 L11.6 -5.75 M-1.15 -0.35 L-0.1 -1.1 Q0.25 -1.35 0.05 -1.6 L-4.15 -2.0 Q-8.1 -2.15 -9.05 -1.5 L-10.4 -0.6 Q-10.95 -0.15 -10.95 0.25 L-10.9 0.5 -6.6 0.7 -2.4 0.6 -1.15 -0.35" fill="#ffffff" fill-rule="evenodd" stroke="none"/>
    <path d="M1.3 -4.35 L-2.75 -4.05 -6.2 -4.45 -6.35 -4.75 Q-6.35 -5.5 -5.75 -5.8 L-0.8 -6.4 3.1 -6.3 Q4.05 -6.25 3.25 -5.5 2.4 -4.75 1.3 -4.35 M8.1 -3.05 Q8.95 -3.45 8.95 -2.45 L8.65 -1.85 8.1 -1.45 Q7.2 -1.45 7.2 -1.9 7.2 -2.6 8.1 -3.05 M9.55 -4.3 Q9.55 -4.8 10.45 -5.2 11.35 -5.55 11.35 -4.75 L10.85 -4.15 Q10.3 -3.7 10.1 -3.7 9.7 -3.7 9.6 -4.0 L9.55 -4.3 M6.65 -0.05 Q6.1 1.15 5.5 1.15 L5.0 0.85 4.95 0.5 Q4.95 -0.2 5.8 -0.5 6.65 -0.8 6.65 -0.05 M8.55 -5.9 Q1.9 1.45 0.9 1.45 0.3 1.45 0.45 0.8 L4.6 -3.35 Q8.75 -7.2 8.55 -5.9 M15.65 -7.25 L15.85 3.55 6.65 13.9 6.65 2.85 15.65 -7.25 M-15.6 2.65 L-17.9 -10.15 -9.1 -20.55 -6.5 -7.45 -11.6 -1.8 -12.15 -1.95 Q-13.65 -1.95 -14.3 0.25 L-14.15 0.65 -13.95 0.85 -15.6 2.65 M13.15 -3.2 Q12.5 -3.15 12.6 -1.7 L12.8 0.55 12.8 2.45 Q12.85 4.35 13.2 4.35 13.6 4.35 13.5 0.6 L13.7 -1.75 Q13.75 -3.25 13.15 -3.2 M11.6 -5.75 L11.55 -6.1 Q11.55 -6.6 12.3 -6.8 13.0 -6.95 13.0 -6.15 13.0 -5.45 12.25 -5.45 11.75 -5.45 11.6 -5.75 M-15.8 -9.6 L-14.4 -1.7 -8.65 -8.05 -10.25 -16.15 -15.8 -9.6 M-1.15 -0.35 L-2.4 0.6 -6.6 0.7 -10.9 0.5 -10.95 0.25 Q-10.95 -0.15 -10.4 -0.6 L-9.05 -1.5 Q-8.1 -2.15 -4.15 -2.0 L0.05 -1.6 Q0.25 -1.35 -0.1 -1.1 L-1.15 -0.35 M9.25 5.65 L9.25 7.1 Q9.35 8.5 9.7 8.5 10.2 8.5 10.2 6.15 10.1 0.3 9.45 1.5 L9.25 5.65 M10.6 3.65 L10.6 5.75 Q10.7 7.85 11.05 7.85 11.65 7.85 11.5 4.3 L11.35 -0.2 Q10.6 -1.65 10.6 3.65 M11.75 3.9 L11.75 4.65 Q11.85 5.5 12.2 5.5 12.8 5.5 12.65 3.9 L12.5 0.9 12.2 -1.7 Q11.9 -1.0 11.8 1.35 L11.75 3.9" fill="#e0cbcb" fill-rule="evenodd" stroke="none"/>
    <path d="M13.15 -3.2 Q13.75 -3.25 13.7 -1.75 L13.5 0.6 Q13.6 4.35 13.2 4.35 12.85 4.35 12.8 2.45 L12.8 0.55 12.6 -1.7 Q12.5 -3.15 13.15 -3.2 M17.05 4.35 L17.55 4.75 17.75 5.35 17.95 8.5 17.75 9.2 8.55 19.75 8.05 20.0 7.45 19.95 6.95 19.55 6.75 18.95 6.75 15.5 Q6.75 15.15 7.0 14.95 L16.0 4.65 16.5 4.3 17.05 4.35 M11.75 3.9 L11.8 1.35 Q11.9 -1.0 12.2 -1.7 L12.5 0.9 12.65 3.9 Q12.8 5.5 12.2 5.5 11.85 5.5 11.75 4.65 L11.75 3.9 M10.6 3.65 Q10.6 -1.65 11.35 -0.2 L11.5 4.3 Q11.65 7.85 11.05 7.85 10.7 7.85 10.6 5.75 L10.6 3.65 M9.25 5.65 L9.45 1.5 Q10.1 0.3 10.2 6.15 10.2 8.5 9.7 8.5 9.35 8.5 9.25 7.1 L9.25 5.65" fill="#a36a6a" fill-rule="evenodd" stroke="none"/>
    <path d="M-6.5 -7.45 L-6.35 -7.65 15.95 -7.65 15.65 -7.25 6.65 2.85 6.5 3.0 -15.65 2.7 -15.6 2.65 -17.9 -10.15 -9.1 -20.55 -6.5 -7.45 M-15.8 -9.6 L-10.25 -16.15 -8.65 -8.05 -14.4 -1.7 -15.8 -9.6 Z" fill="none" stroke="#3b0101" stroke-linecap="round" stroke-linejoin="round" stroke-opacity="0.4" stroke-width="1.0"/>
    <path d="M7.75 19.05 L7.75 15.6 16.75 5.3 16.95 8.5 7.75 19.05" fill="#ffffff" fill-rule="evenodd" stroke="none"/>
    <path d="M-12.85 -1.45 Q-14.35 -0.15 -14.35 0.55 L-13.95 0.85 -13.65 0.85 Q-12.8 0.85 -12.0 -0.15 -11.4 -0.95 -11.4 -1.3 L-11.5 -1.85 Q-11.8 -2.35 -12.85 -1.45 M-11.1 -2.35 L-10.8 -2.0 -10.8 -1.3 Q-10.8 -0.6 -11.5 0.35 -12.35 1.55 -13.65 1.55 L-14.4 1.4 -14.7 1.1 -14.9 0.55 Q-14.0 -2.55 -11.9 -2.55 L-11.1 -2.35" fill="#a36a6a" fill-rule="evenodd" stroke="none"/>
    <path d="M-12.85 -1.45 Q-11.8 -2.35 -11.5 -1.85 L-11.4 -1.3 Q-11.4 -0.95 -12.0 -0.15 -12.8 0.85 -13.65 0.85 L-13.95 0.85 -14.35 0.55 Q-14.35 -0.15 -12.85 -1.45" fill="#ffffff" fill-rule="evenodd" stroke="none"/>
    <path d="M-7.85 -6.75 Q-6.8 -7.65 -6.5 -7.15 L-6.4 -6.6 -7.0 -5.45 Q-7.8 -4.45 -8.65 -4.45 L-8.95 -4.45 Q-9.35 -4.55 -9.35 -4.75 -9.35 -5.45 -7.85 -6.75" fill="#ffffff" fill-rule="evenodd" stroke="none"/>
    <path d="M-7.85 -6.75 Q-9.35 -5.45 -9.35 -4.75 -9.35 -4.55 -8.95 -4.45 L-8.65 -4.45 Q-7.8 -4.45 -7.0 -5.45 L-6.4 -6.6 -6.5 -7.15 Q-6.8 -7.65 -7.85 -6.75 M-6.1 -7.65 L-5.8 -7.3 -5.8 -6.6 Q-5.8 -5.9 -6.5 -4.95 -7.35 -3.75 -8.65 -3.75 L-9.4 -3.9 -9.7 -4.2 -9.9 -4.75 Q-9.0 -7.85 -6.9 -7.85 L-6.1 -7.65" fill="#a36a6a" fill-rule="evenodd" stroke="none"/>
  </g>
</svg>
