<?xml version="1.0" encoding="UTF-8" standalone="no"?>
<svg xmlns:ffdec="https://www.free-decompiler.com/flash" xmlns:xlink="http://www.w3.org/1999/xlink" ffdec:objectType="shape" height="17.0px" width="15.4px" xmlns="http://www.w3.org/2000/svg">
  <g transform="matrix(1.0, 0.0, 0.0, 1.0, -1.6, 7.3)">
    <path d="M9.7 -1.2 L8.85 -0.05 7.65 1.25 6.65 2.4 4.1 2.8 3.0 2.5 Q3.55 1.8 4.55 1.85 L6.05 1.6 6.5 1.05 6.95 0.35 8.65 -1.15 9.7 -1.2 M4.85 -6.35 L1.9 -6.5 1.6 -7.25 8.25 -7.3 8.4 -7.15 Q7.85 -6.35 4.85 -6.35 M17.0 6.2 L15.55 8.1 13.9 9.7 13.45 9.6 13.35 9.45 15.7 6.45 Q17.0 4.85 17.0 6.2" fill="#999999" fill-rule="evenodd" stroke="none"/>
  </g>
</svg>
