<?xml version="1.0" encoding="UTF-8" standalone="no"?>
<svg xmlns:ffdec="https://www.free-decompiler.com/flash" xmlns:xlink="http://www.w3.org/1999/xlink" ffdec:objectType="shape" height="16.8px" width="18.6px" xmlns="http://www.w3.org/2000/svg">
  <g transform="matrix(1.0, 0.0, 0.0, 1.0, 10.2, 15.15)">
    <path d="M-10.2 -12.95 L6.1 -12.95 8.3 -11.6 -8.6 -11.6 -10.2 -12.95" fill="#f2f3fb" fill-rule="evenodd" stroke="none"/>
    <path d="M8.3 -11.6 L8.4 -11.6 8.4 1.65 -8.6 1.65 -8.6 -11.6 8.3 -11.6" fill="#d9daf2" fill-rule="evenodd" stroke="none"/>
    <path d="M-8.6 1.65 L-10.2 -0.3 -10.2 -12.95 -8.6 -11.6 -8.6 1.65" fill="#b9bee8" fill-rule="evenodd" stroke="none"/>
    <path d="M3.3 -3.1 L-4.2 -3.1 -4.2 -5.6 3.3 -5.6 3.3 -3.1" fill="#b51717" fill-rule="evenodd" stroke="none"/>
    <path d="M0.8 -0.55 L-1.7 -0.55 -1.7 -8.05 0.8 -8.05 0.8 -0.55" fill="#b51717" fill-rule="evenodd" stroke="none"/>
    <path d="M3.85 -12.05 L2.2 -12.05 1.15 -13.75 -2.55 -13.75 -3.6 -12.05 -5.25 -12.05 -3.3 -15.15 1.9 -15.15 3.85 -12.05" fill="#5a0c0c" fill-rule="evenodd" stroke="none"/>
  </g>
</svg>
