<?xml version="1.0" encoding="UTF-8" standalone="no"?>
<svg xmlns:ffdec="https://www.free-decompiler.com/flash" xmlns:xlink="http://www.w3.org/1999/xlink" ffdec:objectType="shape" height="23.45px" width="56.3px" xmlns="http://www.w3.org/2000/svg">
  <g transform="matrix(1.0, 0.0, 0.0, 1.0, 28.75, 13.0)">
    <path d="M-23.2 -9.8 L-23.4 -10.0 -23.85 -10.4 Q-25.35 -10.4 -26.15 -8.7 -26.75 -6.7 -27.15 -6.35 L-27.3 -6.45 -26.9 -9.15 Q-26.1 -11.6 -23.7 -11.6 -22.8 -11.6 -22.05 -10.15 L-22.3 -9.75 -22.6 -9.4 -23.2 -9.8 M-21.5 2.75 L-21.2 3.2 Q-22.0 5.6 -23.2 5.6 -24.3 5.6 -24.3 4.85 -24.3 4.6 -23.8 4.65 -23.05 4.65 -22.4 3.95 L-21.5 2.75" fill="#999999" fill-rule="evenodd" stroke="none"/>
    <path d="M-23.2 -9.8 L-22.6 -9.4 -22.3 -9.75 -22.05 -10.15 Q-22.8 -11.6 -23.7 -11.6 -26.1 -11.6 -26.9 -9.15 L-27.3 -6.45 -27.15 -6.35 Q-26.75 -6.7 -26.15 -8.7 -25.35 -10.4 -23.85 -10.4 L-23.4 -10.0 -23.2 -9.8 M-27.35 -10.1 Q-25.9 -13.0 -23.9 -13.0 -21.9 -13.0 -20.5 -10.1 -19.05 -7.1 -19.05 -2.9 -19.05 1.3 -20.5 4.2 -21.9 7.2 -23.9 7.2 -25.9 7.2 -27.35 4.2 -28.75 1.3 -28.75 -2.9 -28.75 -7.1 -27.35 -10.1 M-21.5 2.75 L-22.4 3.95 Q-23.05 4.65 -23.8 4.65 -24.3 4.6 -24.3 4.85 -24.3 5.6 -23.2 5.6 -22.0 5.6 -21.2 3.2 L-21.5 2.75" fill="#333333" fill-rule="evenodd" stroke="none"/>
    <path d="M-7.9 -2.75 L-6.6 -2.75 22.45 -2.7 22.45 -7.4 -6.6 -7.4 -6.6 -8.75 24.0 -8.75 24.0 2.95 12.75 2.95 12.75 5.25 8.75 5.25 8.75 10.45 6.05 10.45 6.05 2.95 -6.55 2.95 -6.6 1.6 -7.2 0.65 -7.45 0.05 -7.55 -0.4 -7.85 -1.25 -7.95 -2.0 -7.9 -2.75 M-6.9 -6.4 L-6.85 -6.45 -6.7 -6.7 -6.6 -7.0 -6.6 -6.35 -6.9 -6.4" fill="#333333" fill-rule="evenodd" stroke="none"/>
    <path d="M-6.6 -7.4 L22.45 -7.4 22.45 -2.7 -6.6 -2.75 -7.9 -2.75 -7.75 -3.45 -7.75 -3.6 -7.5 -4.65 -7.45 -4.8 -7.35 -5.55 -7.3 -5.8 -7.2 -6.05 -6.9 -6.4 -6.6 -6.35 -6.6 -7.0 -6.6 -7.4" fill="#999999" fill-rule="evenodd" stroke="none"/>
    <path d="M-7.9 -2.75 L-7.95 -2.0 -7.85 -1.25 -7.55 -0.4 -7.45 0.05 -7.2 0.65 -6.6 1.6 -24.2 2.8 Q-26.3 0.2 -26.3 -2.7 -26.3 -5.65 -24.2 -8.6 L-6.6 -7.4 -6.6 -7.0 -6.7 -6.7 -6.85 -6.45 -6.9 -6.4 -22.4 -7.2 Q-25.15 -5.6 -24.6 -2.8 L-7.9 -2.75" fill="#8d4414" fill-rule="evenodd" stroke="none"/>
    <path d="M-7.9 -2.75 L-24.6 -2.8 Q-25.15 -5.6 -22.4 -7.2 L-6.9 -6.4 -7.2 -6.05 -7.3 -5.8 -7.35 -5.55 -7.45 -4.8 -7.5 -4.65 -7.75 -3.6 -7.75 -3.45 -7.9 -2.75" fill="#d69e87" fill-rule="evenodd" stroke="none"/>
    <path d="M24.9 -7.8 L25.1 -8.05 25.3 -8.35 Q24.75 -9.45 24.05 -9.45 22.25 -9.45 21.65 -7.6 L21.35 -5.55 21.45 -5.5 22.2 -7.25 Q22.8 -8.55 23.95 -8.55 L24.3 -8.25 24.45 -8.1 23.9 -8.2 Q22.85 -8.2 22.1 -6.7 21.35 -5.1 21.35 -2.9 21.35 -0.7 22.1 0.8 22.85 2.4 23.9 2.4 24.95 2.4 25.65 0.8 26.45 -0.7 26.45 -2.9 26.45 -5.1 25.65 -6.7 L24.9 -7.8 M23.9 -10.5 Q25.4 -10.5 26.45 -8.3 27.55 -6.05 27.55 -2.9 27.55 0.25 26.45 2.45 25.4 4.7 23.9 4.7 22.4 4.7 21.3 2.45 20.25 0.25 20.25 -2.9 20.25 -6.05 21.3 -8.3 22.4 -10.5 23.9 -10.5 M25.95 1.7 L25.7 1.35 25.05 2.25 24.0 2.8 Q23.6 2.75 23.6 2.95 23.6 3.5 24.45 3.5 25.35 3.5 25.95 1.7" fill="#333333" fill-rule="evenodd" stroke="none"/>
    <path d="M24.45 -8.1 L24.9 -7.8 25.65 -6.7 Q26.45 -5.1 26.45 -2.9 26.45 -0.7 25.65 0.8 24.95 2.4 23.9 2.4 22.85 2.4 22.1 0.8 21.35 -0.7 21.35 -2.9 21.35 -5.1 22.1 -6.7 22.85 -8.2 23.9 -8.2 L24.45 -8.1" fill="#000000" fill-rule="evenodd" stroke="none"/>
    <path d="M24.45 -8.1 L24.3 -8.25 23.95 -8.55 Q22.8 -8.55 22.2 -7.25 L21.45 -5.5 21.35 -5.55 21.65 -7.6 Q22.25 -9.45 24.05 -9.45 24.75 -9.45 25.3 -8.35 L25.1 -8.05 24.9 -7.8 24.45 -8.1 M25.95 1.7 Q25.35 3.5 24.45 3.5 23.6 3.5 23.6 2.95 23.6 2.75 24.0 2.8 L25.05 2.25 25.7 1.35 25.95 1.7" fill="#999999" fill-rule="evenodd" stroke="none"/>
  </g>
</svg>
