<?xml version="1.0" encoding="UTF-8" standalone="no"?>
<svg xmlns:ffdec="https://www.free-decompiler.com/flash" xmlns:xlink="http://www.w3.org/1999/xlink" ffdec:objectType="shape" height="20.95px" width="55.1px" xmlns="http://www.w3.org/2000/svg">
  <g transform="matrix(1.0, 0.0, 0.0, 1.0, 27.55, 10.5)">
    <path d="M-23.35 -8.1 L-23.5 -8.25 -23.85 -8.55 Q-25.0 -8.55 -25.6 -7.25 -26.05 -5.75 -26.35 -5.5 L-26.45 -5.55 -26.15 -7.6 Q-25.55 -9.45 -23.75 -9.45 -23.05 -9.45 -22.5 -8.35 L-22.7 -8.05 -22.9 -7.8 -23.35 -8.1 M-22.1 1.35 L-21.85 1.7 Q-22.45 3.5 -23.35 3.5 -24.2 3.5 -24.2 2.95 -24.2 2.75 -23.8 2.8 -23.25 2.8 -22.75 2.25 L-22.1 1.35" fill="#999999" fill-rule="evenodd" stroke="none"/>
    <path d="M-23.35 -8.1 L-22.9 -7.8 -22.7 -8.05 -22.5 -8.35 Q-23.05 -9.45 -23.75 -9.45 -25.55 -9.45 -26.15 -7.6 L-26.45 -5.55 -26.35 -5.5 Q-26.05 -5.75 -25.6 -7.25 -25.0 -8.55 -23.85 -8.55 L-23.5 -8.25 -23.35 -8.1 M-21.35 -8.3 Q-20.25 -6.05 -20.25 -2.9 -20.25 0.25 -21.35 2.45 -22.4 4.7 -23.9 4.7 -25.4 4.7 -26.5 2.45 -27.55 0.25 -27.55 -2.9 -27.55 -6.05 -26.5 -8.3 -25.4 -10.5 -23.9 -10.5 -22.4 -10.5 -21.35 -8.3 M-22.1 1.35 L-22.75 2.25 Q-23.25 2.8 -23.8 2.8 -24.2 2.75 -24.2 2.95 -24.2 3.5 -23.35 3.5 -22.45 3.5 -21.85 1.7 L-22.1 1.35" fill="#333333" fill-rule="evenodd" stroke="none"/>
    <path d="M22.45 -2.7 L22.45 -7.4 -23.15 -7.4 Q-25.4 -5.65 -24.95 -2.8 L22.45 -2.7 M8.75 10.45 L6.05 10.45 6.05 2.95 -24.65 2.95 Q-27.9 -2.5 -24.65 -8.75 L24.0 -8.75 24.0 2.95 12.75 2.95 12.75 5.25 8.75 5.25 8.75 10.45" fill="#333333" fill-rule="evenodd" stroke="none"/>
    <path d="M22.45 -2.7 L-24.95 -2.8 Q-25.4 -5.65 -23.15 -7.4 L22.45 -7.4 22.45 -2.7" fill="#999999" fill-rule="evenodd" stroke="none"/>
    <path d="M24.9 -7.8 L25.1 -8.05 25.3 -8.35 Q24.75 -9.45 24.05 -9.45 22.25 -9.45 21.65 -7.6 L21.35 -5.55 21.45 -5.5 22.2 -7.25 Q22.8 -8.55 23.95 -8.55 L24.3 -8.25 24.45 -8.1 23.9 -8.2 Q22.85 -8.2 22.1 -6.7 21.35 -5.1 21.35 -2.9 21.35 -0.7 22.1 0.8 22.85 2.4 23.9 2.4 24.95 2.4 25.65 0.8 26.45 -0.7 26.45 -2.9 26.45 -5.1 25.65 -6.7 L24.9 -7.8 M23.9 -10.5 Q25.4 -10.5 26.45 -8.3 27.55 -6.05 27.55 -2.9 27.55 0.25 26.45 2.45 25.4 4.7 23.9 4.7 22.4 4.7 21.3 2.45 20.25 0.25 20.25 -2.9 20.25 -6.05 21.3 -8.3 22.4 -10.5 23.9 -10.5 M25.95 1.7 L25.7 1.35 25.05 2.25 24.0 2.8 Q23.6 2.75 23.6 2.95 23.6 3.5 24.45 3.5 25.35 3.5 25.95 1.7" fill="#333333" fill-rule="evenodd" stroke="none"/>
    <path d="M24.45 -8.1 L24.9 -7.8 25.65 -6.7 Q26.45 -5.1 26.45 -2.9 26.45 -0.7 25.65 0.8 24.95 2.4 23.9 2.4 22.85 2.4 22.1 0.8 21.35 -0.7 21.35 -2.9 21.35 -5.1 22.1 -6.7 22.85 -8.2 23.9 -8.2 L24.45 -8.1" fill="#000000" fill-rule="evenodd" stroke="none"/>
    <path d="M24.9 -7.8 L24.45 -8.1 24.3 -8.25 23.95 -8.55 Q22.8 -8.55 22.2 -7.25 L21.45 -5.5 21.35 -5.55 21.65 -7.6 Q22.25 -9.45 24.05 -9.45 24.75 -9.45 25.3 -8.35 L25.1 -8.05 24.9 -7.8 M25.95 1.7 Q25.35 3.5 24.45 3.5 23.6 3.5 23.6 2.95 23.6 2.75 24.0 2.8 L25.05 2.25 25.7 1.35 25.95 1.7" fill="#999999" fill-rule="evenodd" stroke="none"/>
  </g>
</svg>
