<?xml version="1.0" encoding="UTF-8" standalone="no"?>
<svg xmlns:ffdec="https://www.free-decompiler.com/flash" xmlns:xlink="http://www.w3.org/1999/xlink" ffdec:objectType="shape" height="9.35px" width="12.6px" xmlns="http://www.w3.org/2000/svg">
  <g transform="matrix(1.0, 0.0, 0.0, 1.0, 3.35, 1.3)">
    <path d="M1.55 -0.75 L2.25 -0.9 3.4 -1.1 3.05 0.7 1.15 1.05 1.55 -0.75 M7.1 -1.25 L7.95 -1.05 8.3 -0.8 8.3 -0.25 7.05 0.0 7.1 -1.25" fill="#ffffff" fill-rule="evenodd" stroke="none"/>
    <path d="M3.4 -1.1 L4.45 -1.25 5.9 -1.3 7.1 -1.25 7.05 0.0 6.95 1.05 6.85 2.5 7.95 4.5 8.2 0.75 8.3 -0.25 8.3 -0.8 8.55 -0.3 8.8 0.2 Q9.25 1.2 9.25 2.55 L9.25 2.7 9.25 3.3 8.95 4.05 Q8.6 4.85 8.05 5.05 L6.8 2.7 6.4 2.05 6.2 1.75 6.0 1.8 5.95 2.05 5.65 3.3 Q5.45 4.35 4.9 5.2 L3.8 6.35 1.75 6.9 1.45 6.9 0.65 6.85 1.8 6.9 2.75 2.15 3.05 0.7 3.4 -1.1 M-3.15 2.15 Q-2.9 1.5 -2.45 1.2 L-0.6 0.05 0.25 -0.35 1.55 -0.75 1.15 1.05 0.8 2.7 -0.1 6.7 -0.15 6.65 -1.6 5.85 -1.8 5.6 Q-2.9 4.6 -3.1 3.2 L-3.15 2.45 -3.15 2.15" fill="#666666" fill-rule="evenodd" stroke="none"/>
    <path d="M1.15 1.05 L3.05 0.7 2.75 2.15 0.8 2.7 1.15 1.05 M7.05 0.0 L8.3 -0.25 8.2 0.75 6.95 1.05 7.05 0.0" fill="#999999" fill-rule="evenodd" stroke="none"/>
    <path d="M9.25 3.3 L8.75 5.2 Q8.4 6.0 7.85 6.2 L6.6 3.85 6.2 3.2 6.0 2.9 5.8 2.95 5.75 3.2 5.45 4.45 Q5.25 5.5 4.7 6.35 L3.6 7.5 1.55 8.05 1.25 8.05 -0.35 7.8 -1.8 7.0 -2.0 6.75 Q-3.1 5.75 -3.3 4.35 L-3.35 3.6 -3.15 2.15 -3.15 2.45 -3.1 3.2 Q-2.9 4.6 -1.8 5.6 L-1.6 5.85 -0.15 6.65 -0.1 6.7 -0.1 6.85 0.65 6.85 1.45 6.9 1.75 6.9 3.8 6.35 4.9 5.2 Q5.45 4.35 5.65 3.3 L5.95 2.05 6.0 1.8 6.2 1.75 6.4 2.05 6.8 2.7 8.05 5.05 Q8.6 4.85 8.95 4.05 L9.25 3.3" fill="#333333" fill-rule="evenodd" stroke="none"/>
    <path d="M8.2 0.75 L7.95 4.5 6.85 2.5 6.95 1.05 8.2 0.75 M0.65 6.85 L-0.1 6.85 -0.1 6.7 0.8 2.7 2.75 2.15 1.8 6.9 0.65 6.85" fill="#7b7b7b" fill-rule="evenodd" stroke="none"/>
  </g>
</svg>
