<?xml version="1.0" encoding="UTF-8" standalone="no"?>
<svg xmlns:ffdec="https://www.free-decompiler.com/flash" xmlns:xlink="http://www.w3.org/1999/xlink" ffdec:objectType="shape" height="25.7px" width="8.7px" xmlns="http://www.w3.org/2000/svg">
  <g transform="matrix(1.0, 0.0, 0.0, 1.0, 4.35, 13.1)">
    <path d="M2.95 -12.6 L0.65 -0.3" fill="none" stroke="#000000" stroke-linecap="round" stroke-linejoin="round" stroke-width="1.0"/>
    <path d="M2.45 -0.95 L4.35 0.7 4.35 10.4 2.45 12.6 2.45 -0.95" fill="#666666" fill-rule="evenodd" stroke="none"/>
    <path d="M2.45 -0.95 L2.45 12.6 -3.55 12.6 -3.55 -0.95 2.45 -0.95" fill="#000000" fill-rule="evenodd" stroke="none"/>
    <path d="M-3.65 0.95 Q-2.9 0.25 -1.85 0.25 -0.8 0.25 -0.1 0.95 0.65 1.7 0.65 2.75 0.65 3.8 -0.1 4.5 -0.8 5.25 -1.85 5.25 -2.9 5.25 -3.65 4.5 -4.35 3.8 -4.35 2.75 -4.35 1.7 -3.65 0.95" fill="#666666" fill-rule="evenodd" stroke="none"/>
    <path d="M1.3 7.4 L0.65 7.65 -0.05 7.4 -0.3 6.7 -0.05 6.05 Q0.25 5.75 0.65 5.75 1.05 5.75 1.3 6.05 L1.6 6.7 1.3 7.4" fill="#990000" fill-rule="evenodd" stroke="none"/>
    <path d="M1.35 11.1 L-2.5 11.1 -2.5 8.65 1.35 8.65 1.35 11.1" fill="#666666" fill-rule="evenodd" stroke="none"/>
  </g>
</svg>
