<?xml version="1.0" encoding="UTF-8" standalone="no"?>
<svg xmlns:ffdec="https://www.free-decompiler.com/flash" xmlns:xlink="http://www.w3.org/1999/xlink" ffdec:objectType="shape" height="18.2px" width="35.4px" xmlns="http://www.w3.org/2000/svg">
  <g transform="matrix(1.0, 0.0, 0.0, 1.0, 17.7, 9.1)">
    <path d="M13.0 -0.3 L13.0 -3.5 -6.95 -3.5 -6.95 -0.3 -17.7 -0.3 -17.7 -2.1 -9.1 -2.1 -9.1 -5.1 14.5 -5.1 14.5 -9.1 17.7 -9.1 17.7 -0.3 13.0 -0.3" fill="#f2f2f2" fill-rule="evenodd" stroke="none"/>
    <path d="M13.0 -0.3 L17.7 -0.3 17.7 9.1 14.5 9.1 14.5 5.1 -9.1 5.1 -9.1 2.1 -17.7 2.1 -17.7 -0.3 -6.95 -0.3 -6.95 3.5 13.0 3.5 13.0 -0.3" fill="#cccccc" fill-rule="evenodd" stroke="none"/>
  </g>
</svg>
