<?xml version="1.0" encoding="UTF-8" standalone="no"?>
<svg xmlns:ffdec="https://www.free-decompiler.com/flash" xmlns:xlink="http://www.w3.org/1999/xlink" ffdec:objectType="shape" height="24.0px" width="24.0px" xmlns="http://www.w3.org/2000/svg">
  <g transform="matrix(1.0, 0.0, 0.0, 1.0, 12.0, 12.0)">
    <path d="M0.35 -12.0 Q5.1 -11.9 8.5 -8.5 12.0 -4.95 12.0 0.0 12.0 4.95 8.5 8.45 5.1 11.9 0.35 12.0 L0.35 11.95 Q1.6 11.55 2.5 8.45 3.55 4.95 3.55 0.0 3.55 -4.95 2.5 -8.5 1.6 -11.55 0.35 -11.95 L0.35 -12.0 M-2.5 -8.5 Q-1.5 -11.9 -0.1 -12.0 L-0.1 12.0 Q-1.5 11.9 -2.5 8.45 -3.55 4.95 -3.55 0.0 -3.55 -4.95 -2.5 -8.5" fill="#d6e3e7" fill-rule="evenodd" stroke="none"/>
    <path d="M0.35 12.0 L0.05 12.0 0.0 12.0 -0.1 12.0 Q-5.0 11.95 -8.5 8.45 -12.0 4.95 -12.0 0.0 -12.0 -4.95 -8.5 -8.5 -5.0 -11.95 -0.1 -12.0 L0.0 -12.0 0.05 -12.0 0.35 -12.0 0.35 -11.95 Q1.6 -11.55 2.5 -8.5 3.55 -4.95 3.55 0.0 3.55 4.95 2.5 8.45 1.6 11.55 0.35 11.95 L0.35 12.0 M-2.5 -8.5 Q-3.55 -4.95 -3.55 0.0 -3.55 4.95 -2.5 8.45 -1.5 11.9 -0.1 12.0 L-0.1 -12.0 Q-1.5 -11.9 -2.5 -8.5" fill="#ffffff" fill-rule="evenodd" stroke="none"/>
  </g>
</svg>
