<?xml version="1.0" encoding="UTF-8" standalone="no"?>
<svg xmlns:ffdec="https://www.free-decompiler.com/flash" xmlns:xlink="http://www.w3.org/1999/xlink" ffdec:objectType="shape" height="25.0px" width="16.3px" xmlns="http://www.w3.org/2000/svg">
  <g transform="matrix(1.0, 0.0, 0.0, 1.0, 6.05, 12.7)">
    <path d="M1.5 -6.4 L0.95 0.55 0.95 7.5 Q0.9 12.0 0.0 12.25 -0.95 12.5 -1.25 11.4 -1.75 9.55 -1.65 5.15 L-1.5 -0.65 -1.55 -3.65 -1.15 -6.85 -0.6 -10.1 Q-0.4 -11.15 0.35 -11.95 1.2 -12.95 1.65 -11.35 L1.5 -6.4" fill="#643b09" fill-rule="evenodd" stroke="none"/>
    <path d="M0.3 -5.15 Q-0.4 -3.4 -2.1 -3.4 L-2.15 -3.4 -2.15 -3.35 Q-2.15 -2.05 -2.8 -2.05 -4.3 -2.05 -5.15 -2.5 L-5.8 -3.2 -5.15 -4.75 -5.4 -5.2 -6.0 -7.15 Q-6.15 -8.3 -5.75 -9.7 -5.35 -11.1 -2.35 -11.55 0.65 -12.05 0.65 -7.1 0.65 -6.05 0.3 -5.15 M-4.25 -8.5 L-3.9 -9.2 Q-3.9 -10.1 -4.7 -9.25 -5.55 -8.45 -5.55 -7.65 -5.6 -6.55 -4.9 -6.55 -4.4 -6.55 -4.4 -6.95 L-4.6 -7.6 -4.25 -8.5 M-2.5 -9.0 Q-3.6 -8.6 -3.6 -6.95 -3.8 -5.75 -2.9 -5.75 -1.3 -5.75 -1.4 -7.8 -1.4 -9.35 -2.5 -9.0" fill="#ffffcc" fill-rule="evenodd" stroke="none"/>
    <path d="M3.45 -9.7 L3.7 -9.5 Q6.45 -7.5 6.45 -5.2 6.45 -4.3 5.85 -4.3 4.35 -4.3 2.65 -6.2 1.0 -8.15 1.55 -9.25 0.95 -9.55 0.95 -9.75 L1.15 -10.4 Q1.5 -10.2 2.3 -9.95 L3.45 -9.7" fill="#00cc00" fill-rule="evenodd" stroke="none"/>
    <path d="M1.15 -10.4 Q0.8 -10.65 0.8 -10.85 0.8 -12.7 5.55 -12.7 10.25 -12.7 10.25 -11.0 10.25 -10.35 8.5 -9.9 L5.75 -9.5 3.45 -9.7 2.3 -9.95 Q1.5 -10.2 1.15 -10.4" fill="#990000" fill-rule="evenodd" stroke="none"/>
    <path d="M-2.5 -9.0 Q-1.4 -9.35 -1.4 -7.8 -1.3 -5.75 -2.9 -5.75 -3.8 -5.75 -3.6 -6.95 -3.6 -8.6 -2.5 -9.0 M-4.25 -8.5 L-4.6 -7.6 -4.4 -6.95 Q-4.4 -6.55 -4.9 -6.55 -5.6 -6.55 -5.55 -7.65 -5.55 -8.45 -4.7 -9.25 -3.9 -10.1 -3.9 -9.2 L-4.25 -8.5" fill="#463f2d" fill-rule="evenodd" stroke="none"/>
  </g>
</svg>
