<?xml version="1.0" encoding="UTF-8" standalone="no"?>
<svg xmlns:ffdec="https://www.free-decompiler.com/flash" xmlns:xlink="http://www.w3.org/1999/xlink" ffdec:objectType="shape" height="12.1px" width="12.1px" xmlns="http://www.w3.org/2000/svg">
  <g transform="matrix(1.0, 0.0, 0.0, 1.0, 6.05, 6.05)">
    <path d="M5.55 -3.7 L5.55 5.55 -5.55 5.55 -5.55 -3.7 5.55 -3.7" fill="url(#gradient0)" fill-rule="evenodd" stroke="none"/>
    <path d="M-5.55 -3.7 L-5.55 -5.55 5.55 -5.55 5.55 -3.7 -5.55 -3.7" fill="#f50000" fill-rule="evenodd" stroke="none"/>
    <path d="M-5.55 -3.7 L-5.55 -5.55 5.55 -5.55 5.55 -3.7 5.55 5.55 -5.55 5.55 -5.55 -3.7 Z" fill="none" stroke="#650101" stroke-linecap="round" stroke-linejoin="round" stroke-width="1.0"/>
    <path d="M-2.35 -0.45 L-2.35 -0.3 Q-2.35 0.85 -1.65 1.7 -0.95 2.5 0.0 2.5 0.95 2.5 1.65 1.7 2.35 0.85 2.35 -0.3 L2.35 -0.45 4.35 0.85 Q-0.15 4.85 -4.25 0.9 -3.3 0.05 -2.35 -0.45" fill="#e0e2eb" fill-rule="evenodd" stroke="none"/>
    <path d="M0.75 -1.0 L2.35 -0.45 2.35 -0.3 Q2.35 0.85 1.65 1.7 0.95 2.5 0.0 2.5 -0.95 2.5 -1.65 1.7 -2.35 0.85 -2.35 -0.3 L-2.35 -0.45 -0.8 -0.95 -1.05 -0.15 -0.75 0.7 Q-0.45 1.1 -0.05 1.1 0.4 1.1 0.7 0.7 L1.0 -0.15 0.75 -1.0" fill="#a36a6a" fill-rule="evenodd" stroke="none"/>
    <path d="M-0.8 -0.95 L-0.75 -1.05 -0.05 -1.4 0.7 -1.05 0.75 -1.0 1.0 -0.15 0.7 0.7 Q0.4 1.1 -0.05 1.1 -0.45 1.1 -0.75 0.7 L-1.05 -0.15 -0.8 -0.95" fill="#000000" fill-rule="evenodd" stroke="none"/>
    <path d="M0.75 -1.0 L0.7 -1.05 -0.05 -1.4 -0.75 -1.05 -0.8 -0.95 -2.35 -0.45 -1.95 -1.8 Q0.0 -2.65 1.95 -1.85 2.35 -1.25 2.35 -0.45 L0.75 -1.0" fill="#694141" fill-rule="evenodd" stroke="none"/>
    <path d="M2.35 -0.45 Q2.35 -1.25 1.95 -1.85 3.5 -1.3 5.0 0.25 L4.55 0.7 4.35 0.85 2.35 -0.45 M-1.95 -1.8 L-2.35 -0.45 Q-3.3 0.05 -4.25 0.9 L-4.45 0.75 -4.9 0.25 Q-3.45 -1.2 -1.95 -1.8" fill="#b3b8cc" fill-rule="evenodd" stroke="none"/>
  </g>
  <defs>
    <linearGradient gradientTransform="matrix(0.0, -0.0068, 0.0068, 0.0, 0.0, 0.0)" gradientUnits="userSpaceOnUse" id="gradient0" spreadMethod="pad" x1="-819.2" x2="819.2">
      <stop offset="0.0" stop-color="#ff0000"/>
      <stop offset="1.0" stop-color="#7e0101"/>
    </linearGradient>
  </defs>
</svg>
