<?xml version="1.0" encoding="UTF-8" standalone="no"?>
<svg xmlns:ffdec="https://www.free-decompiler.com/flash" xmlns:xlink="http://www.w3.org/1999/xlink" ffdec:objectType="shape" height="273.0px" width="161.0px" xmlns="http://www.w3.org/2000/svg">
  <g transform="matrix(1.0, 0.0, 0.0, 1.0, 0.5, 0.5)">
    <path d="M0.0 32.0 L0.0 16.0 16.0 16.0 16.0 32.0 0.0 32.0 M32.0 32.0 L48.0 32.0 48.0 48.0 32.0 48.0 48.0 48.0 48.0 64.0 32.0 64.0 48.0 64.0 48.0 80.0 32.0 80.0 32.0 64.0 32.0 48.0 32.0 32.0" fill="#ffdb7f" fill-rule="evenodd" stroke="none"/>
    <path d="M0.0 80.0 L0.0 64.0 0.0 48.0 0.0 32.0 16.0 32.0 16.0 48.0 0.0 48.0 16.0 48.0 16.0 64.0 16.0 80.0 0.0 80.0 M16.0 64.0 L0.0 64.0 16.0 64.0" fill="#ffa37f" fill-rule="evenodd" stroke="none"/>
    <path d="M48.0 32.0 L64.0 32.0 64.0 48.0 48.0 48.0 64.0 48.0 64.0 64.0 48.0 64.0 64.0 64.0 64.0 80.0 48.0 80.0 48.0 64.0 48.0 48.0 48.0 32.0" fill="#a3cc47" fill-rule="evenodd" stroke="none"/>
    <path d="M80.0 64.0 L80.0 80.0 64.0 80.0 64.0 64.0 64.0 48.0 64.0 32.0 80.0 32.0 80.0 48.0 64.0 48.0 80.0 48.0 80.0 64.0 64.0 64.0 80.0 64.0" fill="#9eadef" fill-rule="evenodd" stroke="none"/>
    <path d="M96.0 0.0 L96.0 16.0 80.0 16.0 80.0 0.0 96.0 0.0 M0.0 176.0 L0.0 160.0 16.0 160.0 16.0 176.0 0.0 176.0 M0.0 16.0 L0.0 0.0 16.0 0.0 16.0 16.0 0.0 16.0" fill="#f2bca2" fill-rule="evenodd" stroke="none"/>
    <path d="M112.0 0.0 L112.0 16.0 96.0 16.0 96.0 0.0 112.0 0.0 M16.0 0.0 L32.0 0.0 32.0 16.0 16.0 16.0 16.0 0.0 M32.0 176.0 L16.0 176.0 16.0 160.0 32.0 160.0 32.0 176.0" fill="#b4735a" fill-rule="evenodd" stroke="none"/>
    <path d="M128.0 0.0 L128.0 16.0 112.0 16.0 112.0 0.0 128.0 0.0 M32.0 0.0 L48.0 0.0 48.0 16.0 32.0 16.0 32.0 0.0" fill="#fadb8e" fill-rule="evenodd" stroke="none"/>
    <path d="M128.0 16.0 L128.0 0.0 144.0 0.0 144.0 16.0 128.0 16.0 M48.0 0.0 L64.0 0.0 64.0 16.0 48.0 16.0 48.0 0.0 M32.0 16.0 L32.0 32.0 16.0 32.0 16.0 16.0 32.0 16.0 M16.0 192.0 L16.0 176.0 32.0 176.0 32.0 192.0 16.0 192.0" fill="#694132" fill-rule="evenodd" stroke="none"/>
    <path d="M48.0 16.0 L48.0 32.0 32.0 32.0 32.0 16.0 48.0 16.0" fill="#e6e7e3" fill-rule="evenodd" stroke="none"/>
    <path d="M64.0 16.0 L64.0 32.0 48.0 32.0 48.0 16.0 64.0 16.0 M48.0 192.0 L48.0 176.0 64.0 176.0 64.0 192.0 48.0 192.0" fill="#936436" fill-rule="evenodd" stroke="none"/>
    <path d="M0.0 96.0 L0.0 80.0 16.0 80.0 16.0 96.0 0.0 96.0" fill="#221411" fill-rule="evenodd" stroke="none"/>
    <path d="M32.0 96.0 L32.0 80.0 48.0 80.0 48.0 96.0 32.0 96.0" fill="#563229" fill-rule="evenodd" stroke="none"/>
    <path d="M16.0 96.0 L16.0 80.0 32.0 80.0 32.0 96.0 16.0 96.0" fill="#391e1c" fill-rule="evenodd" stroke="none"/>
    <path d="M112.0 80.0 L128.0 80.0 128.0 96.0 112.0 96.0 112.0 80.0" fill="#e8ba06" fill-rule="evenodd" stroke="none"/>
    <path d="M128.0 80.0 L144.0 80.0 144.0 96.0 128.0 96.0 128.0 80.0" fill="#f8e754" fill-rule="evenodd" stroke="none"/>
    <path d="M96.0 80.0 L96.0 96.0 80.0 96.0 80.0 80.0 96.0 80.0" fill="#f07e0f" fill-rule="evenodd" stroke="none"/>
    <path d="M96.0 96.0 L96.0 80.0 112.0 80.0 112.0 96.0 96.0 96.0" fill="#fd9b0b" fill-rule="evenodd" stroke="none"/>
    <path d="M48.0 80.0 L64.0 80.0 64.0 96.0 48.0 96.0 48.0 80.0" fill="#724b27" fill-rule="evenodd" stroke="none"/>
    <path d="M64.0 80.0 L80.0 80.0 80.0 96.0 64.0 96.0 64.0 80.0" fill="#7b551e" fill-rule="evenodd" stroke="none"/>
    <path d="M144.0 16.0 L144.0 0.0 160.0 0.0 160.0 16.0 144.0 16.0 M64.0 0.0 L80.0 0.0 80.0 16.0 64.0 16.0 64.0 0.0 M32.0 176.0 L32.0 160.0 48.0 160.0 48.0 176.0 32.0 176.0" fill="#fe7e5f" fill-rule="evenodd" stroke="none"/>
    <path d="M0.0 192.0 L0.0 176.0 16.0 176.0 16.0 192.0 0.0 192.0" fill="#025138" fill-rule="evenodd" stroke="none"/>
    <path d="M32.0 192.0 L32.0 176.0 48.0 176.0 48.0 192.0 32.0 192.0" fill="#04425d" fill-rule="evenodd" stroke="none"/>
    <path d="M0.0 160.0 L0.0 144.0 0.0 128.0 0.0 112.0 0.0 96.0 16.0 96.0 16.0 112.0 16.0 128.0 0.0 128.0 16.0 128.0 16.0 144.0 0.0 144.0 16.0 144.0 16.0 160.0 0.0 160.0 M0.0 112.0 L16.0 112.0 0.0 112.0" fill="#ffffff" fill-rule="evenodd" stroke="none"/>
    <path d="M96.0 32.0 L96.0 48.0 96.0 64.0 96.0 80.0 80.0 80.0 80.0 64.0 96.0 64.0 80.0 64.0 80.0 48.0 80.0 32.0 96.0 32.0 M96.0 48.0 L80.0 48.0 96.0 48.0" fill="#bc71e9" fill-rule="evenodd" stroke="none"/>
    <path d="M16.0 32.0 L32.0 32.0 32.0 48.0 16.0 48.0 32.0 48.0 32.0 64.0 16.0 64.0 32.0 64.0 32.0 80.0 16.0 80.0 16.0 64.0 16.0 48.0 16.0 32.0" fill="#ffaa27" fill-rule="evenodd" stroke="none"/>
    <path d="M128.0 0.0 L128.0 16.0 144.0 16.0 144.0 0.0 128.0 0.0 112.0 0.0 112.0 16.0 128.0 16.0 M144.0 0.0 L160.0 0.0 160.0 16.0 144.0 16.0 M96.0 0.0 L96.0 16.0 112.0 16.0 112.0 32.0 112.0 48.0 112.0 64.0 112.0 80.0 128.0 80.0 144.0 80.0 144.0 96.0 160.0 96.0 160.0 112.0 144.0 112.0 128.0 112.0 112.0 112.0 96.0 112.0 80.0 112.0 64.0 112.0 64.0 128.0 64.0 144.0 64.0 160.0 64.0 176.0 80.0 176.0 96.0 176.0 112.0 176.0 128.0 176.0 144.0 176.0 160.0 176.0 160.0 192.0 144.0 192.0 128.0 192.0 112.0 192.0 96.0 192.0 80.0 192.0 64.0 192.0 64.0 208.0 64.0 224.0 64.0 240.0 64.0 256.0 144.0 256.0 144.0 272.0 0.0 272.0 0.0 256.0 0.0 240.0 0.0 224.0 0.0 208.0 0.0 192.0 0.0 176.0 0.0 160.0 0.0 144.0 0.0 128.0 0.0 112.0 0.0 96.0 0.0 80.0 0.0 64.0 0.0 48.0 0.0 32.0 0.0 16.0 0.0 0.0 16.0 0.0 32.0 0.0 48.0 0.0 64.0 0.0 80.0 0.0 96.0 0.0 112.0 0.0 M96.0 32.0 L96.0 48.0 112.0 48.0 M96.0 16.0 L96.0 32.0 112.0 32.0 M96.0 96.0 L112.0 96.0 112.0 112.0 M112.0 80.0 L96.0 80.0 96.0 64.0 80.0 64.0 80.0 80.0 96.0 80.0 M96.0 64.0 L112.0 64.0 M128.0 96.0 L144.0 96.0 144.0 112.0 M128.0 96.0 L128.0 112.0 M128.0 96.0 L112.0 96.0 M96.0 48.0 L96.0 64.0 M80.0 16.0 L64.0 16.0 64.0 32.0 80.0 32.0 80.0 16.0 80.0 0.0 M64.0 0.0 L64.0 16.0 48.0 16.0 48.0 32.0 64.0 32.0 64.0 48.0 80.0 48.0 80.0 32.0 96.0 32.0 M48.0 0.0 L48.0 16.0 32.0 16.0 32.0 32.0 48.0 32.0 48.0 48.0 64.0 48.0 64.0 64.0 80.0 64.0 80.0 48.0 96.0 48.0 M32.0 0.0 L32.0 16.0 16.0 16.0 16.0 32.0 32.0 32.0 32.0 48.0 48.0 48.0 48.0 64.0 64.0 64.0 64.0 80.0 80.0 80.0 M80.0 96.0 L96.0 96.0 96.0 112.0 M16.0 0.0 L16.0 16.0 0.0 16.0 M16.0 48.0 L0.0 48.0 M0.0 32.0 L16.0 32.0 16.0 48.0 32.0 48.0 32.0 64.0 48.0 64.0 48.0 80.0 64.0 80.0 M64.0 96.0 L80.0 96.0 80.0 112.0 M0.0 64.0 L16.0 64.0 16.0 48.0 M16.0 96.0 L32.0 96.0 32.0 112.0 48.0 112.0 48.0 96.0 64.0 96.0 64.0 112.0 48.0 112.0 48.0 128.0 64.0 128.0 M32.0 80.0 L16.0 80.0 16.0 64.0 32.0 64.0 32.0 80.0 48.0 80.0 M16.0 96.0 L0.0 96.0 M0.0 80.0 L16.0 80.0 M48.0 96.0 L32.0 96.0 M48.0 128.0 L48.0 144.0 64.0 144.0 M16.0 112.0 L0.0 112.0 M16.0 128.0 L16.0 144.0 32.0 144.0 32.0 128.0 16.0 128.0 16.0 112.0 16.0 96.0 M16.0 144.0 L0.0 144.0 M0.0 128.0 L16.0 128.0 M16.0 112.0 L32.0 112.0 32.0 128.0 48.0 128.0 M0.0 160.0 L16.0 160.0 16.0 144.0 M16.0 176.0 L16.0 192.0 32.0 192.0 32.0 176.0 16.0 176.0 16.0 160.0 32.0 160.0 32.0 144.0 48.0 144.0 48.0 160.0 64.0 160.0 M16.0 192.0 L0.0 192.0 M16.0 176.0 L0.0 176.0 M32.0 160.0 L32.0 176.0 48.0 176.0 48.0 160.0 32.0 160.0 M48.0 176.0 L48.0 192.0 64.0 192.0 64.0 176.0 48.0 176.0 M80.0 176.0 L80.0 192.0 M32.0 192.0 L48.0 192.0 48.0 208.0 64.0 208.0 M96.0 176.0 L96.0 192.0 M112.0 192.0 L112.0 176.0 M144.0 192.0 L144.0 176.0 M128.0 176.0 L128.0 192.0 M80.0 16.0 L96.0 16.0 M48.0 208.0 L48.0 224.0 64.0 224.0 M48.0 224.0 L48.0 240.0 64.0 240.0 M0.0 208.0 L16.0 208.0 16.0 192.0 M0.0 240.0 L16.0 240.0 16.0 224.0 0.0 224.0 M16.0 240.0 L32.0 240.0 32.0 224.0 16.0 224.0 16.0 208.0 32.0 208.0 32.0 192.0 M32.0 224.0 L32.0 208.0 48.0 208.0 M64.0 256.0 L48.0 256.0 32.0 256.0 16.0 256.0 0.0 256.0 M48.0 224.0 L32.0 224.0 M48.0 256.0 L48.0 240.0 32.0 240.0 32.0 256.0 M16.0 256.0 L16.0 240.0" fill="none" stroke="#000000" stroke-linecap="round" stroke-linejoin="round" stroke-width="1.0"/>
    <path d="M160.0 0.0 L160.0 16.0 80.0 16.0 80.0 0.0 160.0 0.0" fill="#71ba10" fill-opacity="0.29803923" fill-rule="evenodd" stroke="none"/>
  </g>
</svg>
