<?xml version="1.0" encoding="UTF-8" standalone="no"?>
<svg xmlns:ffdec="https://www.free-decompiler.com/flash" xmlns:xlink="http://www.w3.org/1999/xlink" ffdec:objectType="shape" height="64.95px" width="45.45px" xmlns="http://www.w3.org/2000/svg">
  <g transform="matrix(1.0, 0.0, 0.0, 1.0, 23.0, 32.45)">
    <path d="M19.6 -32.35 L21.25 -29.25 22.45 -27.15 Q20.95 -22.85 15.0 -11.65 9.95 -2.2 5.35 5.75 2.75 10.25 -5.0 25.95 L-8.25 31.65 -8.75 32.2 -8.95 32.3 -9.7 32.4 -12.95 32.2 -13.25 32.2 -14.25 32.2 -15.3 32.2 -21.3 32.5 -21.35 32.5 -22.2 32.35 -22.75 31.85 -22.85 31.75 -23.0 30.85 Q-22.35 23.15 -22.35 20.65 L-22.35 -30.5 Q-22.35 -32.35 -21.15 -32.35 L-20.55 -32.45 1.35 -32.2 15.2 -32.3 19.6 -32.35" fill="#a36a6a" fill-rule="evenodd" stroke="none"/>
    <path d="M-20.85 -2.75 L-20.85 -30.5 -20.75 -30.9 -20.55 -30.95 1.35 -30.7 15.2 -30.8 19.55 -30.85 21.1 -27.75 Q19.75 -23.8 13.65 -12.35 8.65 -2.95 4.05 5.0 1.45 9.5 -6.35 25.25 L-9.55 30.9 -12.95 30.7 -12.9 14.9 -11.65 15.15 -10.7 14.9 Q-10.2 14.9 -9.7 14.55 -9.2 14.2 -9.2 13.8 -9.2 12.95 -10.1 11.45 -11.25 9.55 -12.8 9.55 L-12.9 9.55 -12.9 4.35 -13.0 -13.65 -12.6 -13.65 Q-10.55 -13.65 -10.55 -14.95 L-10.4 -16.05 Q-10.4 -17.35 -11.4 -18.3 -12.05 -18.95 -13.1 -19.2 -13.3 -29.95 -13.65 -30.4 L-14.35 -19.4 -15.0 -19.45 -15.9 -19.15 -16.65 -18.5 -17.05 -17.4 Q-17.05 -16.35 -16.1 -15.2 -15.4 -14.4 -14.5 -14.0 L-14.5 -13.2 -14.55 -2.35 -15.15 -2.95 -20.85 -2.75 M-14.25 30.7 L-15.3 30.7 -21.5 31.0 Q-20.85 23.2 -20.85 20.65 L-20.85 -1.1 -15.15 -1.0 Q-14.85 -1.0 -14.55 -1.25 L-14.55 4.35 -14.55 9.05 -15.15 9.0 Q-15.95 9.0 -15.95 9.25 L-16.35 9.95 Q-16.75 10.3 -16.75 10.75 -16.75 11.85 -15.2 13.6 L-14.55 14.25 -14.55 18.85 -14.6 25.95 Q-14.6 28.55 -14.25 30.7 M-15.65 -18.0 L-14.35 -18.4 -14.4 -17.7 -14.35 -18.2 -13.25 -18.45 Q-11.15 -17.7 -11.65 -15.8 L-12.25 -14.35 Q-14.15 -13.9 -15.3 -15.4 -16.0 -16.3 -15.9 -17.45 L-15.65 -18.0 M-15.0 10.05 Q-12.5 10.55 -11.1 11.5 L-10.15 13.25 -12.9 14.3 -13.75 13.85 Q-15.6 12.85 -15.5 10.6 L-15.0 10.05" fill="#ffffff" fill-rule="evenodd" stroke="none"/>
    <path d="M-20.85 -2.75 L-15.15 -2.95 -14.55 -2.35 -14.5 -13.2 -14.5 -14.0 Q-15.4 -14.4 -16.1 -15.2 -17.05 -16.35 -17.05 -17.4 L-16.65 -18.5 -15.9 -19.15 -15.0 -19.45 -14.35 -19.4 -13.65 -30.4 Q-13.3 -29.95 -13.1 -19.2 -12.05 -18.95 -11.4 -18.3 -10.4 -17.35 -10.4 -16.05 L-10.55 -14.95 Q-10.55 -13.65 -12.6 -13.65 L-13.0 -13.65 -12.9 4.35 -12.9 9.55 -12.8 9.55 Q-11.25 9.55 -10.1 11.45 -9.2 12.95 -9.2 13.8 -9.2 14.2 -9.7 14.55 -10.2 14.9 -10.7 14.9 L-11.65 15.15 -12.9 14.9 -12.95 30.7 -13.25 30.7 -14.25 30.7 Q-14.6 28.55 -14.6 25.95 L-14.55 18.85 -14.55 14.25 -15.2 13.6 Q-16.75 11.85 -16.75 10.75 -16.75 10.3 -16.35 9.95 L-15.95 9.25 Q-15.95 9.0 -15.15 9.0 L-14.55 9.05 -14.55 4.35 -14.55 -1.25 Q-14.85 -1.0 -15.15 -1.0 L-20.85 -1.1 -20.85 -2.75 M-15.65 -18.0 L-15.9 -17.45 Q-16.0 -16.3 -15.3 -15.4 -14.15 -13.9 -12.25 -14.35 L-11.65 -15.8 Q-11.15 -17.7 -13.25 -18.45 L-14.35 -18.2 -14.4 -17.7 -14.35 -18.4 -15.65 -18.0 M-15.0 10.05 L-15.5 10.6 Q-15.6 12.85 -13.75 13.85 L-12.9 14.3 -10.15 13.25 -11.1 11.5 Q-12.5 10.55 -15.0 10.05" fill="#a36a6a" fill-rule="evenodd" stroke="none"/>
  </g>
</svg>
