<?xml version="1.0" encoding="UTF-8" standalone="no"?>
<svg xmlns:ffdec="https://www.free-decompiler.com/flash" xmlns:xlink="http://www.w3.org/1999/xlink" ffdec:objectType="shape" height="16.1px" width="20.2px" xmlns="http://www.w3.org/2000/svg">
  <g transform="matrix(1.0, 0.0, 0.0, 1.0, 10.85, 7.6)">
    <path d="M2.85 -6.9 Q1.2 -6.5 0.05 -5.8 L2.55 -5.4 3.6 -5.4 5.7 -5.65 4.9 -5.4 5.8 -5.4 5.9 -5.5 6.15 -5.5 6.2 -5.4 5.65 -4.95 3.5 -4.95 3.2 -4.85 Q2.0 -4.4 1.45 -3.85 L1.3 -3.65 3.85 -3.65 7.65 -4.2 7.7 -3.95 Q7.7 -3.6 6.45 -3.45 L6.15 -3.4 3.65 -2.0 7.4 -2.65 7.55 -2.6 Q6.65 -1.9 3.05 -1.4 L2.45 -0.45 2.3 0.0 3.55 -0.2 8.4 -1.35 8.45 -1.2 7.75 -0.7 8.6 -0.45 8.5 -0.3 8.15 -0.3 7.65 -0.4 Q6.95 -0.4 6.05 0.4 L5.3 1.25 8.95 0.25 Q8.6 0.8 7.25 1.25 L5.05 1.95 4.95 3.35 5.0 3.85 6.85 3.2 7.85 2.75 8.9 1.6 9.05 1.75 8.3 2.5 9.25 2.0 9.35 2.2 Q9.35 2.7 7.5 3.5 L7.45 3.65 7.4 4.15 7.35 4.7 Q7.0 4.6 6.75 4.95 L6.55 5.45 Q6.55 5.8 6.85 6.05 L6.55 6.3 Q6.25 6.3 6.2 5.9 L6.2 5.45 6.25 4.95 6.75 4.4 6.95 4.25 7.15 3.95 7.2 3.65 6.0 4.05 5.05 4.35 5.05 4.4 4.45 4.9 Q3.85 5.3 3.85 5.9 L4.05 6.55 4.2 7.35 4.0 7.4 Q3.65 7.4 3.45 5.9 3.45 5.45 3.9 5.0 L4.3 4.6 1.55 5.15 1.55 5.6 Q0.55 6.5 0.55 7.0 L0.85 7.8 0.8 8.0 0.65 8.05 Q0.25 8.05 0.15 6.95 0.15 5.85 1.15 5.35 L1.15 5.2 0.3 5.25 -1.3 5.25 -1.15 5.85 -1.75 6.35 Q-2.35 6.9 -2.35 7.45 L-2.15 8.0 -2.25 8.2 Q-2.75 8.0 -2.75 7.45 -2.75 6.05 -1.65 5.7 L-1.7 5.3 -2.05 5.3 -2.2 5.4 -4.2 5.55 -4.2 5.65 -4.8 6.3 Q-5.4 6.85 -5.4 7.25 L-4.85 8.2 Q-4.85 8.4 -5.1 8.4 -5.75 8.4 -5.8 7.3 -5.8 6.75 -5.25 6.15 L-4.75 5.6 -6.0 5.6 -6.15 5.7 -7.4 5.65 -7.35 5.85 -7.6 6.35 -8.2 6.8 -8.4 7.2 -8.25 7.75 -7.35 8.2 -7.5 8.4 -7.8 8.5 Q-8.9 8.5 -8.9 7.15 -8.9 6.2 -7.95 5.9 L-7.95 5.55 -9.6 5.25 -10.85 4.8 Q-10.9 4.65 -10.55 4.65 L-9.4 4.95 -7.95 5.2 -7.95 3.95 -7.85 3.45 -8.45 3.35 -9.3 3.1 -10.85 2.4 -10.6 2.15 -9.05 2.7 -7.75 2.9 -7.2 0.35 -7.75 0.25 -10.7 -0.4 -10.7 -0.65 -10.4 -0.65 -7.45 -0.15 -7.1 -0.1 -6.8 -1.3 -6.65 -1.75 -7.25 -1.9 Q-8.95 -2.25 -9.85 -2.95 L-9.85 -3.2 -7.6 -2.5 -6.5 -2.2 -5.6 -4.0 Q-7.45 -4.6 -8.0 -5.6 L-5.8 -4.65 -5.35 -4.45 -4.1 -5.85 -2.95 -6.8 -3.2 -7.4 -3.0 -7.45 -2.5 -7.05 Q-1.45 -7.65 -0.45 -7.6 L-2.1 -6.7 -1.25 -6.2 -0.75 -6.05 Q0.65 -7.15 2.35 -7.15 L2.85 -7.05 2.85 -6.9 M3.9 -3.15 L0.85 -3.15 -0.4 -1.6 -0.4 -1.55 0.95 -1.55 2.75 -1.85 3.45 -2.55 4.3 -3.2 3.9 -3.15 M0.0 -3.15 L-0.3 -3.15 -0.75 -3.3 -2.05 -3.3 -2.25 -3.3 -3.0 -2.1 -3.2 -1.75 -2.55 -1.8 -1.65 -1.55 -0.95 -1.55 -0.8 -1.8 0.3 -3.15 0.0 -3.15 M1.65 -4.95 L-0.55 -5.45 -1.35 -4.75 -1.95 -3.8 -0.6 -3.8 -0.05 -3.65 0.7 -3.65 1.3 -4.3 2.2 -4.95 1.65 -4.95 M1.1 -1.15 L-0.65 -1.15 -1.15 0.3 0.8 0.25 1.8 0.1 2.05 -0.8 2.3 -1.3 1.1 -1.15 M4.45 2.1 L1.75 2.9 1.65 2.95 1.55 3.35 1.55 4.65 3.4 4.2 4.7 3.95 4.7 3.3 4.6 2.4 4.6 2.05 4.45 2.1 M1.8 2.2 L4.8 1.35 5.3 0.6 6.4 -0.3 5.05 0.0 2.15 0.55 1.8 2.2 M1.65 0.6 L-0.9 0.75 -1.25 0.75 -1.25 0.8 -1.65 3.0 -1.05 3.0 1.3 2.35 1.55 1.05 1.65 0.6 M1.15 3.15 L1.2 3.05 -1.65 3.55 -1.45 4.85 0.2 4.75 1.15 4.7 1.15 3.15 M-6.65 -0.05 L-4.6 0.2 -4.0 -1.35 -6.1 -1.65 -6.55 -0.45 -6.65 -0.05 M-1.2 -5.65 L-1.65 -5.85 -2.55 -6.4 Q-3.85 -5.5 -4.75 -4.25 L-2.65 -3.85 -2.0 -4.8 -1.2 -5.65 M-5.0 -3.85 L-5.9 -2.1 -3.8 -1.75 -3.5 -2.3 -2.95 -3.4 -5.0 -3.85 M-1.75 -1.15 L-3.45 -1.3 -4.1 0.25 -2.85 0.35 -1.6 0.35 -1.15 -1.15 -1.75 -1.15 M-1.7 0.75 L-2.95 0.75 -4.2 0.7 -4.4 3.0 -2.1 3.0 -1.7 0.75 M-4.7 0.65 L-6.75 0.4 -7.3 3.0 -7.05 3.0 -4.9 3.0 -4.7 0.65 M-4.85 3.55 L-7.05 3.5 -7.4 3.5 -7.45 5.2 -6.85 5.2 -4.75 5.05 -4.85 3.55 M-4.25 5.05 L-1.8 4.9 -2.05 3.55 -4.35 3.55 -4.25 5.05" fill="#002b00" fill-opacity="0.67058825" fill-rule="evenodd" stroke="none"/>
  </g>
</svg>
