<?xml version="1.0" encoding="UTF-8" standalone="no"?>
<svg xmlns:ffdec="https://www.free-decompiler.com/flash" xmlns:xlink="http://www.w3.org/1999/xlink" ffdec:objectType="shape" height="25.0px" width="47.2px" xmlns="http://www.w3.org/2000/svg">
  <g transform="matrix(1.0, 0.0, 0.0, 1.0, 10.55, 22.0)">
    <path d="M19.6 -21.55 Q22.55 -20.65 25.8 -18.35 L25.9 -18.3 26.6 -17.75 26.65 -17.7 27.2 -17.3 27.35 -17.2 30.25 -14.6 Q36.8 -8.3 36.65 -4.7 36.7 -2.4 34.25 -0.25 30.6 3.0 22.4 3.0 17.0 3.0 8.3 -0.85 4.0 -2.75 -0.15 -4.9 -5.75 -6.3 -8.45 -9.95 L-9.75 -12.1 Q-10.55 -13.95 -10.55 -15.8 -10.55 -17.65 -10.2 -18.25 L-9.75 -18.9 Q-8.9 -19.75 -6.9 -20.3 -2.35 -21.55 13.85 -21.9 L17.5 -22.0 17.7 -22.0 19.6 -21.55" fill="#666666" fill-rule="evenodd" stroke="none"/>
    <path d="M19.3 -20.6 L15.1 -18.75 7.75 -15.7 Q6.75 -15.25 2.9 -12.2 -0.7 -9.4 -1.05 -9.4 -1.85 -9.4 -1.85 -10.15 -1.85 -12.05 9.25 -18.45 L13.9 -20.9 17.55 -21.0 19.3 -20.6 M31.8 -11.55 L30.0 -9.35 27.4 -6.35 25.2 -3.05 Q23.7 -0.8 23.4 -0.8 22.95 -0.8 22.95 -1.35 22.95 -2.05 24.7 -4.6 L26.75 -7.4 28.9 -10.4 30.7 -12.35 30.95 -12.5 31.65 -11.75 31.8 -11.55 M26.7 -16.45 L27.05 -16.1 16.6 -10.1 16.5 -10.0 19.25 -10.6 Q20.4 -10.6 20.4 -9.75 20.4 -9.3 19.8 -9.0 L18.0 -8.2 Q19.0 -8.25 19.05 -7.45 19.05 -7.1 17.3 -6.4 15.3 -5.6 13.65 -5.6 12.55 -5.6 12.75 -6.8 L11.2 -6.0 10.6 -6.25 10.3 -6.55 Q10.1 -6.55 9.6 -6.15 9.05 -5.75 8.75 -5.75 7.85 -5.75 7.9 -6.5 L8.15 -7.3 7.8 -8.0 Q7.45 -8.5 7.45 -8.7 18.3 -18.05 23.25 -18.05 L24.45 -17.7 24.65 -17.35 25.3 -17.5 26.0 -16.95 26.7 -16.45" fill="#cccccc" fill-rule="evenodd" stroke="none"/>
    <path d="M13.9 -20.9 L9.25 -18.45 Q-1.85 -12.05 -1.85 -10.15 -1.85 -9.4 -1.05 -9.4 -0.7 -9.4 2.9 -12.2 6.75 -15.25 7.75 -15.7 L15.1 -18.75 19.3 -20.6 Q22.15 -19.75 25.3 -17.5 L24.65 -17.35 24.45 -17.7 23.25 -18.05 Q18.3 -18.05 7.45 -8.7 7.45 -8.5 7.8 -8.0 L8.15 -7.3 7.9 -6.5 Q7.85 -5.75 8.75 -5.75 9.05 -5.75 9.6 -6.15 10.1 -6.55 10.3 -6.55 L10.6 -6.25 11.2 -6.0 12.75 -6.8 Q12.55 -5.6 13.65 -5.6 15.3 -5.6 17.3 -6.4 19.05 -7.1 19.05 -7.45 19.0 -8.25 18.0 -8.2 L19.8 -9.0 Q20.4 -9.3 20.4 -9.75 20.4 -10.6 19.25 -10.6 L16.5 -10.0 16.6 -10.1 27.05 -16.1 26.7 -16.45 29.55 -13.9 30.95 -12.5 30.7 -12.35 28.9 -10.4 26.75 -7.4 24.7 -4.6 Q22.95 -2.05 22.95 -1.35 22.95 -0.8 23.4 -0.8 23.7 -0.8 25.2 -3.05 L27.4 -6.35 30.0 -9.35 31.8 -11.55 Q35.65 -7.3 35.65 -4.7 35.65 -2.8 33.6 -1.0 30.15 2.0 22.4 2.0 17.15 2.0 8.7 -1.75 4.45 -3.65 0.3 -5.8 -5.05 -7.1 -7.65 -10.55 -9.55 -13.1 -9.55 -15.8 L-9.3 -17.8 Q-8.8 -18.75 -6.65 -19.35 -2.15 -20.55 13.9 -20.9" fill="url(#gradient0)" fill-rule="evenodd" stroke="none"/>
  </g>
  <defs>
    <radialGradient cx="0" cy="0" gradientTransform="matrix(0.0274, 0.0, 0.0, 0.0199, 12.25, -7.75)" gradientUnits="userSpaceOnUse" id="gradient0" r="819.2" spreadMethod="pad">
      <stop offset="0.0" stop-color="#666666"/>
      <stop offset="0.6588235294117647" stop-color="#a6a6a6"/>
    </radialGradient>
  </defs>
</svg>
