<?xml version="1.0" encoding="UTF-8" standalone="no"?>
<svg xmlns:ffdec="https://www.free-decompiler.com/flash" xmlns:xlink="http://www.w3.org/1999/xlink" ffdec:objectType="shape" height="42.9px" width="110.95px" xmlns="http://www.w3.org/2000/svg">
  <g transform="matrix(1.0, 0.0, 0.0, 1.0, 55.5, 22.25)">
    <path d="M17.85 -21.95 L18.0 -22.05 Q21.0 -22.6 23.5 -21.65 L23.55 -21.65 23.95 -21.3 Q24.65 -20.4 24.6 -19.65 L24.6 -19.6 Q24.6 -18.7 23.7 -18.05 L23.1 -17.9 22.55 -18.1 Q21.6 -18.75 19.85 -17.85 L19.8 -17.8 16.5 -15.7 Q14.5 -14.45 13.25 -12.05 11.9 -9.6 11.15 -7.2 L11.15 -7.1 11.2 -7.1 11.3 -7.1 11.5 -7.0 11.7 -6.9 12.75 -6.45 Q18.75 -5.0 24.85 -4.5 L24.95 -4.45 25.0 -4.45 25.1 -4.4 28.25 -3.85 28.3 -3.85 28.4 -3.85 29.45 -4.15 30.45 -4.8 32.0 -6.6 32.15 -6.7 32.15 -6.75 33.6 -7.8 33.95 -8.6 33.95 -8.55 34.35 -9.0 34.4 -9.05 35.0 -9.15 35.5 -8.9 Q42.3 -2.95 49.2 1.75 L49.2 1.8 53.05 4.25 53.2 4.35 54.8 5.85 54.9 5.95 54.95 6.0 55.15 6.3 55.25 6.45 55.4 6.85 55.4 7.45 55.45 7.4 55.2 7.95 55.25 7.85 55.25 7.9 55.15 8.05 54.4 8.9 52.6 10.1 Q50.15 11.55 47.15 12.35 L47.05 12.4 40.3 14.25 33.75 15.85 33.55 15.9 28.7 16.85 28.65 16.85 21.35 18.0 21.3 18.0 13.85 18.8 12.35 18.95 10.9 19.9 Q9.3 20.65 7.85 20.65 2.35 20.65 -0.15 19.7 L-0.85 19.7 Q-1.7 19.9 -3.75 19.7 L-9.05 19.15 -9.15 19.15 -16.7 18.2 -16.8 18.2 -24.55 16.7 -24.7 16.65 -28.5 15.5 -28.55 15.5 -35.2 13.65 -35.35 13.6 -40.15 11.8 -40.2 11.75 -44.05 10.3 Q-47.55 8.85 -50.15 6.35 L-50.3 6.25 Q-51.8 4.85 -52.75 3.15 L-54.25 -0.2 Q-55.2 -2.8 -55.4 -5.5 L-55.5 -7.0 -55.5 -7.45 Q-55.5 -9.4 -55.15 -11.25 L-55.05 -11.75 -54.95 -11.9 -54.55 -13.05 -54.15 -13.75 -54.1 -13.75 -53.8 -14.1 -53.8 -14.15 -53.2 -14.75 -52.2 -15.4 -52.1 -15.5 -50.85 -16.05 -50.8 -16.05 -50.75 -16.1 -49.35 -16.5 -44.4 -17.75 -44.35 -17.75 -44.3 -17.8 -36.55 -19.15 -33.85 -19.45 -29.1 -19.8 -5.7 -20.6 -5.6 -20.65 -2.8 -21.45 -2.6 -21.5 -2.55 -21.5 0.55 -22.0 1.7 -21.85 1.65 -21.85 Q2.6 -21.5 2.55 -20.65 2.75 -19.9 0.9 -18.75 L-0.2 -17.95 -1.35 -15.75 -1.35 -15.7 -1.4 -15.65 -1.6 -14.85 -1.75 -13.9 -1.8 -12.4 -1.35 -12.2 -1.15 -12.15 5.4 -8.95 6.9 -8.35 6.95 -8.55 7.05 -8.5 7.35 -9.8 Q7.7 -11.7 9.35 -14.25 10.9 -16.75 12.05 -17.9 L14.3 -20.15 14.4 -20.25 Q15.7 -21.4 17.85 -21.95" fill="#a36a6a" fill-rule="evenodd" stroke="none"/>
    <path d="M-46.25 -16.3 L-44.1 -16.8 -36.4 -18.15 -33.75 -18.45 -29.05 -18.8 -5.5 -19.6 -2.35 -20.55 1.55 -20.65 Q1.55 -20.35 0.35 -19.6 L-1.1 -18.5 -2.25 -16.2 -2.75 -13.95 -2.85 -11.75 -1.65 -11.25 Q2.7 -8.9 7.0 -7.2 L7.1 -7.2 7.75 -6.95 7.8 -6.9 7.8 -7.0 7.8 -7.2 8.35 -9.6 Q8.7 -11.35 10.2 -13.7 11.65 -16.1 12.75 -17.2 L15.0 -19.4 Q16.15 -20.55 18.2 -21.05 L23.15 -20.7 Q24.05 -19.5 23.15 -18.9 L19.4 -18.75 15.95 -16.55 Q13.75 -15.15 12.35 -12.5 10.9 -9.85 10.1 -7.2 L9.8 -6.45 12.3 -5.55 Q18.45 -4.05 24.75 -3.5 L28.25 -2.85 28.45 -2.85 29.9 -3.25 31.1 -4.1 32.75 -5.95 34.4 -7.15 34.85 -8.15 Q37.75 -5.6 40.7 -3.25 39.3 -3.15 39.0 -2.65 38.15 -2.4 37.25 -1.6 L34.45 1.7 Q33.9 2.4 33.6 3.55 L25.1 1.5 17.75 -0.5 11.05 -3.05 Q7.9 -4.1 4.45 -5.75 0.95 -7.45 -2.25 -8.35 L-10.15 -10.8 -14.2 -12.2 -16.25 -12.9 -19.3 -13.5 -23.55 -14.15 -26.8 -14.75 -30.7 -15.35 -35.8 -15.95 -36.4 -16.0 -42.85 -16.2 -42.05 -16.15 -46.25 -16.3 M41.95 -2.3 L48.65 2.6 52.55 5.1 54.1 6.55 54.35 6.9 54.15 6.9 54.05 6.85 53.4 6.75 52.55 6.65 50.5 6.45 50.35 6.4 42.15 5.3 35.45 3.95 34.7 3.8 35.0 2.8 Q36.05 0.75 40.05 -1.9 L40.0 -1.85 41.6 -2.2 41.95 -2.3 M2.2 -2.6 Q7.15 -1.5 8.9 0.6 11.15 3.35 11.45 4.6 11.75 5.85 8.25 6.25 4.75 6.65 4.4 9.85 4.0 13.05 5.9 16.85 L5.45 17.6 4.8 17.8 Q3.9 17.8 2.9 15.1 L2.1 12.4 Q2.1 8.85 3.55 6.85 L-3.95 4.35 -4.3 4.2 -10.4 1.95 -13.75 0.4 -13.9 0.3 -14.55 -0.1 -14.85 -0.3 Q-16.95 -1.6 -19.35 -2.45 -22.3 -3.55 -24.4 -4.65 L-30.4 -7.8 -29.7 -7.65 -28.55 -7.5 -19.8 -6.4 -9.4 -4.45 -1.45 -3.2 2.2 -2.6 M11.05 13.75 Q9.7 13.75 9.15 11.65 9.15 10.3 10.65 11.0 12.1 11.75 12.1 12.75 L11.9 13.35 Q11.6 13.75 11.05 13.75 M-1.1 -19.85 L-1.1 -19.8 -1.1 -19.85" fill="#ffffff" fill-rule="evenodd" stroke="none"/>
    <path d="M-46.25 -16.3 L-42.05 -16.15 -42.85 -16.2 -36.4 -16.0 -35.8 -15.95 -30.7 -15.35 -26.8 -14.75 -23.55 -14.15 -19.3 -13.5 -16.25 -12.9 -14.2 -12.2 -10.15 -10.8 -2.25 -8.35 Q0.95 -7.45 4.45 -5.75 7.9 -4.1 11.05 -3.05 L17.75 -0.5 25.1 1.5 33.6 3.55 33.4 4.8 33.35 8.2 33.35 8.7 17.8 8.25 14.25 7.8 Q12.5 7.55 12.5 8.3 12.5 8.95 15.65 9.4 L22.0 9.85 22.15 9.85 28.4 9.8 33.35 9.5 33.35 11.25 33.4 11.6 32.3 11.7 22.5 12.3 14.4 12.05 Q14.0 12.1 13.85 12.3 L12.25 10.7 10.4 9.25 Q11.2 8.9 11.2 8.05 11.2 7.2 10.25 6.7 9.3 6.2 8.2 6.45 5.15 7.25 5.15 12.45 L5.5 15.15 Q6.3 17.85 8.5 17.85 L10.25 17.6 Q10.65 17.4 10.65 16.75 L10.15 15.6 12.6 14.6 12.75 14.5 12.6 14.7 12.25 16.4 12.05 18.0 11.8 18.0 10.45 19.0 Q9.1 19.65 7.85 19.65 2.6 19.65 0.2 18.75 -0.35 18.55 -1.05 18.75 L-3.65 18.7 -4.55 18.6 -2.4 12.35 Q-2.4 10.85 -4.8 12.05 L-6.6 12.9 -13.2 11.3 -25.65 9.0 -32.25 8.0 Q-36.4 7.3 -37.7 6.45 -39.2 6.2 -41.7 5.1 L-42.05 5.0 -45.8 3.05 -50.4 0.05 Q-52.65 -1.35 -53.6 -1.55 L-54.05 -3.3 Q-52.35 -1.75 -42.9 0.6 L-31.25 3.2 -24.05 4.55 -17.2 6.0 Q-14.05 6.45 -3.15 8.95 -2.5 8.95 -2.5 7.85 -2.5 7.2 -10.0 5.8 L-17.75 4.45 -31.6 1.6 -44.25 -1.25 Q-47.3 -1.85 -50.0 -3.05 L-52.55 -4.15 Q-53.85 -4.7 -54.25 -4.4 L-54.1 -3.55 -54.4 -5.65 Q-38.2 -3.25 -29.55 -0.95 L-4.9 4.75 Q-4.15 4.75 -3.95 4.35 L3.55 6.85 Q2.1 8.85 2.1 12.4 L2.9 15.1 Q3.9 17.8 4.8 17.8 L5.45 17.6 5.9 16.85 Q4.0 13.05 4.4 9.85 4.75 6.65 8.25 6.25 11.75 5.85 11.45 4.6 11.15 3.35 8.9 0.6 7.15 -1.5 2.2 -2.6 L-4.2 -4.75 -15.2 -8.0 -24.6 -11.0 Q-31.3 -12.6 -47.2 -13.6 L-51.15 -13.5 -51.65 -13.45 -51.05 -13.55 Q-51.3 -14.05 -52.05 -14.05 L-52.55 -13.95 -52.6 -13.95 -52.55 -13.95 -51.65 -14.6 -50.45 -15.15 -48.75 -15.65 -46.25 -16.3 M53.95 8.0 L53.8 8.1 53.85 8.05 53.95 8.0 M-5.7 18.45 L-5.75 18.45 -5.7 18.3 -5.7 18.45 M-16.6 17.2 L-16.85 17.15 -16.6 17.1 -16.6 17.2 M-53.3 -13.2 L-53.1 -13.45 -53.15 -13.1 -53.3 -13.2 M53.4 6.75 L52.7 6.7 51.7 7.0 45.5 9.35 38.45 10.75 34.9 11.55 34.55 9.65 34.85 9.65 43.35 8.3 Q50.35 6.95 50.5 6.45 L52.55 6.65 53.4 6.75 M50.35 6.4 L49.55 6.35 Q37.2 8.0 34.4 8.75 L34.35 8.15 Q34.35 5.25 34.7 3.8 L35.45 3.95 42.15 5.3 50.35 6.4 M7.45 11.65 L7.7 9.85 Q8.95 10.0 10.75 11.0 12.85 12.1 12.85 13.05 12.85 13.35 11.45 13.95 9.95 14.6 8.7 14.6 8.05 14.6 7.7 13.35 L7.45 11.65 M11.05 13.75 Q11.6 13.75 11.9 13.35 L12.1 12.75 Q12.1 11.75 10.65 11.0 9.15 10.3 9.15 11.65 9.7 13.75 11.05 13.75 M-14.85 -0.3 L-14.55 -0.1 -14.9 -0.2 -14.85 -0.3 M-4.5 13.2 L-4.5 13.25 -4.5 13.2 M-32.6 9.25 L-33.9 8.8 -32.5 9.3 -32.6 9.25" fill="#e0cbcb" fill-rule="evenodd" stroke="none"/>
    <path d="M33.6 3.55 Q33.9 2.4 34.45 1.7 L37.25 -1.6 Q38.15 -2.4 39.0 -2.65 39.3 -3.15 40.7 -3.25 L41.95 -2.3 41.6 -2.2 40.0 -1.85 40.05 -1.9 Q36.05 0.75 35.0 2.8 L34.7 3.8 Q34.35 5.25 34.35 8.15 L34.4 8.75 34.55 9.65 34.9 11.55 35.05 12.2 35.1 12.65 35.3 13.45 35.8 14.35 34.4 14.65 34.05 13.95 34.0 13.75 33.55 12.7 33.45 12.15 33.4 11.65 33.4 11.6 33.35 11.25 33.35 9.5 33.35 8.7 33.35 8.2 33.4 4.8 33.6 3.55 M13.85 12.3 L13.85 12.4 Q13.85 13.55 13.55 13.9 L12.75 14.5 12.6 14.6 10.15 15.6 10.65 16.75 Q10.65 17.4 10.25 17.6 L8.5 17.85 Q6.3 17.85 5.5 15.15 L5.15 12.45 Q5.15 7.25 8.2 6.45 9.3 6.2 10.25 6.7 11.2 7.2 11.2 8.05 11.2 8.9 10.4 9.25 L12.25 10.7 13.85 12.3 M7.45 11.65 L7.7 13.35 Q8.05 14.6 8.7 14.6 9.95 14.6 11.45 13.95 12.85 13.35 12.85 13.05 12.85 12.1 10.75 11.0 8.95 10.0 7.7 9.85 L7.45 11.65" fill="#a36a6a" fill-rule="evenodd" stroke="none"/>
    <path d="M54.35 6.9 L54.45 7.15 54.3 7.5 53.95 8.0 53.85 8.05 53.8 8.1 52.1 9.25 Q49.7 10.65 46.75 11.45 L40.05 13.3 35.8 14.35 35.3 13.45 35.1 12.65 35.05 12.2 34.9 11.55 38.45 10.75 45.5 9.35 51.7 7.0 52.7 6.7 53.4 6.75 54.05 6.85 54.15 6.9 54.35 6.9 M34.4 14.65 L33.35 14.9 28.5 15.85 21.2 17.0 13.85 17.8 13.75 17.8 12.05 18.0 12.25 16.4 12.6 14.7 12.75 14.5 13.55 13.9 Q13.85 13.55 13.85 12.4 L13.85 12.3 Q14.0 12.1 14.4 12.05 L22.5 12.3 32.3 11.7 33.4 11.6 33.4 11.65 33.45 12.15 33.55 12.7 34.0 13.75 34.05 13.95 34.4 14.65 M-4.55 18.6 L-5.7 18.5 -5.7 18.45 -5.7 18.3 -5.75 18.45 -5.75 18.5 -6.85 18.35 -7.25 18.35 -9.0 18.15 -16.6 17.2 -16.6 17.1 -16.85 17.15 -20.45 16.45 -24.35 15.7 -28.2 14.55 -35.0 12.65 -39.8 10.85 -43.65 9.4 Q-47.05 8.0 -49.6 5.5 -51.0 4.2 -51.85 2.65 L-53.0 0.15 -53.2 -0.35 -53.3 -0.55 -53.6 -1.55 Q-52.65 -1.35 -50.4 0.05 L-45.8 3.05 -42.05 5.0 -41.7 5.1 Q-39.2 6.2 -37.7 6.45 -36.4 7.3 -32.25 8.0 L-25.65 9.0 -13.2 11.3 -6.6 12.9 -4.8 12.05 Q-2.4 10.85 -2.4 12.35 L-4.55 18.6 M-54.05 -3.3 L-54.1 -3.55 -54.25 -4.4 Q-53.85 -4.7 -52.55 -4.15 L-50.0 -3.05 Q-47.3 -1.85 -44.25 -1.25 L-31.6 1.6 -17.75 4.45 -10.0 5.8 Q-2.5 7.2 -2.5 7.85 -2.5 8.95 -3.15 8.95 -14.05 6.45 -17.2 6.0 L-24.05 4.55 -31.25 3.2 -42.9 0.6 Q-52.35 -1.75 -54.05 -3.3 M50.5 6.45 Q50.35 6.95 43.35 8.3 L34.85 9.65 34.55 9.65 34.4 8.75 Q37.2 8.0 49.55 6.35 L50.35 6.4 50.5 6.45 M33.35 9.5 L28.4 9.8 22.15 9.85 22.0 9.85 15.65 9.4 Q12.5 8.95 12.5 8.3 12.5 7.55 14.25 7.8 L17.8 8.25 33.35 8.7 33.35 9.5 M-4.5 13.2 L-4.5 13.25 -4.5 13.2 M-32.6 9.25 L-32.5 9.3 -33.9 8.8 -32.6 9.25" fill="#cca9a9" fill-rule="evenodd" stroke="none"/>
    <path d="M-54.4 -5.65 L-54.5 -7.0 -54.5 -7.45 Q-54.5 -9.3 -54.15 -11.05 L-54.05 -11.55 -53.65 -12.6 -53.3 -13.2 -53.15 -13.1 -53.1 -13.45 -52.6 -13.95 -52.55 -13.95 -52.05 -14.05 Q-51.3 -14.05 -51.05 -13.55 L-51.65 -13.45 -51.15 -13.5 -47.2 -13.6 Q-31.3 -12.6 -24.6 -11.0 L-15.2 -8.0 -4.2 -4.75 2.2 -2.6 -1.45 -3.2 -9.4 -4.45 -19.8 -6.4 -28.55 -7.5 -29.7 -7.65 -30.4 -7.8 -24.4 -4.65 Q-22.3 -3.55 -19.35 -2.45 -16.95 -1.6 -14.85 -0.3 L-14.9 -0.2 -14.55 -0.1 -13.9 0.3 -13.75 0.4 -10.4 1.95 -4.3 4.2 -3.95 4.35 Q-4.15 4.75 -4.9 4.75 L-29.55 -0.95 Q-38.2 -3.25 -54.4 -5.65" fill="#efe4e4" fill-rule="evenodd" stroke="none"/>
  </g>
</svg>
