<?xml version="1.0" encoding="UTF-8" standalone="no"?>
<svg xmlns:ffdec="https://www.free-decompiler.com/flash" xmlns:xlink="http://www.w3.org/1999/xlink" ffdec:objectType="shape" height="38.3px" width="107.9px" xmlns="http://www.w3.org/2000/svg">
  <g transform="matrix(1.0, 0.0, 0.0, 1.0, 53.2, 18.8)">
    <path d="M16.9 -17.6 Q16.9 -16.95 13.7 -14.1 13.15 -13.6 12.75 -12.45 L11.95 -10.75 11.75 -11.15 Q11.75 -13.3 12.55 -14.55 13.55 -16.15 16.65 -18.05 L16.9 -17.6 M9.1 -7.95 Q9.1 -8.45 9.45 -9.45 9.9 -10.85 10.65 -11.15 L10.7 -10.9 10.2 -9.35 9.45 -7.7 9.1 -7.95 M10.05 -8.15 Q10.45 -9.3 10.85 -9.45 L11.05 -9.4 11.1 -9.2 Q10.8 -6.55 10.25 -6.55 9.7 -6.55 9.7 -6.95 L10.05 -8.15 M29.8 -1.6 Q31.6 -1.3 31.6 -0.85 L31.55 -0.5 31.05 -0.4 Q29.55 -0.4 28.7 -0.8 28.0 -1.1 28.0 -1.5 L29.8 -1.6 M34.7 -1.0 L34.2 -0.9 33.0 -1.2 32.2 -1.55 32.15 -1.7 Q32.15 -2.45 34.85 -1.3 L34.7 -1.0 M51.5 5.35 L51.3 5.4 50.85 5.35 Q50.85 5.8 50.45 5.8 L47.9 5.15 Q46.1 4.5 45.6 4.1 46.1 3.35 48.5 4.1 L49.15 4.3 48.8 3.9 50.35 4.35 51.5 5.15 51.5 5.35 M54.45 7.6 Q54.05 8.25 53.35 8.25 L49.45 7.6 Q47.9 7.05 47.9 6.7 47.9 6.3 48.4 6.3 L49.45 6.7 51.8 7.1 53.5 6.05 Q54.7 5.3 54.7 6.6 L54.45 7.6 M45.05 11.15 Q45.9 10.4 48.6 9.35 51.6 8.15 51.6 9.1 51.6 9.55 49.6 10.15 L46.4 11.3 45.15 11.3 45.05 11.15 M32.45 6.3 Q32.2 8.6 31.7 9.0 L31.4 8.7 31.6 7.05 Q31.85 5.45 32.25 5.0 L32.45 6.3 M33.4 10.9 Q33.4 12.05 34.25 14.05 34.25 14.6 33.55 14.6 32.95 14.6 32.65 12.6 L32.5 10.55 32.65 7.7 32.95 7.65 Q33.4 8.45 33.4 10.9 M8.3 18.3 Q9.6 18.3 10.55 17.3 11.55 16.3 11.75 16.3 L11.9 16.65 Q11.9 17.4 10.9 18.35 9.65 19.5 7.85 19.5 6.6 19.5 5.6 18.6 L4.85 17.7 Q4.85 17.1 5.25 17.1 L6.4 17.7 Q7.15 18.3 8.3 18.3 M8.3 13.5 Q8.3 12.9 9.35 12.9 L10.7 13.05 10.75 13.4 10.15 14.1 8.95 14.5 Q8.65 14.5 8.45 14.0 L8.3 13.5 M0.95 16.35 L0.7 16.7 0.25 16.5 0.5 16.15 0.65 16.1 0.95 16.35 M13.0 13.35 L12.5 13.7 12.0 13.4 11.95 13.05 12.6 12.45 Q13.2 12.05 13.2 12.85 L13.0 13.35 M12.2 16.45 Q12.2 16.1 13.05 15.85 13.85 15.65 13.85 16.7 L12.95 17.55 Q12.45 17.55 12.65 16.95 12.2 16.9 12.2 16.45 M-4.55 -15.65 Q-4.15 -16.15 -3.7 -16.1 L-3.55 -15.75 Q-3.95 -14.75 -4.4 -14.35 L-4.9 -14.9 -4.55 -15.65 M-4.8 -16.65 Q-3.5 -18.8 -2.8 -18.8 L-3.45 -17.55 Q-4.1 -16.4 -4.4 -16.4 L-4.7 -16.45 -4.8 -16.65 M-3.5 11.9 Q-2.85 12.0 -2.55 12.2 L-2.85 12.55 -3.8 12.65 Q-4.5 12.65 -4.75 12.3 -4.4 11.8 -3.5 11.9 M-16.2 13.85 L-16.2 13.3 -10.15 14.2 Q-4.7 15.15 -3.8 15.7 L-4.55 16.1 -7.2 15.6 -9.65 15.05 -14.0 14.55 Q-15.55 13.95 -16.2 13.85 M-0.25 15.9 L-0.7 16.0 -2.15 15.7 -3.95 15.1 -5.7 14.8 Q-6.7 14.55 -7.25 14.0 L-3.55 14.25 Q-0.2 14.95 -0.2 15.55 L-0.25 15.9 M-20.9 2.95 Q-21.0 3.2 -21.35 3.2 -24.55 3.2 -25.9 2.35 -25.95 2.55 -26.25 2.55 L-28.7 1.85 -31.05 1.0 -28.8 1.05 -26.3 2.0 -26.5 1.8 -25.75 1.7 -23.5 1.6 Q-21.3 1.75 -20.9 2.95 M-26.6 3.45 L-31.3 2.0 -31.2 2.35 -31.3 2.55 -31.6 1.65 Q-31.6 0.5 -26.3 3.0 -26.3 3.45 -26.6 3.45 M-48.6 5.4 L-48.75 5.6 -49.05 5.75 Q-49.9 5.75 -53.2 -0.35 -53.2 -2.4 -50.8 1.95 L-49.55 3.55 Q-48.6 4.8 -48.6 5.4 M-46.75 5.7 L-44.75 8.25 Q-45.1 8.6 -45.5 8.6 -46.8 8.6 -49.0 4.1 L-48.95 3.85 Q-47.95 4.2 -46.75 5.7 M-43.05 8.55 L-43.3 8.55 Q-43.35 7.85 -44.15 7.2 L-45.3 6.25 -45.3 5.8 Q-42.95 6.9 -42.95 8.25 L-43.05 8.55" fill="#999999" fill-rule="evenodd" stroke="none"/>
  </g>
</svg>
