<?xml version="1.0" encoding="UTF-8" standalone="no"?>
<svg xmlns:ffdec="https://www.free-decompiler.com/flash" xmlns:xlink="http://www.w3.org/1999/xlink" ffdec:objectType="shape" height="63.35px" width="117.5px" xmlns="http://www.w3.org/2000/svg">
  <g transform="matrix(1.0, 0.0, 0.0, 1.0, 53.15, 11.1)">
    <path d="M34.65 -9.75 Q34.0 -9.3 32.7 -9.3 31.8 -9.3 31.8 -9.85 31.8 -11.0 33.45 -11.1 35.1 -11.25 35.1 -10.4 L34.65 -9.75 M34.2 -4.1 Q34.2 -6.5 37.9 -3.7 41.55 -0.9 41.55 0.0 L41.15 0.65 40.55 0.9 Q39.65 0.9 36.8 -1.65 L34.2 -4.1 M64.25 14.45 Q64.6 15.6 63.8 15.8 58.25 14.2 56.25 12.45 57.75 12.3 61.05 13.25 64.15 14.1 64.25 14.45 M48.75 5.6 Q49.7 5.6 50.25 6.05 L50.7 6.8 49.9 7.85 Q49.0 8.65 48.3 8.65 47.35 8.65 47.05 8.3 L47.0 7.95 Q47.0 5.6 48.75 5.6 M20.85 14.2 L18.75 15.15 Q18.2 15.15 18.05 14.8 L18.0 14.45 Q18.0 13.35 20.35 12.55 22.65 11.8 22.65 13.05 22.65 13.2 20.85 14.2 M5.3 24.2 L3.15 25.0 Q2.1 25.35 -0.55 26.65 -3.3 27.85 -8.25 30.4 L-25.15 38.05 Q-32.05 41.1 -39.3 45.2 -52.0 52.25 -52.85 52.25 L-53.1 52.2 -53.15 52.0 Q-31.95 40.15 -24.7 36.9 L-9.15 29.55 Q-0.05 25.3 6.2 23.25 6.35 23.7 5.3 24.2" fill="#ffffff" fill-rule="evenodd" stroke="none"/>
  </g>
</svg>
