<?xml version="1.0" encoding="UTF-8" standalone="no"?>
<svg xmlns:ffdec="https://www.free-decompiler.com/flash" xmlns:xlink="http://www.w3.org/1999/xlink" ffdec:objectType="shape" height="14.0px" width="22.5px" xmlns="http://www.w3.org/2000/svg">
  <g transform="matrix(1.0, 0.0, 0.0, 1.0, 9.1, 5.55)">
    <path d="M1.3 7.3 L0.75 7.05 -0.7 6.3 1.4 6.3 Q3.15 6.3 5.25 5.55 6.55 5.05 7.45 4.45 L7.6 4.35 8.35 3.7 8.35 2.9 11.85 5.45 Q10.4 4.9 8.8 5.9 L7.65 6.7 Q5.45 9.05 1.3 7.3" fill="#f8f3f3" fill-rule="evenodd" stroke="none"/>
    <path d="M-3.65 6.05 L-3.8 6.05 -6.0 5.5 -6.7 5.25 Q-7.7 4.85 -8.1 4.4 L-8.15 4.35 -8.4 3.8 -8.45 3.65 -8.4 3.35 -8.35 2.25 Q-8.2 -3.3 -1.0 -4.8 L2.15 -4.6 Q-2.75 -3.25 -3.65 6.05 M11.85 5.45 Q12.65 5.75 12.55 6.85 L8.8 5.9 Q10.4 4.9 11.85 5.45" fill="#cca9a9" fill-rule="evenodd" stroke="none"/>
    <path d="M-8.15 4.35 L-8.2 5.15 -8.4 5.0 -8.45 5.1 -8.55 5.0 Q-9.55 4.65 -8.65 0.35 -7.5 -4.15 -0.95 -5.5 L-0.8 -5.55 Q7.8 -5.9 9.35 1.0 L9.35 1.2 9.35 2.6 12.3 4.8 12.4 4.85 Q13.55 5.3 13.4 6.9 L13.25 7.4 12.9 7.6 12.95 7.6 12.45 7.6 9.15 6.75 9.05 6.75 8.95 6.8 8.3 7.25 8.3 7.3 8.05 7.5 7.8 7.75 Q4.15 9.35 1.3 7.3 5.45 9.05 7.65 6.7 L8.8 5.9 12.55 6.85 Q12.65 5.75 11.85 5.45 L8.35 2.9 8.4 1.15 Q7.25 -3.75 2.15 -4.6 L-1.0 -4.8 Q-8.2 -3.3 -8.35 2.25 L-8.4 3.35 -8.45 3.65 -8.4 3.8 -8.15 4.35" fill="#a36a6a" fill-rule="evenodd" stroke="none"/>
    <path d="M-0.7 6.3 L-3.65 6.05 Q-2.75 -3.25 2.15 -4.6 7.25 -3.75 8.4 1.15 L8.35 2.9 8.35 3.7 7.6 4.35 7.45 4.45 Q6.55 5.05 5.25 5.55 3.15 6.3 1.4 6.3 L-0.7 6.3" fill="url(#gradient0)" fill-rule="evenodd" stroke="none"/>
  </g>
  <defs>
    <radialGradient cx="0" cy="0" gradientTransform="matrix(0.0182, 0.0, 0.0, 0.0182, 4.8, -1.85)" gradientUnits="userSpaceOnUse" id="gradient0" r="819.2" spreadMethod="pad">
      <stop offset="0.13333333333333333" stop-color="#f9f4f4"/>
      <stop offset="0.47058823529411764" stop-color="#e0cbcb"/>
      <stop offset="1.0" stop-color="#cca9a9"/>
    </radialGradient>
  </defs>
</svg>
