<?xml version="1.0" encoding="UTF-8" standalone="no"?>
<svg xmlns:ffdec="https://www.free-decompiler.com/flash" xmlns:xlink="http://www.w3.org/1999/xlink" ffdec:objectType="shape" height="26.3px" width="74.75px" xmlns="http://www.w3.org/2000/svg">
  <g transform="matrix(1.0, 0.0, 0.0, 1.0, 38.75, -4.2)">
    <path d="M34.95 8.6 Q36.0 10.1 36.0 13.15 36.0 15.8 34.6 17.75 33.65 19.15 29.6 22.95 28.35 24.1 21.5 27.1 19.65 28.3 17.65 29.05 13.9 30.5 8.8 30.5 L4.15 30.25 -9.7 30.15 -19.15 30.1 -20.25 29.9 -21.7 29.85 -23.85 29.4 -26.2 28.4 -28.55 27.1 Q-34.05 23.35 -35.65 21.4 -37.05 19.6 -37.95 15.95 -38.75 12.75 -38.75 10.15 -38.75 7.7 -38.15 7.1 -36.55 5.45 -29.6 4.75 -18.35 3.65 -13.05 4.7 -5.0 6.3 11.55 6.3 L19.9 5.8 26.55 5.5 Q32.75 5.65 34.95 8.6" fill="#050303" fill-rule="evenodd" stroke="none"/>
  </g>
</svg>
