<?xml version="1.0" encoding="UTF-8" standalone="no"?>
<svg xmlns:ffdec="https://www.free-decompiler.com/flash" xmlns:xlink="http://www.w3.org/1999/xlink" ffdec:objectType="shape" height="21.6px" width="98.95px" xmlns="http://www.w3.org/2000/svg">
  <g transform="matrix(1.0, 0.0, 0.0, 1.0, 49.5, 10.8)">
    <path d="M49.45 -9.9 L49.25 -9.2 49.15 -9.0 49.2 -3.65 49.15 -1.7 49.2 -1.55 48.9 -1.25 48.85 -1.25 44.25 -1.15 43.45 -1.15 40.5 2.85 40.4 2.95 40.55 9.8 40.4 10.35 40.45 10.3 40.05 10.65 40.1 10.65 39.55 10.8 -48.35 10.8 -49.05 10.5 -49.35 9.8 -49.5 2.25 -49.35 1.75 -49.0 1.4 -48.7 1.3 -40.25 -10.4 -39.9 -10.7 -39.45 -10.8 48.45 -10.8 49.1 -10.55 49.45 -9.9" fill="#a36a6a" fill-rule="evenodd" stroke="none"/>
    <path d="M-47.7 1.6 L-39.45 -9.8 48.45 -9.8 39.7 2.25 39.4 2.25 38.85 2.25 39.0 2.1 38.9 1.9 Q38.5 1.75 7.15 1.65 L-26.2 1.55 -46.35 1.5 -47.7 1.6" fill="#ffffff" fill-rule="evenodd" stroke="none"/>
    <path d="M-48.5 2.5 L-49.1 2.25 -49.2 2.05 Q-49.2 1.7 -48.55 1.65 L-47.7 1.6 -46.35 1.5 -26.2 1.55 7.15 1.65 Q38.5 1.75 38.9 1.9 L39.0 2.1 38.85 2.25 37.95 2.5 -48.5 2.5" fill="#a36a6a" fill-rule="evenodd" stroke="none"/>
    <path d="M39.4 2.25 L39.55 9.8 -48.35 9.8 -48.5 2.5 37.95 2.5 38.85 2.25 39.4 2.25" fill="#e0cbcb" fill-rule="evenodd" stroke="none"/>
    <path d="M-18.9 -10.25 L-20.45 -7.7 M-22.05 -5.15 L-23.65 -2.65 M-26.45 3.8 L-26.5 1.9 M-26.3 9.8 L-26.35 6.8 M-25.2 -0.05 L-26.2 1.55" fill="none" stroke="#3b0101" stroke-linecap="round" stroke-linejoin="round" stroke-width="1.0"/>
  </g>
</svg>
