<?xml version="1.0" encoding="UTF-8" standalone="no"?>
<svg xmlns:ffdec="https://www.free-decompiler.com/flash" xmlns:xlink="http://www.w3.org/1999/xlink" ffdec:objectType="shape" height="37.6px" width="96.95px" xmlns="http://www.w3.org/2000/svg">
  <g transform="matrix(1.0, 0.0, 0.0, 1.0, 53.0, 25.25)">
    <path d="M27.55 -3.05 Q26.45 -0.65 26.45 -0.2 26.45 0.1 28.1 2.7 L29.9 5.4 29.5 5.75 Q28.8 5.75 27.85 4.6 L26.7 3.15 Q25.45 1.55 25.0 1.45 L19.85 1.5 Q18.65 1.5 18.35 1.1 L18.3 0.7 Q18.3 0.1 19.5 -0.1 L24.15 -0.3 Q25.05 -0.3 26.65 -2.75 L28.65 -5.7 27.55 -3.05 M37.8 -15.0 Q37.8 -17.1 43.85 -25.25 44.05 -24.4 43.85 -24.05 L43.55 -23.2 Q43.55 -22.65 41.2 -19.2 L37.85 -14.7 37.8 -15.0 M35.85 12.3 L35.55 12.35 Q35.15 12.35 33.6 9.95 L32.1 7.55 32.1 7.35 Q32.9 7.3 34.55 9.2 36.05 11.0 36.05 11.55 L35.85 12.3 M20.65 3.45 L20.7 3.75 Q20.7 4.35 9.05 5.55 L8.6 5.45 8.55 5.25 Q8.55 4.5 14.45 3.9 L20.55 3.45 20.65 3.45 M13.95 2.8 Q14.15 2.9 14.15 3.15 13.6 4.2 10.95 4.2 10.35 4.2 10.35 3.45 L8.35 3.6 6.95 3.45 6.9 3.15 Q6.9 2.7 10.7 2.55 L13.95 2.8 M-49.1 3.5 L-48.6 4.1 -49.4 4.3 -51.75 4.5 -52.65 4.35 -52.7 4.1 Q-52.7 3.3 -50.85 3.3 L-51.25 3.25 Q-52.6 3.0 -53.0 2.45 -52.45 1.65 -50.9 1.85 L-47.15 2.1 -41.55 1.65 Q-40.25 1.55 -40.25 2.2 -40.25 2.6 -41.3 2.9 L-46.7 3.45 -49.4 3.4 -49.1 3.5" fill="#999999" fill-rule="evenodd" stroke="none"/>
  </g>
</svg>
