<?xml version="1.0" encoding="UTF-8" standalone="no"?>
<svg xmlns:ffdec="https://www.free-decompiler.com/flash" xmlns:xlink="http://www.w3.org/1999/xlink" ffdec:objectType="shape" height="15.0px" width="94.55px" xmlns="http://www.w3.org/2000/svg">
  <g transform="matrix(1.0, 0.0, 0.0, 1.0, 48.65, 8.25)">
    <path d="M45.9 -7.65 Q45.9 -6.75 44.65 -5.65 L42.6 -3.95 42.35 -4.05 42.3 -4.35 Q42.3 -4.85 43.65 -6.45 45.1 -8.15 45.9 -8.25 L45.9 -7.65 M42.8 -2.9 L42.9 -2.55 42.3 -1.65 Q41.7 -0.8 41.7 -0.15 L40.75 1.05 Q39.8 2.15 39.8 3.05 L39.6 6.25 39.6 6.6 39.2 6.75 Q38.35 6.75 38.25 5.0 L38.3 2.55 34.85 2.25 Q33.75 2.1 33.75 1.6 33.75 1.15 34.55 1.05 L38.25 0.45 Q39.75 0.25 40.05 -0.5 40.35 -1.35 40.95 -2.05 41.85 -3.15 42.8 -2.9 M-43.95 -1.2 Q-43.95 -0.6 -45.5 0.6 -44.15 1.25 -43.1 1.3 L-42.5 1.4 Q-42.5 1.9 -42.85 1.95 L-46.65 1.95 Q-47.4 1.95 -47.4 3.1 L-47.25 5.0 Q-48.65 4.7 -48.65 3.45 -48.65 2.65 -47.25 0.65 -45.85 -1.35 -45.15 -1.35 L-43.95 -1.65 -43.95 -1.2 M-18.0 4.8 Q-18.65 5.5 -21.5 5.6 L-26.4 5.85 -31.95 6.45 -33.3 6.35 -33.35 6.1 Q-33.35 5.45 -26.45 5.0 L-18.3 4.65 -18.0 4.8 M-29.85 4.4 L-33.05 4.65 -38.7 4.2 Q-39.35 4.2 -39.35 3.65 -39.35 3.2 -38.45 3.2 L-32.55 3.45 -30.35 3.65 -29.0 3.35 -27.5 3.6 -27.45 3.8 -27.45 4.0 -26.1 4.1 -27.5 4.2 -27.55 4.1 -29.85 4.4" fill="#999999" fill-rule="evenodd" stroke="none"/>
  </g>
</svg>
