<?xml version="1.0" encoding="UTF-8" standalone="no"?>
<svg xmlns:ffdec="https://www.free-decompiler.com/flash" xmlns:xlink="http://www.w3.org/1999/xlink" ffdec:objectType="shape" height="85.7px" width="48.95px" xmlns="http://www.w3.org/2000/svg">
  <g transform="matrix(1.0, 0.0, 0.0, 1.0, 15.2, 49.35)">
    <path d="M32.7 -40.6 L33.75 -39.55 33.75 -39.5 33.6 -39.45 Q33.0 -39.45 31.85 -40.45 L31.15 -40.25 Q29.95 -40.25 28.2 -41.45 26.5 -42.55 26.55 -43.1 L27.2 -43.0 27.75 -42.6 Q27.9 -42.45 28.35 -42.35 L29.15 -42.1 Q30.4 -41.35 31.4 -40.85 L30.85 -41.45 31.1 -41.8 Q31.25 -41.65 32.7 -40.6 M28.2 -44.2 Q29.85 -42.75 29.85 -42.35 L30.15 -42.0 30.15 -41.95 30.0 -41.85 Q29.85 -41.85 29.65 -42.0 L29.5 -42.0 28.0 -43.15 25.8 -45.3 Q25.55 -45.55 24.85 -47.15 L24.15 -48.9 24.4 -49.35 26.45 -45.75 28.2 -44.2 M7.5 -26.7 L4.05 -20.6 Q1.8 -16.6 1.25 -16.6 0.85 -16.6 0.85 -16.95 L3.25 -21.1 Q5.8 -25.2 7.35 -26.8 L7.5 -26.7 M4.55 -19.8 L4.6 -19.65 3.4 -17.4 1.25 -14.3 1.2 -14.65 Q1.2 -15.1 2.7 -17.3 L4.45 -19.8 4.55 -19.8 M9.9 11.75 Q9.9 12.2 9.1 12.75 8.15 13.35 6.95 13.35 3.7 13.35 3.05 12.85 2.9 12.3 2.45 12.15 L2.6 12.05 Q2.95 12.15 3.3 12.4 L5.05 12.6 Q7.8 12.6 8.45 12.0 9.1 11.4 9.5 11.4 9.9 11.4 9.9 11.75 M-13.3 -3.05 L-12.9 -4.05 Q-13.25 -0.9 -10.6 2.8 L-10.9 3.0 Q-11.4 3.0 -12.1 2.2 L-13.05 0.65 Q-13.4 -0.35 -13.4 -1.8 L-13.3 -3.05 M-9.75 4.4 Q-10.4 3.6 -10.4 2.8 -10.4 1.95 -9.7 2.25 L-9.65 2.45 -9.75 2.6 -9.9 2.7 -7.8 5.0 Q-5.75 7.0 -5.75 7.5 L-4.95 8.15 -4.1 8.95 -4.45 9.2 Q-5.35 9.2 -8.25 6.05 L-9.75 4.4 M-7.9 24.0 L-9.75 26.35 -11.75 28.8 -11.95 28.9 Q-12.45 28.9 -12.55 28.3 L-10.45 25.5 -7.35 22.2 -7.25 22.4 -8.2 23.6 -7.9 24.0 M-8.25 26.9 Q-8.25 27.2 -10.4 29.65 L-10.15 30.05 Q-14.15 36.35 -14.9 36.35 L-15.15 36.3 -15.2 36.1 -13.7 34.25 Q-12.1 32.3 -11.8 31.1 -11.5 29.85 -10.45 28.6 -9.4 27.25 -8.1 26.5 L-8.25 26.9" fill="#999999" fill-rule="evenodd" stroke="none"/>
  </g>
</svg>
