<?xml version="1.0" encoding="UTF-8" standalone="no"?>
<svg xmlns:ffdec="https://www.free-decompiler.com/flash" xmlns:xlink="http://www.w3.org/1999/xlink" ffdec:objectType="shape" height="65.65px" width="52.9px" xmlns="http://www.w3.org/2000/svg">
  <g transform="matrix(1.0, 0.0, 0.0, 1.0, 26.45, 32.85)">
    <path d="M2.95 -32.85 L3.65 -32.75 3.7 -32.7 4.1 -32.2 26.4 23.6 26.45 24.05 26.3 24.5 26.3 24.45 21.95 31.65 21.9 32.1 21.55 32.6 20.95 32.8 -25.45 32.8 -26.15 32.5 -26.45 31.8 -26.45 -25.35 -26.15 -26.05 -25.45 -26.35 -2.75 -26.35 2.4 -32.45 2.4 -32.5 2.95 -32.85" fill="#a36a6a" fill-rule="evenodd" stroke="none"/>
    <path d="M21.05 32.1 L21.15 32.4 -25.25 32.4 -25.25 -24.75 -2.1 -24.75 -1.3 -24.75 21.05 32.1" fill="#e0cbcb" fill-rule="evenodd" stroke="none"/>
    <path d="M-2.1 -24.75 L3.35 -31.25 25.65 24.55 21.05 32.1 -1.3 -24.75 -2.1 -24.75" fill="#ffffff" fill-rule="evenodd" stroke="none"/>
    <path d="M-15.15 -22.9 L-15.15 -24.75 M-15.15 -16.9 L-15.15 -19.9 M-15.15 -10.9 L-15.15 -13.9 M-15.15 -4.9 L-15.15 -7.9 M-15.15 7.1 L-15.15 4.1 M-15.15 13.1 L-15.15 10.1 M-15.15 19.1 L-15.15 16.1 M-15.15 25.1 L-15.15 22.1 M-15.15 31.1 L-15.15 28.1 M-15.15 1.1 L-15.15 -1.9" fill="none" stroke="#3b0101" stroke-linecap="round" stroke-linejoin="round" stroke-width="1.0"/>
  </g>
</svg>
