<?xml version="1.0" encoding="UTF-8" standalone="no"?>
<svg xmlns:ffdec="https://www.free-decompiler.com/flash" xmlns:xlink="http://www.w3.org/1999/xlink" ffdec:objectType="shape" height="59.55px" width="30.4px" xmlns="http://www.w3.org/2000/svg">
  <g transform="matrix(1.0, 0.0, 0.0, 1.0, 6.9, 27.35)">
    <path d="M0.0 -25.75 L-1.1 -24.65 -1.2 -24.6 Q-0.4 -24.3 0.45 -22.55 L1.25 -21.1 Q2.85 -17.85 2.85 -15.3 2.85 -15.1 3.0 -15.0 L3.15 -14.7 3.0 -13.8 2.7 -13.8 1.05 -18.15 0.6 -19.5 0.0 -18.75 -0.6 -20.45 -1.1 -22.2 -2.1 -23.85 -6.3 -24.0 Q-6.8 -24.05 -6.9 -24.3 L-6.9 -24.7 Q-6.9 -25.05 -5.4 -25.1 -3.4 -25.1 -1.85 -26.4 -0.95 -27.2 -0.2 -27.35 0.6 -27.5 0.6 -26.6 0.6 -26.15 0.0 -25.75 M4.1 -10.5 Q9.85 -0.45 10.95 6.15 L10.95 7.5 10.55 7.65 Q6.5 -1.1 3.9 -10.35 L4.1 -10.5 M1.15 -2.1 L2.25 1.9 2.1 2.55 Q2.25 2.7 1.85 2.7 1.15 2.7 -0.75 -4.95 L-0.65 -5.7 0.0 -5.7 1.15 -2.1 M-5.1 -13.5 L-3.6 -8.85 -3.4 -8.9 -3.0 -9.0 -0.75 -2.25 Q-0.75 -1.55 -1.25 -1.55 L-2.5 -3.85 -4.05 -7.2 -4.8 -9.75 Q-5.4 -12.0 -5.4 -12.8 L-5.1 -13.5 M17.65 24.15 L19.15 26.9 Q19.3 27.3 20.4 28.75 21.15 29.7 20.65 30.55 L20.65 30.65 Q22.3 28.0 23.1 27.2 L23.35 27.55 23.5 27.95 23.2 28.45 22.9 29.0 22.35 30.05 Q21.25 32.15 19.35 32.2 17.4 32.2 15.85 31.55 14.8 31.1 14.8 30.75 14.8 30.05 19.0 29.95 L17.95 27.25 Q17.05 24.9 17.05 23.95 17.05 23.05 17.65 24.15" fill="#999999" fill-rule="evenodd" stroke="none"/>
  </g>
</svg>
