<?xml version="1.0" encoding="UTF-8" standalone="no"?>
<svg xmlns:ffdec="https://www.free-decompiler.com/flash" xmlns:xlink="http://www.w3.org/1999/xlink" ffdec:objectType="shape" height="35.7px" width="42.6px" xmlns="http://www.w3.org/2000/svg">
  <g transform="matrix(1.0, 0.0, 0.0, 1.0, 25.85, 18.2)">
    <path d="M16.15 -6.3 L16.65 -4.3 Q17.1 5.7 15.05 8.55 13.5 10.95 11.2 11.25 L9.2 13.3 Q4.05 17.5 -7.55 17.5 -19.75 17.5 -23.9 9.95 -26.05 6.15 -25.8 1.8 L-25.8 1.75 Q-25.8 -3.25 -24.8 -6.85 L-24.8 -6.75 -24.75 -6.9 -24.65 -7.25 -24.65 -7.3 -23.85 -9.55 -23.8 -9.6 Q-22.15 -13.5 -19.3 -15.05 L-19.25 -15.05 -19.1 -15.15 -19.05 -15.15 Q-17.65 -15.9 -16.0 -16.1 -12.75 -17.2 -8.1 -17.9 -3.35 -18.75 1.6 -17.3 9.35 -16.75 11.65 -13.25 12.5 -12.1 13.0 -9.05 L13.25 -8.95 Q14.5 -8.45 15.65 -6.95 L16.05 -6.45 16.15 -6.3" fill="#a36a6a" fill-rule="evenodd" stroke="none"/>
    <path d="M2.65 -12.9 L2.45 -12.8 2.55 -12.95 2.65 -12.9 M8.95 -0.7 L9.15 -2.95 Q9.15 -4.15 9.95 -5.5 10.85 -7.1 12.5 -7.85 L12.75 -7.8 13.0 -7.7 Q14.2 -7.15 15.35 -5.55 L15.9 -3.35 15.95 -3.25 15.9 -3.25 Q14.1 -2.35 13.55 -0.2 13.3 0.85 13.3 3.7 L13.35 4.45 13.25 3.75 13.25 3.7 13.2 3.4 13.2 3.25 13.2 3.1 11.05 3.55 9.5 0.55 9.45 0.5 9.45 0.6 8.95 -0.7 M12.15 -8.5 Q11.45 -8.5 9.35 -6.15 8.95 -5.6 8.7 -4.6 L8.35 -3.15 7.9 0.25 7.7 2.85 7.9 5.05 7.95 5.45 8.0 5.45 7.5 5.6 4.5 6.35 4.5 5.85 4.2 4.15 3.6 2.1 Q2.55 0.7 1.1 1.4 L-1.1 3.0 Q-2.4 3.85 -2.7 6.3 L-2.75 6.7 -7.0 6.2 -6.9 0.8 -6.9 0.55 -6.55 0.35 Q-6.1 -0.1 -6.1 -3.75 -6.1 -5.05 -8.65 -6.3 -11.7 -7.8 -16.5 -7.8 -18.15 -7.8 -19.2 -4.95 -19.6 -6.4 -19.6 -7.8 -17.75 -14.95 -17.75 -14.15 L-17.75 -14.25 -15.65 -14.75 Q-12.4 -15.85 -7.8 -16.6 -3.2 -17.4 1.6 -15.95 8.8 -15.45 10.95 -12.35 11.7 -11.25 12.15 -8.5 M8.65 8.55 L9.25 9.65 10.1 10.7 Q9.25 10.25 8.65 8.55 M10.1 8.05 L9.75 7.35 9.8 7.3 10.1 8.05 M3.95 -8.2 Q8.85 -9.45 8.85 -11.8 8.85 -12.3 8.5 -12.3 7.85 -11.35 6.05 -10.45 2.45 -8.6 -3.5 -8.6 -10.0 -8.6 -13.4 -10.1 -15.3 -10.9 -17.05 -12.5 L-17.1 -12.2 Q-17.1 -10.7 -13.9 -9.3 -9.5 -7.4 -1.4 -7.4 0.85 -7.4 3.95 -8.2 M4.5 -11.05 Q6.95 -11.3 6.7 -13.35 6.45 -15.45 -4.4 -15.6 -15.3 -15.75 -15.3 -13.15 -15.3 -12.15 -13.75 -11.7 L-2.35 -10.85 4.5 -11.05 M13.95 2.25 L13.95 2.2 14.0 2.25 13.95 2.25 M-18.5 -13.9 L-18.95 -13.6 -18.65 -13.85 -18.5 -13.9 M0.15 5.1 L0.25 4.7 0.1 4.2 Q-0.8 3.8 -0.85 4.8 L-0.75 5.2 -0.3 5.25 0.15 5.1 M2.15 4.5 L2.25 4.05 2.1 3.55 1.1 3.6 Q0.85 3.8 0.85 4.05 L0.9 4.35 Q1.05 4.65 1.55 4.65 L2.15 4.5 M-1.2 6.55 L-1.15 4.65 Q-0.65 3.7 2.45 2.4 L2.9 4.35 3.35 5.85 3.35 6.5 1.05 6.35 -1.2 6.55 M2.45 8.25 L2.4 8.3 2.3 8.25 2.45 8.25 M-18.8 -2.85 L-18.7 -4.35 Q-18.45 -6.25 -17.5 -6.6 L-16.7 -6.7 -16.9 -6.1 Q-16.9 -5.75 -16.3 -5.25 -16.05 -5.3 -15.75 -5.7 -15.45 -6.1 -15.45 -6.45 L-15.45 -6.65 -11.8 -6.1 -10.95 -5.9 -11.2 -5.25 Q-10.7 -4.05 -10.25 -4.05 -9.9 -4.05 -9.7 -4.5 L-9.55 -5.1 -9.65 -5.55 -10.45 -5.8 Q-7.05 -4.9 -7.05 -3.7 L-7.2 -2.05 -7.35 -1.2 -7.3 -1.65 -7.55 -2.0 Q-10.0 -3.9 -11.0 -3.25 -12.85 -2.1 -15.95 -2.55 L-18.75 -2.85 -18.8 -2.85 M-18.5 -1.15 L-19.05 -1.3 -19.0 -1.5 -18.5 -1.15 M-18.0 -0.05 L-17.8 0.0 -10.4 0.75 -8.0 0.7 -7.95 5.6 Q-7.9 6.1 -8.15 6.45 L-10.4 5.2 -14.45 3.25 -18.0 -0.05 M-5.65 8.45 L-5.6 8.45 -5.65 8.55 -5.65 8.45 M-0.2 8.55 L-0.15 8.55 -0.2 8.6 -0.2 8.55" fill="#ffffff" fill-rule="evenodd" stroke="none"/>
    <path d="M2.65 -12.9 L2.55 -12.95 2.45 -12.8 2.65 -12.9 M8.95 -0.7 L8.9 -0.35 8.8 0.55 8.65 2.15 Q8.65 5.0 9.75 7.35 L10.1 8.05 10.5 9.1 10.65 9.35 10.65 9.4 11.2 10.3 11.05 10.6 10.85 10.6 10.8 10.6 10.65 10.8 10.65 10.85 10.6 10.8 10.1 10.7 9.25 9.65 8.65 8.55 8.4 7.65 8.35 7.5 8.0 5.45 7.95 5.45 7.9 5.05 7.7 2.85 7.9 0.25 8.35 -3.15 8.7 -4.6 Q8.95 -5.6 9.35 -6.15 11.45 -8.5 12.15 -8.5 L12.25 -7.85 12.25 -7.9 12.5 -7.85 Q10.85 -7.1 9.95 -5.5 9.15 -4.15 9.15 -2.95 L8.95 -0.7 M4.5 -11.05 L-2.35 -10.85 -13.75 -11.7 Q-15.3 -12.15 -15.3 -13.15 -15.3 -15.75 -4.4 -15.6 6.45 -15.45 6.7 -13.35 6.95 -11.3 4.5 -11.05 M4.5 6.35 Q4.35 7.5 3.65 8.75 L3.25 9.3 2.65 10.05 2.65 10.1 Q0.9 11.9 -1.8 11.9 -2.7 11.9 -2.85 11.2 L-2.85 10.45 -2.8 8.8 -2.75 7.05 -2.75 6.7 -2.7 6.3 Q-2.4 3.85 -1.1 3.0 L1.1 1.4 Q2.55 0.7 3.6 2.1 L4.2 4.15 4.5 5.85 4.5 6.35 M-7.0 6.2 L-7.1 6.6 Q-7.4 7.4 -8.25 7.85 L-8.75 8.1 -11.6 8.45 Q-18.15 8.45 -19.7 6.7 -20.05 6.3 -20.05 4.15 L-19.95 1.6 -19.6 -0.4 -19.5 -0.65 Q-20.0 -0.95 -20.0 -1.3 -20.0 -2.65 -19.25 -4.8 L-19.2 -4.95 Q-18.15 -7.8 -16.5 -7.8 -11.7 -7.8 -8.65 -6.3 -6.1 -5.05 -6.1 -3.75 -6.1 -0.1 -6.55 0.35 L-6.9 0.55 -6.9 0.8 -7.0 6.2 M2.15 4.5 L1.55 4.65 Q1.05 4.65 0.9 4.35 L0.85 4.05 Q0.85 3.8 1.1 3.6 L2.1 3.55 2.25 4.05 2.15 4.5 M0.15 5.1 L-0.3 5.25 -0.75 5.2 -0.85 4.8 Q-0.8 3.8 0.1 4.2 L0.25 4.7 0.15 5.1 M3.35 6.5 L3.35 5.85 2.9 4.35 2.45 2.4 Q-0.65 3.7 -1.15 4.65 L-1.2 6.55 -1.2 7.1 -1.25 7.95 -1.3 8.45 -1.7 10.4 -1.6 10.6 2.4 8.3 2.45 8.25 2.7 8.05 Q3.2 7.6 3.35 6.5 M2.2 7.4 L2.1 7.4 1.85 7.5 Q1.45 7.35 1.45 6.75 L2.05 6.75 Q2.25 6.55 2.25 7.05 L2.2 7.4 M3.8 11.3 Q3.8 9.3 5.95 9.15 8.1 9.0 8.1 10.85 L7.65 12.15 Q7.0 13.25 5.8 13.25 4.7 13.25 4.15 12.3 L3.8 11.3 M-7.35 -1.2 L-7.2 -2.05 -7.05 -3.7 Q-7.05 -4.9 -10.45 -5.8 L-9.65 -5.55 -9.55 -5.1 -9.7 -4.5 Q-9.9 -4.05 -10.25 -4.05 -10.7 -4.05 -11.2 -5.25 L-10.95 -5.9 -11.8 -6.1 -15.45 -6.65 -15.45 -6.45 Q-15.45 -6.1 -15.75 -5.7 -16.05 -5.3 -16.3 -5.25 -16.9 -5.75 -16.9 -6.1 L-16.7 -6.7 -17.5 -6.6 Q-18.45 -6.25 -18.7 -4.35 L-18.8 -2.85 -19.0 -1.5 -19.05 -1.3 -18.5 -1.15 -16.9 -0.7 -13.7 -0.25 -10.45 -0.3 -7.5 -0.45 -7.4 -0.7 -7.4 -1.1 -7.35 -1.2 M-18.0 -0.05 L-18.5 -0.2 -18.8 -0.3 -18.9 1.8 -19.05 4.0 Q-19.05 5.85 -18.5 6.3 L-18.25 6.5 Q-18.2 4.55 -17.55 4.7 -16.9 4.85 -16.9 6.7 L-16.85 6.95 -12.2 7.35 -12.1 6.45 -11.7 5.8 -11.7 5.75 -11.5 5.7 Q-10.85 5.7 -10.8 7.35 -8.75 7.2 -8.15 6.45 -7.9 6.1 -7.95 5.6 L-8.0 0.7 -10.4 0.75 -17.8 0.0 -18.0 -0.05 M-0.2 8.6 L-0.15 8.7 -0.65 9.15 -1.05 9.1 -1.15 8.7 -1.1 8.5 -1.0 8.3 -0.65 8.2 -0.45 8.3 -0.2 8.55 -0.2 8.6" fill="#a36a6a" fill-rule="evenodd" stroke="none"/>
    <path d="M9.75 7.35 Q8.65 5.0 8.65 2.15 L8.8 0.55 8.9 -0.35 8.95 -0.7 9.45 0.6 9.45 0.5 9.5 0.55 11.05 3.55 13.2 3.1 13.2 3.25 13.2 3.4 13.25 3.7 13.25 3.75 13.35 4.45 13.4 4.85 13.55 5.6 13.55 5.65 Q13.15 6.05 12.6 7.35 12.45 7.8 11.55 7.9 10.8 8.0 10.3 8.6 L10.5 9.1 10.1 8.05 9.8 7.3 9.75 7.35 M8.0 5.45 L8.35 7.5 8.4 7.65 8.65 8.55 Q9.25 10.25 10.1 10.7 L10.6 10.8 10.65 10.85 Q9.85 11.95 8.7 12.85 6.85 14.35 4.2 15.25 L4.15 15.3 -0.95 15.65 Q-15.6 15.65 -20.55 5.8 -22.8 1.3 -22.8 -6.15 L-22.35 -9.65 -22.35 -9.7 Q-21.0 -12.35 -18.95 -13.65 L-18.65 -13.85 -18.95 -13.6 -18.5 -13.9 Q-18.15 -14.1 -17.75 -14.25 L-17.75 -14.15 Q-17.75 -14.95 -19.6 -7.8 -19.6 -6.4 -19.2 -4.95 L-19.25 -4.8 Q-20.0 -2.65 -20.0 -1.3 -20.0 -0.95 -19.5 -0.65 L-19.6 -0.4 -19.95 1.6 -20.05 4.15 Q-20.05 6.3 -19.7 6.7 -18.15 8.45 -11.6 8.45 L-8.75 8.1 -8.25 7.85 Q-7.4 7.4 -7.1 6.6 L-7.0 6.2 -2.75 6.7 -2.75 7.05 -2.8 8.8 -2.85 10.45 -2.85 11.2 Q-2.7 11.9 -1.8 11.9 0.9 11.9 2.65 10.1 L2.65 10.05 3.25 9.3 3.65 8.75 Q4.35 7.5 4.5 6.35 L7.5 5.6 8.0 5.45 M3.95 -8.2 Q0.85 -7.4 -1.4 -7.4 -9.5 -7.4 -13.9 -9.3 -17.1 -10.7 -17.1 -12.2 L-17.05 -12.5 Q-15.3 -10.9 -13.4 -10.1 -10.0 -8.6 -3.5 -8.6 2.45 -8.6 6.05 -10.45 7.85 -11.35 8.5 -12.3 8.85 -12.3 8.85 -11.8 8.85 -9.45 3.95 -8.2 M-1.2 6.55 L1.05 6.35 3.35 6.5 Q3.2 7.6 2.7 8.05 L2.45 8.25 2.3 8.25 2.4 8.3 -1.6 10.6 -1.7 10.4 -1.3 8.45 -1.25 7.95 -1.2 7.1 -1.2 6.55 M2.2 7.4 L2.25 7.05 Q2.25 6.55 2.05 6.75 L1.45 6.75 Q1.45 7.35 1.85 7.5 L2.1 7.4 2.2 7.4 M3.8 11.3 L4.15 12.3 Q4.7 13.25 5.8 13.25 7.0 13.25 7.65 12.15 L8.1 10.85 Q8.1 9.0 5.95 9.15 3.8 9.3 3.8 11.3 M3.7 15.45 L2.25 15.85 0.7 16.2 2.25 15.85 3.7 15.45 M-18.8 -2.85 L-18.75 -2.85 -15.95 -2.55 Q-12.85 -2.1 -11.0 -3.25 -10.0 -3.9 -7.55 -2.0 L-7.3 -1.65 -7.35 -1.2 -7.4 -1.1 -7.4 -0.7 -7.5 -0.45 -10.45 -0.3 -13.7 -0.25 -16.9 -0.7 -18.5 -1.15 -19.0 -1.5 -18.8 -2.85 M-8.15 6.45 Q-8.75 7.2 -10.8 7.35 -10.85 5.7 -11.5 5.7 L-11.7 5.75 -11.7 5.8 -12.1 6.45 -12.2 7.35 -16.85 6.95 -16.9 6.7 Q-16.9 4.85 -17.55 4.7 -18.2 4.55 -18.25 6.5 L-18.5 6.3 Q-19.05 5.85 -19.05 4.0 L-18.9 1.8 -18.8 -0.3 -18.5 -0.2 -18.0 -0.05 -14.45 3.25 -10.4 5.2 -8.15 6.45 M-5.65 8.45 L-5.65 8.55 -5.6 8.45 -5.65 8.45 M-0.2 8.55 L-0.45 8.3 -0.65 8.2 -1.0 8.3 -1.1 8.5 -1.15 8.7 -1.05 9.1 -0.65 9.15 -0.15 8.7 -0.2 8.6 -0.15 8.55 -0.2 8.55" fill="#e0cbcb" fill-rule="evenodd" stroke="none"/>
    <path d="M11.05 10.6 L11.2 10.3 10.65 9.4 10.65 9.35 10.5 9.1 10.3 8.6 Q10.8 8.0 11.55 7.9 12.45 7.8 12.6 7.35 13.15 6.05 13.55 5.65 L13.75 6.35 13.95 6.9 13.95 6.95 14.7 7.8 14.65 7.8 Q13.3 10.4 11.05 10.6 M-22.35 -9.7 L-22.35 -9.65 -22.8 -6.15 Q-22.8 1.3 -20.55 5.8 -15.6 15.65 -0.95 15.65 L4.15 15.3 3.7 15.45 2.25 15.85 0.7 16.2 -4.5 16.8 -4.6 16.8 -7.4 16.85 Q-18.9 16.85 -22.9 9.8 -24.9 6.25 -24.65 2.15 L-24.55 -0.7 Q-24.35 -3.8 -23.65 -6.25 L-23.55 -6.6 -22.75 -8.85 -22.35 -9.7" fill="#cca9a9" fill-rule="evenodd" stroke="none"/>
  </g>
</svg>
