<?xml version="1.0" encoding="UTF-8" standalone="no"?>
<svg xmlns:ffdec="https://www.free-decompiler.com/flash" xmlns:xlink="http://www.w3.org/1999/xlink" ffdec:objectType="shape" height="12.55px" width="30.85px" xmlns="http://www.w3.org/2000/svg">
  <g transform="matrix(1.0, 0.0, 0.0, 1.0, 17.35, 6.15)">
    <path d="M11.05 -5.85 L11.35 -5.15 11.35 5.4 11.05 6.1 10.35 6.4 -17.35 6.4 -17.35 -6.1 -8.1 -6.1 -8.1 -6.15 10.35 -6.15 11.05 -5.85 M10.35 -5.15 L-12.1 -5.15 -12.0 -5.1 Q-9.6 -4.0 -8.85 -2.1 -8.45 -1.2 -8.45 -0.1 L-8.45 0.75 -8.85 2.25 -9.1 2.85 -9.65 3.5 Q-10.8 4.7 -12.95 5.4 L10.35 5.4 10.35 -5.15" fill="#a36a6a" fill-rule="evenodd" stroke="none"/>
    <path d="M9.05 -5.55 L9.4 -5.8 9.8 -5.9 10.95 -5.9 11.6 -5.65 Q12.9 -4.65 13.15 -3.15 L13.45 -0.75 13.5 1.05 13.05 3.65 12.7 4.55 12.65 4.6 12.1 5.4 11.65 5.9 10.95 6.2 9.8 6.2 9.2 6.0 8.6 5.4 8.55 5.35 7.7 3.7 7.7 3.65 Q7.35 3.0 7.3 1.9 L7.25 0.1 7.35 -1.65 7.65 -3.2 7.65 -3.3 8.15 -4.35 9.05 -5.55" fill="#a36a6a" fill-rule="evenodd" stroke="none"/>
    <path d="M-17.35 1.2 L-17.35 -5.15 10.35 -5.15 10.35 1.2 -17.35 1.2" fill="#ffffff" fill-rule="evenodd" stroke="none"/>
    <path d="M10.35 1.2 L10.35 5.4 -17.35 5.4 -17.35 1.2 10.35 1.2" fill="#e0cbcb" fill-rule="evenodd" stroke="none"/>
    <path d="M10.3 -4.95 Q11.5 -5.2 12.1 -3.0 L12.05 -3.0 Q12.45 -1.7 12.45 0.15 12.45 1.95 12.05 3.3 L12.1 3.25 Q11.5 5.45 10.3 5.2 9.1 5.45 8.55 3.25 L8.55 3.3 Q8.15 1.95 8.15 0.1 8.15 -1.7 8.55 -3.0 9.1 -5.2 10.3 -4.95" fill="#ffffff" fill-rule="evenodd" stroke="none"/>
    <path d="M11.1 -2.75 Q11.45 -1.55 11.45 0.15 11.45 1.8 11.1 3.0 10.8 4.2 10.3 4.2 9.8 4.2 9.5 3.0 9.15 1.8 9.15 0.1 9.15 -1.55 9.5 -2.75 9.8 -3.95 10.3 -3.95 10.8 -3.95 11.1 -2.75" fill="#a36a6a" fill-rule="evenodd" stroke="none"/>
  </g>
</svg>
