<?xml version="1.0" encoding="UTF-8" standalone="no"?>
<svg xmlns:ffdec="https://www.free-decompiler.com/flash" xmlns:xlink="http://www.w3.org/1999/xlink" ffdec:objectType="shape" height="14.25px" width="22.6px" xmlns="http://www.w3.org/2000/svg">
  <g transform="matrix(1.0, 0.0, 0.0, 1.0, 9.1, 4.65)">
    <path d="M-3.75 6.95 L-3.8 6.95 -4.45 7.6 Q-5.35 8.1 -7.2 8.1 -8.5 8.1 -8.9 7.0 L-9.0 5.65 -8.95 5.45 Q-9.4 4.45 -8.6 1.1 -7.35 -3.4 -0.75 -4.6 L-0.6 -4.65 Q8.05 -4.85 9.55 2.15 L9.55 2.35 9.5 3.75 12.4 6.05 12.5 6.1 Q13.65 6.6 13.45 8.2 L13.3 8.65 12.95 8.85 13.0 8.85 12.5 8.85 9.2 7.95 9.1 7.95 8.95 8.0 8.3 8.4 8.3 8.45 8.05 8.65 7.8 8.9 Q4.1 10.5 1.25 8.35 5.4 10.2 7.65 7.85 L8.85 7.1 Q10.5 6.1 11.95 6.7 L8.45 4.0 8.55 2.25 Q7.5 -2.7 2.35 -3.65 -2.6 -2.4 -3.75 6.95" fill="#333333" fill-rule="evenodd" stroke="none"/>
    <path d="M1.25 8.35 L0.7 8.05 -0.75 7.3 1.35 7.35 5.3 6.65 Q6.6 6.2 7.5 5.6 L7.65 5.5 8.4 4.85 8.45 4.0 11.95 6.7 Q10.5 6.1 8.85 7.1 L7.65 7.85 Q5.4 10.2 1.25 8.35" fill="#666666" fill-rule="evenodd" stroke="none"/>
    <path d="M-0.75 7.3 L-3.75 6.95 Q-2.6 -2.4 2.35 -3.65 7.5 -2.7 8.55 2.25 L8.45 4.0 8.4 4.85 7.65 5.5 7.5 5.6 Q6.6 6.2 5.3 6.65 L1.35 7.35 -0.75 7.3" fill="url(#gradient0)" fill-rule="evenodd" stroke="none"/>
  </g>
  <defs>
    <radialGradient cx="0" cy="0" gradientTransform="matrix(0.0183, 4.0E-4, -4.0E-4, 0.0183, 5.0, -0.8)" gradientUnits="userSpaceOnUse" id="gradient0" r="819.2" spreadMethod="pad">
      <stop offset="0.13333333333333333" stop-color="#9f9f9f"/>
      <stop offset="0.47058823529411764" stop-color="#666666"/>
      <stop offset="0.9921568627450981" stop-color="#333333"/>
    </radialGradient>
  </defs>
</svg>
