<?xml version="1.0" encoding="UTF-8" standalone="no"?>
<svg xmlns:ffdec="https://www.free-decompiler.com/flash" xmlns:xlink="http://www.w3.org/1999/xlink" ffdec:objectType="shape" height="12.3px" width="12.3px" xmlns="http://www.w3.org/2000/svg">
  <g transform="matrix(1.0, 0.0, 0.0, 1.0, 6.15, 6.15)">
    <path d="M1.15 -1.15 Q1.6 -0.7 1.6 0.0 L1.6 0.1 1.15 1.15 Q0.7 1.6 0.05 1.6 L0.0 1.6 -1.15 1.15 -1.6 0.1 -1.6 0.0 Q-1.6 -0.7 -1.15 -1.15 L0.0 -1.6 0.05 -1.6 Q0.7 -1.6 1.15 -1.15" fill="#666666" fill-rule="evenodd" stroke="none"/>
    <path d="M1.95 -1.9 Q2.7 -1.15 2.7 0.0 L2.7 0.15 Q2.65 1.15 1.95 1.9 1.15 2.7 0.05 2.7 L0.0 2.7 Q-1.1 2.7 -1.9 1.9 -2.65 1.15 -2.7 0.15 L-2.7 0.0 Q-2.7 -1.15 -1.9 -1.9 -1.1 -2.7 0.0 -2.7 L0.05 -2.7 Q1.15 -2.7 1.95 -1.9 M1.15 -1.15 Q0.7 -1.6 0.05 -1.6 L0.0 -1.6 -1.15 -1.15 Q-1.6 -0.7 -1.6 0.0 L-1.6 0.1 -1.15 1.15 0.0 1.6 0.05 1.6 Q0.7 1.6 1.15 1.15 L1.6 0.1 1.6 0.0 Q1.6 -0.7 1.15 -1.15" fill="#cccccc" fill-rule="evenodd" stroke="none"/>
    <path d="M0.05 -5.15 L0.0 -5.15 Q-2.15 -5.15 -3.65 -3.65 -5.15 -2.15 -5.15 0.0 L-5.15 0.15 -3.7 0.15 -3.7 0.0 Q-3.7 -1.55 -2.6 -2.6 L-2.55 -2.6 Q-1.5 -3.7 0.0 -3.7 L0.05 -3.7 0.05 -5.15 M0.05 -6.15 Q2.55 -6.15 4.35 -4.35 6.15 -2.55 6.15 0.0 L6.15 0.15 Q6.1 2.6 4.35 4.35 2.55 6.15 0.05 6.15 L0.0 6.15 Q-2.55 6.15 -4.35 4.35 -6.1 2.6 -6.15 0.15 L-6.15 0.0 Q-6.15 -2.55 -4.35 -4.35 -2.55 -6.15 0.0 -6.15 L0.05 -6.15 M1.95 -1.9 Q1.15 -2.7 0.05 -2.7 L0.0 -2.7 Q-1.1 -2.7 -1.9 -1.9 -2.7 -1.15 -2.7 0.0 L-2.7 0.15 Q-2.65 1.15 -1.9 1.9 -1.1 2.7 0.0 2.7 L0.05 2.7 Q1.15 2.7 1.95 1.9 2.65 1.15 2.7 0.15 L2.7 0.0 Q2.7 -1.15 1.95 -1.9" fill="#333333" fill-rule="evenodd" stroke="none"/>
    <path d="M0.05 -5.15 L0.05 -3.7 0.0 -3.7 Q-1.5 -3.7 -2.55 -2.6 L-2.6 -2.6 Q-3.7 -1.55 -3.7 0.0 L-3.7 0.15 -5.15 0.15 -5.15 0.0 Q-5.15 -2.15 -3.65 -3.65 -2.15 -5.15 0.0 -5.15 L0.05 -5.15" fill="#999999" fill-rule="evenodd" stroke="none"/>
  </g>
</svg>
