<?xml version="1.0" encoding="UTF-8" standalone="no"?>
<svg xmlns:ffdec="https://www.free-decompiler.com/flash" xmlns:xlink="http://www.w3.org/1999/xlink" ffdec:objectType="shape" height="7.8px" width="13.45px" xmlns="http://www.w3.org/2000/svg">
  <g transform="matrix(1.0, 0.0, 0.0, 1.0, 6.75, 3.9)">
    <path d="M6.65 -0.2 L6.7 0.15 6.1 2.05 6.1 2.3 5.65 3.6 5.4 3.85 5.0 3.9 -6.4 0.5 -6.7 0.25 -6.7 -0.15 -5.65 -3.55 -5.4 -3.85 -5.05 -3.85 6.35 -0.45 6.65 -0.2" fill="#666666" fill-rule="evenodd" stroke="none"/>
    <path d="M-5.6 -2.0 L-4.25 -1.6 -0.75 -0.3 2.75 0.9 Q4.85 1.65 5.55 2.1 L5.6 2.1 5.3 2.95 -0.3 1.05 -5.9 -1.05 -5.6 -2.0" fill="#999999" fill-rule="evenodd" stroke="none"/>
    <path d="M5.55 2.1 Q4.85 1.65 2.75 0.9 L-0.75 -0.3 -4.25 -1.6 -5.6 -2.0 -5.2 -3.4 6.2 0.0 5.55 2.1 M-5.9 -1.05 L-0.3 1.05 5.3 2.95 5.15 3.4 -6.25 0.0 -5.9 -1.05" fill="#cccccc" fill-rule="evenodd" stroke="none"/>
  </g>
</svg>
