<?xml version="1.0" encoding="UTF-8" standalone="no"?>
<svg xmlns:ffdec="https://www.free-decompiler.com/flash" xmlns:xlink="http://www.w3.org/1999/xlink" ffdec:objectType="shape" height="19.85px" width="8.25px" xmlns="http://www.w3.org/2000/svg">
  <g transform="matrix(1.0, 0.0, 0.0, 1.0, 4.15, 9.95)">
    <path d="M0.9 9.25 L-0.95 9.25 -0.95 1.85 0.9 1.85 0.9 9.25" fill="#333333" fill-rule="evenodd" stroke="none"/>
    <path d="M1.85 -0.85 L2.45 -1.95 -2.45 -1.95 -1.85 -0.85 1.85 -0.85 M0.15 -7.4 L-0.15 -7.4 -2.4 -3.1 2.4 -3.1 0.15 -7.4 M4.1 -2.55 L0.0 5.25 -4.15 -2.55 -0.25 -9.95 0.2 -9.95 4.1 -2.55 M1.0 0.8 L1.4 0.0 -1.4 0.0 -1.0 0.8 1.0 0.8 M0.0 2.7 L0.65 1.5 -0.6 1.5 0.0 2.7" fill="#333333" fill-rule="evenodd" stroke="none"/>
    <path d="M1.85 -0.85 L-1.85 -0.85 -2.45 -1.95 2.45 -1.95 1.85 -0.85 M0.15 -7.4 L2.4 -3.1 -2.4 -3.1 -0.15 -7.4 0.15 -7.4 M0.0 2.7 L-0.6 1.5 0.65 1.5 0.0 2.7 M1.0 0.8 L-1.0 0.8 -1.4 0.0 1.4 0.0 1.0 0.8" fill="#ffff00" fill-rule="evenodd" stroke="none"/>
    <path d="M2.8 9.9 L-2.75 9.9 -2.75 6.8 2.8 6.8 2.8 9.9" fill="#333333" fill-rule="evenodd" stroke="none"/>
  </g>
</svg>
