<?xml version="1.0" encoding="UTF-8" standalone="no"?>
<svg xmlns:ffdec="https://www.free-decompiler.com/flash" xmlns:xlink="http://www.w3.org/1999/xlink" ffdec:objectType="shape" height="16.5px" width="22.75px" xmlns="http://www.w3.org/2000/svg">
  <g transform="matrix(1.0, 0.0, 0.0, 1.0, 14.0, 9.0)">
    <path d="M-4.25 7.0 L-4.0 7.4 -3.9 7.5 -3.95 7.5 -4.25 7.0" fill="#6d4723" fill-rule="evenodd" stroke="none"/>
    <path d="M-10.9 -2.5 L-9.25 -1.9 Q-7.25 -1.15 -5.95 -0.9 L-5.65 -0.9 -6.65 -2.75 -6.95 -3.3 -4.8 -2.65 -1.2 -1.45 -0.9 -1.45 Q-1.05 -2.0 -2.35 -4.0 L-1.6 -3.75 Q-0.6 -3.25 1.25 -2.7 L3.55 -1.7 3.65 -2.9 Q3.7 -3.7 3.25 -4.65 4.7 -3.35 5.4 -2.05 L6.15 -2.6 Q6.65 -3.0 6.9 -3.7 L7.05 -1.8 Q7.9 -2.0 8.5 -2.5 L8.55 -2.0 Q8.6 -0.7 7.65 0.35 L7.1 -0.75 5.55 0.4 5.15 0.2 4.55 0.8 4.05 0.55 3.6 0.7 2.0 0.25 1.35 0.95 1.35 -0.35 0.95 0.25 -0.05 0.45 -0.6 1.15 -1.15 1.15 -1.4 1.55 -1.95 1.45 -2.7 2.85 -2.3 2.6 Q-2.05 2.75 -1.85 2.85 L-1.9 3.35 -2.25 3.8 -2.25 4.7 Q-2.3 6.0 -3.0 7.05 L-4.45 5.5 -6.15 5.75 -6.35 6.85 -7.1 5.6 Q-8.05 3.8 -8.35 1.8 L-8.35 1.55 -8.4 1.15 -8.4 1.05 -8.45 0.55 -8.5 0.3 -8.5 0.2 -8.75 0.05 -9.15 -0.25 Q-10.55 -1.2 -11.6 -2.45 L-10.9 -2.5" fill="#e0cbcb" fill-rule="evenodd" stroke="none"/>
    <path d="M-10.9 -2.5 L-9.05 -2.7 Q-11.65 -3.9 -14.0 -5.6 L-6.15 -5.8 -8.8 -8.05 -1.65 -7.55 -2.75 -9.0 -1.15 -8.9 Q1.65 -8.7 4.2 -7.15 L3.85 -8.35 4.1 -8.75 7.2 -5.8 8.75 -6.3 8.4 -4.7 8.15 -3.9 8.45 -2.75 8.5 -2.5 Q7.9 -2.0 7.05 -1.8 L6.9 -3.7 Q6.65 -3.0 6.15 -2.6 L5.4 -2.05 Q4.7 -3.35 3.25 -4.65 3.7 -3.7 3.65 -2.9 L3.55 -1.7 1.25 -2.7 Q-0.6 -3.25 -1.6 -3.75 L-2.35 -4.0 Q-1.05 -2.0 -0.9 -1.45 L-1.2 -1.45 -4.8 -2.65 -6.95 -3.3 -6.65 -2.75 -5.65 -0.9 -5.95 -0.9 Q-7.25 -1.15 -9.25 -1.9 L-10.9 -2.5 M-8.4 1.15 L-8.5 0.3 -8.45 0.55 -8.4 1.05 -8.4 1.15" fill="#f2eaea" fill-rule="evenodd" stroke="none"/>
  </g>
</svg>
