<?xml version="1.0" encoding="UTF-8" standalone="no"?>
<svg xmlns:ffdec="https://www.free-decompiler.com/flash" xmlns:xlink="http://www.w3.org/1999/xlink" ffdec:objectType="shape" height="14.85px" width="19.7px" xmlns="http://www.w3.org/2000/svg">
  <g transform="matrix(1.0, 0.0, 0.0, 1.0, 8.6, 7.35)">
    <path d="M-4.25 7.0 L-4.0 7.4 -3.9 7.5 -3.95 7.5 -4.25 7.0" fill="#6d4723" fill-rule="evenodd" stroke="none"/>
    <path d="M5.7 -6.65 L6.75 -6.55 4.95 -5.55 5.05 -5.55 3.0 -5.05 2.7 -5.1 Q2.75 -5.45 4.55 -6.2 L5.7 -6.65 M9.95 -5.25 L10.45 -5.15 Q8.9 -4.75 8.1 -3.6 L6.0 -3.3 5.5 -3.35 5.45 -3.5 9.95 -5.25 M9.4 -3.0 L10.2 -2.95 11.1 -2.85 10.4 -2.45 5.7 -0.9 2.75 -1.05 Q-0.15 -2.05 -1.5 0.75 L-1.9 1.85 -1.9 1.95 -1.95 2.05 -2.05 3.8 -1.95 6.05 -2.5 6.6 Q-3.25 6.55 -3.5 5.4 L-3.95 4.6 Q-4.55 4.05 -5.3 4.35 -6.0 4.8 -6.15 5.7 L-6.3 6.65 -6.35 6.7 -6.7 6.5 -7.4 6.05 -8.0 5.2 -8.4 3.1 -8.5 2.6 -8.55 2.15 -8.55 1.9 -8.55 1.8 -8.55 1.7 -8.3 -0.65 -8.05 -1.45 -8.0 -1.4 -7.95 -1.65 -7.5 -2.7 -7.4 -2.55 -7.4 -2.35 -7.55 -0.55 -7.35 1.2 -6.65 -0.2 -6.05 -0.95 Q-5.8 -0.95 -5.8 -0.05 L-5.8 1.3 -5.8 1.35 Q-5.15 0.6 -4.85 0.6 L-4.2 0.9 -3.35 0.5 Q-3.05 0.5 -3.0 0.9 L-2.8 1.3 -1.9 -0.85 -1.1 -2.05 Q-0.3 -2.7 1.8 -2.7 L4.7 -2.25 6.6 -2.25 9.4 -3.0" fill="#e0cbcb" fill-rule="evenodd" stroke="none"/>
    <path d="M-8.3 -0.65 L-7.5 -2.75 -7.4 -2.85 -8.25 -3.9 -8.6 -4.35 -7.85 -4.3 -6.0 -4.7 -6.85 -6.7 -5.1 -6.1 -3.9 -5.6 0.4 -7.0 1.6 -7.35 0.6 -6.45 5.4 -6.7 5.7 -6.65 4.55 -6.2 Q2.75 -5.45 2.7 -5.1 L3.0 -5.05 5.05 -5.55 7.1 -5.45 9.95 -5.25 5.45 -3.5 5.5 -3.35 6.0 -3.3 8.1 -3.6 7.9 -3.35 Q7.85 -3.1 9.2 -3.05 L9.4 -3.0 6.6 -2.25 4.7 -2.25 1.8 -2.7 Q-0.3 -2.7 -1.1 -2.05 L-1.9 -0.85 -2.8 1.3 -3.0 0.9 Q-3.05 0.5 -3.35 0.5 L-4.2 0.9 -4.85 0.6 Q-5.15 0.6 -5.8 1.35 L-5.8 1.3 -5.8 -0.05 Q-5.8 -0.95 -6.05 -0.95 L-6.65 -0.2 -7.35 1.2 -7.55 -0.55 -7.4 -2.35 -7.4 -2.55 -7.5 -2.7 -7.95 -1.65 -8.0 -1.4 -8.05 -1.45 -8.3 -0.65" fill="#f2eaea" fill-rule="evenodd" stroke="none"/>
  </g>
</svg>
