<?xml version="1.0" encoding="UTF-8" standalone="no"?>
<svg xmlns:ffdec="https://www.free-decompiler.com/flash" xmlns:xlink="http://www.w3.org/1999/xlink" ffdec:objectType="shape" height="14.5px" width="20.1px" xmlns="http://www.w3.org/2000/svg">
  <g transform="matrix(1.0, 0.0, 0.0, 1.0, 9.85, 7.45)">
    <path d="M5.5 -7.05 L5.6 -6.9 5.75 -6.4 5.9 -5.8 6.3 -5.4 6.6 -5.05 6.3 -4.65 5.85 -4.25 6.5 -3.95 6.85 -3.7 Q6.85 -3.5 6.3 -3.5 L5.35 -3.25 4.85 -2.75 4.7 -3.55 4.25 -5.15 Q4.0 -5.95 3.35 -6.2 L2.8 -6.45 2.7 -6.5 Q1.35 -6.05 0.5 -5.2 -0.45 -4.25 -0.5 -3.15 L-0.55 -3.1 -0.65 -3.3 Q-0.65 -4.8 0.6 -5.95 1.3 -6.6 2.1 -6.85 L2.25 -6.8 2.45 -6.7 Q3.5 -7.6 5.5 -7.05 M-9.15 3.5 L-9.05 3.5 -9.15 2.15 -9.3 0.05 Q-9.3 -1.25 -8.4 -2.45 L-8.6 -1.65 -8.45 -2.15 -8.05 -2.55 Q-8.5 -1.95 -8.6 -1.0 L-8.65 0.75 -8.65 1.55 -8.45 3.35 -7.9 3.3 -8.1 2.2 -7.7 -0.15 -7.65 -0.05 -7.8 1.05 -7.4 3.25 -6.95 3.3 -6.6 3.15 -6.45 3.0 -6.55 3.1 -6.65 2.4 -6.0 -1.7 -5.9 -1.05 -6.1 1.6 -5.95 3.0 -5.85 3.05 -5.6 3.25 -5.15 3.1 Q-4.95 3.1 -4.85 3.25 L-4.95 3.15 -4.95 2.4 Q-4.95 0.05 -4.45 -0.35 L-4.4 -0.2 -4.5 0.75 -4.3 3.3 -4.05 3.2 -3.75 3.35 -3.55 3.5 -2.9 3.3 Q-2.7 3.3 -2.5 3.45 L-2.25 4.4 -2.15 6.35 -3.35 6.6 Q-3.4 5.5 -3.7 5.1 L-4.35 4.45 Q-4.7 4.2 -5.15 4.25 -5.65 4.25 -5.95 4.9 -6.35 5.5 -6.35 6.05 L-6.1 7.0 Q-6.75 7.2 -7.5 6.3 -8.25 5.5 -8.55 4.4 L-8.65 4.0 -8.75 3.5 -8.8 3.5 -9.15 3.5 M-1.1 3.4 L-0.7 -0.25 -0.6 -0.25 -0.6 3.25 -1.1 3.4 M1.5 -0.65 L1.6 -1.2 1.7 -1.4 Q1.95 -2.15 2.65 -2.9 L3.3 -2.9 Q3.65 -2.7 3.85 -1.8 L3.95 -1.45 4.15 -1.1 1.5 -0.65 M4.4 -1.2 L4.45 -1.4 4.45 -1.45 Q4.55 -2.0 4.95 -2.35 5.4 -2.75 6.1 -2.75 8.35 -2.75 8.35 2.9 L8.3 3.9 8.0 3.85 7.7 3.6 7.5 2.9 7.45 2.35 7.4 1.45 7.2 0.2 6.95 -0.7 Q6.8 -1.1 5.85 -1.2 L4.4 -1.05 4.4 -1.2" fill="#e0cbcb" fill-rule="evenodd" stroke="none"/>
    <path d="M5.5 -7.05 L5.85 -6.95 7.7 -5.6 Q9.05 -4.15 9.4 -3.1 L10.05 -0.65 10.2 1.85 10.05 3.0 Q9.85 3.95 8.8 3.95 L8.0 3.85 8.3 3.9 8.35 2.9 Q8.35 -2.75 6.1 -2.75 5.4 -2.75 4.95 -2.35 4.55 -2.0 4.45 -1.45 L4.45 -1.4 4.4 -1.2 4.35 -1.15 4.15 -1.1 3.95 -1.45 3.85 -1.8 Q3.65 -2.7 3.3 -2.9 L2.65 -2.9 Q1.95 -2.15 1.7 -1.4 L1.6 -1.2 1.5 -0.65 1.4 0.5 1.4 2.45 Q1.4 3.75 1.05 3.75 L0.55 3.45 0.1 3.55 -0.6 3.25 -0.6 -0.25 -0.7 -0.25 -1.1 3.4 -1.65 3.55 -2.15 3.45 Q-2.2 3.3 -2.5 3.3 L-2.55 3.3 -2.55 3.4 -2.5 3.45 Q-2.7 3.3 -2.9 3.3 L-3.55 3.5 -3.75 3.35 -4.05 3.2 -4.3 3.3 -4.5 0.75 -4.4 -0.2 -4.45 -0.35 Q-4.95 0.05 -4.95 2.4 L-4.95 3.15 -4.85 3.25 Q-4.95 3.1 -5.15 3.1 L-5.6 3.25 -5.85 3.05 -5.95 3.0 -6.1 1.6 -5.9 -1.05 -6.0 -1.7 -6.65 2.4 -6.55 3.1 -6.45 3.0 -6.6 3.15 -6.95 3.3 -7.4 3.25 -7.8 1.05 -7.65 -0.05 -7.7 -0.15 -8.1 2.2 -7.9 3.3 -8.45 3.35 -8.65 1.55 -8.65 0.75 -8.6 -1.0 Q-8.5 -1.95 -8.05 -2.55 L-8.45 -2.15 -8.6 -1.65 -8.4 -2.45 Q-9.3 -1.25 -9.3 0.05 L-9.15 2.15 -9.05 3.5 -9.15 3.5 -9.7 3.35 -9.85 2.15 -9.85 0.9 -9.8 -1.1 -8.75 -3.55 Q-7.8 -5.05 -6.85 -5.7 L-5.45 -6.7 -2.25 -7.45 -0.35 -7.45 2.1 -6.85 Q1.3 -6.6 0.6 -5.95 -0.65 -4.8 -0.65 -3.3 L-0.55 -3.1 -0.5 -3.15 Q-0.45 -4.25 0.5 -5.2 1.35 -6.05 2.7 -6.5 L2.8 -6.45 3.35 -6.2 Q4.0 -5.95 4.25 -5.15 L4.7 -3.55 4.85 -2.75 5.35 -3.25 6.3 -3.5 Q6.85 -3.5 6.85 -3.7 L6.5 -3.95 5.85 -4.25 6.3 -4.65 6.6 -5.05 6.3 -5.4 5.9 -5.8 5.75 -6.4 5.6 -6.9 5.5 -7.05" fill="#f2eaea" fill-rule="evenodd" stroke="none"/>
  </g>
</svg>
