<?xml version="1.0" encoding="UTF-8" standalone="no"?>
<svg xmlns:ffdec="https://www.free-decompiler.com/flash" xmlns:xlink="http://www.w3.org/1999/xlink" ffdec:objectType="shape" height="14.85px" width="23.6px" xmlns="http://www.w3.org/2000/svg">
  <g transform="matrix(1.0, 0.0, 0.0, 1.0, 12.9, 7.8)">
    <path d="M3.35 -4.75 L3.15 -4.7 2.95 -4.75 2.95 -5.0 3.35 -5.0 3.35 -4.75 M5.05 -5.15 L5.65 -4.85 5.7 -4.8 5.25 -4.6 Q4.7 -4.6 4.7 -4.9 L5.05 -5.15 M1.8 -5.55 L1.65 -5.8 1.95 -6.05 2.3 -5.7 2.25 -5.55 1.8 -5.55 M1.5 -4.95 L1.25 -4.7 Q1.0 -4.7 1.0 -4.95 1.0 -5.2 1.45 -5.15 L1.5 -4.95 M10.5 -4.25 L10.7 -3.95 Q10.7 -3.8 8.3 -2.3 6.05 -0.85 5.55 -0.75 L4.3 -0.55 3.3 -0.65 2.05 -0.75 Q-0.6 -0.75 -1.1 0.4 L-1.2 0.4 -2.15 1.05 -2.4 0.4 Q-2.45 -0.25 -2.7 -0.25 L-3.1 0.25 -3.4 0.75 Q-5.9 0.75 -5.95 0.25 -6.0 -0.3 -6.15 -0.3 -6.5 -0.3 -7.15 0.5 L-7.35 -1.25 Q-7.75 -1.75 -7.9 -1.25 L-8.25 -0.2 -8.5 -0.85 -9.05 -1.45 -9.1 -1.45 Q-9.55 -2.95 -10.85 -4.35 L-12.9 -6.6 Q-12.9 -6.9 -12.55 -6.85 -12.3 -6.85 -11.75 -6.5 L-11.6 -6.4 Q-10.05 -5.25 -9.45 -4.95 L-6.6 -4.15 -0.55 -3.5 5.85 -3.55 9.05 -3.85 9.45 -3.95 10.3 -4.3 10.5 -4.25 M6.75 -4.9 L7.45 -4.85 Q7.4 -4.5 7.0 -4.5 L6.75 -4.55 6.75 -4.9 M-0.65 -6.25 L-0.85 -6.05 -1.1 -6.25 Q-1.1 -6.45 -0.8 -6.45 -0.55 -6.45 -0.65 -6.25 M-3.5 -6.6 L-2.85 -6.65 Q-2.85 -6.35 -3.2 -6.35 -3.5 -6.35 -3.5 -6.6 M-5.5 -6.4 Q-5.5 -6.15 -5.8 -6.15 L-6.05 -6.4 -5.75 -6.6 -5.5 -6.4 M-9.7 -6.75 Q-9.45 -6.75 -9.45 -6.55 L-9.5 -6.35 -9.7 -6.3 -9.95 -6.35 -10.0 -6.55 Q-10.0 -6.75 -9.7 -6.75 M-6.05 -5.45 Q-6.05 -5.2 -6.3 -5.2 -6.65 -5.2 -6.65 -5.65 -6.05 -5.7 -6.05 -5.45 M-8.15 -6.0 L-7.9 -6.2 Q-7.65 -6.2 -7.65 -6.0 -7.65 -5.7 -7.9 -5.7 L-8.15 -6.0 M-1.05 -4.7 Q-1.05 -4.95 -0.6 -4.9 L-0.55 -4.7 Q-0.55 -4.45 -0.8 -4.45 L-1.05 -4.7 M-4.6 -5.35 L-4.75 -5.3 -4.8 -5.35 -4.8 -5.5 -4.7 -5.5 -4.6 -5.35 M-2.6 -5.2 Q-2.25 -5.2 -2.25 -4.95 -2.25 -4.6 -2.6 -4.6 -2.95 -4.6 -2.95 -4.95 -2.95 -5.2 -2.6 -5.2" fill="#e0cbcb" fill-rule="evenodd" stroke="none"/>
    <path d="M1.5 -4.95 L1.45 -5.15 Q1.0 -5.2 1.0 -4.95 1.0 -4.7 1.25 -4.7 L1.5 -4.95 M1.8 -5.55 L2.25 -5.55 2.3 -5.7 1.95 -6.05 1.65 -5.8 1.8 -5.55 M5.05 -5.15 L4.7 -4.9 Q4.7 -4.6 5.25 -4.6 L5.7 -4.8 5.65 -4.85 5.05 -5.15 M3.35 -4.75 L3.35 -5.0 2.95 -5.0 2.95 -4.75 3.15 -4.7 3.35 -4.75 M-1.1 0.4 L-1.2 0.95 Q-1.1 2.1 -1.45 3.05 L-2.0 4.05 -2.45 4.95 -2.35 6.0 Q-2.4 6.85 -3.25 6.85 -4.2 6.85 -4.3 6.55 L-4.45 5.2 Q-4.5 3.65 -5.6 3.65 -6.65 3.65 -7.0 5.45 L-6.95 6.2 -6.85 6.4 -6.9 6.75 -7.15 6.8 -7.25 6.9 -7.5 7.05 Q-8.45 7.05 -8.85 4.8 L-9.05 2.45 -8.85 0.15 -8.85 -0.15 -9.0 -1.15 -9.05 -1.3 -9.1 -1.45 -9.05 -1.45 -8.5 -0.85 -8.25 -0.2 -7.9 -1.25 Q-7.75 -1.75 -7.35 -1.25 L-7.15 0.5 Q-6.5 -0.3 -6.15 -0.3 -6.0 -0.3 -5.95 0.25 -5.9 0.75 -3.4 0.75 L-3.1 0.25 -2.7 -0.25 Q-2.45 -0.25 -2.4 0.4 L-2.15 1.05 -1.2 0.4 -1.1 0.4 M-12.55 -6.85 L-10.5 -7.35 -6.15 -7.8 -1.85 -7.8 Q3.3 -7.35 6.25 -6.35 10.0 -4.9 10.5 -4.25 L10.3 -4.3 9.45 -3.95 9.05 -3.85 5.85 -3.55 -0.55 -3.5 -6.6 -4.15 -9.45 -4.95 Q-10.05 -5.25 -11.6 -6.4 L-11.75 -6.5 Q-12.3 -6.85 -12.55 -6.85 M-8.15 -6.0 L-7.9 -5.7 Q-7.65 -5.7 -7.65 -6.0 -7.65 -6.2 -7.9 -6.2 L-8.15 -6.0 M-6.05 -5.45 Q-6.05 -5.7 -6.65 -5.65 -6.65 -5.2 -6.3 -5.2 -6.05 -5.2 -6.05 -5.45 M-9.7 -6.75 Q-10.0 -6.75 -10.0 -6.55 L-9.95 -6.35 -9.7 -6.3 -9.5 -6.35 -9.45 -6.55 Q-9.45 -6.75 -9.7 -6.75 M-5.5 -6.4 L-5.75 -6.6 -6.05 -6.4 -5.8 -6.15 Q-5.5 -6.15 -5.5 -6.4 M-3.5 -6.6 Q-3.5 -6.35 -3.2 -6.35 -2.85 -6.35 -2.85 -6.65 L-3.5 -6.6 M-0.65 -6.25 Q-0.55 -6.45 -0.8 -6.45 -1.1 -6.45 -1.1 -6.25 L-0.85 -6.05 -0.65 -6.25 M6.75 -4.9 L6.75 -4.55 7.0 -4.5 Q7.4 -4.5 7.45 -4.85 L6.75 -4.9 M-2.6 -5.2 Q-2.95 -5.2 -2.95 -4.95 -2.95 -4.6 -2.6 -4.6 -2.25 -4.6 -2.25 -4.95 -2.25 -5.2 -2.6 -5.2 M-4.6 -5.35 L-4.7 -5.5 -4.8 -5.5 -4.8 -5.35 -4.75 -5.3 -4.6 -5.35 M-1.05 -4.7 L-0.8 -4.45 Q-0.55 -4.45 -0.55 -4.7 L-0.6 -4.9 Q-1.05 -4.95 -1.05 -4.7" fill="#f2eaea" fill-rule="evenodd" stroke="none"/>
  </g>
</svg>
